%TF.GenerationSoftware,KiCad,Pcbnew,7.0.1*%
%TF.CreationDate,2023-08-25T16:25:03-05:00*%
%TF.ProjectId,BSidesKC23_Speaker,42536964-6573-44b4-9332-335f53706561,1.1*%
%TF.SameCoordinates,Original*%
%TF.FileFunction,Profile,NP*%
%FSLAX46Y46*%
G04 Gerber Fmt 4.6, Leading zero omitted, Abs format (unit mm)*
G04 Created by KiCad (PCBNEW 7.0.1) date 2023-08-25 16:25:03*
%MOMM*%
%LPD*%
G01*
G04 APERTURE LIST*
%TA.AperFunction,Profile*%
%ADD10C,0.100000*%
%TD*%
G04 APERTURE END LIST*
D10*
X118496000Y-172619500D02*
X118639000Y-172441500D01*
X104811000Y-133505500D02*
X103909000Y-133331500D01*
X114317000Y-128825200D02*
X115051000Y-128239000D01*
X121703000Y-167489500D02*
X122019000Y-166776500D01*
X106865000Y-134041500D02*
X107700000Y-134290000D01*
X81330000Y-173100000D02*
X81680000Y-173480000D01*
X120932000Y-40440440D02*
X120520000Y-39969510D01*
X112778000Y-129909000D02*
X113559000Y-129382200D01*
X82581000Y-140098500D02*
X82139000Y-140553500D01*
X84613000Y-176232500D02*
X85204000Y-176691500D01*
X73558700Y-153001500D02*
X73349400Y-153185500D01*
X77791000Y-42579600D02*
X77522600Y-43127400D01*
X119457000Y-123387600D02*
X119971000Y-122598000D01*
X127110000Y-106294400D02*
X126981000Y-106122200D01*
X115752000Y-175477500D02*
X115796000Y-175437500D01*
X87059000Y-177960500D02*
X87331000Y-178126500D01*
X73205100Y-160234500D02*
X73349400Y-160392500D01*
X122312000Y-166053500D02*
X122581000Y-165321500D01*
X91336000Y-131943500D02*
X92220000Y-132279500D01*
X92517000Y-180452500D02*
X93296000Y-180681500D01*
X78791000Y-169464500D02*
X79177000Y-170106500D01*
X83598000Y-126835800D02*
X84269000Y-127477100D01*
X77755900Y-167474500D02*
X78240600Y-168462500D01*
X127448000Y-107095100D02*
X127393000Y-106880600D01*
X73205100Y-106122200D02*
X73076200Y-106294400D01*
X116713000Y-139955500D02*
X115980000Y-139261500D01*
X73349400Y-153185500D02*
X73205100Y-153344500D01*
X72793400Y-112253700D02*
X72869100Y-112459400D01*
X82930000Y-174748500D02*
X83476000Y-175259500D01*
X91747000Y-180196500D02*
X92517000Y-180452500D01*
X127483000Y-111817400D02*
X127494000Y-111589100D01*
X123421000Y-106204400D02*
X123421000Y-60092000D01*
X114050000Y-176852500D02*
X114373000Y-176610500D01*
X94797000Y-33978270D02*
X93681000Y-34138560D01*
X124983000Y-105317900D02*
X124761000Y-105352100D01*
X127393000Y-154102500D02*
X127317000Y-153896500D01*
X80996000Y-38720520D02*
X80503000Y-39114180D01*
X78773000Y-169433500D02*
X78791000Y-169464500D01*
X99734000Y-181554500D02*
X100861000Y-181528500D01*
X123541000Y-161680500D02*
X123642000Y-161083500D01*
X121508000Y-146643500D02*
X121510000Y-146643500D01*
X81742000Y-124759800D02*
X82333000Y-125476400D01*
X74480500Y-105352100D02*
X74266100Y-105407600D01*
X72793400Y-154102500D02*
X72737900Y-154316500D01*
X127483000Y-154539500D02*
X127448000Y-154317500D01*
X106620000Y-34270850D02*
X105410000Y-34090890D01*
X123369000Y-112677900D02*
X123369000Y-112677800D01*
X74974600Y-105306300D02*
X74930700Y-105306300D01*
X92393000Y-134099500D02*
X91538000Y-134389500D01*
X122005000Y-41962300D02*
X121675000Y-41440410D01*
X72963800Y-112655100D02*
X73076200Y-112839700D01*
X115928000Y-37001730D02*
X114813000Y-36529550D01*
X79668000Y-121667100D02*
X80141000Y-122472600D01*
X72692100Y-111589100D02*
X72703700Y-111817400D01*
X123961000Y-105690400D02*
X123788000Y-105819300D01*
X115219000Y-138596500D02*
X114430000Y-137964500D01*
X127223000Y-159877500D02*
X127317000Y-159681500D01*
X105708000Y-133714500D02*
X105706000Y-133714500D01*
X98915000Y-181540500D02*
X99734000Y-181554500D01*
X89047000Y-135447500D02*
X88244000Y-135862500D01*
X124547000Y-105407600D02*
X124341000Y-105483300D01*
X119788000Y-170882500D02*
X120215000Y-170229500D01*
X75202900Y-105317900D02*
X74974600Y-105306300D01*
X127393000Y-112253800D02*
X127448000Y-112039300D01*
X85068000Y-36611230D02*
X84047000Y-37061590D01*
X122626000Y-165195500D02*
X122626000Y-165194500D01*
X103909000Y-133331500D02*
X104870000Y-133153500D01*
X72737900Y-112039300D02*
X72793400Y-112253700D01*
X72963800Y-106479000D02*
X72869100Y-106674800D01*
X72737900Y-154316500D02*
X72703700Y-154539500D01*
X122574000Y-43030300D02*
X122305000Y-42493400D01*
X76749200Y-149558500D02*
X76530400Y-150252500D01*
X98099000Y-181499500D02*
X98915000Y-181540500D01*
X126628000Y-153001500D02*
X126628000Y-113354900D01*
X75845000Y-105483300D02*
X75639300Y-105407600D01*
X81140000Y-172870000D02*
X81330000Y-173100000D01*
X81887000Y-173676500D02*
X82401000Y-174220500D01*
X73076200Y-112839700D02*
X73205100Y-113011800D01*
X108851000Y-179774500D02*
X109458000Y-179516500D01*
X106350000Y-180635500D02*
X106985000Y-180445500D01*
X76927300Y-165443500D02*
X77318000Y-166467500D01*
X76288700Y-163345500D02*
X76584100Y-164402500D01*
X119342000Y-143021500D02*
X118733000Y-142214500D01*
X72963700Y-159877500D02*
X73076100Y-160062500D01*
X103106000Y-181319500D02*
X104218000Y-181136500D01*
X78818000Y-119996500D02*
X79227000Y-120841500D01*
X82333000Y-125476400D02*
X82952000Y-126168700D01*
X119622000Y-39105640D02*
X119137000Y-38720640D01*
X118090000Y-141433500D02*
X117417000Y-140680500D01*
X109458000Y-179516500D02*
X110059000Y-179242500D01*
X109017000Y-34734980D02*
X107823000Y-34485360D01*
X100861000Y-181528500D02*
X101986000Y-181449500D01*
X73680100Y-105690400D02*
X73508000Y-105819300D01*
X108640000Y-134670000D02*
X109350000Y-134940000D01*
X77250800Y-148188500D02*
X76989300Y-148870500D01*
X126678000Y-105819300D02*
X126506000Y-105690400D01*
X123369000Y-112677800D02*
X123486000Y-112830600D01*
X125255000Y-105306300D02*
X125212000Y-105306300D01*
X120520000Y-39969510D02*
X120083000Y-39523250D01*
X76333000Y-150951500D02*
X76333000Y-113156800D01*
X104405000Y-181100500D02*
X104406000Y-181100500D01*
X97042000Y-33762390D02*
X95918000Y-33852710D01*
X123421000Y-45731600D02*
X123421000Y-45704200D01*
X88039000Y-178534500D02*
X88759000Y-178917500D01*
X90376000Y-34822840D02*
X89291000Y-35117070D01*
X74266000Y-160948500D02*
X74480500Y-161004500D01*
X77522600Y-43127400D02*
X77287700Y-43676700D01*
X127393000Y-106880600D02*
X127317000Y-106674800D01*
X87196000Y-129766000D02*
X87984000Y-130265000D01*
X121510000Y-146643500D02*
X121509000Y-146642500D01*
X122626000Y-165193500D02*
X122816000Y-164617500D01*
X111976000Y-130404800D02*
X112778000Y-129909000D01*
X122816000Y-164617500D02*
X122991000Y-164036500D01*
X119787000Y-170884500D02*
X119788000Y-170882500D01*
X105708000Y-180807500D02*
X106350000Y-180635500D01*
X127483000Y-107317100D02*
X127448000Y-107095100D01*
X83041000Y-37541660D02*
X82052000Y-38050960D01*
X124404000Y-160898500D02*
X124596000Y-160963500D01*
X127317000Y-159681500D02*
X127393000Y-159475500D01*
X123505000Y-152705000D02*
X123555000Y-153130000D01*
X127448000Y-112039300D02*
X127483000Y-111817400D01*
X104219000Y-181136500D02*
X104405000Y-181100500D01*
X82952000Y-126168700D02*
X83598000Y-126835800D01*
X117203000Y-174081500D02*
X117865000Y-173362500D01*
X88217000Y-35443520D02*
X87155000Y-35801700D01*
X124795000Y-161011500D02*
X125001000Y-161040500D01*
X127110000Y-153516500D02*
X126981000Y-153344500D01*
X126322000Y-105578000D02*
X126126000Y-105483300D01*
X73864600Y-160778500D02*
X74060300Y-160873500D01*
X110059000Y-179242500D02*
X110653000Y-178950500D01*
X119203000Y-171707500D02*
X119735000Y-170960500D01*
X76225300Y-105690400D02*
X76040700Y-105578000D01*
X89490000Y-179275500D02*
X90233000Y-179608500D01*
X81711000Y-141017500D02*
X81296000Y-141491500D01*
X115796000Y-175437500D02*
X115797000Y-175437500D01*
X81513000Y-38364710D02*
X80996000Y-38720520D01*
X127483000Y-159039500D02*
X127494000Y-158811500D01*
X112777000Y-136799500D02*
X111913000Y-136268500D01*
X123417000Y-45676800D02*
X123320000Y-45164300D01*
X82401000Y-174220500D02*
X82930000Y-174748500D01*
X94135000Y-133617500D02*
X93259000Y-133841500D01*
X122626000Y-165194500D02*
X122626000Y-165193500D01*
X123085000Y-114624200D02*
X123247000Y-113657500D01*
X125705000Y-105352100D02*
X125483000Y-105317900D01*
X76686900Y-112813600D02*
X76816200Y-112641100D01*
X118912000Y-124154700D02*
X119457000Y-123387600D01*
X123788000Y-105819300D02*
X123630000Y-105963600D01*
X105817000Y-132935500D02*
X106749000Y-132681500D01*
X96478000Y-181334500D02*
X97287000Y-181430500D01*
X75424900Y-105352100D02*
X75202900Y-105317900D01*
X98170000Y-33707810D02*
X97042000Y-33762390D01*
X127448000Y-154317500D02*
X127393000Y-154102500D01*
X120966000Y-145590500D02*
X120460000Y-144710500D01*
X126837000Y-160392500D02*
X126981000Y-160234500D01*
X118102000Y-38064390D02*
X118101000Y-38063880D01*
X126126000Y-160873500D02*
X126321000Y-160778500D01*
X127494000Y-107545400D02*
X127483000Y-107317100D01*
X85204000Y-176691500D02*
X85808000Y-177133500D01*
X123727000Y-160483500D02*
X123881000Y-160608500D01*
X110653000Y-178950500D02*
X111238000Y-178642500D01*
X118733000Y-142214500D02*
X118090000Y-141433500D01*
X123881000Y-160608500D02*
X124045000Y-160720500D01*
X73864700Y-105578000D02*
X73680100Y-105690400D01*
X127317000Y-112459400D02*
X127393000Y-112253800D01*
X83035000Y-139653500D02*
X83035000Y-139654500D01*
X77794600Y-117354100D02*
X78101000Y-118252100D01*
X74980000Y-161055000D02*
X74680000Y-161030000D01*
X122055000Y-118343700D02*
X122368000Y-117437600D01*
X72869100Y-153896500D02*
X72793400Y-154102500D01*
X111375000Y-35341810D02*
X110202000Y-35020270D01*
X78765900Y-145070500D02*
X78459100Y-145618500D01*
X123555000Y-153130000D02*
X123830000Y-152930000D01*
X72869100Y-112459400D02*
X72963800Y-112655100D01*
X119971000Y-122598000D02*
X120454000Y-121786800D01*
X117417000Y-140680500D02*
X116713000Y-139955500D01*
X74060400Y-105483300D02*
X73864700Y-105578000D01*
X76707800Y-45838100D02*
X76707800Y-45861300D01*
X105060000Y-180962500D02*
X105708000Y-180807500D01*
X77287700Y-43676700D02*
X77087700Y-44223800D01*
X115051000Y-128239000D02*
X115761000Y-127624300D01*
X83035000Y-139654500D02*
X82581000Y-140098500D01*
X73349400Y-160392500D02*
X73507900Y-160537500D01*
X127494000Y-158811500D02*
X127494000Y-154767500D01*
X88793000Y-130733200D02*
X89622000Y-131169600D01*
X119736000Y-170959500D02*
X119787000Y-170885500D01*
X126506000Y-160666500D02*
X126678000Y-160537500D01*
X73205100Y-113011800D02*
X73349400Y-113170400D01*
X93120000Y-132581500D02*
X94037000Y-132846500D01*
X104218000Y-181136500D02*
X104219000Y-181136500D01*
X77318000Y-166467500D02*
X77755900Y-167474500D01*
X72692100Y-154767500D02*
X72692100Y-158810500D01*
X119735000Y-170960500D02*
X119736000Y-170959500D01*
X124341000Y-105483300D02*
X124145000Y-105578000D01*
X122195000Y-148195500D02*
X121866000Y-147415500D01*
X83037000Y-139651500D02*
X83035000Y-139653500D01*
X123151000Y-163452500D02*
X123296000Y-162865500D01*
X118630000Y-38372240D02*
X118102000Y-38064390D01*
X126837000Y-105963600D02*
X126678000Y-105819300D01*
X121003000Y-168883500D02*
X121365000Y-168192500D01*
X123830000Y-152930000D02*
X123826000Y-152803500D01*
X94968000Y-133074500D02*
X95914000Y-133265500D01*
X121675000Y-41440410D02*
X121317000Y-40932070D01*
X72692100Y-158810500D02*
X72703700Y-159039500D01*
X79227000Y-120841500D02*
X79668000Y-121667100D01*
X123320000Y-45164300D02*
X123186000Y-44639800D01*
X127110000Y-160062500D02*
X127223000Y-159877500D01*
X83476000Y-175259500D02*
X84037000Y-175754500D01*
X80007000Y-171351500D02*
X80390000Y-171890000D01*
X123224000Y-151395500D02*
X123010000Y-150584500D01*
X123486000Y-112830600D02*
X123616000Y-112972400D01*
X84469000Y-138390500D02*
X83768000Y-138983500D01*
X84037000Y-175754500D02*
X84613000Y-176232500D01*
X123630000Y-105963600D02*
X123421000Y-106204400D01*
X125920000Y-105407600D02*
X125705000Y-105352100D01*
X124145000Y-105578000D02*
X123961000Y-105690400D01*
X105410000Y-34090890D02*
X104194000Y-33944920D01*
X80894000Y-141974500D02*
X80506000Y-142467500D01*
X77887200Y-146738500D02*
X77622400Y-147311500D01*
X125001000Y-161040500D02*
X125212000Y-161050500D01*
X127223000Y-153700500D02*
X127110000Y-153516500D01*
X73076100Y-153516500D02*
X72963700Y-153700500D01*
X73076100Y-160062500D02*
X73205100Y-160234500D01*
X126678000Y-160537500D02*
X126837000Y-160392500D01*
X126981000Y-113011900D02*
X127110000Y-112839700D01*
X85686000Y-128678400D02*
X86430000Y-129236800D01*
X86430000Y-129236800D02*
X87196000Y-129766000D01*
X87456000Y-136308500D02*
X86683000Y-136784500D01*
X127223000Y-112655200D02*
X127317000Y-112459400D01*
X85189000Y-137825500D02*
X84469000Y-138390500D01*
X77289900Y-115511100D02*
X77523900Y-116440200D01*
X124596000Y-160963500D02*
X124795000Y-161011500D01*
X85808000Y-177133500D02*
X86427000Y-177556500D01*
X118101000Y-38063880D02*
X117024000Y-37512980D01*
X101751000Y-33752630D02*
X100526000Y-33705190D01*
X76040700Y-105578000D02*
X75845000Y-105483300D01*
X123410000Y-152214500D02*
X123224000Y-151395500D01*
X85928000Y-137289500D02*
X85189000Y-137825500D01*
X76935200Y-113610800D02*
X77093400Y-114567700D01*
X80503000Y-39114180D02*
X80034000Y-39541510D01*
X81680000Y-173480000D02*
X81887000Y-173676500D01*
X99300000Y-33689470D02*
X98170000Y-33707810D01*
X75797300Y-160891500D02*
X75580000Y-160980000D01*
X126837000Y-153185500D02*
X126628000Y-153001500D01*
X73508000Y-105819300D02*
X73349400Y-105963600D01*
X126126000Y-105483300D02*
X125920000Y-105407600D01*
X125255000Y-161050500D02*
X125483000Y-161038500D01*
X78101000Y-118252100D02*
X78442500Y-119133100D01*
X80720000Y-172340000D02*
X81140000Y-172870000D01*
X123826000Y-113156800D02*
X123826000Y-152803500D01*
X114430000Y-137964500D02*
X113616000Y-137364500D01*
X86105000Y-36191100D02*
X85068000Y-36611230D01*
X120905000Y-120955000D02*
X121322000Y-120103200D01*
X127494000Y-111589100D02*
X127494000Y-107545400D01*
X76555900Y-105963600D02*
X76397400Y-105819300D01*
X79087000Y-144532500D02*
X78765900Y-145070500D01*
X123410000Y-152214500D02*
X123505000Y-152705000D01*
X78091600Y-42037000D02*
X77791000Y-42579600D01*
X82139000Y-140553500D02*
X81711000Y-141017500D01*
X79177000Y-170106500D02*
X79582000Y-170735500D01*
X95918000Y-33852710D02*
X94797000Y-33978270D01*
X90470000Y-131573400D02*
X91336000Y-131943500D01*
X100526000Y-33705190D02*
X99300000Y-33689470D01*
X125705000Y-161004500D02*
X125920000Y-160948500D01*
X115072000Y-176056500D02*
X115752000Y-175477500D01*
X74480500Y-161004500D02*
X74680000Y-161030000D01*
X111238000Y-178642500D02*
X111817000Y-178317500D01*
X84047000Y-37061590D02*
X83041000Y-37541660D01*
X73558700Y-113354900D02*
X73558700Y-153001500D01*
X110202000Y-35020270D02*
X109017000Y-34734980D01*
X123296000Y-162865500D02*
X123426000Y-162274500D01*
X97287000Y-181430500D02*
X98099000Y-181499500D01*
X72793400Y-159475500D02*
X72869100Y-159681500D01*
X123010000Y-150584500D02*
X122767000Y-149780500D01*
X73680100Y-160666500D02*
X73864600Y-160778500D01*
X76816100Y-112641100D02*
X76935200Y-113610800D01*
X101986000Y-181449500D02*
X103106000Y-181319500D01*
X112535000Y-35700160D02*
X111375000Y-35341810D01*
X72692100Y-107545400D02*
X72692100Y-111589100D01*
X116513000Y-174773500D02*
X117203000Y-174081500D01*
X126321000Y-160778500D02*
X126506000Y-160666500D01*
X110100000Y-135330000D02*
X109350000Y-134940000D01*
X76923900Y-44765000D02*
X76797900Y-45296600D01*
X108236000Y-180015500D02*
X108851000Y-179774500D01*
X120460000Y-144710500D02*
X119918000Y-143853500D01*
X121365000Y-168192500D02*
X121703000Y-167489500D01*
X78442500Y-119133100D02*
X78818000Y-119996500D01*
X74702400Y-105317900D02*
X74480500Y-105352100D01*
X80645000Y-123257000D02*
X81179000Y-124019700D01*
X122884000Y-115577000D02*
X123085000Y-114624200D01*
X84965000Y-128091500D02*
X85686000Y-128678400D01*
X126506000Y-105690400D02*
X126322000Y-105578000D01*
X99300000Y-33689470D02*
X99300000Y-33689470D01*
X124045000Y-160720500D02*
X124220000Y-160817500D01*
X127317000Y-153896500D02*
X127223000Y-153700500D01*
X95674000Y-181211500D02*
X96478000Y-181334500D01*
X90695000Y-134710500D02*
X89864000Y-135063500D01*
X78459100Y-145618500D02*
X78166100Y-146174500D01*
X107665000Y-132389500D02*
X108564000Y-132061500D01*
X123186000Y-44639800D02*
X123016000Y-44107000D01*
X75639300Y-105407600D02*
X75424900Y-105352100D01*
X115980000Y-139261500D02*
X115219000Y-138596500D01*
X122645000Y-116515100D02*
X122884000Y-115577000D01*
X110100000Y-135330000D02*
X110470000Y-135510000D01*
X119918000Y-143853500D02*
X119342000Y-143021500D01*
X121317000Y-40932070D02*
X120932000Y-40440440D01*
X79421000Y-144002500D02*
X79087000Y-144532500D01*
X110840000Y-135680000D02*
X111913000Y-136268500D01*
X123016000Y-44107000D02*
X122812000Y-43569300D01*
X73076200Y-106294400D02*
X72963800Y-106479000D01*
X121436000Y-146493500D02*
X121435000Y-146492500D01*
X78166100Y-146174500D02*
X77887200Y-146738500D01*
X83768000Y-138983500D02*
X83086000Y-139606500D01*
X106985000Y-180445500D02*
X107614000Y-180239500D01*
X88244000Y-135862500D02*
X87456000Y-136308500D01*
X112387000Y-177976500D02*
X112949000Y-177618500D01*
X104870000Y-133153500D02*
X105817000Y-132935500D01*
X81179000Y-124019700D02*
X81742000Y-124759800D01*
X122991000Y-164036500D02*
X123151000Y-163452500D01*
X121866000Y-147415500D02*
X121508000Y-146643500D01*
X72703700Y-107317100D02*
X72692100Y-107545400D01*
X127393000Y-159475500D02*
X127448000Y-159261500D01*
X105706000Y-133714500D02*
X104811000Y-133505500D01*
X125483000Y-161038500D02*
X125705000Y-161004500D01*
X121509000Y-146642500D02*
X121508000Y-146640500D01*
X125212000Y-105306300D02*
X124983000Y-105317900D01*
X89622000Y-131169600D02*
X90470000Y-131573400D01*
X114813000Y-36529550D02*
X113682000Y-36095880D01*
X79582000Y-170735500D02*
X80007000Y-171351500D01*
X113559000Y-129382200D02*
X114317000Y-128825200D01*
X122368000Y-117437600D02*
X122645000Y-116515100D01*
X123616000Y-112972400D02*
X123826000Y-113156800D01*
X121508000Y-146640500D02*
X121436000Y-146493500D01*
X73349400Y-113170400D02*
X73558700Y-113354900D01*
X127223000Y-106479000D02*
X127110000Y-106294400D01*
X104194000Y-33944920D02*
X102974000Y-33832350D01*
X76333000Y-113156800D02*
X76542300Y-112972400D01*
X118496000Y-172619500D02*
X118496000Y-172619500D01*
X93296000Y-180681500D02*
X94082000Y-180884500D01*
X122019000Y-166776500D02*
X122312000Y-166053500D01*
X73507900Y-160537500D02*
X73680100Y-160666500D01*
X120454000Y-121786800D02*
X120905000Y-120955000D01*
X73349400Y-105963600D02*
X73205100Y-106122200D01*
X77523900Y-116440200D02*
X77794600Y-117354100D01*
X89864000Y-135063500D02*
X89047000Y-135447500D01*
X123247000Y-113657500D02*
X123369000Y-112677900D01*
X126981000Y-106122200D02*
X126837000Y-105963600D01*
X124761000Y-105352100D02*
X124547000Y-105407600D01*
X78784000Y-40983470D02*
X78422900Y-41503460D01*
X123421000Y-45704200D02*
X123417000Y-45676800D01*
X92220000Y-132279500D02*
X93120000Y-132581500D01*
X78422900Y-41503460D02*
X78091600Y-42037000D01*
X87155000Y-35801700D02*
X86105000Y-36191100D01*
X72737900Y-159261500D02*
X72793400Y-159475500D01*
X112949000Y-177618500D02*
X113504000Y-177243500D01*
X126981000Y-153344500D02*
X126837000Y-153185500D01*
X77622400Y-147311500D02*
X77371700Y-147893500D01*
X118639000Y-172441500D02*
X119203000Y-171707500D01*
X76584100Y-164402500D02*
X76927300Y-165443500D01*
X117734000Y-125618400D02*
X118338000Y-124898600D01*
X77087700Y-44223800D02*
X76923900Y-44765000D01*
X79174000Y-40480350D02*
X78784000Y-40983470D01*
X123369000Y-112677800D02*
X123369000Y-112677800D01*
X80034000Y-39541510D02*
X79591000Y-39998290D01*
X73205100Y-153344500D02*
X73076100Y-153516500D01*
X111817000Y-178317500D02*
X112387000Y-177976500D01*
X122495000Y-148983500D02*
X122195000Y-148195500D01*
X74060300Y-160873500D02*
X74266000Y-160948500D01*
X107700000Y-134290000D02*
X108640000Y-134670000D01*
X76989300Y-148870500D02*
X76749200Y-149558500D01*
X72869100Y-106674800D02*
X72793400Y-106880600D01*
X122581000Y-165321500D02*
X122626000Y-165195500D01*
X78772000Y-169431500D02*
X78773000Y-169433500D01*
X123642000Y-161083500D02*
X123727000Y-160483500D01*
X115761000Y-127624300D02*
X116445000Y-126982100D01*
X126628000Y-113354900D02*
X126837000Y-113170400D01*
X120215000Y-170229500D02*
X120620000Y-169562500D01*
X125920000Y-160948500D02*
X126126000Y-160873500D01*
X90985000Y-179915500D02*
X91747000Y-180196500D01*
X117024000Y-37512980D02*
X115928000Y-37001730D01*
X116445000Y-126982100D02*
X117103000Y-126313200D01*
X122812000Y-43569300D02*
X122574000Y-43030300D01*
X113504000Y-177243500D02*
X114050000Y-176852500D01*
X109445000Y-131697800D02*
X110309000Y-131300100D01*
X127110000Y-112839700D02*
X127223000Y-112655200D01*
X119137000Y-38720640D02*
X118630000Y-38372240D01*
X102974000Y-33832350D02*
X101751000Y-33752630D01*
X76041500Y-162273500D02*
X76288700Y-163345500D01*
X72963700Y-153700500D02*
X72869100Y-153896500D01*
X86427000Y-177556500D02*
X87059000Y-177960500D01*
X76397400Y-105819300D02*
X76225300Y-105690400D01*
X111152000Y-130868800D02*
X111976000Y-130404800D01*
X76710800Y-45814800D02*
X76707800Y-45838100D01*
X72869100Y-159681500D02*
X72963700Y-159877500D01*
X91470000Y-34561350D02*
X90376000Y-34822840D01*
X94875000Y-181061500D02*
X95674000Y-181211500D01*
X127494000Y-154767500D02*
X127483000Y-154539500D01*
X93259000Y-133841500D02*
X92393000Y-134099500D01*
X104406000Y-181100500D02*
X105060000Y-180962500D01*
X126837000Y-113170400D02*
X126981000Y-113011900D01*
X72703700Y-111817400D02*
X72737900Y-112039300D01*
X107614000Y-180239500D02*
X108236000Y-180015500D01*
X125483000Y-105317900D02*
X125255000Y-105306300D01*
X106865000Y-134041500D02*
X105857000Y-133753500D01*
X114373000Y-176610500D02*
X115072000Y-176056500D01*
X79591000Y-39998290D02*
X79174000Y-40480350D01*
X105857000Y-133753500D02*
X105708000Y-133714500D01*
X86683000Y-136784500D02*
X85928000Y-137289500D01*
X76707800Y-106131500D02*
X76555900Y-105963600D01*
X120083000Y-39523250D02*
X119622000Y-39105640D01*
X74266100Y-105407600D02*
X74060400Y-105483300D01*
X123426000Y-162274500D02*
X123541000Y-161680500D01*
X80390000Y-171890000D02*
X80720000Y-172340000D01*
X113616000Y-137364500D02*
X112777000Y-136799500D01*
X72703700Y-154539500D02*
X72692100Y-154767500D01*
X72793400Y-106880600D02*
X72737900Y-107095100D01*
X118338000Y-124898600D02*
X118912000Y-124154700D01*
X82052000Y-38050960D02*
X81513000Y-38364710D01*
X75580000Y-160980000D02*
X75280000Y-161030000D01*
X106749000Y-132681500D02*
X107665000Y-132389500D01*
X75797300Y-160891500D02*
X76041500Y-162273500D01*
X93681000Y-34138560D02*
X92572000Y-34333090D01*
X77371700Y-147893500D02*
X77250800Y-148188500D01*
X90233000Y-179608500D02*
X90985000Y-179915500D01*
X76542300Y-112972400D02*
X76686900Y-112813600D01*
X77093400Y-114567700D02*
X77289900Y-115511100D01*
X72703700Y-159039500D02*
X72737900Y-159261500D01*
X76707800Y-59962300D02*
X76707800Y-106131500D01*
X126981000Y-160234500D02*
X127110000Y-160062500D01*
X122305000Y-42493400D02*
X122005000Y-41962300D01*
X94037000Y-132846500D02*
X94968000Y-133074500D01*
X92572000Y-34333090D02*
X91470000Y-34561350D01*
X87331000Y-178126500D02*
X88039000Y-178534500D01*
X94082000Y-180884500D02*
X94875000Y-181061500D01*
X79769000Y-143481500D02*
X79421000Y-144002500D01*
X121706000Y-119232500D02*
X122055000Y-118343700D01*
X122767000Y-149780500D02*
X122495000Y-148983500D01*
X117103000Y-126313200D02*
X117734000Y-125618400D01*
X76707800Y-45861300D02*
X76707800Y-59962300D01*
X83086000Y-139606500D02*
X83037000Y-139651500D01*
X80506000Y-142467500D02*
X80131000Y-142969500D01*
X89291000Y-35117070D02*
X88217000Y-35443520D01*
X117865000Y-173362500D02*
X118496000Y-172619500D01*
X99300000Y-33689470D02*
X99300000Y-33689470D01*
X74930700Y-105306300D02*
X74702400Y-105317900D01*
X81296000Y-141491500D02*
X80894000Y-141974500D01*
X78240600Y-168462500D02*
X78772000Y-169431500D01*
X80131000Y-142969500D02*
X79769000Y-143481500D01*
X119787000Y-170885500D02*
X119787000Y-170884500D01*
X125212000Y-161050500D02*
X125255000Y-161050500D01*
X121322000Y-120103200D02*
X121706000Y-119232500D01*
X84269000Y-127477100D02*
X84965000Y-128091500D01*
X87984000Y-130265000D02*
X88793000Y-130733200D01*
X113682000Y-36095880D02*
X112535000Y-35700160D01*
X110309000Y-131300100D02*
X111152000Y-130868800D01*
X127317000Y-106674800D02*
X127223000Y-106479000D01*
X107823000Y-34485360D02*
X106620000Y-34270850D01*
X88759000Y-178917500D02*
X89490000Y-179275500D01*
X95914000Y-133265500D02*
X95020000Y-133424500D01*
X76530400Y-150252500D02*
X76333000Y-150951500D01*
X121435000Y-146492500D02*
X120966000Y-145590500D01*
X91538000Y-134389500D02*
X90695000Y-134710500D01*
X110470000Y-135510000D02*
X110840000Y-135680000D01*
X124220000Y-160817500D02*
X124404000Y-160898500D01*
X115797000Y-175437500D02*
X116513000Y-174773500D01*
X120620000Y-169562500D02*
X121003000Y-168883500D01*
X76797900Y-45296600D02*
X76710800Y-45814800D01*
X95020000Y-133424500D02*
X94135000Y-133617500D01*
X127448000Y-159261500D02*
X127483000Y-159039500D01*
X108564000Y-132061500D02*
X109445000Y-131697800D01*
X72737900Y-107095100D02*
X72703700Y-107317100D01*
X75280000Y-161030000D02*
X74980000Y-161055000D01*
X80141000Y-122472600D02*
X80645000Y-123257000D01*
X123421000Y-60092000D02*
X123421000Y-45731600D01*
M02*
