%TF.GenerationSoftware,KiCad,Pcbnew,7.0.1*%
%TF.CreationDate,2023-08-25T16:24:58-05:00*%
%TF.ProjectId,BSidesKC23_Speaker,42536964-6573-44b4-9332-335f53706561,1.1*%
%TF.SameCoordinates,Original*%
%TF.FileFunction,Drillmap*%
%TF.FilePolarity,Positive*%
%FSLAX45Y45*%
G04 Gerber Fmt 4.5, Leading zero omitted, Abs format (unit mm)*
G04 Created by KiCad (PCBNEW 7.0.1) date 2023-08-25 16:24:59*
%MOMM*%
%LPD*%
G01*
G04 APERTURE LIST*
%ADD10C,0.100000*%
%ADD11C,0.200000*%
%ADD12C,0.065000*%
%ADD13C,0.090000*%
G04 APERTURE END LIST*
D10*
X11849600Y-17261950D02*
X11863900Y-17244150D01*
X10481100Y-13350550D02*
X10390900Y-13333150D01*
X11431700Y-12882520D02*
X11505100Y-12823900D01*
X12170300Y-16748950D02*
X12201900Y-16677650D01*
X10686500Y-13404150D02*
X10770000Y-13429000D01*
X8133000Y-17310000D02*
X8168000Y-17348000D01*
X12093200Y-4044044D02*
X12052000Y-3996951D01*
X11277800Y-12990900D02*
X11355900Y-12938220D01*
X8258100Y-14009850D02*
X8213900Y-14055350D01*
X8461300Y-17623250D02*
X8520400Y-17669150D01*
X7355870Y-15300150D02*
X7334940Y-15318550D01*
X7779100Y-4257960D02*
X7752260Y-4312740D01*
X11945700Y-12338760D02*
X11997100Y-12259800D01*
X12711000Y-10629440D02*
X12698100Y-10612220D01*
X11575200Y-17547750D02*
X11579600Y-17543750D01*
X8705900Y-17796050D02*
X8733100Y-17812650D01*
X7320510Y-16023450D02*
X7334940Y-16039250D01*
X12231200Y-16605350D02*
X12258100Y-16532150D01*
X9133600Y-13194350D02*
X9222000Y-13227950D01*
X9251700Y-18045250D02*
X9329600Y-18068150D01*
X7879100Y-16946450D02*
X7917700Y-17010650D01*
X8359800Y-12683580D02*
X8426900Y-12747710D01*
X7775590Y-16747450D02*
X7824060Y-16846250D01*
X12744800Y-10709510D02*
X12739300Y-10688060D01*
X7320510Y-10612220D02*
X7307620Y-10629440D01*
X11671300Y-13995550D02*
X11598000Y-13926150D01*
X7334940Y-15318550D02*
X7320510Y-15334450D01*
X7279340Y-11225370D02*
X7286910Y-11245940D01*
X8293000Y-17474850D02*
X8347600Y-17525950D01*
X9174700Y-18019650D02*
X9251700Y-18045250D01*
X12748300Y-11181740D02*
X12749400Y-11158910D01*
X12342100Y-10620440D02*
X12342100Y-6009200D01*
X11405000Y-17685250D02*
X11437300Y-17661050D01*
X9479700Y-3397827D02*
X9368100Y-3413856D01*
X12498300Y-10531790D02*
X12476100Y-10535210D01*
X12739300Y-15410250D02*
X12731700Y-15389650D01*
X8099600Y-3872052D02*
X8050300Y-3911418D01*
X7877300Y-16943350D02*
X7879100Y-16946450D01*
X9973400Y-18155450D02*
X10086100Y-18152850D01*
X12354100Y-16168050D02*
X12364200Y-16108350D01*
X12150800Y-14664350D02*
X12151000Y-14664350D01*
X8174200Y-12475980D02*
X8233300Y-12547640D01*
X7448050Y-10535210D02*
X7426610Y-10540760D01*
X7279340Y-15410250D02*
X7273790Y-15431650D01*
X12748300Y-15453950D02*
X12744800Y-15431750D01*
X10662000Y-3427085D02*
X10541000Y-3409089D01*
X12336900Y-11267790D02*
X12336900Y-11267780D01*
X7497460Y-10530630D02*
X7493070Y-10530630D01*
X9239300Y-13409950D02*
X9153800Y-13438950D01*
X12200500Y-4196230D02*
X12167500Y-4144041D01*
X7296380Y-11265510D02*
X7307620Y-11283970D01*
X11592800Y-3700173D02*
X11481300Y-3652955D01*
X7966800Y-12166710D02*
X8014100Y-12247260D01*
X7269210Y-11158910D02*
X7270370Y-11181740D01*
X12396100Y-10569040D02*
X12378800Y-10581930D01*
X11521900Y-13859650D02*
X11443000Y-13796450D01*
X12722300Y-15987750D02*
X12731700Y-15968150D01*
X10570800Y-13371450D02*
X10570600Y-13371450D01*
X9891500Y-18154050D02*
X9973400Y-18155450D01*
X8904700Y-13544750D02*
X8824400Y-13586250D01*
X12454700Y-10540760D02*
X12434100Y-10548330D01*
X11978800Y-17088250D02*
X12021500Y-17022950D01*
X7520290Y-10531790D02*
X7497460Y-10530630D01*
X12739300Y-11225380D02*
X12744800Y-11203930D01*
X8506800Y-3661123D02*
X8404700Y-3706159D01*
X12262600Y-16519550D02*
X12262600Y-16519450D01*
X10390900Y-13333150D02*
X10487000Y-13315350D01*
X7273790Y-11203930D02*
X7279340Y-11225370D01*
X7296380Y-10647900D02*
X7286910Y-10667480D01*
X7273790Y-15431650D02*
X7270370Y-15453950D01*
X12257400Y-4303030D02*
X12230500Y-4249340D01*
X7674920Y-14955850D02*
X7653040Y-15025250D01*
X9809900Y-18149950D02*
X9891500Y-18154050D01*
X12662800Y-15300150D02*
X12662800Y-11335490D01*
X7584500Y-10548330D02*
X7563930Y-10540760D01*
X8114000Y-17287000D02*
X8133000Y-17310000D01*
X8188700Y-17367650D02*
X8240100Y-17422050D01*
X7307620Y-11283970D02*
X7320510Y-11301180D01*
X10885100Y-17977450D02*
X10945800Y-17951650D01*
X10635000Y-18063550D02*
X10698500Y-18044550D01*
X7692730Y-16544350D02*
X7731800Y-16646750D01*
X7628870Y-16334550D02*
X7658410Y-16440250D01*
X11934200Y-14302150D02*
X11873300Y-14221450D01*
X7296370Y-15987750D02*
X7307610Y-16006250D01*
X10310600Y-18131950D02*
X10421800Y-18113650D01*
X7881800Y-11999650D02*
X7922700Y-12084150D01*
X8233300Y-12547640D02*
X8295200Y-12616870D01*
X11962200Y-3910564D02*
X11913700Y-3872064D01*
X11809000Y-14143350D02*
X11741700Y-14068050D01*
X10945800Y-17951650D02*
X11005900Y-17924250D01*
X10901700Y-3473498D02*
X10782300Y-3448536D01*
X10086100Y-18152850D02*
X10198600Y-18144950D01*
X7368010Y-10569040D02*
X7350800Y-10581930D01*
X10864000Y-13467000D02*
X10935000Y-13494000D01*
X7725080Y-14818850D02*
X7698930Y-14887050D01*
X12667800Y-10581930D02*
X12650600Y-10569040D01*
X12336900Y-11267780D02*
X12348600Y-11283060D01*
X12525500Y-10530630D02*
X12521200Y-10530630D01*
X12052000Y-3996951D02*
X12008300Y-3952325D01*
X7633300Y-15095150D02*
X7633300Y-11315680D01*
X10440500Y-18110050D02*
X10440600Y-18110050D01*
X9704200Y-3376239D02*
X9591800Y-3385271D01*
X12342100Y-4573160D02*
X12342100Y-4570420D01*
X8803900Y-17853450D02*
X8875900Y-17891750D01*
X9037600Y-3482284D02*
X8929100Y-3511707D01*
X7426600Y-16094850D02*
X7448050Y-16100450D01*
X7752260Y-4312740D02*
X7728770Y-4367670D01*
X12739300Y-10688060D02*
X12731700Y-10667480D01*
X8719600Y-12976600D02*
X8798400Y-13026500D01*
X12151000Y-14664350D02*
X12150900Y-14664250D01*
X12262600Y-16519350D02*
X12281600Y-16461750D01*
X11197600Y-13040480D02*
X11277800Y-12990900D01*
X12281600Y-16461750D02*
X12299100Y-16403650D01*
X11978700Y-17088450D02*
X11978800Y-17088250D01*
X10570800Y-18080750D02*
X10635000Y-18063550D01*
X12748300Y-10731710D02*
X12744800Y-10709510D01*
X8304100Y-3754166D02*
X8205200Y-3805096D01*
X12440400Y-16089850D02*
X12459600Y-16096350D01*
X12731700Y-15968150D02*
X12739300Y-15947550D01*
X12350500Y-15270500D02*
X12355500Y-15313000D01*
X12744800Y-11203930D02*
X12748300Y-11181740D01*
X10421900Y-18113650D02*
X10440500Y-18110050D01*
X8295200Y-12616870D02*
X8359800Y-12683580D01*
X11720300Y-17408150D02*
X11786500Y-17336250D01*
X8821700Y-3544352D02*
X8715500Y-3580170D01*
X12479500Y-16101150D02*
X12500100Y-16104050D01*
X12711000Y-15351650D02*
X12698100Y-15334450D01*
X12632200Y-10557800D02*
X12612600Y-10548330D01*
X7386460Y-16077850D02*
X7406030Y-16087350D01*
X11005900Y-17924250D02*
X11065300Y-17895050D01*
X11920300Y-17170750D02*
X11973500Y-17096050D01*
X7622530Y-10569040D02*
X7604070Y-10557800D01*
X8949000Y-17927550D02*
X9023300Y-17960850D01*
X8171100Y-14101750D02*
X8129600Y-14149150D01*
X11579600Y-17543750D02*
X11579700Y-17543750D01*
X8151300Y-3836471D02*
X8099600Y-3872052D01*
X12748300Y-15903950D02*
X12749400Y-15881150D01*
X11277700Y-13679950D02*
X11191300Y-13626850D01*
X12341700Y-4567680D02*
X12332000Y-4516430D01*
X8240100Y-17422050D02*
X8293000Y-17474850D01*
X9413500Y-13361750D02*
X9325900Y-13384150D01*
X12262600Y-16519450D02*
X12262600Y-16519350D01*
X12308500Y-11462420D02*
X12324700Y-11365750D01*
X12570500Y-10535210D02*
X12548300Y-10531790D01*
X7668690Y-11281360D02*
X7681620Y-11264110D01*
X11891200Y-12415470D02*
X11945700Y-12338760D01*
X12378800Y-10581930D02*
X12363000Y-10596360D01*
X10581700Y-13293550D02*
X10674900Y-13268150D01*
X9647800Y-18133450D02*
X9728700Y-18143050D01*
X7542490Y-10535210D02*
X7520290Y-10531790D01*
X9817000Y-3370781D02*
X9704200Y-3376239D01*
X12744800Y-15431750D02*
X12739300Y-15410250D01*
X12096600Y-14559050D02*
X12046000Y-14471050D01*
X12683700Y-16039250D02*
X12698100Y-16023450D01*
X11810200Y-3806439D02*
X11810100Y-3806388D01*
X12612600Y-16087350D02*
X12632100Y-16077850D01*
X12749400Y-10754540D02*
X12748300Y-10731710D01*
X8520400Y-17669150D02*
X8580800Y-17713350D01*
X12372700Y-16048350D02*
X12388100Y-16060850D01*
X11065300Y-17895050D02*
X11123800Y-17864250D01*
X11873300Y-14221450D02*
X11809000Y-14143350D01*
X12388100Y-16060850D02*
X12404500Y-16072050D01*
X7386470Y-10557800D02*
X7368010Y-10569040D01*
X12731700Y-11245940D02*
X12739300Y-11225380D01*
X8303500Y-13965350D02*
X8303500Y-13965450D01*
X7779460Y-11735410D02*
X7810100Y-11825210D01*
X7498000Y-16105500D02*
X7468000Y-16103000D01*
X12205500Y-11834370D02*
X12236800Y-11743760D01*
X7286910Y-15389650D02*
X7279340Y-15410250D01*
X11137500Y-3534181D02*
X11020200Y-3502027D01*
X7876590Y-14507050D02*
X7845910Y-14561850D01*
X12355500Y-15313000D02*
X12383000Y-15293000D01*
X7286910Y-11245940D02*
X7296380Y-11265510D01*
X11997100Y-12259800D02*
X12045400Y-12178680D01*
X11741700Y-14068050D02*
X11671300Y-13995550D01*
X7406040Y-10548330D02*
X7386470Y-10557800D01*
X7670780Y-4583810D02*
X7670780Y-4586130D01*
X10506000Y-18096250D02*
X10570800Y-18080750D01*
X7728770Y-4367670D02*
X7708770Y-4422380D01*
X11505100Y-12823900D02*
X11576100Y-12762430D01*
X8303500Y-13965450D02*
X8258100Y-14009850D01*
X7334940Y-16039250D02*
X7350790Y-16053750D01*
X12749400Y-15881150D02*
X12749400Y-15476750D01*
X8879300Y-13073320D02*
X8962200Y-13116960D01*
X11973600Y-17095950D02*
X11978700Y-17088550D01*
X12650600Y-16066650D02*
X12667800Y-16053750D01*
X7320510Y-11301180D02*
X7334940Y-11317040D01*
X9312000Y-13258150D02*
X9403700Y-13284650D01*
X10421800Y-18113650D02*
X10421900Y-18113650D01*
X7731800Y-16646750D02*
X7775590Y-16747450D01*
X7269210Y-15476750D02*
X7269210Y-15881050D01*
X11973500Y-17096050D02*
X11973600Y-17095950D01*
X12434100Y-10548330D02*
X12414500Y-10557800D01*
X12219500Y-14819550D02*
X12186600Y-14741550D01*
X8303700Y-13965150D02*
X8303500Y-13965350D01*
X12315100Y-16345250D02*
X12329600Y-16286550D01*
X11863000Y-3837224D02*
X11810200Y-3806439D01*
X12683700Y-10596360D02*
X12667800Y-10581930D01*
X12100300Y-16888350D02*
X12136500Y-16819250D01*
X12383000Y-15293000D02*
X12382600Y-15280350D01*
X9496800Y-13307450D02*
X9591400Y-13326550D01*
X12167500Y-4144041D02*
X12131700Y-4093207D01*
X7269210Y-15881050D02*
X7270370Y-15903950D01*
X7922700Y-12084150D02*
X7966800Y-12166710D01*
X12332000Y-4516430D02*
X12318600Y-4463980D01*
X12711000Y-16006250D02*
X12722300Y-15987750D01*
X8347600Y-17525950D02*
X8403700Y-17575450D01*
X8000700Y-17135150D02*
X8039000Y-17189000D01*
X12322400Y-15139550D02*
X12301000Y-15058450D01*
X12348600Y-11283060D02*
X12361600Y-11297240D01*
X8446900Y-13839050D02*
X8376800Y-13898350D01*
X8403700Y-17575450D02*
X8461300Y-17623250D01*
X12363000Y-10596360D02*
X12342100Y-10620440D01*
X12592000Y-10540760D02*
X12570500Y-10535210D01*
X12414500Y-10557800D02*
X12396100Y-10569040D01*
X10541000Y-3409089D02*
X10419400Y-3394492D01*
X8089400Y-14197450D02*
X8050600Y-14246750D01*
X7788720Y-14673850D02*
X7762240Y-14731150D01*
X12500100Y-16104050D02*
X12521200Y-16105050D01*
X12722300Y-15370050D02*
X12711000Y-15351650D01*
X7307610Y-15351650D02*
X7296370Y-15370050D01*
X7307610Y-16006250D02*
X7320510Y-16023450D01*
X12667800Y-16053750D02*
X12683700Y-16039250D01*
X12698100Y-11301190D02*
X12711000Y-11283970D01*
X8568600Y-12867840D02*
X8643000Y-12923680D01*
X8643000Y-12923680D02*
X8719600Y-12976600D01*
X8745600Y-13630850D02*
X8668300Y-13678450D01*
X12722300Y-11265520D02*
X12731700Y-11245940D01*
X8518900Y-13782550D02*
X8446900Y-13839050D01*
X7728990Y-11551110D02*
X7752390Y-11644020D01*
X12459600Y-16096350D02*
X12479500Y-16101150D01*
X8580800Y-17713350D02*
X8642700Y-17755650D01*
X11810100Y-3806388D02*
X11702400Y-3751298D01*
X10175100Y-3375263D02*
X10052600Y-3370519D01*
X7604070Y-10557800D02*
X7584500Y-10548330D01*
X12341000Y-15221450D02*
X12322400Y-15139550D01*
X8592800Y-13728950D02*
X8518900Y-13782550D01*
X7693520Y-11361080D02*
X7709340Y-11456770D01*
X8050300Y-3911418D02*
X8003400Y-3954151D01*
X8168000Y-17348000D02*
X8188700Y-17367650D01*
X9930000Y-3368947D02*
X9817000Y-3370781D01*
X7579730Y-16089150D02*
X7558000Y-16098000D01*
X12683700Y-15318550D02*
X12662800Y-15300150D01*
X7350800Y-10581930D02*
X7334940Y-10596360D01*
X12612600Y-10548330D02*
X12592000Y-10540760D01*
X12525500Y-16105050D02*
X12548300Y-16103850D01*
X7810100Y-11825210D02*
X7844250Y-11913310D01*
X8072000Y-17234000D02*
X8114000Y-17287000D01*
X12382600Y-11315680D02*
X12382600Y-15280350D01*
X11443000Y-13796450D02*
X11361600Y-13736450D01*
X8610500Y-3619110D02*
X8506800Y-3661123D01*
X12090500Y-12095500D02*
X12132200Y-12010320D01*
X12749400Y-11158910D02*
X12749400Y-10754540D01*
X7655590Y-10596360D02*
X7639740Y-10581930D01*
X7908700Y-14453250D02*
X7876590Y-14507050D01*
X12341000Y-15221450D02*
X12350500Y-15270500D01*
X7809160Y-4203700D02*
X7779100Y-4257960D01*
X8213900Y-14055350D02*
X8171100Y-14101750D01*
X7917700Y-17010650D02*
X7958200Y-17073550D01*
X9591800Y-3385271D02*
X9479700Y-3397827D01*
X9047000Y-13157340D02*
X9133600Y-13194350D01*
X10052600Y-3370519D02*
X9930000Y-3368947D01*
X12570500Y-16100450D02*
X12592000Y-16094850D01*
X11507200Y-17605650D02*
X11575200Y-17547750D01*
X7448050Y-16100450D02*
X7468000Y-16103000D01*
X11123800Y-17864250D02*
X11181700Y-17831750D01*
X8404700Y-3706159D02*
X8304100Y-3754166D01*
X7355870Y-11335490D02*
X7355870Y-15300150D01*
X11020200Y-3502027D02*
X10901700Y-3473498D01*
X12329600Y-16286550D02*
X12342600Y-16227450D01*
X9728700Y-18143050D02*
X9809900Y-18149950D01*
X7279340Y-15947550D02*
X7286910Y-15968150D01*
X12301000Y-15058450D02*
X12276700Y-14978050D01*
X7368010Y-16066650D02*
X7386460Y-16077850D01*
X7681610Y-11264110D02*
X7693520Y-11361080D01*
X10198600Y-18144950D02*
X10310600Y-18131950D01*
X11253500Y-3570016D02*
X11137500Y-3534181D01*
X7269210Y-10754540D02*
X7269210Y-11158910D01*
X11651300Y-17477350D02*
X11720300Y-17408150D01*
X12632100Y-16077850D02*
X12650600Y-16066650D01*
X11010000Y-13533000D02*
X10935000Y-13494000D01*
X7692390Y-4476500D02*
X7679790Y-4529660D01*
X10823600Y-18001550D02*
X10885100Y-17977450D01*
X12046000Y-14471050D02*
X11991800Y-14385350D01*
X12136500Y-16819250D02*
X12170300Y-16748950D01*
X7844250Y-11913310D02*
X7881800Y-11999650D01*
X7470240Y-10531790D02*
X7448050Y-10535210D01*
X8064500Y-12325700D02*
X8117900Y-12401970D01*
X12288400Y-11557700D02*
X12308500Y-11462420D01*
X8496500Y-12809150D02*
X8568600Y-12867840D01*
X12650600Y-10569040D02*
X12632200Y-10557800D01*
X9930000Y-3368947D02*
X9930000Y-3368947D01*
X12404500Y-16072050D02*
X12422000Y-16081750D01*
X12731700Y-15389650D02*
X12722300Y-15370050D01*
X9567400Y-18121150D02*
X9647800Y-18133450D01*
X9069500Y-13471050D02*
X8986400Y-13506350D01*
X7845910Y-14561850D02*
X7816610Y-14617450D01*
X10766500Y-13238950D02*
X10856400Y-13206150D01*
X12318600Y-4463980D02*
X12301600Y-4410700D01*
X7563930Y-10540760D02*
X7542490Y-10535210D01*
X11598000Y-13926150D02*
X11521900Y-13859650D01*
X12264500Y-11651510D02*
X12288400Y-11557700D01*
X11010000Y-13533000D02*
X11047000Y-13551000D01*
X11991800Y-14385350D02*
X11934200Y-14302150D01*
X12131700Y-4093207D02*
X12093200Y-4044044D01*
X7942100Y-14400250D02*
X7908700Y-14453250D01*
X11084000Y-13568000D02*
X11191300Y-13626850D01*
X12301600Y-4410700D02*
X12281200Y-4356930D01*
X7307620Y-10629440D02*
X7296380Y-10647900D01*
X12143600Y-14649350D02*
X12143500Y-14649250D01*
X7816610Y-14617450D02*
X7788720Y-14673850D01*
X8376800Y-13898350D02*
X8308600Y-13960650D01*
X10698500Y-18044550D02*
X10761400Y-18023950D01*
X8824400Y-13586250D02*
X8745600Y-13630850D01*
X11238700Y-17797650D02*
X11294900Y-17761850D01*
X10487000Y-13315350D02*
X10581700Y-13293550D01*
X8117900Y-12401970D02*
X8174200Y-12475980D01*
X12299100Y-16403650D02*
X12315100Y-16345250D01*
X12186600Y-14741550D02*
X12150800Y-14664350D01*
X7270370Y-10731710D02*
X7269210Y-10754540D01*
X12739300Y-15947550D02*
X12744800Y-15926150D01*
X10570600Y-13371450D02*
X10481100Y-13350550D01*
X12548300Y-16103850D02*
X12570500Y-16100450D01*
X12150900Y-14664250D02*
X12150800Y-14664050D01*
X12521200Y-10530630D02*
X12498300Y-10531790D01*
X8962200Y-13116960D02*
X9047000Y-13157340D01*
X11481300Y-3652955D02*
X11368200Y-3609588D01*
X7958200Y-17073550D02*
X8000700Y-17135150D01*
X11355900Y-12938220D02*
X11431700Y-12882520D01*
X12236800Y-11743760D02*
X12264500Y-11651510D01*
X12361600Y-11297240D02*
X12382600Y-11315680D01*
X12150800Y-14664050D02*
X12143600Y-14649350D01*
X7334940Y-11317040D02*
X7355870Y-11335490D01*
X12722300Y-10647900D02*
X12711000Y-10629440D01*
X10419400Y-3394492D02*
X10297400Y-3383235D01*
X7633300Y-11315680D02*
X7654230Y-11297240D01*
X11849600Y-17261950D02*
X11849600Y-17261950D01*
X9329600Y-18068150D02*
X9408200Y-18088450D01*
X12201900Y-16677650D02*
X12231200Y-16605350D01*
X7350790Y-16053750D02*
X7368010Y-16066650D01*
X12045400Y-12178680D02*
X12090500Y-12095500D01*
X7334940Y-10596360D02*
X7320510Y-10612220D01*
X7752390Y-11644020D02*
X7779460Y-11735410D01*
X8986400Y-13506350D02*
X8904700Y-13544750D01*
X12324700Y-11365750D02*
X12336900Y-11267790D01*
X12698100Y-10612220D02*
X12683700Y-10596360D01*
X12476100Y-10535210D02*
X12454700Y-10540760D01*
X7878400Y-4098347D02*
X7842290Y-4150346D01*
X12342100Y-4570420D02*
X12341700Y-4567680D01*
X9222000Y-13227950D02*
X9312000Y-13258150D01*
X7842290Y-4150346D02*
X7809160Y-4203700D01*
X8715500Y-3580170D02*
X8610500Y-3619110D01*
X7273790Y-15926150D02*
X7279340Y-15947550D01*
X11294900Y-17761850D02*
X11350400Y-17724350D01*
X12698100Y-15334450D02*
X12683700Y-15318550D01*
X7762240Y-14731150D02*
X7737170Y-14789350D01*
X11863900Y-17244150D02*
X11920300Y-17170750D01*
X7658410Y-16440250D02*
X7692730Y-16544350D01*
X11773400Y-12561840D02*
X11833800Y-12489860D01*
X7708770Y-4422380D02*
X7692390Y-4476500D01*
X7917400Y-4048035D02*
X7878400Y-4098347D01*
X12336900Y-11267780D02*
X12336900Y-11267780D01*
X8003400Y-3954151D02*
X7959100Y-3999829D01*
X7320510Y-15334450D02*
X7307610Y-15351650D01*
X11181700Y-17831750D02*
X11238700Y-17797650D01*
X12249500Y-14898350D02*
X12219500Y-14819550D01*
X7406030Y-16087350D02*
X7426600Y-16094850D01*
X10770000Y-13429000D02*
X10864000Y-13467000D01*
X7698930Y-14887050D02*
X7674920Y-14955850D01*
X7286910Y-10667480D02*
X7279340Y-10688060D01*
X12258100Y-16532150D02*
X12262600Y-16519550D01*
X7877200Y-16943150D02*
X7877300Y-16943350D01*
X12364200Y-16108350D02*
X12372700Y-16048350D01*
X11576100Y-12762430D02*
X11644500Y-12698210D01*
X12662800Y-11335490D02*
X12683700Y-11317040D01*
X12021500Y-17022950D02*
X12062000Y-16956250D01*
X12592000Y-16094850D02*
X12612600Y-16087350D01*
X9098500Y-17991550D02*
X9174700Y-18019650D01*
X11702400Y-3751298D02*
X11592800Y-3700173D01*
X11644500Y-12698210D02*
X11710300Y-12631320D01*
X12281200Y-4356930D02*
X12257400Y-4303030D01*
X11350400Y-17724350D02*
X11405000Y-17685250D01*
X10944500Y-13169780D02*
X11030900Y-13130010D01*
X12711000Y-11283970D02*
X12722300Y-11265520D01*
X11913700Y-3872064D02*
X11863000Y-3837224D01*
X10297400Y-3383235D02*
X10175100Y-3375263D01*
X7604150Y-16227350D02*
X7628870Y-16334550D01*
X7296370Y-15370050D02*
X7286910Y-15389650D01*
X8642700Y-17755650D02*
X8705900Y-17796050D01*
X7639740Y-10581930D02*
X7622530Y-10569040D01*
X11115200Y-13086880D02*
X11197600Y-13040480D01*
X7671080Y-4581480D02*
X7670780Y-4583810D01*
X7286910Y-15968150D02*
X7296370Y-15987750D01*
X9147000Y-3456135D02*
X9037600Y-3482284D01*
X9487500Y-18106150D02*
X9567400Y-18121150D01*
X12749400Y-15476750D02*
X12748300Y-15453950D01*
X9325900Y-13384150D02*
X9239300Y-13409950D01*
X10440600Y-18110050D02*
X10506000Y-18096250D01*
X12683700Y-11317040D02*
X12698100Y-11301190D01*
X7270370Y-11181740D02*
X7273790Y-11203930D01*
X10761400Y-18023950D02*
X10823600Y-18001550D01*
X12548300Y-10531790D02*
X12525500Y-10530630D01*
X10686500Y-13404150D02*
X10585700Y-13375350D01*
X11437300Y-17661050D02*
X11507200Y-17605650D01*
X7959100Y-3999829D02*
X7917400Y-4048035D01*
X10585700Y-13375350D02*
X10570800Y-13371450D01*
X8668300Y-13678450D02*
X8592800Y-13728950D01*
X7670780Y-10613150D02*
X7655590Y-10596360D01*
X12008300Y-3952325D02*
X11962200Y-3910564D01*
X7426610Y-10540760D02*
X7406040Y-10548330D01*
X12342600Y-16227450D02*
X12354100Y-16168050D01*
X8039000Y-17189000D02*
X8072000Y-17234000D01*
X11361600Y-13736450D02*
X11277700Y-13679950D01*
X7270370Y-15453950D02*
X7269210Y-15476750D01*
X7279340Y-10688060D02*
X7273790Y-10709510D01*
X11833800Y-12489860D02*
X11891200Y-12415470D01*
X8205200Y-3805096D02*
X8151300Y-3836471D01*
X7558000Y-16098000D02*
X7528000Y-16103000D01*
X10674900Y-13268150D02*
X10766500Y-13238950D01*
X7579730Y-16089150D02*
X7604150Y-16227350D01*
X9368100Y-3413856D02*
X9257200Y-3433309D01*
X7737170Y-14789350D02*
X7725080Y-14818850D01*
X9023300Y-17960850D02*
X9098500Y-17991550D01*
X7654230Y-11297240D02*
X7668690Y-11281360D01*
X7709340Y-11456770D02*
X7728990Y-11551110D01*
X7270370Y-15903950D02*
X7273790Y-15926150D01*
X7670780Y-5996230D02*
X7670780Y-10613150D01*
X12698100Y-16023450D02*
X12711000Y-16006250D01*
X12230500Y-4249340D02*
X12200500Y-4196230D01*
X9403700Y-13284650D02*
X9496800Y-13307450D01*
X9257200Y-3433309D02*
X9147000Y-3456135D01*
X8733100Y-17812650D02*
X8803900Y-17853450D01*
X9408200Y-18088450D02*
X9487500Y-18106150D01*
X7976900Y-14348150D02*
X7942100Y-14400250D01*
X12170600Y-11923250D02*
X12205500Y-11834370D01*
X12276700Y-14978050D02*
X12249500Y-14898350D01*
X11710300Y-12631320D02*
X11773400Y-12561840D01*
X7670780Y-4586130D02*
X7670780Y-5996230D01*
X8308600Y-13960650D02*
X8303700Y-13965150D01*
X8050600Y-14246750D02*
X8013100Y-14296950D01*
X8929100Y-3511707D02*
X8821700Y-3544352D01*
X11786500Y-17336250D02*
X11849600Y-17261950D01*
X9930000Y-3368947D02*
X9930000Y-3368947D01*
X7493070Y-10530630D02*
X7470240Y-10531790D01*
X8129600Y-14149150D02*
X8089400Y-14197450D01*
X7824060Y-16846250D02*
X7877200Y-16943150D01*
X8013100Y-14296950D02*
X7976900Y-14348150D01*
X11978700Y-17088550D02*
X11978700Y-17088450D01*
X12521200Y-16105050D02*
X12525500Y-16105050D01*
X12132200Y-12010320D02*
X12170600Y-11923250D01*
X8426900Y-12747710D02*
X8496500Y-12809150D01*
X8798400Y-13026500D02*
X8879300Y-13073320D01*
X11368200Y-3609588D02*
X11253500Y-3570016D01*
X11030900Y-13130010D02*
X11115200Y-13086880D01*
X12731700Y-10667480D02*
X12722300Y-10647900D01*
X10782300Y-3448536D02*
X10662000Y-3427085D01*
X8875900Y-17891750D02*
X8949000Y-17927550D01*
X9591400Y-13326550D02*
X9502000Y-13342450D01*
X7653040Y-15025250D02*
X7633300Y-15095150D01*
X12143500Y-14649250D02*
X12096600Y-14559050D01*
X9153800Y-13438950D02*
X9069500Y-13471050D01*
X11047000Y-13551000D02*
X11084000Y-13568000D01*
X12422000Y-16081750D02*
X12440400Y-16089850D01*
X11579700Y-17543750D02*
X11651300Y-17477350D01*
X12062000Y-16956250D02*
X12100300Y-16888350D01*
X7679790Y-4529660D02*
X7671080Y-4581480D01*
X9502000Y-13342450D02*
X9413500Y-13361750D01*
X12744800Y-15926150D02*
X12748300Y-15903950D01*
X10856400Y-13206150D02*
X10944500Y-13169780D01*
X7273790Y-10709510D02*
X7270370Y-10731710D01*
X7528000Y-16103000D02*
X7498000Y-16105500D01*
X8014100Y-12247260D02*
X8064500Y-12325700D01*
X12342100Y-6009200D02*
X12342100Y-4573160D01*
D11*
D12*
X9674000Y-17491750D02*
X9739000Y-17556750D01*
X9739000Y-17491750D02*
X9674000Y-17556750D01*
X10252000Y-17491750D02*
X10317000Y-17556750D01*
X10317000Y-17491750D02*
X10252000Y-17556750D01*
D13*
X11883000Y-16865500D02*
G75*
G03*
X11883000Y-16865500I-45000J0D01*
G01*
X12033000Y-16605692D02*
G75*
G03*
X12033000Y-16605692I-45000J0D01*
G01*
D11*
X7511829Y-18472974D02*
X7511829Y-18272974D01*
X7511829Y-18272974D02*
X7559448Y-18272974D01*
X7559448Y-18272974D02*
X7588019Y-18282498D01*
X7588019Y-18282498D02*
X7607067Y-18301545D01*
X7607067Y-18301545D02*
X7616591Y-18320593D01*
X7616591Y-18320593D02*
X7626115Y-18358688D01*
X7626115Y-18358688D02*
X7626115Y-18387260D01*
X7626115Y-18387260D02*
X7616591Y-18425355D01*
X7616591Y-18425355D02*
X7607067Y-18444402D01*
X7607067Y-18444402D02*
X7588019Y-18463450D01*
X7588019Y-18463450D02*
X7559448Y-18472974D01*
X7559448Y-18472974D02*
X7511829Y-18472974D01*
X7711829Y-18472974D02*
X7711829Y-18339640D01*
X7711829Y-18377736D02*
X7721353Y-18358688D01*
X7721353Y-18358688D02*
X7730877Y-18349164D01*
X7730877Y-18349164D02*
X7749924Y-18339640D01*
X7749924Y-18339640D02*
X7768972Y-18339640D01*
X7835638Y-18472974D02*
X7835638Y-18339640D01*
X7835638Y-18272974D02*
X7826115Y-18282498D01*
X7826115Y-18282498D02*
X7835638Y-18292021D01*
X7835638Y-18292021D02*
X7845162Y-18282498D01*
X7845162Y-18282498D02*
X7835638Y-18272974D01*
X7835638Y-18272974D02*
X7835638Y-18292021D01*
X7959448Y-18472974D02*
X7940400Y-18463450D01*
X7940400Y-18463450D02*
X7930877Y-18444402D01*
X7930877Y-18444402D02*
X7930877Y-18272974D01*
X8064210Y-18472974D02*
X8045162Y-18463450D01*
X8045162Y-18463450D02*
X8035638Y-18444402D01*
X8035638Y-18444402D02*
X8035638Y-18272974D01*
X8292781Y-18472974D02*
X8292781Y-18272974D01*
X8292781Y-18272974D02*
X8359448Y-18415831D01*
X8359448Y-18415831D02*
X8426115Y-18272974D01*
X8426115Y-18272974D02*
X8426115Y-18472974D01*
X8607067Y-18472974D02*
X8607067Y-18368212D01*
X8607067Y-18368212D02*
X8597543Y-18349164D01*
X8597543Y-18349164D02*
X8578496Y-18339640D01*
X8578496Y-18339640D02*
X8540400Y-18339640D01*
X8540400Y-18339640D02*
X8521353Y-18349164D01*
X8607067Y-18463450D02*
X8588020Y-18472974D01*
X8588020Y-18472974D02*
X8540400Y-18472974D01*
X8540400Y-18472974D02*
X8521353Y-18463450D01*
X8521353Y-18463450D02*
X8511829Y-18444402D01*
X8511829Y-18444402D02*
X8511829Y-18425355D01*
X8511829Y-18425355D02*
X8521353Y-18406307D01*
X8521353Y-18406307D02*
X8540400Y-18396783D01*
X8540400Y-18396783D02*
X8588020Y-18396783D01*
X8588020Y-18396783D02*
X8607067Y-18387260D01*
X8702305Y-18339640D02*
X8702305Y-18539640D01*
X8702305Y-18349164D02*
X8721353Y-18339640D01*
X8721353Y-18339640D02*
X8759448Y-18339640D01*
X8759448Y-18339640D02*
X8778496Y-18349164D01*
X8778496Y-18349164D02*
X8788020Y-18358688D01*
X8788020Y-18358688D02*
X8797543Y-18377736D01*
X8797543Y-18377736D02*
X8797543Y-18434879D01*
X8797543Y-18434879D02*
X8788020Y-18453926D01*
X8788020Y-18453926D02*
X8778496Y-18463450D01*
X8778496Y-18463450D02*
X8759448Y-18472974D01*
X8759448Y-18472974D02*
X8721353Y-18472974D01*
X8721353Y-18472974D02*
X8702305Y-18463450D01*
X8883258Y-18453926D02*
X8892781Y-18463450D01*
X8892781Y-18463450D02*
X8883258Y-18472974D01*
X8883258Y-18472974D02*
X8873734Y-18463450D01*
X8873734Y-18463450D02*
X8883258Y-18453926D01*
X8883258Y-18453926D02*
X8883258Y-18472974D01*
X8883258Y-18349164D02*
X8892781Y-18358688D01*
X8892781Y-18358688D02*
X8883258Y-18368212D01*
X8883258Y-18368212D02*
X8873734Y-18358688D01*
X8873734Y-18358688D02*
X8883258Y-18349164D01*
X8883258Y-18349164D02*
X8883258Y-18368212D01*
D12*
X7199210Y-18767950D02*
X7264210Y-18832950D01*
X7264210Y-18767950D02*
X7199210Y-18832950D01*
D11*
X7549924Y-18692974D02*
X7568972Y-18692974D01*
X7568972Y-18692974D02*
X7588019Y-18702498D01*
X7588019Y-18702498D02*
X7597543Y-18712021D01*
X7597543Y-18712021D02*
X7607067Y-18731069D01*
X7607067Y-18731069D02*
X7616591Y-18769164D01*
X7616591Y-18769164D02*
X7616591Y-18816783D01*
X7616591Y-18816783D02*
X7607067Y-18854879D01*
X7607067Y-18854879D02*
X7597543Y-18873926D01*
X7597543Y-18873926D02*
X7588019Y-18883450D01*
X7588019Y-18883450D02*
X7568972Y-18892974D01*
X7568972Y-18892974D02*
X7549924Y-18892974D01*
X7549924Y-18892974D02*
X7530877Y-18883450D01*
X7530877Y-18883450D02*
X7521353Y-18873926D01*
X7521353Y-18873926D02*
X7511829Y-18854879D01*
X7511829Y-18854879D02*
X7502305Y-18816783D01*
X7502305Y-18816783D02*
X7502305Y-18769164D01*
X7502305Y-18769164D02*
X7511829Y-18731069D01*
X7511829Y-18731069D02*
X7521353Y-18712021D01*
X7521353Y-18712021D02*
X7530877Y-18702498D01*
X7530877Y-18702498D02*
X7549924Y-18692974D01*
X7702305Y-18873926D02*
X7711829Y-18883450D01*
X7711829Y-18883450D02*
X7702305Y-18892974D01*
X7702305Y-18892974D02*
X7692781Y-18883450D01*
X7692781Y-18883450D02*
X7702305Y-18873926D01*
X7702305Y-18873926D02*
X7702305Y-18892974D01*
X7883258Y-18692974D02*
X7845162Y-18692974D01*
X7845162Y-18692974D02*
X7826115Y-18702498D01*
X7826115Y-18702498D02*
X7816591Y-18712021D01*
X7816591Y-18712021D02*
X7797543Y-18740593D01*
X7797543Y-18740593D02*
X7788019Y-18778688D01*
X7788019Y-18778688D02*
X7788019Y-18854879D01*
X7788019Y-18854879D02*
X7797543Y-18873926D01*
X7797543Y-18873926D02*
X7807067Y-18883450D01*
X7807067Y-18883450D02*
X7826115Y-18892974D01*
X7826115Y-18892974D02*
X7864210Y-18892974D01*
X7864210Y-18892974D02*
X7883258Y-18883450D01*
X7883258Y-18883450D02*
X7892781Y-18873926D01*
X7892781Y-18873926D02*
X7902305Y-18854879D01*
X7902305Y-18854879D02*
X7902305Y-18807260D01*
X7902305Y-18807260D02*
X7892781Y-18788212D01*
X7892781Y-18788212D02*
X7883258Y-18778688D01*
X7883258Y-18778688D02*
X7864210Y-18769164D01*
X7864210Y-18769164D02*
X7826115Y-18769164D01*
X7826115Y-18769164D02*
X7807067Y-18778688D01*
X7807067Y-18778688D02*
X7797543Y-18788212D01*
X7797543Y-18788212D02*
X7788019Y-18807260D01*
X8083258Y-18692974D02*
X7988019Y-18692974D01*
X7988019Y-18692974D02*
X7978496Y-18788212D01*
X7978496Y-18788212D02*
X7988019Y-18778688D01*
X7988019Y-18778688D02*
X8007067Y-18769164D01*
X8007067Y-18769164D02*
X8054686Y-18769164D01*
X8054686Y-18769164D02*
X8073734Y-18778688D01*
X8073734Y-18778688D02*
X8083258Y-18788212D01*
X8083258Y-18788212D02*
X8092781Y-18807260D01*
X8092781Y-18807260D02*
X8092781Y-18854879D01*
X8092781Y-18854879D02*
X8083258Y-18873926D01*
X8083258Y-18873926D02*
X8073734Y-18883450D01*
X8073734Y-18883450D02*
X8054686Y-18892974D01*
X8054686Y-18892974D02*
X8007067Y-18892974D01*
X8007067Y-18892974D02*
X7988019Y-18883450D01*
X7988019Y-18883450D02*
X7978496Y-18873926D01*
X8216591Y-18692974D02*
X8235639Y-18692974D01*
X8235639Y-18692974D02*
X8254686Y-18702498D01*
X8254686Y-18702498D02*
X8264210Y-18712021D01*
X8264210Y-18712021D02*
X8273734Y-18731069D01*
X8273734Y-18731069D02*
X8283258Y-18769164D01*
X8283258Y-18769164D02*
X8283258Y-18816783D01*
X8283258Y-18816783D02*
X8273734Y-18854879D01*
X8273734Y-18854879D02*
X8264210Y-18873926D01*
X8264210Y-18873926D02*
X8254686Y-18883450D01*
X8254686Y-18883450D02*
X8235639Y-18892974D01*
X8235639Y-18892974D02*
X8216591Y-18892974D01*
X8216591Y-18892974D02*
X8197543Y-18883450D01*
X8197543Y-18883450D02*
X8188019Y-18873926D01*
X8188019Y-18873926D02*
X8178496Y-18854879D01*
X8178496Y-18854879D02*
X8168972Y-18816783D01*
X8168972Y-18816783D02*
X8168972Y-18769164D01*
X8168972Y-18769164D02*
X8178496Y-18731069D01*
X8178496Y-18731069D02*
X8188019Y-18712021D01*
X8188019Y-18712021D02*
X8197543Y-18702498D01*
X8197543Y-18702498D02*
X8216591Y-18692974D01*
X8368972Y-18892974D02*
X8368972Y-18759640D01*
X8368972Y-18778688D02*
X8378496Y-18769164D01*
X8378496Y-18769164D02*
X8397543Y-18759640D01*
X8397543Y-18759640D02*
X8426115Y-18759640D01*
X8426115Y-18759640D02*
X8445162Y-18769164D01*
X8445162Y-18769164D02*
X8454686Y-18788212D01*
X8454686Y-18788212D02*
X8454686Y-18892974D01*
X8454686Y-18788212D02*
X8464210Y-18769164D01*
X8464210Y-18769164D02*
X8483258Y-18759640D01*
X8483258Y-18759640D02*
X8511829Y-18759640D01*
X8511829Y-18759640D02*
X8530877Y-18769164D01*
X8530877Y-18769164D02*
X8540401Y-18788212D01*
X8540401Y-18788212D02*
X8540401Y-18892974D01*
X8635639Y-18892974D02*
X8635639Y-18759640D01*
X8635639Y-18778688D02*
X8645162Y-18769164D01*
X8645162Y-18769164D02*
X8664210Y-18759640D01*
X8664210Y-18759640D02*
X8692782Y-18759640D01*
X8692782Y-18759640D02*
X8711829Y-18769164D01*
X8711829Y-18769164D02*
X8721353Y-18788212D01*
X8721353Y-18788212D02*
X8721353Y-18892974D01*
X8721353Y-18788212D02*
X8730877Y-18769164D01*
X8730877Y-18769164D02*
X8749924Y-18759640D01*
X8749924Y-18759640D02*
X8778496Y-18759640D01*
X8778496Y-18759640D02*
X8797543Y-18769164D01*
X8797543Y-18769164D02*
X8807067Y-18788212D01*
X8807067Y-18788212D02*
X8807067Y-18892974D01*
X9197543Y-18683450D02*
X9026115Y-18940593D01*
X9454686Y-18692974D02*
X9473734Y-18692974D01*
X9473734Y-18692974D02*
X9492782Y-18702498D01*
X9492782Y-18702498D02*
X9502305Y-18712021D01*
X9502305Y-18712021D02*
X9511829Y-18731069D01*
X9511829Y-18731069D02*
X9521353Y-18769164D01*
X9521353Y-18769164D02*
X9521353Y-18816783D01*
X9521353Y-18816783D02*
X9511829Y-18854879D01*
X9511829Y-18854879D02*
X9502305Y-18873926D01*
X9502305Y-18873926D02*
X9492782Y-18883450D01*
X9492782Y-18883450D02*
X9473734Y-18892974D01*
X9473734Y-18892974D02*
X9454686Y-18892974D01*
X9454686Y-18892974D02*
X9435639Y-18883450D01*
X9435639Y-18883450D02*
X9426115Y-18873926D01*
X9426115Y-18873926D02*
X9416591Y-18854879D01*
X9416591Y-18854879D02*
X9407067Y-18816783D01*
X9407067Y-18816783D02*
X9407067Y-18769164D01*
X9407067Y-18769164D02*
X9416591Y-18731069D01*
X9416591Y-18731069D02*
X9426115Y-18712021D01*
X9426115Y-18712021D02*
X9435639Y-18702498D01*
X9435639Y-18702498D02*
X9454686Y-18692974D01*
X9607067Y-18873926D02*
X9616591Y-18883450D01*
X9616591Y-18883450D02*
X9607067Y-18892974D01*
X9607067Y-18892974D02*
X9597544Y-18883450D01*
X9597544Y-18883450D02*
X9607067Y-18873926D01*
X9607067Y-18873926D02*
X9607067Y-18892974D01*
X9740401Y-18692974D02*
X9759448Y-18692974D01*
X9759448Y-18692974D02*
X9778496Y-18702498D01*
X9778496Y-18702498D02*
X9788020Y-18712021D01*
X9788020Y-18712021D02*
X9797544Y-18731069D01*
X9797544Y-18731069D02*
X9807067Y-18769164D01*
X9807067Y-18769164D02*
X9807067Y-18816783D01*
X9807067Y-18816783D02*
X9797544Y-18854879D01*
X9797544Y-18854879D02*
X9788020Y-18873926D01*
X9788020Y-18873926D02*
X9778496Y-18883450D01*
X9778496Y-18883450D02*
X9759448Y-18892974D01*
X9759448Y-18892974D02*
X9740401Y-18892974D01*
X9740401Y-18892974D02*
X9721353Y-18883450D01*
X9721353Y-18883450D02*
X9711829Y-18873926D01*
X9711829Y-18873926D02*
X9702305Y-18854879D01*
X9702305Y-18854879D02*
X9692782Y-18816783D01*
X9692782Y-18816783D02*
X9692782Y-18769164D01*
X9692782Y-18769164D02*
X9702305Y-18731069D01*
X9702305Y-18731069D02*
X9711829Y-18712021D01*
X9711829Y-18712021D02*
X9721353Y-18702498D01*
X9721353Y-18702498D02*
X9740401Y-18692974D01*
X9883258Y-18712021D02*
X9892782Y-18702498D01*
X9892782Y-18702498D02*
X9911829Y-18692974D01*
X9911829Y-18692974D02*
X9959448Y-18692974D01*
X9959448Y-18692974D02*
X9978496Y-18702498D01*
X9978496Y-18702498D02*
X9988020Y-18712021D01*
X9988020Y-18712021D02*
X9997544Y-18731069D01*
X9997544Y-18731069D02*
X9997544Y-18750117D01*
X9997544Y-18750117D02*
X9988020Y-18778688D01*
X9988020Y-18778688D02*
X9873734Y-18892974D01*
X9873734Y-18892974D02*
X9997544Y-18892974D01*
X10178496Y-18692974D02*
X10083258Y-18692974D01*
X10083258Y-18692974D02*
X10073734Y-18788212D01*
X10073734Y-18788212D02*
X10083258Y-18778688D01*
X10083258Y-18778688D02*
X10102305Y-18769164D01*
X10102305Y-18769164D02*
X10149925Y-18769164D01*
X10149925Y-18769164D02*
X10168972Y-18778688D01*
X10168972Y-18778688D02*
X10178496Y-18788212D01*
X10178496Y-18788212D02*
X10188020Y-18807260D01*
X10188020Y-18807260D02*
X10188020Y-18854879D01*
X10188020Y-18854879D02*
X10178496Y-18873926D01*
X10178496Y-18873926D02*
X10168972Y-18883450D01*
X10168972Y-18883450D02*
X10149925Y-18892974D01*
X10149925Y-18892974D02*
X10102305Y-18892974D01*
X10102305Y-18892974D02*
X10083258Y-18883450D01*
X10083258Y-18883450D02*
X10073734Y-18873926D01*
X10359448Y-18692974D02*
X10321353Y-18692974D01*
X10321353Y-18692974D02*
X10302305Y-18702498D01*
X10302305Y-18702498D02*
X10292782Y-18712021D01*
X10292782Y-18712021D02*
X10273734Y-18740593D01*
X10273734Y-18740593D02*
X10264210Y-18778688D01*
X10264210Y-18778688D02*
X10264210Y-18854879D01*
X10264210Y-18854879D02*
X10273734Y-18873926D01*
X10273734Y-18873926D02*
X10283258Y-18883450D01*
X10283258Y-18883450D02*
X10302305Y-18892974D01*
X10302305Y-18892974D02*
X10340401Y-18892974D01*
X10340401Y-18892974D02*
X10359448Y-18883450D01*
X10359448Y-18883450D02*
X10368972Y-18873926D01*
X10368972Y-18873926D02*
X10378496Y-18854879D01*
X10378496Y-18854879D02*
X10378496Y-18807260D01*
X10378496Y-18807260D02*
X10368972Y-18788212D01*
X10368972Y-18788212D02*
X10359448Y-18778688D01*
X10359448Y-18778688D02*
X10340401Y-18769164D01*
X10340401Y-18769164D02*
X10302305Y-18769164D01*
X10302305Y-18769164D02*
X10283258Y-18778688D01*
X10283258Y-18778688D02*
X10273734Y-18788212D01*
X10273734Y-18788212D02*
X10264210Y-18807260D01*
X10454686Y-18692974D02*
X10454686Y-18731069D01*
X10530877Y-18692974D02*
X10530877Y-18731069D01*
X10826115Y-18969164D02*
X10816591Y-18959640D01*
X10816591Y-18959640D02*
X10797544Y-18931069D01*
X10797544Y-18931069D02*
X10788020Y-18912021D01*
X10788020Y-18912021D02*
X10778496Y-18883450D01*
X10778496Y-18883450D02*
X10768972Y-18835831D01*
X10768972Y-18835831D02*
X10768972Y-18797736D01*
X10768972Y-18797736D02*
X10778496Y-18750117D01*
X10778496Y-18750117D02*
X10788020Y-18721545D01*
X10788020Y-18721545D02*
X10797544Y-18702498D01*
X10797544Y-18702498D02*
X10816591Y-18673926D01*
X10816591Y-18673926D02*
X10826115Y-18664402D01*
X10892782Y-18712021D02*
X10902306Y-18702498D01*
X10902306Y-18702498D02*
X10921353Y-18692974D01*
X10921353Y-18692974D02*
X10968972Y-18692974D01*
X10968972Y-18692974D02*
X10988020Y-18702498D01*
X10988020Y-18702498D02*
X10997544Y-18712021D01*
X10997544Y-18712021D02*
X11007067Y-18731069D01*
X11007067Y-18731069D02*
X11007067Y-18750117D01*
X11007067Y-18750117D02*
X10997544Y-18778688D01*
X10997544Y-18778688D02*
X10883258Y-18892974D01*
X10883258Y-18892974D02*
X11007067Y-18892974D01*
X11245163Y-18892974D02*
X11245163Y-18692974D01*
X11330877Y-18892974D02*
X11330877Y-18788212D01*
X11330877Y-18788212D02*
X11321353Y-18769164D01*
X11321353Y-18769164D02*
X11302306Y-18759640D01*
X11302306Y-18759640D02*
X11273734Y-18759640D01*
X11273734Y-18759640D02*
X11254686Y-18769164D01*
X11254686Y-18769164D02*
X11245163Y-18778688D01*
X11454686Y-18892974D02*
X11435639Y-18883450D01*
X11435639Y-18883450D02*
X11426115Y-18873926D01*
X11426115Y-18873926D02*
X11416591Y-18854879D01*
X11416591Y-18854879D02*
X11416591Y-18797736D01*
X11416591Y-18797736D02*
X11426115Y-18778688D01*
X11426115Y-18778688D02*
X11435639Y-18769164D01*
X11435639Y-18769164D02*
X11454686Y-18759640D01*
X11454686Y-18759640D02*
X11483258Y-18759640D01*
X11483258Y-18759640D02*
X11502306Y-18769164D01*
X11502306Y-18769164D02*
X11511829Y-18778688D01*
X11511829Y-18778688D02*
X11521353Y-18797736D01*
X11521353Y-18797736D02*
X11521353Y-18854879D01*
X11521353Y-18854879D02*
X11511829Y-18873926D01*
X11511829Y-18873926D02*
X11502306Y-18883450D01*
X11502306Y-18883450D02*
X11483258Y-18892974D01*
X11483258Y-18892974D02*
X11454686Y-18892974D01*
X11635639Y-18892974D02*
X11616591Y-18883450D01*
X11616591Y-18883450D02*
X11607067Y-18864402D01*
X11607067Y-18864402D02*
X11607067Y-18692974D01*
X11788020Y-18883450D02*
X11768972Y-18892974D01*
X11768972Y-18892974D02*
X11730877Y-18892974D01*
X11730877Y-18892974D02*
X11711829Y-18883450D01*
X11711829Y-18883450D02*
X11702306Y-18864402D01*
X11702306Y-18864402D02*
X11702306Y-18788212D01*
X11702306Y-18788212D02*
X11711829Y-18769164D01*
X11711829Y-18769164D02*
X11730877Y-18759640D01*
X11730877Y-18759640D02*
X11768972Y-18759640D01*
X11768972Y-18759640D02*
X11788020Y-18769164D01*
X11788020Y-18769164D02*
X11797544Y-18788212D01*
X11797544Y-18788212D02*
X11797544Y-18807260D01*
X11797544Y-18807260D02*
X11702306Y-18826307D01*
X11873734Y-18883450D02*
X11892782Y-18892974D01*
X11892782Y-18892974D02*
X11930877Y-18892974D01*
X11930877Y-18892974D02*
X11949925Y-18883450D01*
X11949925Y-18883450D02*
X11959448Y-18864402D01*
X11959448Y-18864402D02*
X11959448Y-18854879D01*
X11959448Y-18854879D02*
X11949925Y-18835831D01*
X11949925Y-18835831D02*
X11930877Y-18826307D01*
X11930877Y-18826307D02*
X11902306Y-18826307D01*
X11902306Y-18826307D02*
X11883258Y-18816783D01*
X11883258Y-18816783D02*
X11873734Y-18797736D01*
X11873734Y-18797736D02*
X11873734Y-18788212D01*
X11873734Y-18788212D02*
X11883258Y-18769164D01*
X11883258Y-18769164D02*
X11902306Y-18759640D01*
X11902306Y-18759640D02*
X11930877Y-18759640D01*
X11930877Y-18759640D02*
X11949925Y-18769164D01*
X12026115Y-18969164D02*
X12035639Y-18959640D01*
X12035639Y-18959640D02*
X12054687Y-18931069D01*
X12054687Y-18931069D02*
X12064210Y-18912021D01*
X12064210Y-18912021D02*
X12073734Y-18883450D01*
X12073734Y-18883450D02*
X12083258Y-18835831D01*
X12083258Y-18835831D02*
X12083258Y-18797736D01*
X12083258Y-18797736D02*
X12073734Y-18750117D01*
X12073734Y-18750117D02*
X12064210Y-18721545D01*
X12064210Y-18721545D02*
X12054687Y-18702498D01*
X12054687Y-18702498D02*
X12035639Y-18673926D01*
X12035639Y-18673926D02*
X12026115Y-18664402D01*
X12388020Y-18969164D02*
X12378496Y-18959640D01*
X12378496Y-18959640D02*
X12359448Y-18931069D01*
X12359448Y-18931069D02*
X12349925Y-18912021D01*
X12349925Y-18912021D02*
X12340401Y-18883450D01*
X12340401Y-18883450D02*
X12330877Y-18835831D01*
X12330877Y-18835831D02*
X12330877Y-18797736D01*
X12330877Y-18797736D02*
X12340401Y-18750117D01*
X12340401Y-18750117D02*
X12349925Y-18721545D01*
X12349925Y-18721545D02*
X12359448Y-18702498D01*
X12359448Y-18702498D02*
X12378496Y-18673926D01*
X12378496Y-18673926D02*
X12388020Y-18664402D01*
X12464210Y-18759640D02*
X12464210Y-18892974D01*
X12464210Y-18778688D02*
X12473734Y-18769164D01*
X12473734Y-18769164D02*
X12492782Y-18759640D01*
X12492782Y-18759640D02*
X12521353Y-18759640D01*
X12521353Y-18759640D02*
X12540401Y-18769164D01*
X12540401Y-18769164D02*
X12549925Y-18788212D01*
X12549925Y-18788212D02*
X12549925Y-18892974D01*
X12673734Y-18892974D02*
X12654687Y-18883450D01*
X12654687Y-18883450D02*
X12645163Y-18873926D01*
X12645163Y-18873926D02*
X12635639Y-18854879D01*
X12635639Y-18854879D02*
X12635639Y-18797736D01*
X12635639Y-18797736D02*
X12645163Y-18778688D01*
X12645163Y-18778688D02*
X12654687Y-18769164D01*
X12654687Y-18769164D02*
X12673734Y-18759640D01*
X12673734Y-18759640D02*
X12702306Y-18759640D01*
X12702306Y-18759640D02*
X12721353Y-18769164D01*
X12721353Y-18769164D02*
X12730877Y-18778688D01*
X12730877Y-18778688D02*
X12740401Y-18797736D01*
X12740401Y-18797736D02*
X12740401Y-18854879D01*
X12740401Y-18854879D02*
X12730877Y-18873926D01*
X12730877Y-18873926D02*
X12721353Y-18883450D01*
X12721353Y-18883450D02*
X12702306Y-18892974D01*
X12702306Y-18892974D02*
X12673734Y-18892974D01*
X12797544Y-18759640D02*
X12873734Y-18759640D01*
X12826115Y-18692974D02*
X12826115Y-18864402D01*
X12826115Y-18864402D02*
X12835639Y-18883450D01*
X12835639Y-18883450D02*
X12854687Y-18892974D01*
X12854687Y-18892974D02*
X12873734Y-18892974D01*
X13092782Y-18759640D02*
X13092782Y-18959640D01*
X13092782Y-18769164D02*
X13111829Y-18759640D01*
X13111829Y-18759640D02*
X13149925Y-18759640D01*
X13149925Y-18759640D02*
X13168972Y-18769164D01*
X13168972Y-18769164D02*
X13178496Y-18778688D01*
X13178496Y-18778688D02*
X13188020Y-18797736D01*
X13188020Y-18797736D02*
X13188020Y-18854879D01*
X13188020Y-18854879D02*
X13178496Y-18873926D01*
X13178496Y-18873926D02*
X13168972Y-18883450D01*
X13168972Y-18883450D02*
X13149925Y-18892974D01*
X13149925Y-18892974D02*
X13111829Y-18892974D01*
X13111829Y-18892974D02*
X13092782Y-18883450D01*
X13302306Y-18892974D02*
X13283258Y-18883450D01*
X13283258Y-18883450D02*
X13273734Y-18864402D01*
X13273734Y-18864402D02*
X13273734Y-18692974D01*
X13464210Y-18892974D02*
X13464210Y-18788212D01*
X13464210Y-18788212D02*
X13454687Y-18769164D01*
X13454687Y-18769164D02*
X13435639Y-18759640D01*
X13435639Y-18759640D02*
X13397544Y-18759640D01*
X13397544Y-18759640D02*
X13378496Y-18769164D01*
X13464210Y-18883450D02*
X13445163Y-18892974D01*
X13445163Y-18892974D02*
X13397544Y-18892974D01*
X13397544Y-18892974D02*
X13378496Y-18883450D01*
X13378496Y-18883450D02*
X13368972Y-18864402D01*
X13368972Y-18864402D02*
X13368972Y-18845355D01*
X13368972Y-18845355D02*
X13378496Y-18826307D01*
X13378496Y-18826307D02*
X13397544Y-18816783D01*
X13397544Y-18816783D02*
X13445163Y-18816783D01*
X13445163Y-18816783D02*
X13464210Y-18807260D01*
X13530877Y-18759640D02*
X13607068Y-18759640D01*
X13559449Y-18692974D02*
X13559449Y-18864402D01*
X13559449Y-18864402D02*
X13568972Y-18883450D01*
X13568972Y-18883450D02*
X13588020Y-18892974D01*
X13588020Y-18892974D02*
X13607068Y-18892974D01*
X13749925Y-18883450D02*
X13730877Y-18892974D01*
X13730877Y-18892974D02*
X13692782Y-18892974D01*
X13692782Y-18892974D02*
X13673734Y-18883450D01*
X13673734Y-18883450D02*
X13664210Y-18864402D01*
X13664210Y-18864402D02*
X13664210Y-18788212D01*
X13664210Y-18788212D02*
X13673734Y-18769164D01*
X13673734Y-18769164D02*
X13692782Y-18759640D01*
X13692782Y-18759640D02*
X13730877Y-18759640D01*
X13730877Y-18759640D02*
X13749925Y-18769164D01*
X13749925Y-18769164D02*
X13759449Y-18788212D01*
X13759449Y-18788212D02*
X13759449Y-18807260D01*
X13759449Y-18807260D02*
X13664210Y-18826307D01*
X13930877Y-18892974D02*
X13930877Y-18692974D01*
X13930877Y-18883450D02*
X13911830Y-18892974D01*
X13911830Y-18892974D02*
X13873734Y-18892974D01*
X13873734Y-18892974D02*
X13854687Y-18883450D01*
X13854687Y-18883450D02*
X13845163Y-18873926D01*
X13845163Y-18873926D02*
X13835639Y-18854879D01*
X13835639Y-18854879D02*
X13835639Y-18797736D01*
X13835639Y-18797736D02*
X13845163Y-18778688D01*
X13845163Y-18778688D02*
X13854687Y-18769164D01*
X13854687Y-18769164D02*
X13873734Y-18759640D01*
X13873734Y-18759640D02*
X13911830Y-18759640D01*
X13911830Y-18759640D02*
X13930877Y-18769164D01*
X14007068Y-18969164D02*
X14016591Y-18959640D01*
X14016591Y-18959640D02*
X14035639Y-18931069D01*
X14035639Y-18931069D02*
X14045163Y-18912021D01*
X14045163Y-18912021D02*
X14054687Y-18883450D01*
X14054687Y-18883450D02*
X14064210Y-18835831D01*
X14064210Y-18835831D02*
X14064210Y-18797736D01*
X14064210Y-18797736D02*
X14054687Y-18750117D01*
X14054687Y-18750117D02*
X14045163Y-18721545D01*
X14045163Y-18721545D02*
X14035639Y-18702498D01*
X14035639Y-18702498D02*
X14016591Y-18673926D01*
X14016591Y-18673926D02*
X14007068Y-18664402D01*
D13*
X7264210Y-19064450D02*
G75*
G03*
X7264210Y-19064450I-45000J0D01*
G01*
D11*
X7549924Y-18956974D02*
X7568972Y-18956974D01*
X7568972Y-18956974D02*
X7588019Y-18966498D01*
X7588019Y-18966498D02*
X7597543Y-18976021D01*
X7597543Y-18976021D02*
X7607067Y-18995069D01*
X7607067Y-18995069D02*
X7616591Y-19033164D01*
X7616591Y-19033164D02*
X7616591Y-19080783D01*
X7616591Y-19080783D02*
X7607067Y-19118879D01*
X7607067Y-19118879D02*
X7597543Y-19137926D01*
X7597543Y-19137926D02*
X7588019Y-19147450D01*
X7588019Y-19147450D02*
X7568972Y-19156974D01*
X7568972Y-19156974D02*
X7549924Y-19156974D01*
X7549924Y-19156974D02*
X7530877Y-19147450D01*
X7530877Y-19147450D02*
X7521353Y-19137926D01*
X7521353Y-19137926D02*
X7511829Y-19118879D01*
X7511829Y-19118879D02*
X7502305Y-19080783D01*
X7502305Y-19080783D02*
X7502305Y-19033164D01*
X7502305Y-19033164D02*
X7511829Y-18995069D01*
X7511829Y-18995069D02*
X7521353Y-18976021D01*
X7521353Y-18976021D02*
X7530877Y-18966498D01*
X7530877Y-18966498D02*
X7549924Y-18956974D01*
X7702305Y-19137926D02*
X7711829Y-19147450D01*
X7711829Y-19147450D02*
X7702305Y-19156974D01*
X7702305Y-19156974D02*
X7692781Y-19147450D01*
X7692781Y-19147450D02*
X7702305Y-19137926D01*
X7702305Y-19137926D02*
X7702305Y-19156974D01*
X7807067Y-19156974D02*
X7845162Y-19156974D01*
X7845162Y-19156974D02*
X7864210Y-19147450D01*
X7864210Y-19147450D02*
X7873734Y-19137926D01*
X7873734Y-19137926D02*
X7892781Y-19109355D01*
X7892781Y-19109355D02*
X7902305Y-19071260D01*
X7902305Y-19071260D02*
X7902305Y-18995069D01*
X7902305Y-18995069D02*
X7892781Y-18976021D01*
X7892781Y-18976021D02*
X7883258Y-18966498D01*
X7883258Y-18966498D02*
X7864210Y-18956974D01*
X7864210Y-18956974D02*
X7826115Y-18956974D01*
X7826115Y-18956974D02*
X7807067Y-18966498D01*
X7807067Y-18966498D02*
X7797543Y-18976021D01*
X7797543Y-18976021D02*
X7788019Y-18995069D01*
X7788019Y-18995069D02*
X7788019Y-19042688D01*
X7788019Y-19042688D02*
X7797543Y-19061736D01*
X7797543Y-19061736D02*
X7807067Y-19071260D01*
X7807067Y-19071260D02*
X7826115Y-19080783D01*
X7826115Y-19080783D02*
X7864210Y-19080783D01*
X7864210Y-19080783D02*
X7883258Y-19071260D01*
X7883258Y-19071260D02*
X7892781Y-19061736D01*
X7892781Y-19061736D02*
X7902305Y-19042688D01*
X8026115Y-18956974D02*
X8045162Y-18956974D01*
X8045162Y-18956974D02*
X8064210Y-18966498D01*
X8064210Y-18966498D02*
X8073734Y-18976021D01*
X8073734Y-18976021D02*
X8083258Y-18995069D01*
X8083258Y-18995069D02*
X8092781Y-19033164D01*
X8092781Y-19033164D02*
X8092781Y-19080783D01*
X8092781Y-19080783D02*
X8083258Y-19118879D01*
X8083258Y-19118879D02*
X8073734Y-19137926D01*
X8073734Y-19137926D02*
X8064210Y-19147450D01*
X8064210Y-19147450D02*
X8045162Y-19156974D01*
X8045162Y-19156974D02*
X8026115Y-19156974D01*
X8026115Y-19156974D02*
X8007067Y-19147450D01*
X8007067Y-19147450D02*
X7997543Y-19137926D01*
X7997543Y-19137926D02*
X7988019Y-19118879D01*
X7988019Y-19118879D02*
X7978496Y-19080783D01*
X7978496Y-19080783D02*
X7978496Y-19033164D01*
X7978496Y-19033164D02*
X7988019Y-18995069D01*
X7988019Y-18995069D02*
X7997543Y-18976021D01*
X7997543Y-18976021D02*
X8007067Y-18966498D01*
X8007067Y-18966498D02*
X8026115Y-18956974D01*
X8216591Y-18956974D02*
X8235639Y-18956974D01*
X8235639Y-18956974D02*
X8254686Y-18966498D01*
X8254686Y-18966498D02*
X8264210Y-18976021D01*
X8264210Y-18976021D02*
X8273734Y-18995069D01*
X8273734Y-18995069D02*
X8283258Y-19033164D01*
X8283258Y-19033164D02*
X8283258Y-19080783D01*
X8283258Y-19080783D02*
X8273734Y-19118879D01*
X8273734Y-19118879D02*
X8264210Y-19137926D01*
X8264210Y-19137926D02*
X8254686Y-19147450D01*
X8254686Y-19147450D02*
X8235639Y-19156974D01*
X8235639Y-19156974D02*
X8216591Y-19156974D01*
X8216591Y-19156974D02*
X8197543Y-19147450D01*
X8197543Y-19147450D02*
X8188019Y-19137926D01*
X8188019Y-19137926D02*
X8178496Y-19118879D01*
X8178496Y-19118879D02*
X8168972Y-19080783D01*
X8168972Y-19080783D02*
X8168972Y-19033164D01*
X8168972Y-19033164D02*
X8178496Y-18995069D01*
X8178496Y-18995069D02*
X8188019Y-18976021D01*
X8188019Y-18976021D02*
X8197543Y-18966498D01*
X8197543Y-18966498D02*
X8216591Y-18956974D01*
X8368972Y-19156974D02*
X8368972Y-19023640D01*
X8368972Y-19042688D02*
X8378496Y-19033164D01*
X8378496Y-19033164D02*
X8397543Y-19023640D01*
X8397543Y-19023640D02*
X8426115Y-19023640D01*
X8426115Y-19023640D02*
X8445162Y-19033164D01*
X8445162Y-19033164D02*
X8454686Y-19052212D01*
X8454686Y-19052212D02*
X8454686Y-19156974D01*
X8454686Y-19052212D02*
X8464210Y-19033164D01*
X8464210Y-19033164D02*
X8483258Y-19023640D01*
X8483258Y-19023640D02*
X8511829Y-19023640D01*
X8511829Y-19023640D02*
X8530877Y-19033164D01*
X8530877Y-19033164D02*
X8540401Y-19052212D01*
X8540401Y-19052212D02*
X8540401Y-19156974D01*
X8635639Y-19156974D02*
X8635639Y-19023640D01*
X8635639Y-19042688D02*
X8645162Y-19033164D01*
X8645162Y-19033164D02*
X8664210Y-19023640D01*
X8664210Y-19023640D02*
X8692782Y-19023640D01*
X8692782Y-19023640D02*
X8711829Y-19033164D01*
X8711829Y-19033164D02*
X8721353Y-19052212D01*
X8721353Y-19052212D02*
X8721353Y-19156974D01*
X8721353Y-19052212D02*
X8730877Y-19033164D01*
X8730877Y-19033164D02*
X8749924Y-19023640D01*
X8749924Y-19023640D02*
X8778496Y-19023640D01*
X8778496Y-19023640D02*
X8797543Y-19033164D01*
X8797543Y-19033164D02*
X8807067Y-19052212D01*
X8807067Y-19052212D02*
X8807067Y-19156974D01*
X9197543Y-18947450D02*
X9026115Y-19204593D01*
X9454686Y-18956974D02*
X9473734Y-18956974D01*
X9473734Y-18956974D02*
X9492782Y-18966498D01*
X9492782Y-18966498D02*
X9502305Y-18976021D01*
X9502305Y-18976021D02*
X9511829Y-18995069D01*
X9511829Y-18995069D02*
X9521353Y-19033164D01*
X9521353Y-19033164D02*
X9521353Y-19080783D01*
X9521353Y-19080783D02*
X9511829Y-19118879D01*
X9511829Y-19118879D02*
X9502305Y-19137926D01*
X9502305Y-19137926D02*
X9492782Y-19147450D01*
X9492782Y-19147450D02*
X9473734Y-19156974D01*
X9473734Y-19156974D02*
X9454686Y-19156974D01*
X9454686Y-19156974D02*
X9435639Y-19147450D01*
X9435639Y-19147450D02*
X9426115Y-19137926D01*
X9426115Y-19137926D02*
X9416591Y-19118879D01*
X9416591Y-19118879D02*
X9407067Y-19080783D01*
X9407067Y-19080783D02*
X9407067Y-19033164D01*
X9407067Y-19033164D02*
X9416591Y-18995069D01*
X9416591Y-18995069D02*
X9426115Y-18976021D01*
X9426115Y-18976021D02*
X9435639Y-18966498D01*
X9435639Y-18966498D02*
X9454686Y-18956974D01*
X9607067Y-19137926D02*
X9616591Y-19147450D01*
X9616591Y-19147450D02*
X9607067Y-19156974D01*
X9607067Y-19156974D02*
X9597544Y-19147450D01*
X9597544Y-19147450D02*
X9607067Y-19137926D01*
X9607067Y-19137926D02*
X9607067Y-19156974D01*
X9740401Y-18956974D02*
X9759448Y-18956974D01*
X9759448Y-18956974D02*
X9778496Y-18966498D01*
X9778496Y-18966498D02*
X9788020Y-18976021D01*
X9788020Y-18976021D02*
X9797544Y-18995069D01*
X9797544Y-18995069D02*
X9807067Y-19033164D01*
X9807067Y-19033164D02*
X9807067Y-19080783D01*
X9807067Y-19080783D02*
X9797544Y-19118879D01*
X9797544Y-19118879D02*
X9788020Y-19137926D01*
X9788020Y-19137926D02*
X9778496Y-19147450D01*
X9778496Y-19147450D02*
X9759448Y-19156974D01*
X9759448Y-19156974D02*
X9740401Y-19156974D01*
X9740401Y-19156974D02*
X9721353Y-19147450D01*
X9721353Y-19147450D02*
X9711829Y-19137926D01*
X9711829Y-19137926D02*
X9702305Y-19118879D01*
X9702305Y-19118879D02*
X9692782Y-19080783D01*
X9692782Y-19080783D02*
X9692782Y-19033164D01*
X9692782Y-19033164D02*
X9702305Y-18995069D01*
X9702305Y-18995069D02*
X9711829Y-18976021D01*
X9711829Y-18976021D02*
X9721353Y-18966498D01*
X9721353Y-18966498D02*
X9740401Y-18956974D01*
X9873734Y-18956974D02*
X9997544Y-18956974D01*
X9997544Y-18956974D02*
X9930877Y-19033164D01*
X9930877Y-19033164D02*
X9959448Y-19033164D01*
X9959448Y-19033164D02*
X9978496Y-19042688D01*
X9978496Y-19042688D02*
X9988020Y-19052212D01*
X9988020Y-19052212D02*
X9997544Y-19071260D01*
X9997544Y-19071260D02*
X9997544Y-19118879D01*
X9997544Y-19118879D02*
X9988020Y-19137926D01*
X9988020Y-19137926D02*
X9978496Y-19147450D01*
X9978496Y-19147450D02*
X9959448Y-19156974D01*
X9959448Y-19156974D02*
X9902305Y-19156974D01*
X9902305Y-19156974D02*
X9883258Y-19147450D01*
X9883258Y-19147450D02*
X9873734Y-19137926D01*
X10178496Y-18956974D02*
X10083258Y-18956974D01*
X10083258Y-18956974D02*
X10073734Y-19052212D01*
X10073734Y-19052212D02*
X10083258Y-19042688D01*
X10083258Y-19042688D02*
X10102305Y-19033164D01*
X10102305Y-19033164D02*
X10149925Y-19033164D01*
X10149925Y-19033164D02*
X10168972Y-19042688D01*
X10168972Y-19042688D02*
X10178496Y-19052212D01*
X10178496Y-19052212D02*
X10188020Y-19071260D01*
X10188020Y-19071260D02*
X10188020Y-19118879D01*
X10188020Y-19118879D02*
X10178496Y-19137926D01*
X10178496Y-19137926D02*
X10168972Y-19147450D01*
X10168972Y-19147450D02*
X10149925Y-19156974D01*
X10149925Y-19156974D02*
X10102305Y-19156974D01*
X10102305Y-19156974D02*
X10083258Y-19147450D01*
X10083258Y-19147450D02*
X10073734Y-19137926D01*
X10359448Y-19023640D02*
X10359448Y-19156974D01*
X10311829Y-18947450D02*
X10264210Y-19090307D01*
X10264210Y-19090307D02*
X10388020Y-19090307D01*
X10454686Y-18956974D02*
X10454686Y-18995069D01*
X10530877Y-18956974D02*
X10530877Y-18995069D01*
X10826115Y-19233164D02*
X10816591Y-19223640D01*
X10816591Y-19223640D02*
X10797544Y-19195069D01*
X10797544Y-19195069D02*
X10788020Y-19176021D01*
X10788020Y-19176021D02*
X10778496Y-19147450D01*
X10778496Y-19147450D02*
X10768972Y-19099831D01*
X10768972Y-19099831D02*
X10768972Y-19061736D01*
X10768972Y-19061736D02*
X10778496Y-19014117D01*
X10778496Y-19014117D02*
X10788020Y-18985545D01*
X10788020Y-18985545D02*
X10797544Y-18966498D01*
X10797544Y-18966498D02*
X10816591Y-18937926D01*
X10816591Y-18937926D02*
X10826115Y-18928402D01*
X10892782Y-18976021D02*
X10902306Y-18966498D01*
X10902306Y-18966498D02*
X10921353Y-18956974D01*
X10921353Y-18956974D02*
X10968972Y-18956974D01*
X10968972Y-18956974D02*
X10988020Y-18966498D01*
X10988020Y-18966498D02*
X10997544Y-18976021D01*
X10997544Y-18976021D02*
X11007067Y-18995069D01*
X11007067Y-18995069D02*
X11007067Y-19014117D01*
X11007067Y-19014117D02*
X10997544Y-19042688D01*
X10997544Y-19042688D02*
X10883258Y-19156974D01*
X10883258Y-19156974D02*
X11007067Y-19156974D01*
X11245163Y-19156974D02*
X11245163Y-18956974D01*
X11330877Y-19156974D02*
X11330877Y-19052212D01*
X11330877Y-19052212D02*
X11321353Y-19033164D01*
X11321353Y-19033164D02*
X11302306Y-19023640D01*
X11302306Y-19023640D02*
X11273734Y-19023640D01*
X11273734Y-19023640D02*
X11254686Y-19033164D01*
X11254686Y-19033164D02*
X11245163Y-19042688D01*
X11454686Y-19156974D02*
X11435639Y-19147450D01*
X11435639Y-19147450D02*
X11426115Y-19137926D01*
X11426115Y-19137926D02*
X11416591Y-19118879D01*
X11416591Y-19118879D02*
X11416591Y-19061736D01*
X11416591Y-19061736D02*
X11426115Y-19042688D01*
X11426115Y-19042688D02*
X11435639Y-19033164D01*
X11435639Y-19033164D02*
X11454686Y-19023640D01*
X11454686Y-19023640D02*
X11483258Y-19023640D01*
X11483258Y-19023640D02*
X11502306Y-19033164D01*
X11502306Y-19033164D02*
X11511829Y-19042688D01*
X11511829Y-19042688D02*
X11521353Y-19061736D01*
X11521353Y-19061736D02*
X11521353Y-19118879D01*
X11521353Y-19118879D02*
X11511829Y-19137926D01*
X11511829Y-19137926D02*
X11502306Y-19147450D01*
X11502306Y-19147450D02*
X11483258Y-19156974D01*
X11483258Y-19156974D02*
X11454686Y-19156974D01*
X11635639Y-19156974D02*
X11616591Y-19147450D01*
X11616591Y-19147450D02*
X11607067Y-19128402D01*
X11607067Y-19128402D02*
X11607067Y-18956974D01*
X11788020Y-19147450D02*
X11768972Y-19156974D01*
X11768972Y-19156974D02*
X11730877Y-19156974D01*
X11730877Y-19156974D02*
X11711829Y-19147450D01*
X11711829Y-19147450D02*
X11702306Y-19128402D01*
X11702306Y-19128402D02*
X11702306Y-19052212D01*
X11702306Y-19052212D02*
X11711829Y-19033164D01*
X11711829Y-19033164D02*
X11730877Y-19023640D01*
X11730877Y-19023640D02*
X11768972Y-19023640D01*
X11768972Y-19023640D02*
X11788020Y-19033164D01*
X11788020Y-19033164D02*
X11797544Y-19052212D01*
X11797544Y-19052212D02*
X11797544Y-19071260D01*
X11797544Y-19071260D02*
X11702306Y-19090307D01*
X11873734Y-19147450D02*
X11892782Y-19156974D01*
X11892782Y-19156974D02*
X11930877Y-19156974D01*
X11930877Y-19156974D02*
X11949925Y-19147450D01*
X11949925Y-19147450D02*
X11959448Y-19128402D01*
X11959448Y-19128402D02*
X11959448Y-19118879D01*
X11959448Y-19118879D02*
X11949925Y-19099831D01*
X11949925Y-19099831D02*
X11930877Y-19090307D01*
X11930877Y-19090307D02*
X11902306Y-19090307D01*
X11902306Y-19090307D02*
X11883258Y-19080783D01*
X11883258Y-19080783D02*
X11873734Y-19061736D01*
X11873734Y-19061736D02*
X11873734Y-19052212D01*
X11873734Y-19052212D02*
X11883258Y-19033164D01*
X11883258Y-19033164D02*
X11902306Y-19023640D01*
X11902306Y-19023640D02*
X11930877Y-19023640D01*
X11930877Y-19023640D02*
X11949925Y-19033164D01*
X12026115Y-19233164D02*
X12035639Y-19223640D01*
X12035639Y-19223640D02*
X12054687Y-19195069D01*
X12054687Y-19195069D02*
X12064210Y-19176021D01*
X12064210Y-19176021D02*
X12073734Y-19147450D01*
X12073734Y-19147450D02*
X12083258Y-19099831D01*
X12083258Y-19099831D02*
X12083258Y-19061736D01*
X12083258Y-19061736D02*
X12073734Y-19014117D01*
X12073734Y-19014117D02*
X12064210Y-18985545D01*
X12064210Y-18985545D02*
X12054687Y-18966498D01*
X12054687Y-18966498D02*
X12035639Y-18937926D01*
X12035639Y-18937926D02*
X12026115Y-18928402D01*
X12388020Y-19233164D02*
X12378496Y-19223640D01*
X12378496Y-19223640D02*
X12359448Y-19195069D01*
X12359448Y-19195069D02*
X12349925Y-19176021D01*
X12349925Y-19176021D02*
X12340401Y-19147450D01*
X12340401Y-19147450D02*
X12330877Y-19099831D01*
X12330877Y-19099831D02*
X12330877Y-19061736D01*
X12330877Y-19061736D02*
X12340401Y-19014117D01*
X12340401Y-19014117D02*
X12349925Y-18985545D01*
X12349925Y-18985545D02*
X12359448Y-18966498D01*
X12359448Y-18966498D02*
X12378496Y-18937926D01*
X12378496Y-18937926D02*
X12388020Y-18928402D01*
X12464210Y-19023640D02*
X12464210Y-19156974D01*
X12464210Y-19042688D02*
X12473734Y-19033164D01*
X12473734Y-19033164D02*
X12492782Y-19023640D01*
X12492782Y-19023640D02*
X12521353Y-19023640D01*
X12521353Y-19023640D02*
X12540401Y-19033164D01*
X12540401Y-19033164D02*
X12549925Y-19052212D01*
X12549925Y-19052212D02*
X12549925Y-19156974D01*
X12673734Y-19156974D02*
X12654687Y-19147450D01*
X12654687Y-19147450D02*
X12645163Y-19137926D01*
X12645163Y-19137926D02*
X12635639Y-19118879D01*
X12635639Y-19118879D02*
X12635639Y-19061736D01*
X12635639Y-19061736D02*
X12645163Y-19042688D01*
X12645163Y-19042688D02*
X12654687Y-19033164D01*
X12654687Y-19033164D02*
X12673734Y-19023640D01*
X12673734Y-19023640D02*
X12702306Y-19023640D01*
X12702306Y-19023640D02*
X12721353Y-19033164D01*
X12721353Y-19033164D02*
X12730877Y-19042688D01*
X12730877Y-19042688D02*
X12740401Y-19061736D01*
X12740401Y-19061736D02*
X12740401Y-19118879D01*
X12740401Y-19118879D02*
X12730877Y-19137926D01*
X12730877Y-19137926D02*
X12721353Y-19147450D01*
X12721353Y-19147450D02*
X12702306Y-19156974D01*
X12702306Y-19156974D02*
X12673734Y-19156974D01*
X12797544Y-19023640D02*
X12873734Y-19023640D01*
X12826115Y-18956974D02*
X12826115Y-19128402D01*
X12826115Y-19128402D02*
X12835639Y-19147450D01*
X12835639Y-19147450D02*
X12854687Y-19156974D01*
X12854687Y-19156974D02*
X12873734Y-19156974D01*
X13092782Y-19023640D02*
X13092782Y-19223640D01*
X13092782Y-19033164D02*
X13111829Y-19023640D01*
X13111829Y-19023640D02*
X13149925Y-19023640D01*
X13149925Y-19023640D02*
X13168972Y-19033164D01*
X13168972Y-19033164D02*
X13178496Y-19042688D01*
X13178496Y-19042688D02*
X13188020Y-19061736D01*
X13188020Y-19061736D02*
X13188020Y-19118879D01*
X13188020Y-19118879D02*
X13178496Y-19137926D01*
X13178496Y-19137926D02*
X13168972Y-19147450D01*
X13168972Y-19147450D02*
X13149925Y-19156974D01*
X13149925Y-19156974D02*
X13111829Y-19156974D01*
X13111829Y-19156974D02*
X13092782Y-19147450D01*
X13302306Y-19156974D02*
X13283258Y-19147450D01*
X13283258Y-19147450D02*
X13273734Y-19128402D01*
X13273734Y-19128402D02*
X13273734Y-18956974D01*
X13464210Y-19156974D02*
X13464210Y-19052212D01*
X13464210Y-19052212D02*
X13454687Y-19033164D01*
X13454687Y-19033164D02*
X13435639Y-19023640D01*
X13435639Y-19023640D02*
X13397544Y-19023640D01*
X13397544Y-19023640D02*
X13378496Y-19033164D01*
X13464210Y-19147450D02*
X13445163Y-19156974D01*
X13445163Y-19156974D02*
X13397544Y-19156974D01*
X13397544Y-19156974D02*
X13378496Y-19147450D01*
X13378496Y-19147450D02*
X13368972Y-19128402D01*
X13368972Y-19128402D02*
X13368972Y-19109355D01*
X13368972Y-19109355D02*
X13378496Y-19090307D01*
X13378496Y-19090307D02*
X13397544Y-19080783D01*
X13397544Y-19080783D02*
X13445163Y-19080783D01*
X13445163Y-19080783D02*
X13464210Y-19071260D01*
X13530877Y-19023640D02*
X13607068Y-19023640D01*
X13559449Y-18956974D02*
X13559449Y-19128402D01*
X13559449Y-19128402D02*
X13568972Y-19147450D01*
X13568972Y-19147450D02*
X13588020Y-19156974D01*
X13588020Y-19156974D02*
X13607068Y-19156974D01*
X13749925Y-19147450D02*
X13730877Y-19156974D01*
X13730877Y-19156974D02*
X13692782Y-19156974D01*
X13692782Y-19156974D02*
X13673734Y-19147450D01*
X13673734Y-19147450D02*
X13664210Y-19128402D01*
X13664210Y-19128402D02*
X13664210Y-19052212D01*
X13664210Y-19052212D02*
X13673734Y-19033164D01*
X13673734Y-19033164D02*
X13692782Y-19023640D01*
X13692782Y-19023640D02*
X13730877Y-19023640D01*
X13730877Y-19023640D02*
X13749925Y-19033164D01*
X13749925Y-19033164D02*
X13759449Y-19052212D01*
X13759449Y-19052212D02*
X13759449Y-19071260D01*
X13759449Y-19071260D02*
X13664210Y-19090307D01*
X13930877Y-19156974D02*
X13930877Y-18956974D01*
X13930877Y-19147450D02*
X13911830Y-19156974D01*
X13911830Y-19156974D02*
X13873734Y-19156974D01*
X13873734Y-19156974D02*
X13854687Y-19147450D01*
X13854687Y-19147450D02*
X13845163Y-19137926D01*
X13845163Y-19137926D02*
X13835639Y-19118879D01*
X13835639Y-19118879D02*
X13835639Y-19061736D01*
X13835639Y-19061736D02*
X13845163Y-19042688D01*
X13845163Y-19042688D02*
X13854687Y-19033164D01*
X13854687Y-19033164D02*
X13873734Y-19023640D01*
X13873734Y-19023640D02*
X13911830Y-19023640D01*
X13911830Y-19023640D02*
X13930877Y-19033164D01*
X14007068Y-19233164D02*
X14016591Y-19223640D01*
X14016591Y-19223640D02*
X14035639Y-19195069D01*
X14035639Y-19195069D02*
X14045163Y-19176021D01*
X14045163Y-19176021D02*
X14054687Y-19147450D01*
X14054687Y-19147450D02*
X14064210Y-19099831D01*
X14064210Y-19099831D02*
X14064210Y-19061736D01*
X14064210Y-19061736D02*
X14054687Y-19014117D01*
X14054687Y-19014117D02*
X14045163Y-18985545D01*
X14045163Y-18985545D02*
X14035639Y-18966498D01*
X14035639Y-18966498D02*
X14016591Y-18937926D01*
X14016591Y-18937926D02*
X14007068Y-18928402D01*
M02*
