M48
; DRILL file {KiCad 7.0.1} date Wed Aug 23 11:01:48 2023
; FORMAT={-:-/ absolute / inch / decimal}
; #@! TF.CreationDate,2023-08-23T11:01:48-05:00
; #@! TF.GenerationSoftware,Kicad,Pcbnew,7.0.1
; #@! TF.FileFunction,Plated,1,2,PTH
FMAT,2
INCH
; #@! TA.AperFunction,Plated,PTH,ViaDrill
T1C0.0157
; #@! TA.AperFunction,Plated,PTH,ComponentDrill
T2C0.0236
; #@! TA.AperFunction,Plated,PTH,ComponentDrill
T3C0.0394
; #@! TA.AperFunction,Plated,PTH,ComponentDrill
T4C0.0400
; #@! TA.AperFunction,Plated,PTH,ComponentDrill
T5C0.1772
%
G90
G05
T1
X3.0947Y-4.3752
X3.1071Y-3.1106
X3.1193Y-4.4992
X3.1591Y-4.2197
X3.161Y-3.2815
X3.213Y-3.1276
X3.2305Y-4.5729
X3.2311Y-4.3894
X3.239Y-4.0874
X3.278Y-3.6106
X3.3315Y-2.8547
X3.3518Y-2.3604
X3.3528Y-2.2547
X3.3535Y-3.1203
X3.3772Y-2.4362
X3.3841Y-3.0839
X3.3929Y-2.3766
X3.4161Y-2.25
X3.4193Y-3.3673
X3.4606Y-6.7205
X3.4638Y-3.014
X3.4685Y-2.6346
X3.4894Y-3.1201
X3.4894Y-3.3232
X3.5362Y-6.7177
X3.5693Y-3.1084
X3.5792Y-5.5795
X3.5815Y-3.5969
X3.584Y-3.009
X3.6508Y-6.813
X3.6661Y-1.5181
X3.6724Y-5.0415
X3.7028Y-5.5563
X3.7031Y-3.1102
X3.7069Y-3.6626
X3.7329Y-3.148
X3.7335Y-3.5258
X3.7659Y-5.3978
X3.8585Y-5.1498
X3.8624Y-5.0898
X3.8634Y-3.3308
X3.8728Y-3.6705
X3.8758Y-3.1514
X3.9052Y-3.1836
X3.9228Y-3.599
X3.928Y-5.4402
X3.9409Y-5.3449
X3.9563Y-2.0559
X3.9579Y-1.9508
X3.9634Y-3.1557
X3.9768Y-3.5657
X3.9774Y-3.6486
X3.9795Y-5.5057
X3.9921Y-5.4156
X3.9955Y-3.3734
X4.0283Y-3.2512
X4.0323Y-5.5043
X4.0327Y-3.6695
X4.0429Y-5.1807
X4.0429Y-5.3043
X4.0437Y-3.6004
X4.0496Y-5.1315
X4.0524Y-3.2932
X4.0912Y-5.2925
X4.1105Y-1.989
X4.1178Y-2.5932
X4.1811Y-5.3898
X4.2061Y-7.0482
X4.237Y-3.2752
X4.2384Y-5.0209
X4.2559Y-5.352
X4.2654Y-1.9618
X4.2823Y-3.4654
X4.3323Y-3.4343
X4.3366Y-2.9819
X4.3402Y-3.15
X4.3425Y-3.3154
X4.3776Y-3.6164
X4.3917Y-3.4339
X4.4228Y-5.7094
X4.4472Y-3.5663
X4.4614Y-2.5484
X4.5032Y-2.7414
X4.5212Y-2.7086
X4.5508Y-5.6157
X4.5705Y-3.439
X4.5736Y-3.5768
X4.5744Y-3.8039
X4.5787Y-3.6996
X4.6026Y-3.9205
X4.6433Y-4.2461
X4.702Y-4.311
X4.7325Y-6.3772
X4.7669Y-4.2665
X4.7784Y-3.3535
X4.8047Y-6.3583
X4.8217Y-4.1689
T3
X3.1183Y-2.3813
X3.1183Y-2.4813
X3.1183Y-2.5813
X3.1183Y-2.6813
T4
X4.4839Y-1.8831
X4.4839Y-1.9831
X4.5839Y-1.8831
X4.5839Y-1.9831
X4.6839Y-1.8831
X4.6839Y-1.9831
T5
X3.9057Y-1.4451
T2
G00X3.7652Y-6.9013
M15
G01X3.7652Y-6.858
M16
G05
G00X3.7652Y-7.0588
M15
G01X3.7652Y-7.0273
M16
G05
G00X4.1053Y-6.9013
M15
G01X4.1053Y-6.858
M16
G05
G00X4.1053Y-7.0588
M15
G01X4.1053Y-7.0273
M16
G05
T0
M30
