%TF.GenerationSoftware,KiCad,Pcbnew,7.0.2*%
%TF.CreationDate,2023-07-17T20:56:39-05:00*%
%TF.ProjectId,BSidesKC23,42536964-6573-44b4-9332-332e6b696361,1.0*%
%TF.SameCoordinates,Original*%
%TF.FileFunction,Soldermask,Top*%
%TF.FilePolarity,Negative*%
%FSLAX46Y46*%
G04 Gerber Fmt 4.6, Leading zero omitted, Abs format (unit mm)*
G04 Created by KiCad (PCBNEW 7.0.2) date 2023-07-17 20:56:39*
%MOMM*%
%LPD*%
G01*
G04 APERTURE LIST*
G04 Aperture macros list*
%AMRoundRect*
0 Rectangle with rounded corners*
0 $1 Rounding radius*
0 $2 $3 $4 $5 $6 $7 $8 $9 X,Y pos of 4 corners*
0 Add a 4 corners polygon primitive as box body*
4,1,4,$2,$3,$4,$5,$6,$7,$8,$9,$2,$3,0*
0 Add four circle primitives for the rounded corners*
1,1,$1+$1,$2,$3*
1,1,$1+$1,$4,$5*
1,1,$1+$1,$6,$7*
1,1,$1+$1,$8,$9*
0 Add four rect primitives between the rounded corners*
20,1,$1+$1,$2,$3,$4,$5,0*
20,1,$1+$1,$4,$5,$6,$7,0*
20,1,$1+$1,$6,$7,$8,$9,0*
20,1,$1+$1,$8,$9,$2,$3,0*%
G04 Aperture macros list end*
%ADD10C,0.010000*%
%ADD11RoundRect,0.200000X-0.974000X-0.850000X0.974000X-0.850000X0.974000X0.850000X-0.974000X0.850000X0*%
%ADD12O,2.127200X2.127200*%
%ADD13RoundRect,0.200000X-0.863600X0.863600X-0.863600X-0.863600X0.863600X-0.863600X0.863600X0.863600X0*%
%ADD14C,2.127200*%
%ADD15C,5.400000*%
%ADD16RoundRect,0.200000X0.850000X0.850000X-0.850000X0.850000X-0.850000X-0.850000X0.850000X-0.850000X0*%
%ADD17O,2.100000X2.100000*%
%ADD18C,0.900000*%
%ADD19C,0.650000*%
%ADD20O,1.400000X2.200000*%
%ADD21O,1.400000X2.500000*%
G04 APERTURE END LIST*
%TO.C,G\u002A\u002A\u002A*%
D10*
X154140832Y-88040951D02*
X154237358Y-88047090D01*
X154314601Y-88056647D01*
X154384088Y-88071343D01*
X154457345Y-88092904D01*
X154510916Y-88110890D01*
X154726445Y-88197317D01*
X154913423Y-88300337D01*
X155084665Y-88427538D01*
X155161839Y-88496409D01*
X155349015Y-88696747D01*
X155498082Y-88912188D01*
X155611981Y-89147482D01*
X155669570Y-89316833D01*
X155717416Y-89481916D01*
X155717416Y-94117416D01*
X155669650Y-94282208D01*
X155627081Y-94406722D01*
X155570073Y-94542467D01*
X155505452Y-94675069D01*
X155440044Y-94790151D01*
X155401149Y-94847666D01*
X155260932Y-95011018D01*
X155093285Y-95165494D01*
X154910349Y-95301301D01*
X154724265Y-95408644D01*
X154680250Y-95429188D01*
X154494005Y-95495760D01*
X154283287Y-95544038D01*
X154062728Y-95571937D01*
X153846962Y-95577378D01*
X153710364Y-95567177D01*
X153447017Y-95514060D01*
X153198678Y-95423211D01*
X152968705Y-95297599D01*
X152760458Y-95140191D01*
X152577297Y-94953955D01*
X152422581Y-94741858D01*
X152299669Y-94506870D01*
X152211922Y-94251956D01*
X152209061Y-94240879D01*
X152161416Y-94053916D01*
X152161596Y-89524250D01*
X152208921Y-89354916D01*
X152303984Y-89087877D01*
X152432361Y-88845717D01*
X152592695Y-88630110D01*
X152783629Y-88442730D01*
X153003805Y-88285249D01*
X153135083Y-88212881D01*
X153302506Y-88137515D01*
X153462991Y-88084613D01*
X153628458Y-88051781D01*
X153810824Y-88036626D01*
X154013500Y-88036506D01*
X154140832Y-88040951D01*
G36*
X154140832Y-88040951D02*
G01*
X154237358Y-88047090D01*
X154314601Y-88056647D01*
X154384088Y-88071343D01*
X154457345Y-88092904D01*
X154510916Y-88110890D01*
X154726445Y-88197317D01*
X154913423Y-88300337D01*
X155084665Y-88427538D01*
X155161839Y-88496409D01*
X155349015Y-88696747D01*
X155498082Y-88912188D01*
X155611981Y-89147482D01*
X155669570Y-89316833D01*
X155717416Y-89481916D01*
X155717416Y-94117416D01*
X155669650Y-94282208D01*
X155627081Y-94406722D01*
X155570073Y-94542467D01*
X155505452Y-94675069D01*
X155440044Y-94790151D01*
X155401149Y-94847666D01*
X155260932Y-95011018D01*
X155093285Y-95165494D01*
X154910349Y-95301301D01*
X154724265Y-95408644D01*
X154680250Y-95429188D01*
X154494005Y-95495760D01*
X154283287Y-95544038D01*
X154062728Y-95571937D01*
X153846962Y-95577378D01*
X153710364Y-95567177D01*
X153447017Y-95514060D01*
X153198678Y-95423211D01*
X152968705Y-95297599D01*
X152760458Y-95140191D01*
X152577297Y-94953955D01*
X152422581Y-94741858D01*
X152299669Y-94506870D01*
X152211922Y-94251956D01*
X152209061Y-94240879D01*
X152161416Y-94053916D01*
X152161596Y-89524250D01*
X152208921Y-89354916D01*
X152303984Y-89087877D01*
X152432361Y-88845717D01*
X152592695Y-88630110D01*
X152783629Y-88442730D01*
X153003805Y-88285249D01*
X153135083Y-88212881D01*
X153302506Y-88137515D01*
X153462991Y-88084613D01*
X153628458Y-88051781D01*
X153810824Y-88036626D01*
X154013500Y-88036506D01*
X154140832Y-88040951D01*
G37*
X204419282Y-88005233D02*
X204679453Y-88054653D01*
X204925525Y-88140254D01*
X205154392Y-88260158D01*
X205362947Y-88412488D01*
X205548083Y-88595365D01*
X205706692Y-88806911D01*
X205835669Y-89045250D01*
X205917468Y-89260412D01*
X205967083Y-89418416D01*
X205967083Y-94138583D01*
X205897210Y-94339666D01*
X205802327Y-94569031D01*
X205685111Y-94770059D01*
X205539036Y-94953683D01*
X205515909Y-94978627D01*
X205311695Y-95166188D01*
X205086236Y-95319785D01*
X204844038Y-95436660D01*
X204675916Y-95492699D01*
X204572809Y-95513151D01*
X204440313Y-95527814D01*
X204291014Y-95536404D01*
X204137496Y-95538634D01*
X203992347Y-95534219D01*
X203868150Y-95522871D01*
X203808083Y-95512428D01*
X203556774Y-95435677D01*
X203319451Y-95322650D01*
X203100668Y-95177216D01*
X202904977Y-95003241D01*
X202736931Y-94804594D01*
X202601082Y-94585142D01*
X202529523Y-94426273D01*
X202511160Y-94378604D01*
X202494799Y-94334487D01*
X202480326Y-94291317D01*
X202467625Y-94246488D01*
X202456580Y-94197395D01*
X202447075Y-94141432D01*
X202438995Y-94075993D01*
X202432225Y-93998472D01*
X202426647Y-93906264D01*
X202422148Y-93796763D01*
X202418611Y-93667364D01*
X202415920Y-93515460D01*
X202413961Y-93338446D01*
X202412617Y-93133717D01*
X202411772Y-92898666D01*
X202411312Y-92630688D01*
X202411120Y-92327177D01*
X202411081Y-91985527D01*
X202411083Y-91757333D01*
X202411115Y-91401586D01*
X202411241Y-91085595D01*
X202411503Y-90806784D01*
X202411943Y-90562574D01*
X202412604Y-90350389D01*
X202413529Y-90167652D01*
X202414760Y-90011785D01*
X202416340Y-89880212D01*
X202418312Y-89770354D01*
X202420717Y-89679636D01*
X202423600Y-89605480D01*
X202427001Y-89545309D01*
X202430964Y-89496545D01*
X202435532Y-89456612D01*
X202440746Y-89422933D01*
X202446650Y-89392929D01*
X202450433Y-89376083D01*
X202504700Y-89183522D01*
X202575995Y-89010218D01*
X202672283Y-88837833D01*
X202708778Y-88781222D01*
X202874142Y-88569163D01*
X203068414Y-88386268D01*
X203287455Y-88235244D01*
X203527127Y-88118798D01*
X203783290Y-88039636D01*
X203869074Y-88022445D01*
X204148120Y-87993871D01*
X204419282Y-88005233D01*
G36*
X204419282Y-88005233D02*
G01*
X204679453Y-88054653D01*
X204925525Y-88140254D01*
X205154392Y-88260158D01*
X205362947Y-88412488D01*
X205548083Y-88595365D01*
X205706692Y-88806911D01*
X205835669Y-89045250D01*
X205917468Y-89260412D01*
X205967083Y-89418416D01*
X205967083Y-94138583D01*
X205897210Y-94339666D01*
X205802327Y-94569031D01*
X205685111Y-94770059D01*
X205539036Y-94953683D01*
X205515909Y-94978627D01*
X205311695Y-95166188D01*
X205086236Y-95319785D01*
X204844038Y-95436660D01*
X204675916Y-95492699D01*
X204572809Y-95513151D01*
X204440313Y-95527814D01*
X204291014Y-95536404D01*
X204137496Y-95538634D01*
X203992347Y-95534219D01*
X203868150Y-95522871D01*
X203808083Y-95512428D01*
X203556774Y-95435677D01*
X203319451Y-95322650D01*
X203100668Y-95177216D01*
X202904977Y-95003241D01*
X202736931Y-94804594D01*
X202601082Y-94585142D01*
X202529523Y-94426273D01*
X202511160Y-94378604D01*
X202494799Y-94334487D01*
X202480326Y-94291317D01*
X202467625Y-94246488D01*
X202456580Y-94197395D01*
X202447075Y-94141432D01*
X202438995Y-94075993D01*
X202432225Y-93998472D01*
X202426647Y-93906264D01*
X202422148Y-93796763D01*
X202418611Y-93667364D01*
X202415920Y-93515460D01*
X202413961Y-93338446D01*
X202412617Y-93133717D01*
X202411772Y-92898666D01*
X202411312Y-92630688D01*
X202411120Y-92327177D01*
X202411081Y-91985527D01*
X202411083Y-91757333D01*
X202411115Y-91401586D01*
X202411241Y-91085595D01*
X202411503Y-90806784D01*
X202411943Y-90562574D01*
X202412604Y-90350389D01*
X202413529Y-90167652D01*
X202414760Y-90011785D01*
X202416340Y-89880212D01*
X202418312Y-89770354D01*
X202420717Y-89679636D01*
X202423600Y-89605480D01*
X202427001Y-89545309D01*
X202430964Y-89496545D01*
X202435532Y-89456612D01*
X202440746Y-89422933D01*
X202446650Y-89392929D01*
X202450433Y-89376083D01*
X202504700Y-89183522D01*
X202575995Y-89010218D01*
X202672283Y-88837833D01*
X202708778Y-88781222D01*
X202874142Y-88569163D01*
X203068414Y-88386268D01*
X203287455Y-88235244D01*
X203527127Y-88118798D01*
X203783290Y-88039636D01*
X203869074Y-88022445D01*
X204148120Y-87993871D01*
X204419282Y-88005233D01*
G37*
X190663583Y-50349362D02*
X190875466Y-50437814D01*
X191064055Y-50559959D01*
X191226057Y-50712408D01*
X191358176Y-50891774D01*
X191457120Y-51094669D01*
X191492592Y-51202000D01*
X191498565Y-51224902D01*
X191503894Y-51250517D01*
X191508615Y-51281256D01*
X191512766Y-51319532D01*
X191516382Y-51367759D01*
X191519500Y-51428348D01*
X191522158Y-51503713D01*
X191524390Y-51596266D01*
X191526235Y-51708420D01*
X191527728Y-51842588D01*
X191528906Y-52001183D01*
X191529806Y-52186616D01*
X191530465Y-52401302D01*
X191530918Y-52647652D01*
X191531202Y-52928079D01*
X191531355Y-53244997D01*
X191531412Y-53600817D01*
X191531416Y-53763166D01*
X191531416Y-56186750D01*
X191470563Y-56372405D01*
X191380344Y-56583289D01*
X191257532Y-56769019D01*
X191105065Y-56926815D01*
X190925879Y-57053899D01*
X190722914Y-57147492D01*
X190616502Y-57180071D01*
X190592931Y-57185228D01*
X190562686Y-57189826D01*
X190523417Y-57193895D01*
X190472772Y-57197463D01*
X190408398Y-57200560D01*
X190327945Y-57203215D01*
X190229060Y-57205457D01*
X190109392Y-57207315D01*
X189966589Y-57208818D01*
X189798300Y-57209996D01*
X189602173Y-57210878D01*
X189375856Y-57211493D01*
X189116998Y-57211869D01*
X188823247Y-57212037D01*
X188492251Y-57212026D01*
X188121658Y-57211864D01*
X188057028Y-57211825D01*
X187682704Y-57211559D01*
X187348323Y-57211226D01*
X187051497Y-57210791D01*
X186789833Y-57210218D01*
X186560943Y-57209470D01*
X186362437Y-57208512D01*
X186191924Y-57207307D01*
X186047015Y-57205820D01*
X185925319Y-57204015D01*
X185824447Y-57201855D01*
X185742009Y-57199305D01*
X185675615Y-57196328D01*
X185622875Y-57192889D01*
X185581399Y-57188951D01*
X185548796Y-57184479D01*
X185522678Y-57179437D01*
X185500653Y-57173788D01*
X185498916Y-57173285D01*
X185283116Y-57089654D01*
X185092999Y-56972563D01*
X184929701Y-56823046D01*
X184794358Y-56642133D01*
X184692143Y-56440750D01*
X184631083Y-56292583D01*
X184624505Y-53826666D01*
X184623539Y-53416144D01*
X184622950Y-53046431D01*
X184622749Y-52716004D01*
X184622945Y-52423339D01*
X184623550Y-52166914D01*
X184624573Y-51945206D01*
X184626026Y-51756692D01*
X184627920Y-51599848D01*
X184630263Y-51473152D01*
X184633068Y-51375081D01*
X184636344Y-51304111D01*
X184640102Y-51258721D01*
X184642330Y-51244333D01*
X184705122Y-51045171D01*
X184804850Y-50859459D01*
X184937005Y-50692027D01*
X185097076Y-50547708D01*
X185280553Y-50431334D01*
X185477750Y-50349362D01*
X185625916Y-50302416D01*
X190515416Y-50302416D01*
X190663583Y-50349362D01*
G36*
X190663583Y-50349362D02*
G01*
X190875466Y-50437814D01*
X191064055Y-50559959D01*
X191226057Y-50712408D01*
X191358176Y-50891774D01*
X191457120Y-51094669D01*
X191492592Y-51202000D01*
X191498565Y-51224902D01*
X191503894Y-51250517D01*
X191508615Y-51281256D01*
X191512766Y-51319532D01*
X191516382Y-51367759D01*
X191519500Y-51428348D01*
X191522158Y-51503713D01*
X191524390Y-51596266D01*
X191526235Y-51708420D01*
X191527728Y-51842588D01*
X191528906Y-52001183D01*
X191529806Y-52186616D01*
X191530465Y-52401302D01*
X191530918Y-52647652D01*
X191531202Y-52928079D01*
X191531355Y-53244997D01*
X191531412Y-53600817D01*
X191531416Y-53763166D01*
X191531416Y-56186750D01*
X191470563Y-56372405D01*
X191380344Y-56583289D01*
X191257532Y-56769019D01*
X191105065Y-56926815D01*
X190925879Y-57053899D01*
X190722914Y-57147492D01*
X190616502Y-57180071D01*
X190592931Y-57185228D01*
X190562686Y-57189826D01*
X190523417Y-57193895D01*
X190472772Y-57197463D01*
X190408398Y-57200560D01*
X190327945Y-57203215D01*
X190229060Y-57205457D01*
X190109392Y-57207315D01*
X189966589Y-57208818D01*
X189798300Y-57209996D01*
X189602173Y-57210878D01*
X189375856Y-57211493D01*
X189116998Y-57211869D01*
X188823247Y-57212037D01*
X188492251Y-57212026D01*
X188121658Y-57211864D01*
X188057028Y-57211825D01*
X187682704Y-57211559D01*
X187348323Y-57211226D01*
X187051497Y-57210791D01*
X186789833Y-57210218D01*
X186560943Y-57209470D01*
X186362437Y-57208512D01*
X186191924Y-57207307D01*
X186047015Y-57205820D01*
X185925319Y-57204015D01*
X185824447Y-57201855D01*
X185742009Y-57199305D01*
X185675615Y-57196328D01*
X185622875Y-57192889D01*
X185581399Y-57188951D01*
X185548796Y-57184479D01*
X185522678Y-57179437D01*
X185500653Y-57173788D01*
X185498916Y-57173285D01*
X185283116Y-57089654D01*
X185092999Y-56972563D01*
X184929701Y-56823046D01*
X184794358Y-56642133D01*
X184692143Y-56440750D01*
X184631083Y-56292583D01*
X184624505Y-53826666D01*
X184623539Y-53416144D01*
X184622950Y-53046431D01*
X184622749Y-52716004D01*
X184622945Y-52423339D01*
X184623550Y-52166914D01*
X184624573Y-51945206D01*
X184626026Y-51756692D01*
X184627920Y-51599848D01*
X184630263Y-51473152D01*
X184633068Y-51375081D01*
X184636344Y-51304111D01*
X184640102Y-51258721D01*
X184642330Y-51244333D01*
X184705122Y-51045171D01*
X184804850Y-50859459D01*
X184937005Y-50692027D01*
X185097076Y-50547708D01*
X185280553Y-50431334D01*
X185477750Y-50349362D01*
X185625916Y-50302416D01*
X190515416Y-50302416D01*
X190663583Y-50349362D01*
G37*
X181939272Y-50361028D02*
X182155269Y-50457928D01*
X182341886Y-50585180D01*
X182498554Y-50742223D01*
X182624699Y-50928494D01*
X182711366Y-51119855D01*
X182768416Y-51276083D01*
X182774439Y-53689083D01*
X182775421Y-54072716D01*
X182776270Y-54416457D01*
X182776870Y-54722746D01*
X182777103Y-54994025D01*
X182776851Y-55232735D01*
X182775999Y-55441317D01*
X182774427Y-55622211D01*
X182772021Y-55777859D01*
X182768661Y-55910702D01*
X182764232Y-56023180D01*
X182758615Y-56117736D01*
X182751694Y-56196809D01*
X182743352Y-56262841D01*
X182733471Y-56318272D01*
X182721934Y-56365545D01*
X182708624Y-56407099D01*
X182693424Y-56445377D01*
X182676217Y-56482818D01*
X182656885Y-56521864D01*
X182636511Y-56562534D01*
X182549985Y-56702738D01*
X182434848Y-56839785D01*
X182302541Y-56962134D01*
X182164508Y-57058244D01*
X182122833Y-57080662D01*
X182083470Y-57100519D01*
X182047961Y-57118294D01*
X182013870Y-57134102D01*
X181978759Y-57148054D01*
X181940193Y-57160266D01*
X181895733Y-57170849D01*
X181842943Y-57179917D01*
X181779387Y-57187584D01*
X181702627Y-57193963D01*
X181610226Y-57199166D01*
X181499749Y-57203309D01*
X181368756Y-57206503D01*
X181214813Y-57208862D01*
X181035482Y-57210500D01*
X180828326Y-57211529D01*
X180590908Y-57212064D01*
X180320792Y-57212217D01*
X180015540Y-57212101D01*
X179672716Y-57211831D01*
X179308511Y-57211533D01*
X178915474Y-57211140D01*
X178562811Y-57210563D01*
X178248566Y-57209778D01*
X177970779Y-57208764D01*
X177727494Y-57207499D01*
X177516751Y-57205960D01*
X177336593Y-57204126D01*
X177185061Y-57201974D01*
X177060199Y-57199482D01*
X176960046Y-57196629D01*
X176882647Y-57193391D01*
X176826041Y-57189747D01*
X176788272Y-57185676D01*
X176773427Y-57182919D01*
X176602522Y-57123960D01*
X176432418Y-57033149D01*
X176277817Y-56918622D01*
X176249349Y-56892930D01*
X176113560Y-56748825D01*
X176009211Y-56596267D01*
X175925954Y-56420025D01*
X175923116Y-56412782D01*
X175868083Y-56271416D01*
X175861686Y-53837250D01*
X175860740Y-53420911D01*
X175860207Y-53045641D01*
X175860096Y-52710178D01*
X175860414Y-52413259D01*
X175861170Y-52153622D01*
X175862373Y-51930005D01*
X175864032Y-51741145D01*
X175866155Y-51585780D01*
X175868750Y-51462648D01*
X175871827Y-51370486D01*
X175875393Y-51308032D01*
X175879047Y-51276083D01*
X175926197Y-51111118D01*
X176003232Y-50942222D01*
X176102191Y-50784429D01*
X176202480Y-50665282D01*
X176348513Y-50536854D01*
X176507405Y-50437583D01*
X176692271Y-50359445D01*
X176714750Y-50351796D01*
X176862916Y-50302416D01*
X181773583Y-50302416D01*
X181939272Y-50361028D01*
G36*
X181939272Y-50361028D02*
G01*
X182155269Y-50457928D01*
X182341886Y-50585180D01*
X182498554Y-50742223D01*
X182624699Y-50928494D01*
X182711366Y-51119855D01*
X182768416Y-51276083D01*
X182774439Y-53689083D01*
X182775421Y-54072716D01*
X182776270Y-54416457D01*
X182776870Y-54722746D01*
X182777103Y-54994025D01*
X182776851Y-55232735D01*
X182775999Y-55441317D01*
X182774427Y-55622211D01*
X182772021Y-55777859D01*
X182768661Y-55910702D01*
X182764232Y-56023180D01*
X182758615Y-56117736D01*
X182751694Y-56196809D01*
X182743352Y-56262841D01*
X182733471Y-56318272D01*
X182721934Y-56365545D01*
X182708624Y-56407099D01*
X182693424Y-56445377D01*
X182676217Y-56482818D01*
X182656885Y-56521864D01*
X182636511Y-56562534D01*
X182549985Y-56702738D01*
X182434848Y-56839785D01*
X182302541Y-56962134D01*
X182164508Y-57058244D01*
X182122833Y-57080662D01*
X182083470Y-57100519D01*
X182047961Y-57118294D01*
X182013870Y-57134102D01*
X181978759Y-57148054D01*
X181940193Y-57160266D01*
X181895733Y-57170849D01*
X181842943Y-57179917D01*
X181779387Y-57187584D01*
X181702627Y-57193963D01*
X181610226Y-57199166D01*
X181499749Y-57203309D01*
X181368756Y-57206503D01*
X181214813Y-57208862D01*
X181035482Y-57210500D01*
X180828326Y-57211529D01*
X180590908Y-57212064D01*
X180320792Y-57212217D01*
X180015540Y-57212101D01*
X179672716Y-57211831D01*
X179308511Y-57211533D01*
X178915474Y-57211140D01*
X178562811Y-57210563D01*
X178248566Y-57209778D01*
X177970779Y-57208764D01*
X177727494Y-57207499D01*
X177516751Y-57205960D01*
X177336593Y-57204126D01*
X177185061Y-57201974D01*
X177060199Y-57199482D01*
X176960046Y-57196629D01*
X176882647Y-57193391D01*
X176826041Y-57189747D01*
X176788272Y-57185676D01*
X176773427Y-57182919D01*
X176602522Y-57123960D01*
X176432418Y-57033149D01*
X176277817Y-56918622D01*
X176249349Y-56892930D01*
X176113560Y-56748825D01*
X176009211Y-56596267D01*
X175925954Y-56420025D01*
X175923116Y-56412782D01*
X175868083Y-56271416D01*
X175861686Y-53837250D01*
X175860740Y-53420911D01*
X175860207Y-53045641D01*
X175860096Y-52710178D01*
X175860414Y-52413259D01*
X175861170Y-52153622D01*
X175862373Y-51930005D01*
X175864032Y-51741145D01*
X175866155Y-51585780D01*
X175868750Y-51462648D01*
X175871827Y-51370486D01*
X175875393Y-51308032D01*
X175879047Y-51276083D01*
X175926197Y-51111118D01*
X176003232Y-50942222D01*
X176102191Y-50784429D01*
X176202480Y-50665282D01*
X176348513Y-50536854D01*
X176507405Y-50437583D01*
X176692271Y-50359445D01*
X176714750Y-50351796D01*
X176862916Y-50302416D01*
X181773583Y-50302416D01*
X181939272Y-50361028D01*
G37*
X173116416Y-50349362D02*
X173324703Y-50436432D01*
X173511289Y-50556911D01*
X173672268Y-50706764D01*
X173803735Y-50881953D01*
X173901784Y-51078443D01*
X173942438Y-51202959D01*
X173947793Y-51244533D01*
X173952700Y-51325113D01*
X173957161Y-51441376D01*
X173961176Y-51589997D01*
X173964746Y-51767651D01*
X173967872Y-51971016D01*
X173970555Y-52196766D01*
X173972794Y-52441577D01*
X173974591Y-52702124D01*
X173975947Y-52975085D01*
X173976863Y-53257134D01*
X173977338Y-53544946D01*
X173977375Y-53835199D01*
X173976972Y-54124567D01*
X173976133Y-54409727D01*
X173974856Y-54687353D01*
X173973143Y-54954122D01*
X173970994Y-55206710D01*
X173968411Y-55441792D01*
X173965393Y-55656044D01*
X173961942Y-55846142D01*
X173958059Y-56008761D01*
X173953743Y-56140577D01*
X173948997Y-56238266D01*
X173943820Y-56298504D01*
X173941315Y-56312642D01*
X173870151Y-56508012D01*
X173764220Y-56691465D01*
X173629541Y-56855334D01*
X173472137Y-56991953D01*
X173346620Y-57069926D01*
X173306471Y-57091324D01*
X173270452Y-57110488D01*
X173236134Y-57127538D01*
X173201086Y-57142597D01*
X173162878Y-57155786D01*
X173119080Y-57167226D01*
X173067262Y-57177039D01*
X173004995Y-57185346D01*
X172929848Y-57192270D01*
X172839391Y-57197931D01*
X172731194Y-57202452D01*
X172602827Y-57205953D01*
X172451861Y-57208556D01*
X172275864Y-57210384D01*
X172072408Y-57211556D01*
X171839062Y-57212196D01*
X171573396Y-57212424D01*
X171272980Y-57212363D01*
X170935384Y-57212133D01*
X170558177Y-57211856D01*
X170509861Y-57211825D01*
X170135537Y-57211559D01*
X169801157Y-57211226D01*
X169504330Y-57210791D01*
X169242666Y-57210218D01*
X169013776Y-57209470D01*
X168815270Y-57208512D01*
X168644757Y-57207307D01*
X168499848Y-57205820D01*
X168378152Y-57204015D01*
X168277281Y-57201855D01*
X168194843Y-57199305D01*
X168128449Y-57196328D01*
X168075708Y-57192889D01*
X168034232Y-57188951D01*
X168001629Y-57184479D01*
X167975511Y-57179437D01*
X167953487Y-57173788D01*
X167951750Y-57173285D01*
X167737450Y-57089661D01*
X167546540Y-56971913D01*
X167382027Y-56822917D01*
X167246917Y-56645548D01*
X167144220Y-56442682D01*
X167120726Y-56378891D01*
X167062750Y-56207916D01*
X167062750Y-53773750D01*
X167062782Y-53399286D01*
X167062904Y-53064758D01*
X167063151Y-52767765D01*
X167063555Y-52505910D01*
X167064154Y-52276794D01*
X167064981Y-52078017D01*
X167066072Y-51907182D01*
X167067461Y-51761890D01*
X167069183Y-51639742D01*
X167071273Y-51538339D01*
X167073766Y-51455283D01*
X167076697Y-51388175D01*
X167080100Y-51334617D01*
X167084011Y-51292210D01*
X167088465Y-51258555D01*
X167093495Y-51231253D01*
X167099138Y-51207906D01*
X167100097Y-51204389D01*
X167179581Y-50993883D01*
X167294372Y-50803679D01*
X167440802Y-50637554D01*
X167615201Y-50499284D01*
X167813903Y-50392645D01*
X167930583Y-50349362D01*
X168078750Y-50302416D01*
X172968250Y-50302416D01*
X173116416Y-50349362D01*
G36*
X173116416Y-50349362D02*
G01*
X173324703Y-50436432D01*
X173511289Y-50556911D01*
X173672268Y-50706764D01*
X173803735Y-50881953D01*
X173901784Y-51078443D01*
X173942438Y-51202959D01*
X173947793Y-51244533D01*
X173952700Y-51325113D01*
X173957161Y-51441376D01*
X173961176Y-51589997D01*
X173964746Y-51767651D01*
X173967872Y-51971016D01*
X173970555Y-52196766D01*
X173972794Y-52441577D01*
X173974591Y-52702124D01*
X173975947Y-52975085D01*
X173976863Y-53257134D01*
X173977338Y-53544946D01*
X173977375Y-53835199D01*
X173976972Y-54124567D01*
X173976133Y-54409727D01*
X173974856Y-54687353D01*
X173973143Y-54954122D01*
X173970994Y-55206710D01*
X173968411Y-55441792D01*
X173965393Y-55656044D01*
X173961942Y-55846142D01*
X173958059Y-56008761D01*
X173953743Y-56140577D01*
X173948997Y-56238266D01*
X173943820Y-56298504D01*
X173941315Y-56312642D01*
X173870151Y-56508012D01*
X173764220Y-56691465D01*
X173629541Y-56855334D01*
X173472137Y-56991953D01*
X173346620Y-57069926D01*
X173306471Y-57091324D01*
X173270452Y-57110488D01*
X173236134Y-57127538D01*
X173201086Y-57142597D01*
X173162878Y-57155786D01*
X173119080Y-57167226D01*
X173067262Y-57177039D01*
X173004995Y-57185346D01*
X172929848Y-57192270D01*
X172839391Y-57197931D01*
X172731194Y-57202452D01*
X172602827Y-57205953D01*
X172451861Y-57208556D01*
X172275864Y-57210384D01*
X172072408Y-57211556D01*
X171839062Y-57212196D01*
X171573396Y-57212424D01*
X171272980Y-57212363D01*
X170935384Y-57212133D01*
X170558177Y-57211856D01*
X170509861Y-57211825D01*
X170135537Y-57211559D01*
X169801157Y-57211226D01*
X169504330Y-57210791D01*
X169242666Y-57210218D01*
X169013776Y-57209470D01*
X168815270Y-57208512D01*
X168644757Y-57207307D01*
X168499848Y-57205820D01*
X168378152Y-57204015D01*
X168277281Y-57201855D01*
X168194843Y-57199305D01*
X168128449Y-57196328D01*
X168075708Y-57192889D01*
X168034232Y-57188951D01*
X168001629Y-57184479D01*
X167975511Y-57179437D01*
X167953487Y-57173788D01*
X167951750Y-57173285D01*
X167737450Y-57089661D01*
X167546540Y-56971913D01*
X167382027Y-56822917D01*
X167246917Y-56645548D01*
X167144220Y-56442682D01*
X167120726Y-56378891D01*
X167062750Y-56207916D01*
X167062750Y-53773750D01*
X167062782Y-53399286D01*
X167062904Y-53064758D01*
X167063151Y-52767765D01*
X167063555Y-52505910D01*
X167064154Y-52276794D01*
X167064981Y-52078017D01*
X167066072Y-51907182D01*
X167067461Y-51761890D01*
X167069183Y-51639742D01*
X167071273Y-51538339D01*
X167073766Y-51455283D01*
X167076697Y-51388175D01*
X167080100Y-51334617D01*
X167084011Y-51292210D01*
X167088465Y-51258555D01*
X167093495Y-51231253D01*
X167099138Y-51207906D01*
X167100097Y-51204389D01*
X167179581Y-50993883D01*
X167294372Y-50803679D01*
X167440802Y-50637554D01*
X167615201Y-50499284D01*
X167813903Y-50392645D01*
X167930583Y-50349362D01*
X168078750Y-50302416D01*
X172968250Y-50302416D01*
X173116416Y-50349362D01*
G37*
X173328083Y-41619934D02*
X173541723Y-41715205D01*
X173727084Y-41840765D01*
X173882491Y-41995154D01*
X174006269Y-42176915D01*
X174037233Y-42237083D01*
X174078860Y-42333212D01*
X174115248Y-42433832D01*
X174139682Y-42520008D01*
X174142619Y-42534250D01*
X174146634Y-42570908D01*
X174150151Y-42636104D01*
X174153179Y-42731100D01*
X174155725Y-42857163D01*
X174157798Y-43015555D01*
X174159407Y-43207543D01*
X174160560Y-43434391D01*
X174161266Y-43697363D01*
X174161534Y-43997724D01*
X174161371Y-44336739D01*
X174160787Y-44715672D01*
X174159898Y-45095416D01*
X174153420Y-47529583D01*
X174104128Y-47661298D01*
X174010217Y-47858599D01*
X173885289Y-48037412D01*
X173735243Y-48190860D01*
X173565974Y-48312066D01*
X173528322Y-48332892D01*
X173489660Y-48353550D01*
X173454935Y-48372053D01*
X173421728Y-48388518D01*
X173387619Y-48403062D01*
X173350191Y-48415801D01*
X173307024Y-48426852D01*
X173255699Y-48436331D01*
X173193798Y-48444356D01*
X173118903Y-48451043D01*
X173028594Y-48456508D01*
X172920453Y-48460869D01*
X172792060Y-48464241D01*
X172640998Y-48466742D01*
X172464847Y-48468488D01*
X172261189Y-48469597D01*
X172027605Y-48470183D01*
X171761677Y-48470365D01*
X171460984Y-48470259D01*
X171123110Y-48469981D01*
X170745634Y-48469648D01*
X170693677Y-48469607D01*
X170306155Y-48469226D01*
X169958844Y-48468698D01*
X169649623Y-48467997D01*
X169376369Y-48467099D01*
X169136961Y-48465979D01*
X168929276Y-48464610D01*
X168751194Y-48462968D01*
X168600591Y-48461028D01*
X168475346Y-48458764D01*
X168373338Y-48456151D01*
X168292444Y-48453164D01*
X168230543Y-48449777D01*
X168185512Y-48445966D01*
X168155230Y-48441705D01*
X168144537Y-48439283D01*
X167944253Y-48363240D01*
X167760021Y-48252049D01*
X167596751Y-48110883D01*
X167459354Y-47944913D01*
X167352739Y-47759312D01*
X167281819Y-47559252D01*
X167273082Y-47521440D01*
X167267925Y-47475482D01*
X167263207Y-47390593D01*
X167258927Y-47270176D01*
X167255084Y-47117629D01*
X167251677Y-46936354D01*
X167248706Y-46729753D01*
X167246170Y-46501224D01*
X167244070Y-46254170D01*
X167242404Y-45991991D01*
X167241172Y-45718087D01*
X167240373Y-45435861D01*
X167240008Y-45148711D01*
X167240075Y-44860039D01*
X167240573Y-44573246D01*
X167241503Y-44291733D01*
X167242864Y-44018900D01*
X167244655Y-43758148D01*
X167246876Y-43512878D01*
X167249526Y-43286490D01*
X167252605Y-43082386D01*
X167256113Y-42903966D01*
X167260048Y-42754630D01*
X167264410Y-42637780D01*
X167269199Y-42556817D01*
X167273841Y-42517594D01*
X167338739Y-42310769D01*
X167440405Y-42120333D01*
X167575166Y-41950167D01*
X167739349Y-41804148D01*
X167929280Y-41686157D01*
X168141286Y-41600073D01*
X168143356Y-41599432D01*
X168164311Y-41593482D01*
X168188060Y-41588171D01*
X168216992Y-41583462D01*
X168253496Y-41579320D01*
X168299963Y-41575708D01*
X168358783Y-41572591D01*
X168432344Y-41569931D01*
X168523038Y-41567694D01*
X168633252Y-41565843D01*
X168765378Y-41564341D01*
X168921805Y-41563153D01*
X169104923Y-41562243D01*
X169317121Y-41561574D01*
X169560789Y-41561110D01*
X169838317Y-41560816D01*
X170152095Y-41560654D01*
X170504512Y-41560590D01*
X170714000Y-41560583D01*
X173158750Y-41560583D01*
X173328083Y-41619934D01*
G36*
X173328083Y-41619934D02*
G01*
X173541723Y-41715205D01*
X173727084Y-41840765D01*
X173882491Y-41995154D01*
X174006269Y-42176915D01*
X174037233Y-42237083D01*
X174078860Y-42333212D01*
X174115248Y-42433832D01*
X174139682Y-42520008D01*
X174142619Y-42534250D01*
X174146634Y-42570908D01*
X174150151Y-42636104D01*
X174153179Y-42731100D01*
X174155725Y-42857163D01*
X174157798Y-43015555D01*
X174159407Y-43207543D01*
X174160560Y-43434391D01*
X174161266Y-43697363D01*
X174161534Y-43997724D01*
X174161371Y-44336739D01*
X174160787Y-44715672D01*
X174159898Y-45095416D01*
X174153420Y-47529583D01*
X174104128Y-47661298D01*
X174010217Y-47858599D01*
X173885289Y-48037412D01*
X173735243Y-48190860D01*
X173565974Y-48312066D01*
X173528322Y-48332892D01*
X173489660Y-48353550D01*
X173454935Y-48372053D01*
X173421728Y-48388518D01*
X173387619Y-48403062D01*
X173350191Y-48415801D01*
X173307024Y-48426852D01*
X173255699Y-48436331D01*
X173193798Y-48444356D01*
X173118903Y-48451043D01*
X173028594Y-48456508D01*
X172920453Y-48460869D01*
X172792060Y-48464241D01*
X172640998Y-48466742D01*
X172464847Y-48468488D01*
X172261189Y-48469597D01*
X172027605Y-48470183D01*
X171761677Y-48470365D01*
X171460984Y-48470259D01*
X171123110Y-48469981D01*
X170745634Y-48469648D01*
X170693677Y-48469607D01*
X170306155Y-48469226D01*
X169958844Y-48468698D01*
X169649623Y-48467997D01*
X169376369Y-48467099D01*
X169136961Y-48465979D01*
X168929276Y-48464610D01*
X168751194Y-48462968D01*
X168600591Y-48461028D01*
X168475346Y-48458764D01*
X168373338Y-48456151D01*
X168292444Y-48453164D01*
X168230543Y-48449777D01*
X168185512Y-48445966D01*
X168155230Y-48441705D01*
X168144537Y-48439283D01*
X167944253Y-48363240D01*
X167760021Y-48252049D01*
X167596751Y-48110883D01*
X167459354Y-47944913D01*
X167352739Y-47759312D01*
X167281819Y-47559252D01*
X167273082Y-47521440D01*
X167267925Y-47475482D01*
X167263207Y-47390593D01*
X167258927Y-47270176D01*
X167255084Y-47117629D01*
X167251677Y-46936354D01*
X167248706Y-46729753D01*
X167246170Y-46501224D01*
X167244070Y-46254170D01*
X167242404Y-45991991D01*
X167241172Y-45718087D01*
X167240373Y-45435861D01*
X167240008Y-45148711D01*
X167240075Y-44860039D01*
X167240573Y-44573246D01*
X167241503Y-44291733D01*
X167242864Y-44018900D01*
X167244655Y-43758148D01*
X167246876Y-43512878D01*
X167249526Y-43286490D01*
X167252605Y-43082386D01*
X167256113Y-42903966D01*
X167260048Y-42754630D01*
X167264410Y-42637780D01*
X167269199Y-42556817D01*
X167273841Y-42517594D01*
X167338739Y-42310769D01*
X167440405Y-42120333D01*
X167575166Y-41950167D01*
X167739349Y-41804148D01*
X167929280Y-41686157D01*
X168141286Y-41600073D01*
X168143356Y-41599432D01*
X168164311Y-41593482D01*
X168188060Y-41588171D01*
X168216992Y-41583462D01*
X168253496Y-41579320D01*
X168299963Y-41575708D01*
X168358783Y-41572591D01*
X168432344Y-41569931D01*
X168523038Y-41567694D01*
X168633252Y-41565843D01*
X168765378Y-41564341D01*
X168921805Y-41563153D01*
X169104923Y-41562243D01*
X169317121Y-41561574D01*
X169560789Y-41561110D01*
X169838317Y-41560816D01*
X170152095Y-41560654D01*
X170504512Y-41560590D01*
X170714000Y-41560583D01*
X173158750Y-41560583D01*
X173328083Y-41619934D01*
G37*
X179820100Y-41557881D02*
X180102569Y-41558619D01*
X180377207Y-41559752D01*
X180640672Y-41561282D01*
X180889619Y-41563207D01*
X181120706Y-41565529D01*
X181330588Y-41568247D01*
X181515921Y-41571361D01*
X181673363Y-41574871D01*
X181799569Y-41578776D01*
X181891196Y-41583078D01*
X181944900Y-41587774D01*
X181953500Y-41589353D01*
X182167358Y-41663298D01*
X182361380Y-41772612D01*
X182531749Y-41913476D01*
X182674647Y-42082074D01*
X182786258Y-42274588D01*
X182862763Y-42487202D01*
X182866646Y-42502500D01*
X182871468Y-42543423D01*
X182875896Y-42623334D01*
X182879927Y-42738890D01*
X182883563Y-42886746D01*
X182886803Y-43063558D01*
X182889647Y-43265984D01*
X182892095Y-43490680D01*
X182894147Y-43734302D01*
X182895803Y-43993506D01*
X182897063Y-44264948D01*
X182897926Y-44545286D01*
X182898393Y-44831174D01*
X182898463Y-45119271D01*
X182898137Y-45406232D01*
X182897414Y-45688712D01*
X182896294Y-45963370D01*
X182894778Y-46226861D01*
X182892865Y-46475841D01*
X182890554Y-46706967D01*
X182887847Y-46916895D01*
X182884742Y-47102282D01*
X182881240Y-47259783D01*
X182877341Y-47386056D01*
X182873045Y-47477756D01*
X182868351Y-47531540D01*
X182866772Y-47540166D01*
X182794476Y-47749650D01*
X182687279Y-47940949D01*
X182549453Y-48109702D01*
X182385267Y-48251550D01*
X182198990Y-48362133D01*
X181994894Y-48437092D01*
X181986094Y-48439370D01*
X181943655Y-48444715D01*
X181862293Y-48449610D01*
X181745331Y-48454056D01*
X181596090Y-48458054D01*
X181417893Y-48461605D01*
X181214062Y-48464711D01*
X180987917Y-48467372D01*
X180742783Y-48469588D01*
X180481980Y-48471362D01*
X180208830Y-48472695D01*
X179926656Y-48473586D01*
X179638779Y-48474038D01*
X179348522Y-48474050D01*
X179059206Y-48473625D01*
X178774154Y-48472764D01*
X178496687Y-48471466D01*
X178230128Y-48469734D01*
X177977798Y-48467567D01*
X177743020Y-48464969D01*
X177529116Y-48461938D01*
X177339406Y-48458476D01*
X177177214Y-48454585D01*
X177045862Y-48450265D01*
X176948671Y-48445518D01*
X176888964Y-48440343D01*
X176875015Y-48437824D01*
X176664499Y-48360158D01*
X176475313Y-48247768D01*
X176311151Y-48104172D01*
X176175708Y-47932890D01*
X176072679Y-47737439D01*
X176036942Y-47639615D01*
X175984500Y-47474481D01*
X175984751Y-45025532D01*
X175984853Y-44643581D01*
X175985094Y-44301694D01*
X175985502Y-43997603D01*
X175986105Y-43729039D01*
X175986930Y-43493734D01*
X175988005Y-43289418D01*
X175989358Y-43113823D01*
X175991015Y-42964680D01*
X175993005Y-42839722D01*
X175995355Y-42736678D01*
X175998093Y-42653280D01*
X176001246Y-42587260D01*
X176004842Y-42536348D01*
X176008908Y-42498277D01*
X176013473Y-42470777D01*
X176015939Y-42460326D01*
X176090965Y-42258470D01*
X176201844Y-42073317D01*
X176343876Y-41909415D01*
X176512364Y-41771313D01*
X176702609Y-41663558D01*
X176909911Y-41590700D01*
X176915833Y-41589227D01*
X176956838Y-41584406D01*
X177036825Y-41579983D01*
X177152449Y-41575957D01*
X177300367Y-41572329D01*
X177477235Y-41569098D01*
X177679709Y-41566264D01*
X177904447Y-41563827D01*
X178148103Y-41561787D01*
X178407335Y-41560145D01*
X178678799Y-41558899D01*
X178959151Y-41558049D01*
X179245048Y-41557597D01*
X179533145Y-41557541D01*
X179820100Y-41557881D01*
G36*
X179820100Y-41557881D02*
G01*
X180102569Y-41558619D01*
X180377207Y-41559752D01*
X180640672Y-41561282D01*
X180889619Y-41563207D01*
X181120706Y-41565529D01*
X181330588Y-41568247D01*
X181515921Y-41571361D01*
X181673363Y-41574871D01*
X181799569Y-41578776D01*
X181891196Y-41583078D01*
X181944900Y-41587774D01*
X181953500Y-41589353D01*
X182167358Y-41663298D01*
X182361380Y-41772612D01*
X182531749Y-41913476D01*
X182674647Y-42082074D01*
X182786258Y-42274588D01*
X182862763Y-42487202D01*
X182866646Y-42502500D01*
X182871468Y-42543423D01*
X182875896Y-42623334D01*
X182879927Y-42738890D01*
X182883563Y-42886746D01*
X182886803Y-43063558D01*
X182889647Y-43265984D01*
X182892095Y-43490680D01*
X182894147Y-43734302D01*
X182895803Y-43993506D01*
X182897063Y-44264948D01*
X182897926Y-44545286D01*
X182898393Y-44831174D01*
X182898463Y-45119271D01*
X182898137Y-45406232D01*
X182897414Y-45688712D01*
X182896294Y-45963370D01*
X182894778Y-46226861D01*
X182892865Y-46475841D01*
X182890554Y-46706967D01*
X182887847Y-46916895D01*
X182884742Y-47102282D01*
X182881240Y-47259783D01*
X182877341Y-47386056D01*
X182873045Y-47477756D01*
X182868351Y-47531540D01*
X182866772Y-47540166D01*
X182794476Y-47749650D01*
X182687279Y-47940949D01*
X182549453Y-48109702D01*
X182385267Y-48251550D01*
X182198990Y-48362133D01*
X181994894Y-48437092D01*
X181986094Y-48439370D01*
X181943655Y-48444715D01*
X181862293Y-48449610D01*
X181745331Y-48454056D01*
X181596090Y-48458054D01*
X181417893Y-48461605D01*
X181214062Y-48464711D01*
X180987917Y-48467372D01*
X180742783Y-48469588D01*
X180481980Y-48471362D01*
X180208830Y-48472695D01*
X179926656Y-48473586D01*
X179638779Y-48474038D01*
X179348522Y-48474050D01*
X179059206Y-48473625D01*
X178774154Y-48472764D01*
X178496687Y-48471466D01*
X178230128Y-48469734D01*
X177977798Y-48467567D01*
X177743020Y-48464969D01*
X177529116Y-48461938D01*
X177339406Y-48458476D01*
X177177214Y-48454585D01*
X177045862Y-48450265D01*
X176948671Y-48445518D01*
X176888964Y-48440343D01*
X176875015Y-48437824D01*
X176664499Y-48360158D01*
X176475313Y-48247768D01*
X176311151Y-48104172D01*
X176175708Y-47932890D01*
X176072679Y-47737439D01*
X176036942Y-47639615D01*
X175984500Y-47474481D01*
X175984751Y-45025532D01*
X175984853Y-44643581D01*
X175985094Y-44301694D01*
X175985502Y-43997603D01*
X175986105Y-43729039D01*
X175986930Y-43493734D01*
X175988005Y-43289418D01*
X175989358Y-43113823D01*
X175991015Y-42964680D01*
X175993005Y-42839722D01*
X175995355Y-42736678D01*
X175998093Y-42653280D01*
X176001246Y-42587260D01*
X176004842Y-42536348D01*
X176008908Y-42498277D01*
X176013473Y-42470777D01*
X176015939Y-42460326D01*
X176090965Y-42258470D01*
X176201844Y-42073317D01*
X176343876Y-41909415D01*
X176512364Y-41771313D01*
X176702609Y-41663558D01*
X176909911Y-41590700D01*
X176915833Y-41589227D01*
X176956838Y-41584406D01*
X177036825Y-41579983D01*
X177152449Y-41575957D01*
X177300367Y-41572329D01*
X177477235Y-41569098D01*
X177679709Y-41566264D01*
X177904447Y-41563827D01*
X178148103Y-41561787D01*
X178407335Y-41560145D01*
X178678799Y-41558899D01*
X178959151Y-41558049D01*
X179245048Y-41557597D01*
X179533145Y-41557541D01*
X179820100Y-41557881D01*
G37*
X188456100Y-41557881D02*
X188738569Y-41558619D01*
X189013207Y-41559752D01*
X189276672Y-41561282D01*
X189525619Y-41563207D01*
X189756706Y-41565529D01*
X189966588Y-41568247D01*
X190151921Y-41571361D01*
X190309363Y-41574871D01*
X190435569Y-41578776D01*
X190527196Y-41583078D01*
X190580900Y-41587774D01*
X190589500Y-41589353D01*
X190803358Y-41663298D01*
X190997380Y-41772612D01*
X191167749Y-41913476D01*
X191310647Y-42082074D01*
X191422258Y-42274588D01*
X191498763Y-42487202D01*
X191502646Y-42502500D01*
X191507468Y-42543423D01*
X191511896Y-42623334D01*
X191515927Y-42738890D01*
X191519563Y-42886746D01*
X191522803Y-43063558D01*
X191525647Y-43265984D01*
X191528095Y-43490680D01*
X191530147Y-43734302D01*
X191531803Y-43993506D01*
X191533063Y-44264948D01*
X191533926Y-44545286D01*
X191534393Y-44831174D01*
X191534463Y-45119271D01*
X191534137Y-45406232D01*
X191533414Y-45688712D01*
X191532294Y-45963370D01*
X191530778Y-46226861D01*
X191528865Y-46475841D01*
X191526554Y-46706967D01*
X191523847Y-46916895D01*
X191520742Y-47102282D01*
X191517240Y-47259783D01*
X191513341Y-47386056D01*
X191509045Y-47477756D01*
X191504351Y-47531540D01*
X191502772Y-47540166D01*
X191430476Y-47749650D01*
X191323279Y-47940949D01*
X191185453Y-48109702D01*
X191021267Y-48251550D01*
X190834990Y-48362133D01*
X190630894Y-48437092D01*
X190622094Y-48439370D01*
X190580144Y-48444601D01*
X190499273Y-48449401D01*
X190382799Y-48453772D01*
X190234041Y-48457713D01*
X190056319Y-48461224D01*
X189852950Y-48464307D01*
X189627255Y-48466960D01*
X189382551Y-48469184D01*
X189122158Y-48470980D01*
X188849394Y-48472347D01*
X188567579Y-48473287D01*
X188280032Y-48473798D01*
X187990070Y-48473882D01*
X187701014Y-48473538D01*
X187416181Y-48472767D01*
X187138892Y-48471569D01*
X186872464Y-48469944D01*
X186620216Y-48467892D01*
X186385469Y-48465414D01*
X186171539Y-48462510D01*
X185981747Y-48459181D01*
X185819411Y-48455425D01*
X185687850Y-48451244D01*
X185590383Y-48446638D01*
X185530329Y-48441606D01*
X185515726Y-48439030D01*
X185303984Y-48361083D01*
X185113916Y-48248796D01*
X184949125Y-48105589D01*
X184813219Y-47934881D01*
X184709802Y-47740093D01*
X184672942Y-47639615D01*
X184620500Y-47474481D01*
X184620751Y-45025532D01*
X184620853Y-44643581D01*
X184621094Y-44301694D01*
X184621502Y-43997603D01*
X184622105Y-43729039D01*
X184622930Y-43493734D01*
X184624005Y-43289418D01*
X184625358Y-43113823D01*
X184627015Y-42964680D01*
X184629005Y-42839722D01*
X184631355Y-42736678D01*
X184634093Y-42653280D01*
X184637246Y-42587260D01*
X184640842Y-42536348D01*
X184644908Y-42498277D01*
X184649473Y-42470777D01*
X184651939Y-42460326D01*
X184726965Y-42258470D01*
X184837844Y-42073317D01*
X184979876Y-41909415D01*
X185148364Y-41771313D01*
X185338609Y-41663558D01*
X185545911Y-41590700D01*
X185551833Y-41589227D01*
X185592838Y-41584406D01*
X185672825Y-41579983D01*
X185788449Y-41575957D01*
X185936367Y-41572329D01*
X186113235Y-41569098D01*
X186315709Y-41566264D01*
X186540447Y-41563827D01*
X186784103Y-41561787D01*
X187043335Y-41560145D01*
X187314799Y-41558899D01*
X187595151Y-41558049D01*
X187881048Y-41557597D01*
X188169145Y-41557541D01*
X188456100Y-41557881D01*
G36*
X188456100Y-41557881D02*
G01*
X188738569Y-41558619D01*
X189013207Y-41559752D01*
X189276672Y-41561282D01*
X189525619Y-41563207D01*
X189756706Y-41565529D01*
X189966588Y-41568247D01*
X190151921Y-41571361D01*
X190309363Y-41574871D01*
X190435569Y-41578776D01*
X190527196Y-41583078D01*
X190580900Y-41587774D01*
X190589500Y-41589353D01*
X190803358Y-41663298D01*
X190997380Y-41772612D01*
X191167749Y-41913476D01*
X191310647Y-42082074D01*
X191422258Y-42274588D01*
X191498763Y-42487202D01*
X191502646Y-42502500D01*
X191507468Y-42543423D01*
X191511896Y-42623334D01*
X191515927Y-42738890D01*
X191519563Y-42886746D01*
X191522803Y-43063558D01*
X191525647Y-43265984D01*
X191528095Y-43490680D01*
X191530147Y-43734302D01*
X191531803Y-43993506D01*
X191533063Y-44264948D01*
X191533926Y-44545286D01*
X191534393Y-44831174D01*
X191534463Y-45119271D01*
X191534137Y-45406232D01*
X191533414Y-45688712D01*
X191532294Y-45963370D01*
X191530778Y-46226861D01*
X191528865Y-46475841D01*
X191526554Y-46706967D01*
X191523847Y-46916895D01*
X191520742Y-47102282D01*
X191517240Y-47259783D01*
X191513341Y-47386056D01*
X191509045Y-47477756D01*
X191504351Y-47531540D01*
X191502772Y-47540166D01*
X191430476Y-47749650D01*
X191323279Y-47940949D01*
X191185453Y-48109702D01*
X191021267Y-48251550D01*
X190834990Y-48362133D01*
X190630894Y-48437092D01*
X190622094Y-48439370D01*
X190580144Y-48444601D01*
X190499273Y-48449401D01*
X190382799Y-48453772D01*
X190234041Y-48457713D01*
X190056319Y-48461224D01*
X189852950Y-48464307D01*
X189627255Y-48466960D01*
X189382551Y-48469184D01*
X189122158Y-48470980D01*
X188849394Y-48472347D01*
X188567579Y-48473287D01*
X188280032Y-48473798D01*
X187990070Y-48473882D01*
X187701014Y-48473538D01*
X187416181Y-48472767D01*
X187138892Y-48471569D01*
X186872464Y-48469944D01*
X186620216Y-48467892D01*
X186385469Y-48465414D01*
X186171539Y-48462510D01*
X185981747Y-48459181D01*
X185819411Y-48455425D01*
X185687850Y-48451244D01*
X185590383Y-48446638D01*
X185530329Y-48441606D01*
X185515726Y-48439030D01*
X185303984Y-48361083D01*
X185113916Y-48248796D01*
X184949125Y-48105589D01*
X184813219Y-47934881D01*
X184709802Y-47740093D01*
X184672942Y-47639615D01*
X184620500Y-47474481D01*
X184620751Y-45025532D01*
X184620853Y-44643581D01*
X184621094Y-44301694D01*
X184621502Y-43997603D01*
X184622105Y-43729039D01*
X184622930Y-43493734D01*
X184624005Y-43289418D01*
X184625358Y-43113823D01*
X184627015Y-42964680D01*
X184629005Y-42839722D01*
X184631355Y-42736678D01*
X184634093Y-42653280D01*
X184637246Y-42587260D01*
X184640842Y-42536348D01*
X184644908Y-42498277D01*
X184649473Y-42470777D01*
X184651939Y-42460326D01*
X184726965Y-42258470D01*
X184837844Y-42073317D01*
X184979876Y-41909415D01*
X185148364Y-41771313D01*
X185338609Y-41663558D01*
X185545911Y-41590700D01*
X185551833Y-41589227D01*
X185592838Y-41584406D01*
X185672825Y-41579983D01*
X185788449Y-41575957D01*
X185936367Y-41572329D01*
X186113235Y-41569098D01*
X186315709Y-41566264D01*
X186540447Y-41563827D01*
X186784103Y-41561787D01*
X187043335Y-41560145D01*
X187314799Y-41558899D01*
X187595151Y-41558049D01*
X187881048Y-41557597D01*
X188169145Y-41557541D01*
X188456100Y-41557881D01*
G37*
X179203149Y-134073486D02*
X179595719Y-134123116D01*
X179824532Y-134167235D01*
X180288977Y-134291048D01*
X180735410Y-134453084D01*
X181162966Y-134652860D01*
X181570784Y-134889895D01*
X181958002Y-135163709D01*
X182323757Y-135473818D01*
X182536478Y-135681135D01*
X182856282Y-136036588D01*
X183137956Y-136407933D01*
X183382406Y-136796981D01*
X183590536Y-137205546D01*
X183763252Y-137635437D01*
X183901459Y-138088468D01*
X184006062Y-138566450D01*
X184020862Y-138652083D01*
X184033823Y-138739670D01*
X184043710Y-138831458D01*
X184050872Y-138934641D01*
X184055662Y-139056411D01*
X184058430Y-139203963D01*
X184059527Y-139384490D01*
X184059583Y-139445833D01*
X184058492Y-139658609D01*
X184054588Y-139838360D01*
X184046918Y-139994351D01*
X184034532Y-140135850D01*
X184016481Y-140272122D01*
X183991812Y-140412435D01*
X183959576Y-140566055D01*
X183932558Y-140684083D01*
X183806028Y-141133440D01*
X183641775Y-141566642D01*
X183441804Y-141981721D01*
X183208121Y-142376712D01*
X182942733Y-142749645D01*
X182647644Y-143098556D01*
X182324862Y-143421475D01*
X181976391Y-143716437D01*
X181604237Y-143981474D01*
X181210407Y-144214619D01*
X180796905Y-144413905D01*
X180365739Y-144577365D01*
X179918913Y-144703032D01*
X179809761Y-144727308D01*
X179468581Y-144788210D01*
X179129032Y-144825241D01*
X178774624Y-144839992D01*
X178641046Y-144840161D01*
X178513664Y-144838718D01*
X178396972Y-144836683D01*
X178299213Y-144834255D01*
X178228631Y-144831634D01*
X178196416Y-144829432D01*
X177760674Y-144765719D01*
X177356578Y-144681249D01*
X176977834Y-144574047D01*
X176618150Y-144442138D01*
X176271233Y-144283548D01*
X176012509Y-144144114D01*
X175607790Y-143888127D01*
X175231082Y-143601860D01*
X174883621Y-143287431D01*
X174566637Y-142946956D01*
X174281366Y-142582550D01*
X174029039Y-142196331D01*
X173810889Y-141790415D01*
X173628151Y-141366918D01*
X173482057Y-140927957D01*
X173373840Y-140475649D01*
X173304733Y-140012109D01*
X173275969Y-139539454D01*
X173275166Y-139445833D01*
X173280253Y-139329963D01*
X174746367Y-139329963D01*
X174754477Y-139723390D01*
X174803137Y-140119254D01*
X174832718Y-140270667D01*
X174897065Y-140530469D01*
X174975927Y-140773325D01*
X175075666Y-141017606D01*
X175137679Y-141150845D01*
X175330083Y-141502512D01*
X175554504Y-141828876D01*
X175808260Y-142128419D01*
X176088666Y-142399623D01*
X176393037Y-142640971D01*
X176718691Y-142850943D01*
X177062942Y-143028023D01*
X177423108Y-143170693D01*
X177796503Y-143277435D01*
X178180444Y-143346731D01*
X178572247Y-143377062D01*
X178969228Y-143366912D01*
X179044698Y-143360313D01*
X179444656Y-143300732D01*
X179830747Y-143202374D01*
X180200830Y-143067142D01*
X180552759Y-142896938D01*
X180884392Y-142693663D01*
X181193583Y-142459220D01*
X181478190Y-142195511D01*
X181736069Y-141904437D01*
X181965074Y-141587901D01*
X182163064Y-141247804D01*
X182327893Y-140886049D01*
X182457419Y-140504537D01*
X182513811Y-140282624D01*
X182579914Y-139892847D01*
X182605024Y-139500824D01*
X182590133Y-139109744D01*
X182536229Y-138722796D01*
X182444305Y-138343168D01*
X182315349Y-137974050D01*
X182150353Y-137618631D01*
X181950307Y-137280099D01*
X181716202Y-136961643D01*
X181449027Y-136666454D01*
X181365661Y-136585805D01*
X181056534Y-136323683D01*
X180727489Y-136097524D01*
X180381374Y-135907765D01*
X180021032Y-135754844D01*
X179649312Y-135639197D01*
X179269058Y-135561262D01*
X178883116Y-135521475D01*
X178494334Y-135520276D01*
X178105555Y-135558099D01*
X177719628Y-135635384D01*
X177339397Y-135752566D01*
X176967708Y-135910084D01*
X176967654Y-135910110D01*
X176614126Y-136104342D01*
X176287080Y-136329742D01*
X175987795Y-136583700D01*
X175717550Y-136863602D01*
X175477623Y-137166837D01*
X175269294Y-137490793D01*
X175093841Y-137832858D01*
X174952542Y-138190419D01*
X174846678Y-138560865D01*
X174777526Y-138941583D01*
X174746367Y-139329963D01*
X173280253Y-139329963D01*
X173296033Y-138970611D01*
X173358002Y-138502628D01*
X173460125Y-138044236D01*
X173601451Y-137597791D01*
X173781033Y-137165646D01*
X173997921Y-136750155D01*
X174251167Y-136353674D01*
X174539823Y-135978555D01*
X174780326Y-135711252D01*
X175128821Y-135378518D01*
X175500723Y-135080442D01*
X175894359Y-134817950D01*
X176308055Y-134591967D01*
X176740138Y-134403417D01*
X177188935Y-134253228D01*
X177597776Y-134153240D01*
X177982533Y-134091424D01*
X178385631Y-134057572D01*
X178796145Y-134051615D01*
X179203149Y-134073486D01*
G36*
X179203149Y-134073486D02*
G01*
X179595719Y-134123116D01*
X179824532Y-134167235D01*
X180288977Y-134291048D01*
X180735410Y-134453084D01*
X181162966Y-134652860D01*
X181570784Y-134889895D01*
X181958002Y-135163709D01*
X182323757Y-135473818D01*
X182536478Y-135681135D01*
X182856282Y-136036588D01*
X183137956Y-136407933D01*
X183382406Y-136796981D01*
X183590536Y-137205546D01*
X183763252Y-137635437D01*
X183901459Y-138088468D01*
X184006062Y-138566450D01*
X184020862Y-138652083D01*
X184033823Y-138739670D01*
X184043710Y-138831458D01*
X184050872Y-138934641D01*
X184055662Y-139056411D01*
X184058430Y-139203963D01*
X184059527Y-139384490D01*
X184059583Y-139445833D01*
X184058492Y-139658609D01*
X184054588Y-139838360D01*
X184046918Y-139994351D01*
X184034532Y-140135850D01*
X184016481Y-140272122D01*
X183991812Y-140412435D01*
X183959576Y-140566055D01*
X183932558Y-140684083D01*
X183806028Y-141133440D01*
X183641775Y-141566642D01*
X183441804Y-141981721D01*
X183208121Y-142376712D01*
X182942733Y-142749645D01*
X182647644Y-143098556D01*
X182324862Y-143421475D01*
X181976391Y-143716437D01*
X181604237Y-143981474D01*
X181210407Y-144214619D01*
X180796905Y-144413905D01*
X180365739Y-144577365D01*
X179918913Y-144703032D01*
X179809761Y-144727308D01*
X179468581Y-144788210D01*
X179129032Y-144825241D01*
X178774624Y-144839992D01*
X178641046Y-144840161D01*
X178513664Y-144838718D01*
X178396972Y-144836683D01*
X178299213Y-144834255D01*
X178228631Y-144831634D01*
X178196416Y-144829432D01*
X177760674Y-144765719D01*
X177356578Y-144681249D01*
X176977834Y-144574047D01*
X176618150Y-144442138D01*
X176271233Y-144283548D01*
X176012509Y-144144114D01*
X175607790Y-143888127D01*
X175231082Y-143601860D01*
X174883621Y-143287431D01*
X174566637Y-142946956D01*
X174281366Y-142582550D01*
X174029039Y-142196331D01*
X173810889Y-141790415D01*
X173628151Y-141366918D01*
X173482057Y-140927957D01*
X173373840Y-140475649D01*
X173304733Y-140012109D01*
X173275969Y-139539454D01*
X173275166Y-139445833D01*
X173280253Y-139329963D01*
X174746367Y-139329963D01*
X174754477Y-139723390D01*
X174803137Y-140119254D01*
X174832718Y-140270667D01*
X174897065Y-140530469D01*
X174975927Y-140773325D01*
X175075666Y-141017606D01*
X175137679Y-141150845D01*
X175330083Y-141502512D01*
X175554504Y-141828876D01*
X175808260Y-142128419D01*
X176088666Y-142399623D01*
X176393037Y-142640971D01*
X176718691Y-142850943D01*
X177062942Y-143028023D01*
X177423108Y-143170693D01*
X177796503Y-143277435D01*
X178180444Y-143346731D01*
X178572247Y-143377062D01*
X178969228Y-143366912D01*
X179044698Y-143360313D01*
X179444656Y-143300732D01*
X179830747Y-143202374D01*
X180200830Y-143067142D01*
X180552759Y-142896938D01*
X180884392Y-142693663D01*
X181193583Y-142459220D01*
X181478190Y-142195511D01*
X181736069Y-141904437D01*
X181965074Y-141587901D01*
X182163064Y-141247804D01*
X182327893Y-140886049D01*
X182457419Y-140504537D01*
X182513811Y-140282624D01*
X182579914Y-139892847D01*
X182605024Y-139500824D01*
X182590133Y-139109744D01*
X182536229Y-138722796D01*
X182444305Y-138343168D01*
X182315349Y-137974050D01*
X182150353Y-137618631D01*
X181950307Y-137280099D01*
X181716202Y-136961643D01*
X181449027Y-136666454D01*
X181365661Y-136585805D01*
X181056534Y-136323683D01*
X180727489Y-136097524D01*
X180381374Y-135907765D01*
X180021032Y-135754844D01*
X179649312Y-135639197D01*
X179269058Y-135561262D01*
X178883116Y-135521475D01*
X178494334Y-135520276D01*
X178105555Y-135558099D01*
X177719628Y-135635384D01*
X177339397Y-135752566D01*
X176967708Y-135910084D01*
X176967654Y-135910110D01*
X176614126Y-136104342D01*
X176287080Y-136329742D01*
X175987795Y-136583700D01*
X175717550Y-136863602D01*
X175477623Y-137166837D01*
X175269294Y-137490793D01*
X175093841Y-137832858D01*
X174952542Y-138190419D01*
X174846678Y-138560865D01*
X174777526Y-138941583D01*
X174746367Y-139329963D01*
X173280253Y-139329963D01*
X173296033Y-138970611D01*
X173358002Y-138502628D01*
X173460125Y-138044236D01*
X173601451Y-137597791D01*
X173781033Y-137165646D01*
X173997921Y-136750155D01*
X174251167Y-136353674D01*
X174539823Y-135978555D01*
X174780326Y-135711252D01*
X175128821Y-135378518D01*
X175500723Y-135080442D01*
X175894359Y-134817950D01*
X176308055Y-134591967D01*
X176740138Y-134403417D01*
X177188935Y-134253228D01*
X177597776Y-134153240D01*
X177982533Y-134091424D01*
X178385631Y-134057572D01*
X178796145Y-134051615D01*
X179203149Y-134073486D01*
G37*
X179801171Y-125110378D02*
X180566940Y-125180257D01*
X181329842Y-125291280D01*
X182088097Y-125443601D01*
X182355666Y-125507597D01*
X183095030Y-125713436D01*
X183817864Y-125957530D01*
X184523003Y-126238689D01*
X185209280Y-126555720D01*
X185875532Y-126907432D01*
X186520593Y-127292634D01*
X187143298Y-127710135D01*
X187742481Y-128158743D01*
X188316977Y-128637268D01*
X188865621Y-129144517D01*
X189387249Y-129679300D01*
X189880693Y-130240424D01*
X190344790Y-130826700D01*
X190778375Y-131436936D01*
X191180281Y-132069939D01*
X191549344Y-132724520D01*
X191884398Y-133399486D01*
X192184279Y-134093647D01*
X192447821Y-134805811D01*
X192673858Y-135534786D01*
X192852181Y-136239083D01*
X192996096Y-136967798D01*
X193102034Y-137709593D01*
X193169884Y-138459884D01*
X193199531Y-139214081D01*
X193190866Y-139967600D01*
X193143775Y-140715853D01*
X193058146Y-141454253D01*
X192990109Y-141880000D01*
X192833989Y-142643781D01*
X192637783Y-143394761D01*
X192402093Y-144131648D01*
X192127517Y-144853149D01*
X191814655Y-145557974D01*
X191464106Y-146244830D01*
X191076469Y-146912427D01*
X190652345Y-147559473D01*
X190192332Y-148184676D01*
X189889364Y-148560765D01*
X189375547Y-149144654D01*
X188833783Y-149697615D01*
X188265503Y-150218822D01*
X187672138Y-150707444D01*
X187055116Y-151162654D01*
X186415867Y-151583622D01*
X185755822Y-151969521D01*
X185076409Y-152319521D01*
X184379060Y-152632794D01*
X183665203Y-152908511D01*
X182936270Y-153145845D01*
X182193688Y-153343965D01*
X181438889Y-153502044D01*
X181329083Y-153521494D01*
X180980767Y-153578303D01*
X180651907Y-153624179D01*
X180331735Y-153660065D01*
X180009482Y-153686902D01*
X179674381Y-153705634D01*
X179315663Y-153717203D01*
X179043083Y-153721561D01*
X178869979Y-153723083D01*
X178705953Y-153724015D01*
X178556981Y-153724361D01*
X178429044Y-153724126D01*
X178328121Y-153723315D01*
X178260191Y-153721932D01*
X178238750Y-153720907D01*
X178180446Y-153716694D01*
X178090230Y-153710338D01*
X177978423Y-153702557D01*
X177855348Y-153694073D01*
X177794250Y-153689890D01*
X177206052Y-153634974D01*
X176600465Y-153550257D01*
X175987990Y-153437784D01*
X175379129Y-153299602D01*
X174784382Y-153137754D01*
X174486334Y-153045616D01*
X173761949Y-152789900D01*
X173054430Y-152496017D01*
X172365199Y-152165189D01*
X171695681Y-151798636D01*
X171047296Y-151397581D01*
X170421468Y-150963243D01*
X169819619Y-150496846D01*
X169243172Y-149999609D01*
X168693550Y-149472754D01*
X168172175Y-148917503D01*
X167680471Y-148335076D01*
X167219858Y-147726695D01*
X166791761Y-147093582D01*
X166397602Y-146436956D01*
X166069815Y-145820434D01*
X165754260Y-145149742D01*
X165477051Y-144475078D01*
X165237136Y-143792696D01*
X165033467Y-143098850D01*
X164864994Y-142389793D01*
X164730669Y-141661779D01*
X164629441Y-140911062D01*
X164592746Y-140546500D01*
X164583016Y-140406930D01*
X164575368Y-140232209D01*
X164569769Y-140029461D01*
X164566186Y-139805816D01*
X164564588Y-139568401D01*
X164564825Y-139403500D01*
X166470479Y-139403500D01*
X166471173Y-139666560D01*
X166473587Y-139894958D01*
X166478220Y-140096348D01*
X166485570Y-140278382D01*
X166496136Y-140448715D01*
X166510417Y-140615000D01*
X166528912Y-140784890D01*
X166552118Y-140966038D01*
X166580536Y-141166100D01*
X166589090Y-141223833D01*
X166716963Y-141938960D01*
X166885177Y-142641825D01*
X167093208Y-143331227D01*
X167340532Y-144005965D01*
X167626628Y-144664837D01*
X167950971Y-145306640D01*
X168313039Y-145930174D01*
X168712308Y-146534236D01*
X169148256Y-147117625D01*
X169162271Y-147135266D01*
X169583787Y-147635415D01*
X170039734Y-148121267D01*
X170522829Y-148585753D01*
X171025790Y-149021804D01*
X171444250Y-149350431D01*
X172037935Y-149769067D01*
X172651074Y-150150273D01*
X173282680Y-150493690D01*
X173931766Y-150798960D01*
X174597345Y-151065724D01*
X175278432Y-151293624D01*
X175974038Y-151482302D01*
X176683179Y-151631399D01*
X177404868Y-151740557D01*
X178138117Y-151809418D01*
X178228166Y-151815034D01*
X178330476Y-151818873D01*
X178467506Y-151820774D01*
X178631693Y-151820900D01*
X178815477Y-151819415D01*
X179011295Y-151816479D01*
X179211585Y-151812257D01*
X179408787Y-151806910D01*
X179595338Y-151800600D01*
X179763677Y-151793491D01*
X179906242Y-151785744D01*
X180015470Y-151777523D01*
X180027333Y-151776377D01*
X180491060Y-151722614D01*
X180938734Y-151656152D01*
X181283315Y-151593748D01*
X181984964Y-151433695D01*
X182673505Y-151233824D01*
X183347436Y-150995026D01*
X184005259Y-150718195D01*
X184645472Y-150404222D01*
X185266574Y-150054001D01*
X185867065Y-149668422D01*
X186445445Y-149248380D01*
X187000212Y-148794765D01*
X187529866Y-148308471D01*
X188032907Y-147790390D01*
X188416886Y-147351583D01*
X188858964Y-146789753D01*
X189267533Y-146203824D01*
X189641552Y-145596028D01*
X189979980Y-144968596D01*
X190281777Y-144323761D01*
X190545900Y-143663754D01*
X190771310Y-142990808D01*
X190956965Y-142307155D01*
X191101824Y-141615026D01*
X191107670Y-141581987D01*
X191170411Y-141195366D01*
X191218946Y-140827143D01*
X191254323Y-140464836D01*
X191277589Y-140095962D01*
X191289793Y-139708038D01*
X191292304Y-139382333D01*
X191288741Y-139038258D01*
X191278309Y-138722997D01*
X191260095Y-138423451D01*
X191233190Y-138126523D01*
X191196683Y-137819115D01*
X191170295Y-137627689D01*
X191047919Y-136923239D01*
X190886265Y-136232477D01*
X190686519Y-135556650D01*
X190449866Y-134897001D01*
X190177492Y-134254776D01*
X189870583Y-133631220D01*
X189530323Y-133027578D01*
X189157898Y-132445095D01*
X188754494Y-131885017D01*
X188321296Y-131348587D01*
X187859490Y-130837052D01*
X187370260Y-130351656D01*
X186854793Y-129893645D01*
X186314275Y-129464263D01*
X185749890Y-129064756D01*
X185162823Y-128696368D01*
X184554261Y-128360345D01*
X183925390Y-128057932D01*
X183277393Y-127790373D01*
X182611457Y-127558914D01*
X181928768Y-127364800D01*
X181255000Y-127214015D01*
X180542280Y-127096829D01*
X179824446Y-127021306D01*
X179103709Y-126987417D01*
X178382281Y-126995129D01*
X177662374Y-127044413D01*
X176946200Y-127135238D01*
X176235968Y-127267572D01*
X176156593Y-127285043D01*
X175488013Y-127455548D01*
X174823695Y-127666605D01*
X174167781Y-127916431D01*
X173524414Y-128203244D01*
X172897736Y-128525264D01*
X172291890Y-128880708D01*
X171984000Y-129079800D01*
X171398527Y-129496184D01*
X170840540Y-129943752D01*
X170311056Y-130420908D01*
X169811091Y-130926059D01*
X169341662Y-131457610D01*
X168903787Y-132013967D01*
X168498482Y-132593536D01*
X168126765Y-133194723D01*
X167789653Y-133815933D01*
X167488163Y-134455572D01*
X167223312Y-135112046D01*
X166996117Y-135783761D01*
X166807595Y-136469123D01*
X166658763Y-137166537D01*
X166599487Y-137519666D01*
X166567352Y-137735556D01*
X166540908Y-137928070D01*
X166519626Y-138104952D01*
X166502975Y-138273949D01*
X166490426Y-138442803D01*
X166481446Y-138619261D01*
X166475507Y-138811066D01*
X166472078Y-139025964D01*
X166470628Y-139271699D01*
X166470479Y-139403500D01*
X164564825Y-139403500D01*
X164564940Y-139324344D01*
X164567212Y-139080772D01*
X164571370Y-138844812D01*
X164577381Y-138623593D01*
X164585214Y-138424242D01*
X164594835Y-138253886D01*
X164603719Y-138144083D01*
X164696669Y-137373154D01*
X164824149Y-136624726D01*
X164986961Y-135895717D01*
X165185907Y-135183043D01*
X165421790Y-134483621D01*
X165695411Y-133794369D01*
X165794411Y-133567981D01*
X166128721Y-132872141D01*
X166499159Y-132197395D01*
X166904441Y-131545022D01*
X167343285Y-130916300D01*
X167814410Y-130312510D01*
X168316531Y-129734930D01*
X168848368Y-129184839D01*
X169408636Y-128663517D01*
X169996055Y-128172242D01*
X170609340Y-127712293D01*
X171247210Y-127284950D01*
X171908383Y-126891492D01*
X172591575Y-126533198D01*
X173074083Y-126307619D01*
X173785517Y-126014109D01*
X174510111Y-125760362D01*
X175246084Y-125546531D01*
X175991656Y-125372769D01*
X176745046Y-125239231D01*
X177504474Y-125146069D01*
X178268157Y-125093437D01*
X179034317Y-125081489D01*
X179801171Y-125110378D01*
G36*
X179801171Y-125110378D02*
G01*
X180566940Y-125180257D01*
X181329842Y-125291280D01*
X182088097Y-125443601D01*
X182355666Y-125507597D01*
X183095030Y-125713436D01*
X183817864Y-125957530D01*
X184523003Y-126238689D01*
X185209280Y-126555720D01*
X185875532Y-126907432D01*
X186520593Y-127292634D01*
X187143298Y-127710135D01*
X187742481Y-128158743D01*
X188316977Y-128637268D01*
X188865621Y-129144517D01*
X189387249Y-129679300D01*
X189880693Y-130240424D01*
X190344790Y-130826700D01*
X190778375Y-131436936D01*
X191180281Y-132069939D01*
X191549344Y-132724520D01*
X191884398Y-133399486D01*
X192184279Y-134093647D01*
X192447821Y-134805811D01*
X192673858Y-135534786D01*
X192852181Y-136239083D01*
X192996096Y-136967798D01*
X193102034Y-137709593D01*
X193169884Y-138459884D01*
X193199531Y-139214081D01*
X193190866Y-139967600D01*
X193143775Y-140715853D01*
X193058146Y-141454253D01*
X192990109Y-141880000D01*
X192833989Y-142643781D01*
X192637783Y-143394761D01*
X192402093Y-144131648D01*
X192127517Y-144853149D01*
X191814655Y-145557974D01*
X191464106Y-146244830D01*
X191076469Y-146912427D01*
X190652345Y-147559473D01*
X190192332Y-148184676D01*
X189889364Y-148560765D01*
X189375547Y-149144654D01*
X188833783Y-149697615D01*
X188265503Y-150218822D01*
X187672138Y-150707444D01*
X187055116Y-151162654D01*
X186415867Y-151583622D01*
X185755822Y-151969521D01*
X185076409Y-152319521D01*
X184379060Y-152632794D01*
X183665203Y-152908511D01*
X182936270Y-153145845D01*
X182193688Y-153343965D01*
X181438889Y-153502044D01*
X181329083Y-153521494D01*
X180980767Y-153578303D01*
X180651907Y-153624179D01*
X180331735Y-153660065D01*
X180009482Y-153686902D01*
X179674381Y-153705634D01*
X179315663Y-153717203D01*
X179043083Y-153721561D01*
X178869979Y-153723083D01*
X178705953Y-153724015D01*
X178556981Y-153724361D01*
X178429044Y-153724126D01*
X178328121Y-153723315D01*
X178260191Y-153721932D01*
X178238750Y-153720907D01*
X178180446Y-153716694D01*
X178090230Y-153710338D01*
X177978423Y-153702557D01*
X177855348Y-153694073D01*
X177794250Y-153689890D01*
X177206052Y-153634974D01*
X176600465Y-153550257D01*
X175987990Y-153437784D01*
X175379129Y-153299602D01*
X174784382Y-153137754D01*
X174486334Y-153045616D01*
X173761949Y-152789900D01*
X173054430Y-152496017D01*
X172365199Y-152165189D01*
X171695681Y-151798636D01*
X171047296Y-151397581D01*
X170421468Y-150963243D01*
X169819619Y-150496846D01*
X169243172Y-149999609D01*
X168693550Y-149472754D01*
X168172175Y-148917503D01*
X167680471Y-148335076D01*
X167219858Y-147726695D01*
X166791761Y-147093582D01*
X166397602Y-146436956D01*
X166069815Y-145820434D01*
X165754260Y-145149742D01*
X165477051Y-144475078D01*
X165237136Y-143792696D01*
X165033467Y-143098850D01*
X164864994Y-142389793D01*
X164730669Y-141661779D01*
X164629441Y-140911062D01*
X164592746Y-140546500D01*
X164583016Y-140406930D01*
X164575368Y-140232209D01*
X164569769Y-140029461D01*
X164566186Y-139805816D01*
X164564588Y-139568401D01*
X164564825Y-139403500D01*
X166470479Y-139403500D01*
X166471173Y-139666560D01*
X166473587Y-139894958D01*
X166478220Y-140096348D01*
X166485570Y-140278382D01*
X166496136Y-140448715D01*
X166510417Y-140615000D01*
X166528912Y-140784890D01*
X166552118Y-140966038D01*
X166580536Y-141166100D01*
X166589090Y-141223833D01*
X166716963Y-141938960D01*
X166885177Y-142641825D01*
X167093208Y-143331227D01*
X167340532Y-144005965D01*
X167626628Y-144664837D01*
X167950971Y-145306640D01*
X168313039Y-145930174D01*
X168712308Y-146534236D01*
X169148256Y-147117625D01*
X169162271Y-147135266D01*
X169583787Y-147635415D01*
X170039734Y-148121267D01*
X170522829Y-148585753D01*
X171025790Y-149021804D01*
X171444250Y-149350431D01*
X172037935Y-149769067D01*
X172651074Y-150150273D01*
X173282680Y-150493690D01*
X173931766Y-150798960D01*
X174597345Y-151065724D01*
X175278432Y-151293624D01*
X175974038Y-151482302D01*
X176683179Y-151631399D01*
X177404868Y-151740557D01*
X178138117Y-151809418D01*
X178228166Y-151815034D01*
X178330476Y-151818873D01*
X178467506Y-151820774D01*
X178631693Y-151820900D01*
X178815477Y-151819415D01*
X179011295Y-151816479D01*
X179211585Y-151812257D01*
X179408787Y-151806910D01*
X179595338Y-151800600D01*
X179763677Y-151793491D01*
X179906242Y-151785744D01*
X180015470Y-151777523D01*
X180027333Y-151776377D01*
X180491060Y-151722614D01*
X180938734Y-151656152D01*
X181283315Y-151593748D01*
X181984964Y-151433695D01*
X182673505Y-151233824D01*
X183347436Y-150995026D01*
X184005259Y-150718195D01*
X184645472Y-150404222D01*
X185266574Y-150054001D01*
X185867065Y-149668422D01*
X186445445Y-149248380D01*
X187000212Y-148794765D01*
X187529866Y-148308471D01*
X188032907Y-147790390D01*
X188416886Y-147351583D01*
X188858964Y-146789753D01*
X189267533Y-146203824D01*
X189641552Y-145596028D01*
X189979980Y-144968596D01*
X190281777Y-144323761D01*
X190545900Y-143663754D01*
X190771310Y-142990808D01*
X190956965Y-142307155D01*
X191101824Y-141615026D01*
X191107670Y-141581987D01*
X191170411Y-141195366D01*
X191218946Y-140827143D01*
X191254323Y-140464836D01*
X191277589Y-140095962D01*
X191289793Y-139708038D01*
X191292304Y-139382333D01*
X191288741Y-139038258D01*
X191278309Y-138722997D01*
X191260095Y-138423451D01*
X191233190Y-138126523D01*
X191196683Y-137819115D01*
X191170295Y-137627689D01*
X191047919Y-136923239D01*
X190886265Y-136232477D01*
X190686519Y-135556650D01*
X190449866Y-134897001D01*
X190177492Y-134254776D01*
X189870583Y-133631220D01*
X189530323Y-133027578D01*
X189157898Y-132445095D01*
X188754494Y-131885017D01*
X188321296Y-131348587D01*
X187859490Y-130837052D01*
X187370260Y-130351656D01*
X186854793Y-129893645D01*
X186314275Y-129464263D01*
X185749890Y-129064756D01*
X185162823Y-128696368D01*
X184554261Y-128360345D01*
X183925390Y-128057932D01*
X183277393Y-127790373D01*
X182611457Y-127558914D01*
X181928768Y-127364800D01*
X181255000Y-127214015D01*
X180542280Y-127096829D01*
X179824446Y-127021306D01*
X179103709Y-126987417D01*
X178382281Y-126995129D01*
X177662374Y-127044413D01*
X176946200Y-127135238D01*
X176235968Y-127267572D01*
X176156593Y-127285043D01*
X175488013Y-127455548D01*
X174823695Y-127666605D01*
X174167781Y-127916431D01*
X173524414Y-128203244D01*
X172897736Y-128525264D01*
X172291890Y-128880708D01*
X171984000Y-129079800D01*
X171398527Y-129496184D01*
X170840540Y-129943752D01*
X170311056Y-130420908D01*
X169811091Y-130926059D01*
X169341662Y-131457610D01*
X168903787Y-132013967D01*
X168498482Y-132593536D01*
X168126765Y-133194723D01*
X167789653Y-133815933D01*
X167488163Y-134455572D01*
X167223312Y-135112046D01*
X166996117Y-135783761D01*
X166807595Y-136469123D01*
X166658763Y-137166537D01*
X166599487Y-137519666D01*
X166567352Y-137735556D01*
X166540908Y-137928070D01*
X166519626Y-138104952D01*
X166502975Y-138273949D01*
X166490426Y-138442803D01*
X166481446Y-138619261D01*
X166475507Y-138811066D01*
X166472078Y-139025964D01*
X166470628Y-139271699D01*
X166470479Y-139403500D01*
X164564825Y-139403500D01*
X164564940Y-139324344D01*
X164567212Y-139080772D01*
X164571370Y-138844812D01*
X164577381Y-138623593D01*
X164585214Y-138424242D01*
X164594835Y-138253886D01*
X164603719Y-138144083D01*
X164696669Y-137373154D01*
X164824149Y-136624726D01*
X164986961Y-135895717D01*
X165185907Y-135183043D01*
X165421790Y-134483621D01*
X165695411Y-133794369D01*
X165794411Y-133567981D01*
X166128721Y-132872141D01*
X166499159Y-132197395D01*
X166904441Y-131545022D01*
X167343285Y-130916300D01*
X167814410Y-130312510D01*
X168316531Y-129734930D01*
X168848368Y-129184839D01*
X169408636Y-128663517D01*
X169996055Y-128172242D01*
X170609340Y-127712293D01*
X171247210Y-127284950D01*
X171908383Y-126891492D01*
X172591575Y-126533198D01*
X173074083Y-126307619D01*
X173785517Y-126014109D01*
X174510111Y-125760362D01*
X175246084Y-125546531D01*
X175991656Y-125372769D01*
X176745046Y-125239231D01*
X177504474Y-125146069D01*
X178268157Y-125093437D01*
X179034317Y-125081489D01*
X179801171Y-125110378D01*
G37*
X179512669Y-121433733D02*
X180374941Y-121481696D01*
X181233296Y-121570485D01*
X181699500Y-121636257D01*
X182543525Y-121788058D01*
X183379139Y-121980972D01*
X184204773Y-122214334D01*
X185018855Y-122487479D01*
X185819817Y-122799743D01*
X186606087Y-123150461D01*
X187376097Y-123538969D01*
X188128277Y-123964603D01*
X188861056Y-124426698D01*
X189572865Y-124924589D01*
X189711083Y-125027287D01*
X190053633Y-125290356D01*
X190378619Y-125552979D01*
X190694433Y-125822490D01*
X191009464Y-126106222D01*
X191332103Y-126411511D01*
X191627547Y-126702384D01*
X191882512Y-126960656D01*
X192112437Y-127200834D01*
X192325102Y-127431565D01*
X192528285Y-127661496D01*
X192729768Y-127899271D01*
X192937328Y-128153538D01*
X192970750Y-128195239D01*
X193498075Y-128888155D01*
X193989566Y-129602814D01*
X194444689Y-130337905D01*
X194862910Y-131092121D01*
X195243694Y-131864152D01*
X195586508Y-132652690D01*
X195890817Y-133456426D01*
X196156088Y-134274051D01*
X196381785Y-135104256D01*
X196567375Y-135945733D01*
X196712323Y-136797172D01*
X196810931Y-137604333D01*
X196841610Y-137939550D01*
X196864852Y-138255570D01*
X196881303Y-138565975D01*
X196891609Y-138884349D01*
X196896418Y-139224273D01*
X196896961Y-139411139D01*
X196882694Y-140166931D01*
X196839830Y-140899633D01*
X196767509Y-141618134D01*
X196664870Y-142331327D01*
X196557731Y-142917166D01*
X196365843Y-143769587D01*
X196134101Y-144608154D01*
X195862964Y-145431942D01*
X195552888Y-146240025D01*
X195204333Y-147031477D01*
X194817756Y-147805372D01*
X194393614Y-148560784D01*
X193932366Y-149296787D01*
X193434468Y-150012456D01*
X192900380Y-150706863D01*
X192429052Y-151267416D01*
X192229188Y-151489526D01*
X192002883Y-151730017D01*
X191757452Y-151981720D01*
X191500208Y-152237469D01*
X191238467Y-152490097D01*
X190979543Y-152732435D01*
X190730749Y-152957316D01*
X190504833Y-153152992D01*
X189826276Y-153698256D01*
X189124921Y-154208355D01*
X188402113Y-154682728D01*
X187659196Y-155120814D01*
X186897514Y-155522054D01*
X186118413Y-155885885D01*
X185323236Y-156211748D01*
X184513327Y-156499081D01*
X183690031Y-156747324D01*
X182854693Y-156955917D01*
X182008657Y-157124298D01*
X181153266Y-157251906D01*
X180514166Y-157319836D01*
X180160381Y-157347026D01*
X179790788Y-157368066D01*
X179416163Y-157382660D01*
X179047282Y-157390516D01*
X178694920Y-157391340D01*
X178369854Y-157384837D01*
X178270500Y-157381037D01*
X177433045Y-157328004D01*
X176619109Y-157242322D01*
X175824494Y-157123338D01*
X175044997Y-156970398D01*
X174276420Y-156782850D01*
X174082172Y-156729548D01*
X173244622Y-156472910D01*
X172425499Y-156178164D01*
X171624867Y-155845344D01*
X170842789Y-155474484D01*
X170079328Y-155065618D01*
X169334547Y-154618781D01*
X168608510Y-154134008D01*
X167901279Y-153611332D01*
X167212918Y-153050787D01*
X167055933Y-152915343D01*
X166923986Y-152797165D01*
X166769578Y-152653683D01*
X166598743Y-152490900D01*
X166417515Y-152314822D01*
X166231926Y-152131451D01*
X166048011Y-151946794D01*
X165871801Y-151766853D01*
X165709331Y-151597633D01*
X165566633Y-151445139D01*
X165460185Y-151327257D01*
X164895247Y-150655259D01*
X164365589Y-149961098D01*
X163871760Y-149245949D01*
X163414307Y-148510985D01*
X162993777Y-147757378D01*
X162610719Y-146986302D01*
X162265681Y-146198930D01*
X161959209Y-145396436D01*
X161691852Y-144579992D01*
X161464158Y-143750773D01*
X161276675Y-142909950D01*
X161129949Y-142058698D01*
X161128571Y-142049333D01*
X161081092Y-141710340D01*
X161042020Y-141394172D01*
X161010522Y-141090347D01*
X160985760Y-140788388D01*
X160966900Y-140477812D01*
X160953104Y-140148141D01*
X160943538Y-139788894D01*
X160942019Y-139710416D01*
X160942132Y-139687526D01*
X162695189Y-139687526D01*
X162730659Y-140510960D01*
X162767529Y-140959250D01*
X162867596Y-141781959D01*
X163008423Y-142593934D01*
X163189578Y-143394188D01*
X163410624Y-144181736D01*
X163671128Y-144955593D01*
X163970656Y-145714774D01*
X164308773Y-146458293D01*
X164685045Y-147185164D01*
X165099037Y-147894403D01*
X165550315Y-148585023D01*
X166038445Y-149256040D01*
X166562992Y-149906469D01*
X166863586Y-150251416D01*
X166982786Y-150381267D01*
X167126454Y-150532422D01*
X167287562Y-150697897D01*
X167459084Y-150870706D01*
X167633995Y-151043866D01*
X167805267Y-151210389D01*
X167965875Y-151363293D01*
X168108793Y-151495592D01*
X168174000Y-151554115D01*
X168796724Y-152077519D01*
X169445805Y-152569369D01*
X170118996Y-153028490D01*
X170814055Y-153453706D01*
X171528737Y-153843843D01*
X172260799Y-154197726D01*
X173007995Y-154514179D01*
X173768084Y-154792028D01*
X174538819Y-155030098D01*
X175084916Y-155172799D01*
X175868046Y-155342085D01*
X176657299Y-155473110D01*
X177448577Y-155565470D01*
X178237784Y-155618765D01*
X179020826Y-155632590D01*
X179604000Y-155616703D01*
X180219500Y-155578193D01*
X180808365Y-155521107D01*
X181382734Y-155443854D01*
X181954750Y-155344842D01*
X182431183Y-155246161D01*
X183231139Y-155047291D01*
X184017221Y-154808683D01*
X184788259Y-154530985D01*
X185543081Y-154214843D01*
X186280516Y-153860901D01*
X186999393Y-153469808D01*
X187698540Y-153042207D01*
X188376786Y-152578747D01*
X189032959Y-152080072D01*
X189665889Y-151546829D01*
X190274404Y-150979663D01*
X190409965Y-150845307D01*
X190979227Y-150245012D01*
X191514567Y-149620008D01*
X192015428Y-148971639D01*
X192481253Y-148301251D01*
X192911488Y-147610191D01*
X193305573Y-146899802D01*
X193662954Y-146171431D01*
X193983074Y-145426423D01*
X194265375Y-144666123D01*
X194509302Y-143891877D01*
X194714298Y-143105031D01*
X194879806Y-142306928D01*
X195005269Y-141498916D01*
X195090132Y-140682340D01*
X195133837Y-139858544D01*
X195140128Y-139411139D01*
X195119566Y-138580120D01*
X195057442Y-137756153D01*
X194954100Y-136940298D01*
X194809885Y-136133618D01*
X194625143Y-135337176D01*
X194400219Y-134552034D01*
X194135458Y-133779254D01*
X193831205Y-133019898D01*
X193487805Y-132275029D01*
X193105603Y-131545710D01*
X192684944Y-130833001D01*
X192226174Y-130137966D01*
X192044819Y-129882708D01*
X191606685Y-129308405D01*
X191131961Y-128743050D01*
X190626275Y-128192461D01*
X190095255Y-127662459D01*
X189544530Y-127158863D01*
X188979727Y-126687493D01*
X188875000Y-126604953D01*
X188220154Y-126120065D01*
X187541260Y-125668918D01*
X186840440Y-125252455D01*
X186119817Y-124871619D01*
X185381513Y-124527355D01*
X184627649Y-124220606D01*
X183860348Y-123952314D01*
X183081731Y-123723424D01*
X182293922Y-123534879D01*
X181720666Y-123424372D01*
X181399305Y-123370784D01*
X181101604Y-123326015D01*
X180818770Y-123289288D01*
X180542012Y-123259827D01*
X180262537Y-123236857D01*
X179971554Y-123219601D01*
X179660271Y-123207282D01*
X179319896Y-123199125D01*
X179138333Y-123196393D01*
X178809884Y-123193640D01*
X178515379Y-123194412D01*
X178246544Y-123199092D01*
X177995105Y-123208067D01*
X177752789Y-123221720D01*
X177511322Y-123240438D01*
X177262431Y-123264603D01*
X176997842Y-123294603D01*
X176979333Y-123296833D01*
X176162067Y-123416742D01*
X175355559Y-123577242D01*
X174561106Y-123777660D01*
X173780004Y-124017325D01*
X173013550Y-124295565D01*
X172263040Y-124611709D01*
X171529772Y-124965083D01*
X170815041Y-125355017D01*
X170120144Y-125780839D01*
X169446377Y-126241876D01*
X168795039Y-126737457D01*
X168167424Y-127266910D01*
X167564829Y-127829563D01*
X166988551Y-128424744D01*
X166903261Y-128518107D01*
X166362049Y-129146150D01*
X165856116Y-129796746D01*
X165385914Y-130468532D01*
X164951896Y-131160149D01*
X164554513Y-131870235D01*
X164194219Y-132597429D01*
X163871466Y-133340372D01*
X163586705Y-134097701D01*
X163340390Y-134868056D01*
X163132973Y-135650076D01*
X162964907Y-136442400D01*
X162836642Y-137243668D01*
X162748633Y-138052519D01*
X162701331Y-138867592D01*
X162695189Y-139687526D01*
X160942132Y-139687526D01*
X160946370Y-138835745D01*
X160991685Y-137971406D01*
X161078125Y-137116453D01*
X161205851Y-136269936D01*
X161375024Y-135430907D01*
X161585807Y-134598418D01*
X161838359Y-133771521D01*
X162058250Y-133146460D01*
X162379027Y-132343887D01*
X162736441Y-131561385D01*
X163129372Y-130799965D01*
X163556702Y-130060636D01*
X164017312Y-129344411D01*
X164510084Y-128652299D01*
X165033898Y-127985311D01*
X165587637Y-127344458D01*
X166170180Y-126730750D01*
X166780411Y-126145198D01*
X167417210Y-125588813D01*
X168079458Y-125062605D01*
X168766038Y-124567584D01*
X169475829Y-124104763D01*
X170207714Y-123675150D01*
X170960573Y-123279758D01*
X171733289Y-122919595D01*
X172524743Y-122595674D01*
X173333815Y-122309004D01*
X174159388Y-122060597D01*
X174400355Y-121996217D01*
X175232288Y-121801880D01*
X176075687Y-121647611D01*
X176927989Y-121533535D01*
X177786629Y-121459779D01*
X178649044Y-121426469D01*
X179512669Y-121433733D01*
G36*
X179512669Y-121433733D02*
G01*
X180374941Y-121481696D01*
X181233296Y-121570485D01*
X181699500Y-121636257D01*
X182543525Y-121788058D01*
X183379139Y-121980972D01*
X184204773Y-122214334D01*
X185018855Y-122487479D01*
X185819817Y-122799743D01*
X186606087Y-123150461D01*
X187376097Y-123538969D01*
X188128277Y-123964603D01*
X188861056Y-124426698D01*
X189572865Y-124924589D01*
X189711083Y-125027287D01*
X190053633Y-125290356D01*
X190378619Y-125552979D01*
X190694433Y-125822490D01*
X191009464Y-126106222D01*
X191332103Y-126411511D01*
X191627547Y-126702384D01*
X191882512Y-126960656D01*
X192112437Y-127200834D01*
X192325102Y-127431565D01*
X192528285Y-127661496D01*
X192729768Y-127899271D01*
X192937328Y-128153538D01*
X192970750Y-128195239D01*
X193498075Y-128888155D01*
X193989566Y-129602814D01*
X194444689Y-130337905D01*
X194862910Y-131092121D01*
X195243694Y-131864152D01*
X195586508Y-132652690D01*
X195890817Y-133456426D01*
X196156088Y-134274051D01*
X196381785Y-135104256D01*
X196567375Y-135945733D01*
X196712323Y-136797172D01*
X196810931Y-137604333D01*
X196841610Y-137939550D01*
X196864852Y-138255570D01*
X196881303Y-138565975D01*
X196891609Y-138884349D01*
X196896418Y-139224273D01*
X196896961Y-139411139D01*
X196882694Y-140166931D01*
X196839830Y-140899633D01*
X196767509Y-141618134D01*
X196664870Y-142331327D01*
X196557731Y-142917166D01*
X196365843Y-143769587D01*
X196134101Y-144608154D01*
X195862964Y-145431942D01*
X195552888Y-146240025D01*
X195204333Y-147031477D01*
X194817756Y-147805372D01*
X194393614Y-148560784D01*
X193932366Y-149296787D01*
X193434468Y-150012456D01*
X192900380Y-150706863D01*
X192429052Y-151267416D01*
X192229188Y-151489526D01*
X192002883Y-151730017D01*
X191757452Y-151981720D01*
X191500208Y-152237469D01*
X191238467Y-152490097D01*
X190979543Y-152732435D01*
X190730749Y-152957316D01*
X190504833Y-153152992D01*
X189826276Y-153698256D01*
X189124921Y-154208355D01*
X188402113Y-154682728D01*
X187659196Y-155120814D01*
X186897514Y-155522054D01*
X186118413Y-155885885D01*
X185323236Y-156211748D01*
X184513327Y-156499081D01*
X183690031Y-156747324D01*
X182854693Y-156955917D01*
X182008657Y-157124298D01*
X181153266Y-157251906D01*
X180514166Y-157319836D01*
X180160381Y-157347026D01*
X179790788Y-157368066D01*
X179416163Y-157382660D01*
X179047282Y-157390516D01*
X178694920Y-157391340D01*
X178369854Y-157384837D01*
X178270500Y-157381037D01*
X177433045Y-157328004D01*
X176619109Y-157242322D01*
X175824494Y-157123338D01*
X175044997Y-156970398D01*
X174276420Y-156782850D01*
X174082172Y-156729548D01*
X173244622Y-156472910D01*
X172425499Y-156178164D01*
X171624867Y-155845344D01*
X170842789Y-155474484D01*
X170079328Y-155065618D01*
X169334547Y-154618781D01*
X168608510Y-154134008D01*
X167901279Y-153611332D01*
X167212918Y-153050787D01*
X167055933Y-152915343D01*
X166923986Y-152797165D01*
X166769578Y-152653683D01*
X166598743Y-152490900D01*
X166417515Y-152314822D01*
X166231926Y-152131451D01*
X166048011Y-151946794D01*
X165871801Y-151766853D01*
X165709331Y-151597633D01*
X165566633Y-151445139D01*
X165460185Y-151327257D01*
X164895247Y-150655259D01*
X164365589Y-149961098D01*
X163871760Y-149245949D01*
X163414307Y-148510985D01*
X162993777Y-147757378D01*
X162610719Y-146986302D01*
X162265681Y-146198930D01*
X161959209Y-145396436D01*
X161691852Y-144579992D01*
X161464158Y-143750773D01*
X161276675Y-142909950D01*
X161129949Y-142058698D01*
X161128571Y-142049333D01*
X161081092Y-141710340D01*
X161042020Y-141394172D01*
X161010522Y-141090347D01*
X160985760Y-140788388D01*
X160966900Y-140477812D01*
X160953104Y-140148141D01*
X160943538Y-139788894D01*
X160942019Y-139710416D01*
X160942132Y-139687526D01*
X162695189Y-139687526D01*
X162730659Y-140510960D01*
X162767529Y-140959250D01*
X162867596Y-141781959D01*
X163008423Y-142593934D01*
X163189578Y-143394188D01*
X163410624Y-144181736D01*
X163671128Y-144955593D01*
X163970656Y-145714774D01*
X164308773Y-146458293D01*
X164685045Y-147185164D01*
X165099037Y-147894403D01*
X165550315Y-148585023D01*
X166038445Y-149256040D01*
X166562992Y-149906469D01*
X166863586Y-150251416D01*
X166982786Y-150381267D01*
X167126454Y-150532422D01*
X167287562Y-150697897D01*
X167459084Y-150870706D01*
X167633995Y-151043866D01*
X167805267Y-151210389D01*
X167965875Y-151363293D01*
X168108793Y-151495592D01*
X168174000Y-151554115D01*
X168796724Y-152077519D01*
X169445805Y-152569369D01*
X170118996Y-153028490D01*
X170814055Y-153453706D01*
X171528737Y-153843843D01*
X172260799Y-154197726D01*
X173007995Y-154514179D01*
X173768084Y-154792028D01*
X174538819Y-155030098D01*
X175084916Y-155172799D01*
X175868046Y-155342085D01*
X176657299Y-155473110D01*
X177448577Y-155565470D01*
X178237784Y-155618765D01*
X179020826Y-155632590D01*
X179604000Y-155616703D01*
X180219500Y-155578193D01*
X180808365Y-155521107D01*
X181382734Y-155443854D01*
X181954750Y-155344842D01*
X182431183Y-155246161D01*
X183231139Y-155047291D01*
X184017221Y-154808683D01*
X184788259Y-154530985D01*
X185543081Y-154214843D01*
X186280516Y-153860901D01*
X186999393Y-153469808D01*
X187698540Y-153042207D01*
X188376786Y-152578747D01*
X189032959Y-152080072D01*
X189665889Y-151546829D01*
X190274404Y-150979663D01*
X190409965Y-150845307D01*
X190979227Y-150245012D01*
X191514567Y-149620008D01*
X192015428Y-148971639D01*
X192481253Y-148301251D01*
X192911488Y-147610191D01*
X193305573Y-146899802D01*
X193662954Y-146171431D01*
X193983074Y-145426423D01*
X194265375Y-144666123D01*
X194509302Y-143891877D01*
X194714298Y-143105031D01*
X194879806Y-142306928D01*
X195005269Y-141498916D01*
X195090132Y-140682340D01*
X195133837Y-139858544D01*
X195140128Y-139411139D01*
X195119566Y-138580120D01*
X195057442Y-137756153D01*
X194954100Y-136940298D01*
X194809885Y-136133618D01*
X194625143Y-135337176D01*
X194400219Y-134552034D01*
X194135458Y-133779254D01*
X193831205Y-133019898D01*
X193487805Y-132275029D01*
X193105603Y-131545710D01*
X192684944Y-130833001D01*
X192226174Y-130137966D01*
X192044819Y-129882708D01*
X191606685Y-129308405D01*
X191131961Y-128743050D01*
X190626275Y-128192461D01*
X190095255Y-127662459D01*
X189544530Y-127158863D01*
X188979727Y-126687493D01*
X188875000Y-126604953D01*
X188220154Y-126120065D01*
X187541260Y-125668918D01*
X186840440Y-125252455D01*
X186119817Y-124871619D01*
X185381513Y-124527355D01*
X184627649Y-124220606D01*
X183860348Y-123952314D01*
X183081731Y-123723424D01*
X182293922Y-123534879D01*
X181720666Y-123424372D01*
X181399305Y-123370784D01*
X181101604Y-123326015D01*
X180818770Y-123289288D01*
X180542012Y-123259827D01*
X180262537Y-123236857D01*
X179971554Y-123219601D01*
X179660271Y-123207282D01*
X179319896Y-123199125D01*
X179138333Y-123196393D01*
X178809884Y-123193640D01*
X178515379Y-123194412D01*
X178246544Y-123199092D01*
X177995105Y-123208067D01*
X177752789Y-123221720D01*
X177511322Y-123240438D01*
X177262431Y-123264603D01*
X176997842Y-123294603D01*
X176979333Y-123296833D01*
X176162067Y-123416742D01*
X175355559Y-123577242D01*
X174561106Y-123777660D01*
X173780004Y-124017325D01*
X173013550Y-124295565D01*
X172263040Y-124611709D01*
X171529772Y-124965083D01*
X170815041Y-125355017D01*
X170120144Y-125780839D01*
X169446377Y-126241876D01*
X168795039Y-126737457D01*
X168167424Y-127266910D01*
X167564829Y-127829563D01*
X166988551Y-128424744D01*
X166903261Y-128518107D01*
X166362049Y-129146150D01*
X165856116Y-129796746D01*
X165385914Y-130468532D01*
X164951896Y-131160149D01*
X164554513Y-131870235D01*
X164194219Y-132597429D01*
X163871466Y-133340372D01*
X163586705Y-134097701D01*
X163340390Y-134868056D01*
X163132973Y-135650076D01*
X162964907Y-136442400D01*
X162836642Y-137243668D01*
X162748633Y-138052519D01*
X162701331Y-138867592D01*
X162695189Y-139687526D01*
X160942132Y-139687526D01*
X160946370Y-138835745D01*
X160991685Y-137971406D01*
X161078125Y-137116453D01*
X161205851Y-136269936D01*
X161375024Y-135430907D01*
X161585807Y-134598418D01*
X161838359Y-133771521D01*
X162058250Y-133146460D01*
X162379027Y-132343887D01*
X162736441Y-131561385D01*
X163129372Y-130799965D01*
X163556702Y-130060636D01*
X164017312Y-129344411D01*
X164510084Y-128652299D01*
X165033898Y-127985311D01*
X165587637Y-127344458D01*
X166170180Y-126730750D01*
X166780411Y-126145198D01*
X167417210Y-125588813D01*
X168079458Y-125062605D01*
X168766038Y-124567584D01*
X169475829Y-124104763D01*
X170207714Y-123675150D01*
X170960573Y-123279758D01*
X171733289Y-122919595D01*
X172524743Y-122595674D01*
X173333815Y-122309004D01*
X174159388Y-122060597D01*
X174400355Y-121996217D01*
X175232288Y-121801880D01*
X176075687Y-121647611D01*
X176927989Y-121533535D01*
X177786629Y-121459779D01*
X178649044Y-121426469D01*
X179512669Y-121433733D01*
G37*
X180268423Y-32997245D02*
X181302218Y-33049512D01*
X182335478Y-33143688D01*
X183117666Y-33243127D01*
X184145949Y-33410942D01*
X185163464Y-33619111D01*
X186169035Y-33867237D01*
X187161485Y-34154922D01*
X188139636Y-34481768D01*
X189102312Y-34847380D01*
X190048335Y-35251359D01*
X190976529Y-35693308D01*
X191885716Y-36172830D01*
X192018250Y-36246776D01*
X192295162Y-36405306D01*
X192540088Y-36552394D01*
X192760059Y-36693018D01*
X192962107Y-36832156D01*
X193153264Y-36974787D01*
X193340562Y-37125888D01*
X193531034Y-37290439D01*
X193669250Y-37415585D01*
X194051711Y-37791912D01*
X194423580Y-38206075D01*
X194783072Y-38654500D01*
X195128400Y-39133617D01*
X195457779Y-39639853D01*
X195769421Y-40169636D01*
X196061543Y-40719394D01*
X196332356Y-41285555D01*
X196580077Y-41864547D01*
X196802918Y-42452798D01*
X196999093Y-43046735D01*
X197166817Y-43642787D01*
X197304304Y-44237382D01*
X197409768Y-44826947D01*
X197424336Y-44926083D01*
X197431785Y-44978592D01*
X197438805Y-45029174D01*
X197445408Y-45079133D01*
X197451606Y-45129770D01*
X197457411Y-45182390D01*
X197462833Y-45238295D01*
X197467884Y-45298787D01*
X197472577Y-45365170D01*
X197476921Y-45438747D01*
X197480929Y-45520821D01*
X197484613Y-45612694D01*
X197487983Y-45715669D01*
X197491052Y-45831050D01*
X197493830Y-45960138D01*
X197496330Y-46104238D01*
X197498562Y-46264652D01*
X197500539Y-46442683D01*
X197502272Y-46639634D01*
X197503772Y-46856808D01*
X197505050Y-47095507D01*
X197506119Y-47357035D01*
X197506990Y-47642694D01*
X197507674Y-47953788D01*
X197508183Y-48291619D01*
X197508528Y-48657490D01*
X197508721Y-49052704D01*
X197508774Y-49478565D01*
X197508697Y-49936374D01*
X197508502Y-50427435D01*
X197508202Y-50953051D01*
X197507806Y-51514525D01*
X197507328Y-52113159D01*
X197506778Y-52750257D01*
X197506167Y-53427122D01*
X197505529Y-54123000D01*
X197504893Y-54832119D01*
X197504316Y-55500183D01*
X197503782Y-56128470D01*
X197503271Y-56718257D01*
X197502767Y-57270822D01*
X197502252Y-57787443D01*
X197501708Y-58269398D01*
X197501118Y-58717965D01*
X197500464Y-59134421D01*
X197499729Y-59520045D01*
X197498895Y-59876114D01*
X197497944Y-60203905D01*
X197496859Y-60504698D01*
X197495622Y-60779770D01*
X197494215Y-61030398D01*
X197492622Y-61257861D01*
X197490824Y-61463436D01*
X197488803Y-61648402D01*
X197486543Y-61814035D01*
X197484026Y-61961614D01*
X197481233Y-62092417D01*
X197478148Y-62207722D01*
X197474752Y-62308806D01*
X197471029Y-62396947D01*
X197466960Y-62473424D01*
X197462529Y-62539513D01*
X197457716Y-62596494D01*
X197452506Y-62645643D01*
X197446880Y-62688239D01*
X197440820Y-62725559D01*
X197434309Y-62758881D01*
X197427330Y-62789483D01*
X197419864Y-62818644D01*
X197411895Y-62847640D01*
X197403404Y-62877750D01*
X197394374Y-62910251D01*
X197384788Y-62946422D01*
X197383967Y-62949625D01*
X197294551Y-63236139D01*
X197181336Y-63488146D01*
X197044186Y-63705702D01*
X196882961Y-63888860D01*
X196697525Y-64037674D01*
X196487740Y-64152199D01*
X196253468Y-64232489D01*
X195994572Y-64278598D01*
X195710913Y-64290581D01*
X195402354Y-64268492D01*
X195068758Y-64212384D01*
X194709986Y-64122313D01*
X194538904Y-64070272D01*
X194252847Y-63969991D01*
X193942675Y-63845045D01*
X193615915Y-63698895D01*
X193280090Y-63535004D01*
X192942725Y-63356832D01*
X192737916Y-63241765D01*
X192010493Y-62835623D01*
X191296141Y-62462244D01*
X190586696Y-62117768D01*
X189873999Y-61798335D01*
X189149885Y-61500084D01*
X188653162Y-61309767D01*
X187662810Y-60962855D01*
X186667929Y-60657641D01*
X185667851Y-60394036D01*
X184661907Y-60171952D01*
X183649430Y-59991299D01*
X182629752Y-59851987D01*
X181602203Y-59753928D01*
X180566116Y-59697033D01*
X179520823Y-59681213D01*
X178465656Y-59706378D01*
X177399946Y-59772439D01*
X177233333Y-59786371D01*
X176201005Y-59896411D01*
X175170791Y-60047424D01*
X174145519Y-60238698D01*
X173128017Y-60469520D01*
X172121115Y-60739179D01*
X171127640Y-61046962D01*
X170150422Y-61392156D01*
X169192288Y-61774049D01*
X168978333Y-61865520D01*
X168600803Y-62032164D01*
X168238201Y-62199095D01*
X167881920Y-62370615D01*
X167523355Y-62551027D01*
X167153903Y-62744634D01*
X166764957Y-62955740D01*
X166470083Y-63119826D01*
X166173192Y-63284912D01*
X165906960Y-63429321D01*
X165666528Y-63555409D01*
X165447036Y-63665535D01*
X165243625Y-63762056D01*
X165051438Y-63847330D01*
X164865614Y-63923715D01*
X164681295Y-63993568D01*
X164635200Y-64010174D01*
X164320044Y-64112404D01*
X164011371Y-64192647D01*
X163714777Y-64249967D01*
X163435857Y-64283434D01*
X163180206Y-64292114D01*
X163006513Y-64281732D01*
X162745413Y-64235256D01*
X162509274Y-64154873D01*
X162297955Y-64040441D01*
X162111312Y-63891820D01*
X161949203Y-63708870D01*
X161811484Y-63491451D01*
X161698012Y-63239422D01*
X161608646Y-62952642D01*
X161594189Y-62893400D01*
X161585050Y-62855207D01*
X161576430Y-62820175D01*
X161568316Y-62787037D01*
X161560694Y-62754529D01*
X161553548Y-62721387D01*
X161546865Y-62686344D01*
X161540631Y-62648135D01*
X161534831Y-62605496D01*
X161529450Y-62557162D01*
X161524474Y-62501867D01*
X161519890Y-62438346D01*
X161515682Y-62365335D01*
X161511837Y-62281568D01*
X161508339Y-62185779D01*
X161505175Y-62076705D01*
X161502331Y-61953080D01*
X161499791Y-61813638D01*
X161497542Y-61657115D01*
X161495569Y-61482246D01*
X161493859Y-61287765D01*
X161492395Y-61072407D01*
X161491165Y-60834908D01*
X161490154Y-60574002D01*
X161489348Y-60288424D01*
X161488731Y-59976909D01*
X161488291Y-59638193D01*
X161488012Y-59271009D01*
X161487880Y-58874093D01*
X161487881Y-58446179D01*
X161488001Y-57986003D01*
X161488225Y-57492300D01*
X161488538Y-56963804D01*
X161488928Y-56399251D01*
X161489378Y-55797375D01*
X161489875Y-55156910D01*
X161490405Y-54476593D01*
X161490931Y-53784333D01*
X161491177Y-53453586D01*
X163080599Y-53453586D01*
X163080636Y-53921202D01*
X163080808Y-54387019D01*
X163081115Y-54849039D01*
X163081558Y-55305265D01*
X163082137Y-55753697D01*
X163082851Y-56192337D01*
X163083700Y-56619188D01*
X163084685Y-57032251D01*
X163085806Y-57429528D01*
X163087062Y-57809021D01*
X163088454Y-58168731D01*
X163089982Y-58506660D01*
X163091646Y-58820811D01*
X163093445Y-59109184D01*
X163095381Y-59369782D01*
X163097452Y-59600606D01*
X163099660Y-59799658D01*
X163102003Y-59964940D01*
X163104483Y-60094455D01*
X163107099Y-60186202D01*
X163109851Y-60238185D01*
X163110661Y-60245448D01*
X163177042Y-60588309D01*
X163270538Y-60899755D01*
X163390876Y-61179428D01*
X163537787Y-61426975D01*
X163710998Y-61642039D01*
X163910239Y-61824266D01*
X164135239Y-61973299D01*
X164385725Y-62088784D01*
X164560770Y-62145332D01*
X164820883Y-62199093D01*
X165105954Y-62225687D01*
X165408176Y-62224753D01*
X165701707Y-62198347D01*
X166031452Y-62141250D01*
X166383640Y-62054438D01*
X166752357Y-61939623D01*
X167131687Y-61798520D01*
X167251932Y-61749111D01*
X167334299Y-61712902D01*
X167448248Y-61660472D01*
X167587621Y-61594774D01*
X167746256Y-61518760D01*
X167917995Y-61435384D01*
X168096678Y-61347598D01*
X168276146Y-61258356D01*
X168288644Y-61252098D01*
X168594103Y-61100112D01*
X168869645Y-60965395D01*
X169122393Y-60844712D01*
X169359466Y-60734829D01*
X169587985Y-60632512D01*
X169815072Y-60534526D01*
X170047847Y-60437637D01*
X170293431Y-60338610D01*
X170343583Y-60318711D01*
X171144030Y-60018132D01*
X171948963Y-59748782D01*
X172762103Y-59509863D01*
X173587174Y-59300575D01*
X174427897Y-59120120D01*
X175287993Y-58967700D01*
X176171184Y-58842517D01*
X177081194Y-58743772D01*
X178021742Y-58670666D01*
X178027083Y-58670328D01*
X178173540Y-58662898D01*
X178353895Y-58656690D01*
X178561838Y-58651704D01*
X178791056Y-58647943D01*
X179035238Y-58645406D01*
X179288074Y-58644094D01*
X179543251Y-58644009D01*
X179794458Y-58645152D01*
X180035383Y-58647524D01*
X180259716Y-58651124D01*
X180461144Y-58655955D01*
X180633357Y-58662018D01*
X180770043Y-58669313D01*
X180778750Y-58669914D01*
X181637434Y-58743426D01*
X182467423Y-58841531D01*
X183275375Y-58965532D01*
X184067946Y-59116734D01*
X184851793Y-59296439D01*
X185633572Y-59505953D01*
X186419942Y-59746579D01*
X186631333Y-59816189D01*
X187140868Y-59992199D01*
X187632394Y-60174265D01*
X188114473Y-60366022D01*
X188595671Y-60571103D01*
X189084552Y-60793143D01*
X189589681Y-61035776D01*
X190049750Y-61266818D01*
X190321073Y-61404070D01*
X190562192Y-61522602D01*
X190779377Y-61625174D01*
X190978899Y-61714550D01*
X191167030Y-61793491D01*
X191350041Y-61864760D01*
X191534204Y-61931119D01*
X191638510Y-61966609D01*
X192012178Y-62078051D01*
X192372802Y-62158973D01*
X192717709Y-62209172D01*
X193044224Y-62228446D01*
X193349675Y-62216592D01*
X193631389Y-62173409D01*
X193796250Y-62129785D01*
X194062963Y-62025401D01*
X194303384Y-61887997D01*
X194517034Y-61718108D01*
X194703434Y-61516265D01*
X194862106Y-61283003D01*
X194992571Y-61018854D01*
X195094351Y-60724351D01*
X195110059Y-60666349D01*
X195120881Y-60625431D01*
X195131010Y-60587745D01*
X195140467Y-60551851D01*
X195149274Y-60516312D01*
X195157453Y-60479687D01*
X195165025Y-60440538D01*
X195172012Y-60397426D01*
X195178436Y-60348913D01*
X195184319Y-60293559D01*
X195189681Y-60229927D01*
X195194544Y-60156576D01*
X195198931Y-60072069D01*
X195202863Y-59974966D01*
X195206361Y-59863828D01*
X195209447Y-59737218D01*
X195212143Y-59593695D01*
X195214470Y-59431822D01*
X195216450Y-59250159D01*
X195218105Y-59047268D01*
X195219456Y-58821709D01*
X195220525Y-58572044D01*
X195221333Y-58296834D01*
X195221903Y-57994641D01*
X195222256Y-57664025D01*
X195222412Y-57303548D01*
X195222395Y-56911770D01*
X195222226Y-56487254D01*
X195221926Y-56028560D01*
X195221517Y-55534249D01*
X195221021Y-55002883D01*
X195220459Y-54433023D01*
X195219852Y-53823230D01*
X195219433Y-53392750D01*
X195213120Y-46809916D01*
X195167533Y-46524166D01*
X195062714Y-45958516D01*
X194930897Y-45411671D01*
X194769591Y-44875879D01*
X194576303Y-44343388D01*
X194348541Y-43806444D01*
X194177415Y-43444416D01*
X193861192Y-42842543D01*
X193520692Y-42275294D01*
X193155829Y-41742558D01*
X192766521Y-41244221D01*
X192352683Y-40780171D01*
X191914233Y-40350294D01*
X191821386Y-40266454D01*
X191619790Y-40093855D01*
X191411819Y-39930188D01*
X191192925Y-39772648D01*
X190958561Y-39618434D01*
X190704181Y-39464742D01*
X190425236Y-39308771D01*
X190117181Y-39147716D01*
X189775468Y-38978776D01*
X189584083Y-38887409D01*
X188672885Y-38480227D01*
X187743456Y-38110702D01*
X186798027Y-37779428D01*
X185838830Y-37487002D01*
X184868096Y-37234020D01*
X183888056Y-37021079D01*
X182900941Y-36848773D01*
X181908983Y-36717701D01*
X181212666Y-36650781D01*
X180475525Y-36602700D01*
X179718813Y-36575952D01*
X178954964Y-36570537D01*
X178196414Y-36586453D01*
X177455595Y-36623700D01*
X177085166Y-36651194D01*
X176077612Y-36755538D01*
X175078781Y-36900691D01*
X174089866Y-37086318D01*
X173112059Y-37312086D01*
X172146552Y-37577660D01*
X171194537Y-37882705D01*
X170257207Y-38226888D01*
X169335754Y-38609873D01*
X168431370Y-39031326D01*
X168216333Y-39138494D01*
X167903754Y-39300013D01*
X167624852Y-39452907D01*
X167373101Y-39601800D01*
X167141970Y-39751317D01*
X166924932Y-39906082D01*
X166715458Y-40070719D01*
X166507019Y-40249853D01*
X166293088Y-40448109D01*
X166098453Y-40638711D01*
X165725101Y-41032457D01*
X165378131Y-41441805D01*
X165053955Y-41871842D01*
X164748982Y-42327654D01*
X164459622Y-42814327D01*
X164182286Y-43336946D01*
X164154154Y-43393234D01*
X163875791Y-43992414D01*
X163638557Y-44587755D01*
X163441711Y-45181653D01*
X163284509Y-45776501D01*
X163166209Y-46374694D01*
X163110992Y-46757000D01*
X163108198Y-46800800D01*
X163105540Y-46884764D01*
X163103015Y-47006894D01*
X163100625Y-47165191D01*
X163098369Y-47357657D01*
X163096248Y-47582295D01*
X163094261Y-47837105D01*
X163092409Y-48120089D01*
X163090692Y-48429250D01*
X163089109Y-48762589D01*
X163087661Y-49118108D01*
X163086347Y-49493809D01*
X163085169Y-49887693D01*
X163084125Y-50297762D01*
X163083216Y-50722019D01*
X163082442Y-51158464D01*
X163081803Y-51605100D01*
X163081300Y-52059928D01*
X163080931Y-52520951D01*
X163080697Y-52986169D01*
X163080599Y-53453586D01*
X161491177Y-53453586D01*
X161497198Y-45370583D01*
X161543554Y-45053083D01*
X161640504Y-44469559D01*
X161758712Y-43907874D01*
X161901812Y-43352783D01*
X162073439Y-42789040D01*
X162108662Y-42682416D01*
X162321996Y-42087121D01*
X162559017Y-41505282D01*
X162818083Y-40939263D01*
X163097548Y-40391429D01*
X163395768Y-39864145D01*
X163711098Y-39359775D01*
X164041895Y-38880684D01*
X164386514Y-38429237D01*
X164743310Y-38007798D01*
X165110639Y-37618733D01*
X165486857Y-37264405D01*
X165870319Y-36947179D01*
X166259382Y-36669421D01*
X166315307Y-36633111D01*
X166486823Y-36526698D01*
X166690403Y-36406417D01*
X166919527Y-36275818D01*
X167167675Y-36138455D01*
X167428328Y-35997881D01*
X167694968Y-35857647D01*
X167961074Y-35721306D01*
X168220127Y-35592411D01*
X168268226Y-35568952D01*
X169212640Y-35133311D01*
X170171259Y-34737271D01*
X171142852Y-34381025D01*
X172126192Y-34064764D01*
X173120051Y-33788681D01*
X174123200Y-33552968D01*
X175134412Y-33357819D01*
X176152459Y-33203424D01*
X177176111Y-33089977D01*
X178204141Y-33017670D01*
X179235321Y-32986695D01*
X180268423Y-32997245D01*
G36*
X180268423Y-32997245D02*
G01*
X181302218Y-33049512D01*
X182335478Y-33143688D01*
X183117666Y-33243127D01*
X184145949Y-33410942D01*
X185163464Y-33619111D01*
X186169035Y-33867237D01*
X187161485Y-34154922D01*
X188139636Y-34481768D01*
X189102312Y-34847380D01*
X190048335Y-35251359D01*
X190976529Y-35693308D01*
X191885716Y-36172830D01*
X192018250Y-36246776D01*
X192295162Y-36405306D01*
X192540088Y-36552394D01*
X192760059Y-36693018D01*
X192962107Y-36832156D01*
X193153264Y-36974787D01*
X193340562Y-37125888D01*
X193531034Y-37290439D01*
X193669250Y-37415585D01*
X194051711Y-37791912D01*
X194423580Y-38206075D01*
X194783072Y-38654500D01*
X195128400Y-39133617D01*
X195457779Y-39639853D01*
X195769421Y-40169636D01*
X196061543Y-40719394D01*
X196332356Y-41285555D01*
X196580077Y-41864547D01*
X196802918Y-42452798D01*
X196999093Y-43046735D01*
X197166817Y-43642787D01*
X197304304Y-44237382D01*
X197409768Y-44826947D01*
X197424336Y-44926083D01*
X197431785Y-44978592D01*
X197438805Y-45029174D01*
X197445408Y-45079133D01*
X197451606Y-45129770D01*
X197457411Y-45182390D01*
X197462833Y-45238295D01*
X197467884Y-45298787D01*
X197472577Y-45365170D01*
X197476921Y-45438747D01*
X197480929Y-45520821D01*
X197484613Y-45612694D01*
X197487983Y-45715669D01*
X197491052Y-45831050D01*
X197493830Y-45960138D01*
X197496330Y-46104238D01*
X197498562Y-46264652D01*
X197500539Y-46442683D01*
X197502272Y-46639634D01*
X197503772Y-46856808D01*
X197505050Y-47095507D01*
X197506119Y-47357035D01*
X197506990Y-47642694D01*
X197507674Y-47953788D01*
X197508183Y-48291619D01*
X197508528Y-48657490D01*
X197508721Y-49052704D01*
X197508774Y-49478565D01*
X197508697Y-49936374D01*
X197508502Y-50427435D01*
X197508202Y-50953051D01*
X197507806Y-51514525D01*
X197507328Y-52113159D01*
X197506778Y-52750257D01*
X197506167Y-53427122D01*
X197505529Y-54123000D01*
X197504893Y-54832119D01*
X197504316Y-55500183D01*
X197503782Y-56128470D01*
X197503271Y-56718257D01*
X197502767Y-57270822D01*
X197502252Y-57787443D01*
X197501708Y-58269398D01*
X197501118Y-58717965D01*
X197500464Y-59134421D01*
X197499729Y-59520045D01*
X197498895Y-59876114D01*
X197497944Y-60203905D01*
X197496859Y-60504698D01*
X197495622Y-60779770D01*
X197494215Y-61030398D01*
X197492622Y-61257861D01*
X197490824Y-61463436D01*
X197488803Y-61648402D01*
X197486543Y-61814035D01*
X197484026Y-61961614D01*
X197481233Y-62092417D01*
X197478148Y-62207722D01*
X197474752Y-62308806D01*
X197471029Y-62396947D01*
X197466960Y-62473424D01*
X197462529Y-62539513D01*
X197457716Y-62596494D01*
X197452506Y-62645643D01*
X197446880Y-62688239D01*
X197440820Y-62725559D01*
X197434309Y-62758881D01*
X197427330Y-62789483D01*
X197419864Y-62818644D01*
X197411895Y-62847640D01*
X197403404Y-62877750D01*
X197394374Y-62910251D01*
X197384788Y-62946422D01*
X197383967Y-62949625D01*
X197294551Y-63236139D01*
X197181336Y-63488146D01*
X197044186Y-63705702D01*
X196882961Y-63888860D01*
X196697525Y-64037674D01*
X196487740Y-64152199D01*
X196253468Y-64232489D01*
X195994572Y-64278598D01*
X195710913Y-64290581D01*
X195402354Y-64268492D01*
X195068758Y-64212384D01*
X194709986Y-64122313D01*
X194538904Y-64070272D01*
X194252847Y-63969991D01*
X193942675Y-63845045D01*
X193615915Y-63698895D01*
X193280090Y-63535004D01*
X192942725Y-63356832D01*
X192737916Y-63241765D01*
X192010493Y-62835623D01*
X191296141Y-62462244D01*
X190586696Y-62117768D01*
X189873999Y-61798335D01*
X189149885Y-61500084D01*
X188653162Y-61309767D01*
X187662810Y-60962855D01*
X186667929Y-60657641D01*
X185667851Y-60394036D01*
X184661907Y-60171952D01*
X183649430Y-59991299D01*
X182629752Y-59851987D01*
X181602203Y-59753928D01*
X180566116Y-59697033D01*
X179520823Y-59681213D01*
X178465656Y-59706378D01*
X177399946Y-59772439D01*
X177233333Y-59786371D01*
X176201005Y-59896411D01*
X175170791Y-60047424D01*
X174145519Y-60238698D01*
X173128017Y-60469520D01*
X172121115Y-60739179D01*
X171127640Y-61046962D01*
X170150422Y-61392156D01*
X169192288Y-61774049D01*
X168978333Y-61865520D01*
X168600803Y-62032164D01*
X168238201Y-62199095D01*
X167881920Y-62370615D01*
X167523355Y-62551027D01*
X167153903Y-62744634D01*
X166764957Y-62955740D01*
X166470083Y-63119826D01*
X166173192Y-63284912D01*
X165906960Y-63429321D01*
X165666528Y-63555409D01*
X165447036Y-63665535D01*
X165243625Y-63762056D01*
X165051438Y-63847330D01*
X164865614Y-63923715D01*
X164681295Y-63993568D01*
X164635200Y-64010174D01*
X164320044Y-64112404D01*
X164011371Y-64192647D01*
X163714777Y-64249967D01*
X163435857Y-64283434D01*
X163180206Y-64292114D01*
X163006513Y-64281732D01*
X162745413Y-64235256D01*
X162509274Y-64154873D01*
X162297955Y-64040441D01*
X162111312Y-63891820D01*
X161949203Y-63708870D01*
X161811484Y-63491451D01*
X161698012Y-63239422D01*
X161608646Y-62952642D01*
X161594189Y-62893400D01*
X161585050Y-62855207D01*
X161576430Y-62820175D01*
X161568316Y-62787037D01*
X161560694Y-62754529D01*
X161553548Y-62721387D01*
X161546865Y-62686344D01*
X161540631Y-62648135D01*
X161534831Y-62605496D01*
X161529450Y-62557162D01*
X161524474Y-62501867D01*
X161519890Y-62438346D01*
X161515682Y-62365335D01*
X161511837Y-62281568D01*
X161508339Y-62185779D01*
X161505175Y-62076705D01*
X161502331Y-61953080D01*
X161499791Y-61813638D01*
X161497542Y-61657115D01*
X161495569Y-61482246D01*
X161493859Y-61287765D01*
X161492395Y-61072407D01*
X161491165Y-60834908D01*
X161490154Y-60574002D01*
X161489348Y-60288424D01*
X161488731Y-59976909D01*
X161488291Y-59638193D01*
X161488012Y-59271009D01*
X161487880Y-58874093D01*
X161487881Y-58446179D01*
X161488001Y-57986003D01*
X161488225Y-57492300D01*
X161488538Y-56963804D01*
X161488928Y-56399251D01*
X161489378Y-55797375D01*
X161489875Y-55156910D01*
X161490405Y-54476593D01*
X161490931Y-53784333D01*
X161491177Y-53453586D01*
X163080599Y-53453586D01*
X163080636Y-53921202D01*
X163080808Y-54387019D01*
X163081115Y-54849039D01*
X163081558Y-55305265D01*
X163082137Y-55753697D01*
X163082851Y-56192337D01*
X163083700Y-56619188D01*
X163084685Y-57032251D01*
X163085806Y-57429528D01*
X163087062Y-57809021D01*
X163088454Y-58168731D01*
X163089982Y-58506660D01*
X163091646Y-58820811D01*
X163093445Y-59109184D01*
X163095381Y-59369782D01*
X163097452Y-59600606D01*
X163099660Y-59799658D01*
X163102003Y-59964940D01*
X163104483Y-60094455D01*
X163107099Y-60186202D01*
X163109851Y-60238185D01*
X163110661Y-60245448D01*
X163177042Y-60588309D01*
X163270538Y-60899755D01*
X163390876Y-61179428D01*
X163537787Y-61426975D01*
X163710998Y-61642039D01*
X163910239Y-61824266D01*
X164135239Y-61973299D01*
X164385725Y-62088784D01*
X164560770Y-62145332D01*
X164820883Y-62199093D01*
X165105954Y-62225687D01*
X165408176Y-62224753D01*
X165701707Y-62198347D01*
X166031452Y-62141250D01*
X166383640Y-62054438D01*
X166752357Y-61939623D01*
X167131687Y-61798520D01*
X167251932Y-61749111D01*
X167334299Y-61712902D01*
X167448248Y-61660472D01*
X167587621Y-61594774D01*
X167746256Y-61518760D01*
X167917995Y-61435384D01*
X168096678Y-61347598D01*
X168276146Y-61258356D01*
X168288644Y-61252098D01*
X168594103Y-61100112D01*
X168869645Y-60965395D01*
X169122393Y-60844712D01*
X169359466Y-60734829D01*
X169587985Y-60632512D01*
X169815072Y-60534526D01*
X170047847Y-60437637D01*
X170293431Y-60338610D01*
X170343583Y-60318711D01*
X171144030Y-60018132D01*
X171948963Y-59748782D01*
X172762103Y-59509863D01*
X173587174Y-59300575D01*
X174427897Y-59120120D01*
X175287993Y-58967700D01*
X176171184Y-58842517D01*
X177081194Y-58743772D01*
X178021742Y-58670666D01*
X178027083Y-58670328D01*
X178173540Y-58662898D01*
X178353895Y-58656690D01*
X178561838Y-58651704D01*
X178791056Y-58647943D01*
X179035238Y-58645406D01*
X179288074Y-58644094D01*
X179543251Y-58644009D01*
X179794458Y-58645152D01*
X180035383Y-58647524D01*
X180259716Y-58651124D01*
X180461144Y-58655955D01*
X180633357Y-58662018D01*
X180770043Y-58669313D01*
X180778750Y-58669914D01*
X181637434Y-58743426D01*
X182467423Y-58841531D01*
X183275375Y-58965532D01*
X184067946Y-59116734D01*
X184851793Y-59296439D01*
X185633572Y-59505953D01*
X186419942Y-59746579D01*
X186631333Y-59816189D01*
X187140868Y-59992199D01*
X187632394Y-60174265D01*
X188114473Y-60366022D01*
X188595671Y-60571103D01*
X189084552Y-60793143D01*
X189589681Y-61035776D01*
X190049750Y-61266818D01*
X190321073Y-61404070D01*
X190562192Y-61522602D01*
X190779377Y-61625174D01*
X190978899Y-61714550D01*
X191167030Y-61793491D01*
X191350041Y-61864760D01*
X191534204Y-61931119D01*
X191638510Y-61966609D01*
X192012178Y-62078051D01*
X192372802Y-62158973D01*
X192717709Y-62209172D01*
X193044224Y-62228446D01*
X193349675Y-62216592D01*
X193631389Y-62173409D01*
X193796250Y-62129785D01*
X194062963Y-62025401D01*
X194303384Y-61887997D01*
X194517034Y-61718108D01*
X194703434Y-61516265D01*
X194862106Y-61283003D01*
X194992571Y-61018854D01*
X195094351Y-60724351D01*
X195110059Y-60666349D01*
X195120881Y-60625431D01*
X195131010Y-60587745D01*
X195140467Y-60551851D01*
X195149274Y-60516312D01*
X195157453Y-60479687D01*
X195165025Y-60440538D01*
X195172012Y-60397426D01*
X195178436Y-60348913D01*
X195184319Y-60293559D01*
X195189681Y-60229927D01*
X195194544Y-60156576D01*
X195198931Y-60072069D01*
X195202863Y-59974966D01*
X195206361Y-59863828D01*
X195209447Y-59737218D01*
X195212143Y-59593695D01*
X195214470Y-59431822D01*
X195216450Y-59250159D01*
X195218105Y-59047268D01*
X195219456Y-58821709D01*
X195220525Y-58572044D01*
X195221333Y-58296834D01*
X195221903Y-57994641D01*
X195222256Y-57664025D01*
X195222412Y-57303548D01*
X195222395Y-56911770D01*
X195222226Y-56487254D01*
X195221926Y-56028560D01*
X195221517Y-55534249D01*
X195221021Y-55002883D01*
X195220459Y-54433023D01*
X195219852Y-53823230D01*
X195219433Y-53392750D01*
X195213120Y-46809916D01*
X195167533Y-46524166D01*
X195062714Y-45958516D01*
X194930897Y-45411671D01*
X194769591Y-44875879D01*
X194576303Y-44343388D01*
X194348541Y-43806444D01*
X194177415Y-43444416D01*
X193861192Y-42842543D01*
X193520692Y-42275294D01*
X193155829Y-41742558D01*
X192766521Y-41244221D01*
X192352683Y-40780171D01*
X191914233Y-40350294D01*
X191821386Y-40266454D01*
X191619790Y-40093855D01*
X191411819Y-39930188D01*
X191192925Y-39772648D01*
X190958561Y-39618434D01*
X190704181Y-39464742D01*
X190425236Y-39308771D01*
X190117181Y-39147716D01*
X189775468Y-38978776D01*
X189584083Y-38887409D01*
X188672885Y-38480227D01*
X187743456Y-38110702D01*
X186798027Y-37779428D01*
X185838830Y-37487002D01*
X184868096Y-37234020D01*
X183888056Y-37021079D01*
X182900941Y-36848773D01*
X181908983Y-36717701D01*
X181212666Y-36650781D01*
X180475525Y-36602700D01*
X179718813Y-36575952D01*
X178954964Y-36570537D01*
X178196414Y-36586453D01*
X177455595Y-36623700D01*
X177085166Y-36651194D01*
X176077612Y-36755538D01*
X175078781Y-36900691D01*
X174089866Y-37086318D01*
X173112059Y-37312086D01*
X172146552Y-37577660D01*
X171194537Y-37882705D01*
X170257207Y-38226888D01*
X169335754Y-38609873D01*
X168431370Y-39031326D01*
X168216333Y-39138494D01*
X167903754Y-39300013D01*
X167624852Y-39452907D01*
X167373101Y-39601800D01*
X167141970Y-39751317D01*
X166924932Y-39906082D01*
X166715458Y-40070719D01*
X166507019Y-40249853D01*
X166293088Y-40448109D01*
X166098453Y-40638711D01*
X165725101Y-41032457D01*
X165378131Y-41441805D01*
X165053955Y-41871842D01*
X164748982Y-42327654D01*
X164459622Y-42814327D01*
X164182286Y-43336946D01*
X164154154Y-43393234D01*
X163875791Y-43992414D01*
X163638557Y-44587755D01*
X163441711Y-45181653D01*
X163284509Y-45776501D01*
X163166209Y-46374694D01*
X163110992Y-46757000D01*
X163108198Y-46800800D01*
X163105540Y-46884764D01*
X163103015Y-47006894D01*
X163100625Y-47165191D01*
X163098369Y-47357657D01*
X163096248Y-47582295D01*
X163094261Y-47837105D01*
X163092409Y-48120089D01*
X163090692Y-48429250D01*
X163089109Y-48762589D01*
X163087661Y-49118108D01*
X163086347Y-49493809D01*
X163085169Y-49887693D01*
X163084125Y-50297762D01*
X163083216Y-50722019D01*
X163082442Y-51158464D01*
X163081803Y-51605100D01*
X163081300Y-52059928D01*
X163080931Y-52520951D01*
X163080697Y-52986169D01*
X163080599Y-53453586D01*
X161491177Y-53453586D01*
X161497198Y-45370583D01*
X161543554Y-45053083D01*
X161640504Y-44469559D01*
X161758712Y-43907874D01*
X161901812Y-43352783D01*
X162073439Y-42789040D01*
X162108662Y-42682416D01*
X162321996Y-42087121D01*
X162559017Y-41505282D01*
X162818083Y-40939263D01*
X163097548Y-40391429D01*
X163395768Y-39864145D01*
X163711098Y-39359775D01*
X164041895Y-38880684D01*
X164386514Y-38429237D01*
X164743310Y-38007798D01*
X165110639Y-37618733D01*
X165486857Y-37264405D01*
X165870319Y-36947179D01*
X166259382Y-36669421D01*
X166315307Y-36633111D01*
X166486823Y-36526698D01*
X166690403Y-36406417D01*
X166919527Y-36275818D01*
X167167675Y-36138455D01*
X167428328Y-35997881D01*
X167694968Y-35857647D01*
X167961074Y-35721306D01*
X168220127Y-35592411D01*
X168268226Y-35568952D01*
X169212640Y-35133311D01*
X170171259Y-34737271D01*
X171142852Y-34381025D01*
X172126192Y-34064764D01*
X173120051Y-33788681D01*
X174123200Y-33552968D01*
X175134412Y-33357819D01*
X176152459Y-33203424D01*
X177176111Y-33089977D01*
X178204141Y-33017670D01*
X179235321Y-32986695D01*
X180268423Y-32997245D01*
G37*
X179358165Y-115461891D02*
X180024023Y-115485535D01*
X180668930Y-115526246D01*
X181302160Y-115584940D01*
X181932985Y-115662534D01*
X182570679Y-115759945D01*
X183224516Y-115878089D01*
X183498666Y-115932583D01*
X184463678Y-116150697D01*
X185419166Y-116409620D01*
X186363546Y-116708580D01*
X187295229Y-117046802D01*
X188212630Y-117423513D01*
X189114161Y-117837941D01*
X189998236Y-118289311D01*
X190863269Y-118776850D01*
X191707673Y-119299785D01*
X192529861Y-119857343D01*
X193328247Y-120448750D01*
X194101244Y-121073233D01*
X194177250Y-121137609D01*
X194637410Y-121541143D01*
X195106164Y-121975312D01*
X195575353Y-122431877D01*
X196036818Y-122902597D01*
X196482399Y-123379229D01*
X196903939Y-123853533D01*
X197134607Y-124124801D01*
X197756245Y-124901708D01*
X198344051Y-125703385D01*
X198897388Y-126528384D01*
X199415618Y-127375254D01*
X199898102Y-128242548D01*
X200344203Y-129128814D01*
X200753282Y-130032605D01*
X201124702Y-130952470D01*
X201457823Y-131886960D01*
X201752009Y-132834626D01*
X202006621Y-133794019D01*
X202221020Y-134763690D01*
X202394570Y-135742188D01*
X202465801Y-136234101D01*
X202513344Y-136588953D01*
X202569166Y-136445768D01*
X202681275Y-136215306D01*
X202828616Y-136004000D01*
X203007040Y-135815477D01*
X203212396Y-135653364D01*
X203440535Y-135521286D01*
X203687308Y-135422871D01*
X203765750Y-135400081D01*
X203897478Y-135374468D01*
X204055208Y-135358401D01*
X204225062Y-135352063D01*
X204393164Y-135355637D01*
X204545638Y-135369303D01*
X204650434Y-135388456D01*
X204904139Y-135471584D01*
X205141169Y-135589737D01*
X205357383Y-135739340D01*
X205548637Y-135916820D01*
X205710792Y-136118603D01*
X205839705Y-136341113D01*
X205890115Y-136458276D01*
X205908573Y-136506126D01*
X205925024Y-136549574D01*
X205939584Y-136591209D01*
X205952367Y-136633625D01*
X205963490Y-136679411D01*
X205973068Y-136731160D01*
X205981215Y-136791463D01*
X205988048Y-136862913D01*
X205993681Y-136948099D01*
X205998230Y-137049615D01*
X206001810Y-137170051D01*
X206004537Y-137311999D01*
X206006525Y-137478050D01*
X206007891Y-137670797D01*
X206008750Y-137892830D01*
X206009216Y-138146742D01*
X206009406Y-138435123D01*
X206009434Y-138760566D01*
X206009416Y-139125661D01*
X206009416Y-139138916D01*
X206009485Y-139507649D01*
X206009580Y-139836646D01*
X206009530Y-140128504D01*
X206009169Y-140385820D01*
X206008326Y-140611190D01*
X206006833Y-140807212D01*
X206004521Y-140976482D01*
X206001222Y-141121597D01*
X205996765Y-141245154D01*
X205990983Y-141349751D01*
X205983706Y-141437983D01*
X205974766Y-141512448D01*
X205963993Y-141575742D01*
X205951220Y-141630463D01*
X205936276Y-141679207D01*
X205918993Y-141724571D01*
X205899203Y-141769153D01*
X205876736Y-141815548D01*
X205851423Y-141866354D01*
X205829093Y-141911750D01*
X205692243Y-142149332D01*
X205527249Y-142355495D01*
X205333574Y-142530706D01*
X205110680Y-142675433D01*
X204858030Y-142790143D01*
X204792333Y-142813453D01*
X204698513Y-142843319D01*
X204617362Y-142863795D01*
X204535067Y-142877126D01*
X204437818Y-142885562D01*
X204314360Y-142891258D01*
X204090154Y-142890895D01*
X203892277Y-142871029D01*
X203708533Y-142829712D01*
X203528258Y-142765631D01*
X203307058Y-142653567D01*
X203100634Y-142509750D01*
X202915648Y-142340322D01*
X202758761Y-142151429D01*
X202636634Y-141949216D01*
X202631241Y-141938208D01*
X202601950Y-141881899D01*
X202579076Y-141845413D01*
X202570814Y-141837666D01*
X202564677Y-141857550D01*
X202555289Y-141912501D01*
X202543664Y-141995469D01*
X202530818Y-142099403D01*
X202522342Y-142174411D01*
X202505791Y-142318137D01*
X202485035Y-142486336D01*
X202462296Y-142661637D01*
X202439795Y-142826672D01*
X202430945Y-142888786D01*
X202266734Y-143876664D01*
X202062161Y-144852979D01*
X201817873Y-145816685D01*
X201534514Y-146766736D01*
X201212730Y-147702089D01*
X200853165Y-148621697D01*
X200456465Y-149524515D01*
X200023274Y-150409498D01*
X199554238Y-151275600D01*
X199050002Y-152121776D01*
X198511210Y-152946981D01*
X197938508Y-153750169D01*
X197332542Y-154530295D01*
X196693955Y-155286315D01*
X196023394Y-156017181D01*
X195321502Y-156721850D01*
X194588926Y-157399276D01*
X193826310Y-158048413D01*
X193034300Y-158668217D01*
X192416810Y-159116408D01*
X191582345Y-159676762D01*
X190727857Y-160199935D01*
X189854173Y-160685588D01*
X188962122Y-161133381D01*
X188052532Y-161542975D01*
X187126232Y-161914030D01*
X186184049Y-162246208D01*
X185226813Y-162539169D01*
X184255351Y-162792573D01*
X183270491Y-163006081D01*
X182646340Y-163119480D01*
X182157688Y-163195372D01*
X181637198Y-163264273D01*
X181094961Y-163325026D01*
X180541069Y-163376475D01*
X180133166Y-163407630D01*
X180015953Y-163414059D01*
X179862730Y-163419864D01*
X179679813Y-163424996D01*
X179473522Y-163429408D01*
X179250174Y-163433051D01*
X179016089Y-163435878D01*
X178777583Y-163437840D01*
X178540977Y-163438889D01*
X178312587Y-163438978D01*
X178098732Y-163438059D01*
X177905730Y-163436083D01*
X177739901Y-163433002D01*
X177607561Y-163428769D01*
X177572000Y-163427094D01*
X176543515Y-163352818D01*
X175527736Y-163238402D01*
X174525052Y-163083975D01*
X173535853Y-162889663D01*
X172560528Y-162655595D01*
X171599467Y-162381899D01*
X170653060Y-162068701D01*
X169721695Y-161716130D01*
X168805763Y-161324312D01*
X167905653Y-160893377D01*
X167021754Y-160423451D01*
X166154457Y-159914663D01*
X165422333Y-159446236D01*
X164861598Y-159063506D01*
X164330030Y-158679856D01*
X163820275Y-158289242D01*
X163324977Y-157885623D01*
X162836783Y-157462955D01*
X162348337Y-157015196D01*
X161852286Y-156536302D01*
X161716911Y-156401696D01*
X161488170Y-156171602D01*
X161284653Y-155963785D01*
X161100448Y-155771843D01*
X160929639Y-155589373D01*
X160766313Y-155409975D01*
X160604556Y-155227247D01*
X160438454Y-155034786D01*
X160268641Y-154834000D01*
X159643363Y-154056130D01*
X159051852Y-153253782D01*
X158494808Y-152428412D01*
X157972933Y-151581473D01*
X157486926Y-150714421D01*
X157037489Y-149828711D01*
X156625321Y-148925798D01*
X156251124Y-148007137D01*
X155915599Y-147074183D01*
X155619445Y-146128391D01*
X155363364Y-145171217D01*
X155148055Y-144204114D01*
X155146598Y-144196835D01*
X155115607Y-144038060D01*
X155082922Y-143863798D01*
X155049772Y-143681220D01*
X155017385Y-143497503D01*
X154986989Y-143319820D01*
X154959812Y-143155346D01*
X154937083Y-143011253D01*
X154920029Y-142894716D01*
X154910194Y-142815968D01*
X154900836Y-142745530D01*
X154890212Y-142693989D01*
X154881658Y-142673950D01*
X154856930Y-142677754D01*
X154803314Y-142695635D01*
X154730489Y-142724211D01*
X154695669Y-142738948D01*
X154511411Y-142807828D01*
X154328291Y-142852323D01*
X154131621Y-142875297D01*
X153971166Y-142880122D01*
X153696831Y-142860763D01*
X153435905Y-142803548D01*
X153191415Y-142710905D01*
X152966388Y-142585264D01*
X152763851Y-142429052D01*
X152586833Y-142244700D01*
X152438360Y-142034636D01*
X152321460Y-141801289D01*
X152239160Y-141547088D01*
X152223871Y-141478218D01*
X152218726Y-141448271D01*
X152214178Y-141410862D01*
X152210201Y-141363547D01*
X152206769Y-141303882D01*
X152203856Y-141229419D01*
X152201435Y-141137715D01*
X152199480Y-141026324D01*
X152197966Y-140892801D01*
X152196866Y-140734700D01*
X152196155Y-140549576D01*
X152195805Y-140334985D01*
X152195791Y-140088480D01*
X152196088Y-139807616D01*
X152196667Y-139489949D01*
X152197314Y-139214034D01*
X156434150Y-139214034D01*
X156444631Y-140169517D01*
X156496050Y-141124212D01*
X156588465Y-142076635D01*
X156721932Y-143025301D01*
X156896509Y-143968725D01*
X157112254Y-144905422D01*
X157283662Y-145541833D01*
X157560194Y-146435591D01*
X157877194Y-147322657D01*
X158232897Y-148199172D01*
X158625541Y-149061278D01*
X159053361Y-149905116D01*
X159514594Y-150726828D01*
X160007475Y-151522554D01*
X160041251Y-151574333D01*
X160593981Y-152380709D01*
X161178347Y-153159301D01*
X161793563Y-153909407D01*
X162438840Y-154630320D01*
X163113391Y-155321336D01*
X163816427Y-155981750D01*
X164547160Y-156610859D01*
X165304803Y-157207956D01*
X166088567Y-157772339D01*
X166897665Y-158303301D01*
X167731309Y-158800138D01*
X168588710Y-159262147D01*
X168703166Y-159320263D01*
X169578454Y-159738649D01*
X170463875Y-160116180D01*
X171359997Y-160453003D01*
X172267385Y-160749267D01*
X173186608Y-161005121D01*
X174118231Y-161220713D01*
X175062822Y-161396193D01*
X176020947Y-161531708D01*
X176993173Y-161627408D01*
X177667250Y-161670044D01*
X177803897Y-161675060D01*
X177975367Y-161678643D01*
X178174558Y-161680852D01*
X178394367Y-161681748D01*
X178627691Y-161681392D01*
X178867427Y-161679844D01*
X179106472Y-161677164D01*
X179337724Y-161673413D01*
X179554080Y-161668651D01*
X179748437Y-161662938D01*
X179913692Y-161656336D01*
X180027333Y-161649977D01*
X180173861Y-161639509D01*
X180343436Y-161626464D01*
X180516968Y-161612362D01*
X180675372Y-161598722D01*
X180704666Y-161596082D01*
X181663991Y-161487713D01*
X182614405Y-161338203D01*
X183554862Y-161148006D01*
X184484316Y-160917579D01*
X185401721Y-160647376D01*
X186306033Y-160337852D01*
X187196206Y-159989463D01*
X188071194Y-159602662D01*
X188929951Y-159177907D01*
X189771433Y-158715651D01*
X190594593Y-158216349D01*
X191398386Y-157680457D01*
X192181766Y-157108430D01*
X192943688Y-156500723D01*
X193489333Y-156031641D01*
X193631956Y-155902231D01*
X193797044Y-155747552D01*
X193978543Y-155573619D01*
X194170402Y-155386449D01*
X194366568Y-155192060D01*
X194560988Y-154996468D01*
X194747610Y-154805691D01*
X194920382Y-154625745D01*
X195073251Y-154462647D01*
X195130830Y-154399775D01*
X195762328Y-153673372D01*
X196360899Y-152921705D01*
X196925812Y-152146243D01*
X197456338Y-151348454D01*
X197951748Y-150529808D01*
X198411312Y-149691771D01*
X198834301Y-148835815D01*
X199219985Y-147963406D01*
X199567635Y-147076013D01*
X199876522Y-146175106D01*
X200145916Y-145262153D01*
X200375087Y-144338623D01*
X200547345Y-143494179D01*
X200702399Y-142531443D01*
X200815502Y-141566375D01*
X200886689Y-140600103D01*
X200915995Y-139633753D01*
X200903457Y-138668453D01*
X200849109Y-137705328D01*
X200752987Y-136745507D01*
X200615126Y-135790117D01*
X200435562Y-134840283D01*
X200250073Y-134037750D01*
X199996336Y-133111964D01*
X199703574Y-132201397D01*
X199372655Y-131307106D01*
X199004450Y-130430152D01*
X198599829Y-129571594D01*
X198159661Y-128732492D01*
X197684816Y-127913905D01*
X197176164Y-127116893D01*
X196634575Y-126342516D01*
X196060919Y-125591832D01*
X195456065Y-124865903D01*
X194820883Y-124165786D01*
X194156243Y-123492543D01*
X193463015Y-122847232D01*
X192742069Y-122230913D01*
X191994274Y-121644646D01*
X191220501Y-121089489D01*
X190421618Y-120566504D01*
X189598497Y-120076749D01*
X188752006Y-119621284D01*
X188187083Y-119342893D01*
X187311285Y-118949929D01*
X186420915Y-118596322D01*
X185517429Y-118282248D01*
X184602281Y-118007882D01*
X183676928Y-117773400D01*
X182742825Y-117578977D01*
X181801428Y-117424790D01*
X180854193Y-117311012D01*
X179902574Y-117237820D01*
X178948029Y-117205390D01*
X177992012Y-117213896D01*
X177035979Y-117263515D01*
X176081386Y-117354422D01*
X175129688Y-117486791D01*
X174201878Y-117656779D01*
X173323537Y-117854995D01*
X172465963Y-118085116D01*
X171624127Y-118348903D01*
X170792998Y-118648116D01*
X169967545Y-118984514D01*
X169142738Y-119359858D01*
X168671416Y-119591673D01*
X168269587Y-119798169D01*
X167897859Y-119997164D01*
X167546170Y-120194547D01*
X167204462Y-120396209D01*
X166862674Y-120608036D01*
X166510747Y-120835920D01*
X166260976Y-121002743D01*
X165471337Y-121561160D01*
X164708425Y-122151694D01*
X163973150Y-122773194D01*
X163266418Y-123424506D01*
X162589138Y-124104480D01*
X161942218Y-124811962D01*
X161326565Y-125545801D01*
X160743087Y-126304844D01*
X160192691Y-127087938D01*
X159676287Y-127893933D01*
X159194780Y-128721675D01*
X158749080Y-129570012D01*
X158340094Y-130437792D01*
X157968730Y-131323863D01*
X157817198Y-131720000D01*
X157502237Y-132628329D01*
X157227756Y-133547750D01*
X156993811Y-134476777D01*
X156800461Y-135413925D01*
X156647763Y-136357710D01*
X156535773Y-137306646D01*
X156464550Y-138259249D01*
X156434150Y-139214034D01*
X152197314Y-139214034D01*
X152197505Y-139133032D01*
X152197762Y-139033083D01*
X152203750Y-136747083D01*
X152273428Y-136546000D01*
X152382293Y-136291329D01*
X152522945Y-136062467D01*
X152688421Y-135867506D01*
X152893792Y-135685403D01*
X153110314Y-135543129D01*
X153341171Y-135439373D01*
X153589549Y-135372821D01*
X153858633Y-135342161D01*
X153969260Y-135339648D01*
X154194574Y-135349012D01*
X154393916Y-135378655D01*
X154579841Y-135431305D01*
X154764902Y-135509691D01*
X154775500Y-135514899D01*
X154854610Y-135554033D01*
X154918754Y-135585742D01*
X154958927Y-135605575D01*
X154967550Y-135609813D01*
X154975947Y-135593264D01*
X154987849Y-135544046D01*
X155001146Y-135471450D01*
X155005991Y-135440558D01*
X155027287Y-135310643D01*
X155056831Y-135147527D01*
X155092981Y-134959174D01*
X155134090Y-134753543D01*
X155178516Y-134538597D01*
X155224612Y-134322296D01*
X155270736Y-134112601D01*
X155315241Y-133917474D01*
X155355105Y-133750487D01*
X155614754Y-132781344D01*
X155914216Y-131825182D01*
X156252800Y-130883375D01*
X156629813Y-129957297D01*
X157044563Y-129048322D01*
X157496358Y-128157825D01*
X157984505Y-127287181D01*
X158508313Y-126437762D01*
X159067089Y-125610944D01*
X159660141Y-124808101D01*
X160196497Y-124138547D01*
X160636461Y-123626269D01*
X161107764Y-123109104D01*
X161601699Y-122595891D01*
X162109559Y-122095469D01*
X162622637Y-121616677D01*
X163069284Y-121222196D01*
X163841806Y-120586194D01*
X164638063Y-119984544D01*
X165456769Y-119417792D01*
X166296641Y-118886486D01*
X167156391Y-118391169D01*
X168034737Y-117932389D01*
X168930392Y-117510690D01*
X169842072Y-117126620D01*
X170768492Y-116780723D01*
X171708367Y-116473546D01*
X172660411Y-116205635D01*
X173623341Y-115977535D01*
X174595870Y-115789792D01*
X175576714Y-115642952D01*
X176421194Y-115550231D01*
X176680744Y-115527142D01*
X176914554Y-115507965D01*
X177130605Y-115492359D01*
X177336879Y-115479984D01*
X177541355Y-115470497D01*
X177752015Y-115463557D01*
X177976840Y-115458823D01*
X178223810Y-115455954D01*
X178500907Y-115454608D01*
X178662083Y-115454396D01*
X179358165Y-115461891D01*
G36*
X179358165Y-115461891D02*
G01*
X180024023Y-115485535D01*
X180668930Y-115526246D01*
X181302160Y-115584940D01*
X181932985Y-115662534D01*
X182570679Y-115759945D01*
X183224516Y-115878089D01*
X183498666Y-115932583D01*
X184463678Y-116150697D01*
X185419166Y-116409620D01*
X186363546Y-116708580D01*
X187295229Y-117046802D01*
X188212630Y-117423513D01*
X189114161Y-117837941D01*
X189998236Y-118289311D01*
X190863269Y-118776850D01*
X191707673Y-119299785D01*
X192529861Y-119857343D01*
X193328247Y-120448750D01*
X194101244Y-121073233D01*
X194177250Y-121137609D01*
X194637410Y-121541143D01*
X195106164Y-121975312D01*
X195575353Y-122431877D01*
X196036818Y-122902597D01*
X196482399Y-123379229D01*
X196903939Y-123853533D01*
X197134607Y-124124801D01*
X197756245Y-124901708D01*
X198344051Y-125703385D01*
X198897388Y-126528384D01*
X199415618Y-127375254D01*
X199898102Y-128242548D01*
X200344203Y-129128814D01*
X200753282Y-130032605D01*
X201124702Y-130952470D01*
X201457823Y-131886960D01*
X201752009Y-132834626D01*
X202006621Y-133794019D01*
X202221020Y-134763690D01*
X202394570Y-135742188D01*
X202465801Y-136234101D01*
X202513344Y-136588953D01*
X202569166Y-136445768D01*
X202681275Y-136215306D01*
X202828616Y-136004000D01*
X203007040Y-135815477D01*
X203212396Y-135653364D01*
X203440535Y-135521286D01*
X203687308Y-135422871D01*
X203765750Y-135400081D01*
X203897478Y-135374468D01*
X204055208Y-135358401D01*
X204225062Y-135352063D01*
X204393164Y-135355637D01*
X204545638Y-135369303D01*
X204650434Y-135388456D01*
X204904139Y-135471584D01*
X205141169Y-135589737D01*
X205357383Y-135739340D01*
X205548637Y-135916820D01*
X205710792Y-136118603D01*
X205839705Y-136341113D01*
X205890115Y-136458276D01*
X205908573Y-136506126D01*
X205925024Y-136549574D01*
X205939584Y-136591209D01*
X205952367Y-136633625D01*
X205963490Y-136679411D01*
X205973068Y-136731160D01*
X205981215Y-136791463D01*
X205988048Y-136862913D01*
X205993681Y-136948099D01*
X205998230Y-137049615D01*
X206001810Y-137170051D01*
X206004537Y-137311999D01*
X206006525Y-137478050D01*
X206007891Y-137670797D01*
X206008750Y-137892830D01*
X206009216Y-138146742D01*
X206009406Y-138435123D01*
X206009434Y-138760566D01*
X206009416Y-139125661D01*
X206009416Y-139138916D01*
X206009485Y-139507649D01*
X206009580Y-139836646D01*
X206009530Y-140128504D01*
X206009169Y-140385820D01*
X206008326Y-140611190D01*
X206006833Y-140807212D01*
X206004521Y-140976482D01*
X206001222Y-141121597D01*
X205996765Y-141245154D01*
X205990983Y-141349751D01*
X205983706Y-141437983D01*
X205974766Y-141512448D01*
X205963993Y-141575742D01*
X205951220Y-141630463D01*
X205936276Y-141679207D01*
X205918993Y-141724571D01*
X205899203Y-141769153D01*
X205876736Y-141815548D01*
X205851423Y-141866354D01*
X205829093Y-141911750D01*
X205692243Y-142149332D01*
X205527249Y-142355495D01*
X205333574Y-142530706D01*
X205110680Y-142675433D01*
X204858030Y-142790143D01*
X204792333Y-142813453D01*
X204698513Y-142843319D01*
X204617362Y-142863795D01*
X204535067Y-142877126D01*
X204437818Y-142885562D01*
X204314360Y-142891258D01*
X204090154Y-142890895D01*
X203892277Y-142871029D01*
X203708533Y-142829712D01*
X203528258Y-142765631D01*
X203307058Y-142653567D01*
X203100634Y-142509750D01*
X202915648Y-142340322D01*
X202758761Y-142151429D01*
X202636634Y-141949216D01*
X202631241Y-141938208D01*
X202601950Y-141881899D01*
X202579076Y-141845413D01*
X202570814Y-141837666D01*
X202564677Y-141857550D01*
X202555289Y-141912501D01*
X202543664Y-141995469D01*
X202530818Y-142099403D01*
X202522342Y-142174411D01*
X202505791Y-142318137D01*
X202485035Y-142486336D01*
X202462296Y-142661637D01*
X202439795Y-142826672D01*
X202430945Y-142888786D01*
X202266734Y-143876664D01*
X202062161Y-144852979D01*
X201817873Y-145816685D01*
X201534514Y-146766736D01*
X201212730Y-147702089D01*
X200853165Y-148621697D01*
X200456465Y-149524515D01*
X200023274Y-150409498D01*
X199554238Y-151275600D01*
X199050002Y-152121776D01*
X198511210Y-152946981D01*
X197938508Y-153750169D01*
X197332542Y-154530295D01*
X196693955Y-155286315D01*
X196023394Y-156017181D01*
X195321502Y-156721850D01*
X194588926Y-157399276D01*
X193826310Y-158048413D01*
X193034300Y-158668217D01*
X192416810Y-159116408D01*
X191582345Y-159676762D01*
X190727857Y-160199935D01*
X189854173Y-160685588D01*
X188962122Y-161133381D01*
X188052532Y-161542975D01*
X187126232Y-161914030D01*
X186184049Y-162246208D01*
X185226813Y-162539169D01*
X184255351Y-162792573D01*
X183270491Y-163006081D01*
X182646340Y-163119480D01*
X182157688Y-163195372D01*
X181637198Y-163264273D01*
X181094961Y-163325026D01*
X180541069Y-163376475D01*
X180133166Y-163407630D01*
X180015953Y-163414059D01*
X179862730Y-163419864D01*
X179679813Y-163424996D01*
X179473522Y-163429408D01*
X179250174Y-163433051D01*
X179016089Y-163435878D01*
X178777583Y-163437840D01*
X178540977Y-163438889D01*
X178312587Y-163438978D01*
X178098732Y-163438059D01*
X177905730Y-163436083D01*
X177739901Y-163433002D01*
X177607561Y-163428769D01*
X177572000Y-163427094D01*
X176543515Y-163352818D01*
X175527736Y-163238402D01*
X174525052Y-163083975D01*
X173535853Y-162889663D01*
X172560528Y-162655595D01*
X171599467Y-162381899D01*
X170653060Y-162068701D01*
X169721695Y-161716130D01*
X168805763Y-161324312D01*
X167905653Y-160893377D01*
X167021754Y-160423451D01*
X166154457Y-159914663D01*
X165422333Y-159446236D01*
X164861598Y-159063506D01*
X164330030Y-158679856D01*
X163820275Y-158289242D01*
X163324977Y-157885623D01*
X162836783Y-157462955D01*
X162348337Y-157015196D01*
X161852286Y-156536302D01*
X161716911Y-156401696D01*
X161488170Y-156171602D01*
X161284653Y-155963785D01*
X161100448Y-155771843D01*
X160929639Y-155589373D01*
X160766313Y-155409975D01*
X160604556Y-155227247D01*
X160438454Y-155034786D01*
X160268641Y-154834000D01*
X159643363Y-154056130D01*
X159051852Y-153253782D01*
X158494808Y-152428412D01*
X157972933Y-151581473D01*
X157486926Y-150714421D01*
X157037489Y-149828711D01*
X156625321Y-148925798D01*
X156251124Y-148007137D01*
X155915599Y-147074183D01*
X155619445Y-146128391D01*
X155363364Y-145171217D01*
X155148055Y-144204114D01*
X155146598Y-144196835D01*
X155115607Y-144038060D01*
X155082922Y-143863798D01*
X155049772Y-143681220D01*
X155017385Y-143497503D01*
X154986989Y-143319820D01*
X154959812Y-143155346D01*
X154937083Y-143011253D01*
X154920029Y-142894716D01*
X154910194Y-142815968D01*
X154900836Y-142745530D01*
X154890212Y-142693989D01*
X154881658Y-142673950D01*
X154856930Y-142677754D01*
X154803314Y-142695635D01*
X154730489Y-142724211D01*
X154695669Y-142738948D01*
X154511411Y-142807828D01*
X154328291Y-142852323D01*
X154131621Y-142875297D01*
X153971166Y-142880122D01*
X153696831Y-142860763D01*
X153435905Y-142803548D01*
X153191415Y-142710905D01*
X152966388Y-142585264D01*
X152763851Y-142429052D01*
X152586833Y-142244700D01*
X152438360Y-142034636D01*
X152321460Y-141801289D01*
X152239160Y-141547088D01*
X152223871Y-141478218D01*
X152218726Y-141448271D01*
X152214178Y-141410862D01*
X152210201Y-141363547D01*
X152206769Y-141303882D01*
X152203856Y-141229419D01*
X152201435Y-141137715D01*
X152199480Y-141026324D01*
X152197966Y-140892801D01*
X152196866Y-140734700D01*
X152196155Y-140549576D01*
X152195805Y-140334985D01*
X152195791Y-140088480D01*
X152196088Y-139807616D01*
X152196667Y-139489949D01*
X152197314Y-139214034D01*
X156434150Y-139214034D01*
X156444631Y-140169517D01*
X156496050Y-141124212D01*
X156588465Y-142076635D01*
X156721932Y-143025301D01*
X156896509Y-143968725D01*
X157112254Y-144905422D01*
X157283662Y-145541833D01*
X157560194Y-146435591D01*
X157877194Y-147322657D01*
X158232897Y-148199172D01*
X158625541Y-149061278D01*
X159053361Y-149905116D01*
X159514594Y-150726828D01*
X160007475Y-151522554D01*
X160041251Y-151574333D01*
X160593981Y-152380709D01*
X161178347Y-153159301D01*
X161793563Y-153909407D01*
X162438840Y-154630320D01*
X163113391Y-155321336D01*
X163816427Y-155981750D01*
X164547160Y-156610859D01*
X165304803Y-157207956D01*
X166088567Y-157772339D01*
X166897665Y-158303301D01*
X167731309Y-158800138D01*
X168588710Y-159262147D01*
X168703166Y-159320263D01*
X169578454Y-159738649D01*
X170463875Y-160116180D01*
X171359997Y-160453003D01*
X172267385Y-160749267D01*
X173186608Y-161005121D01*
X174118231Y-161220713D01*
X175062822Y-161396193D01*
X176020947Y-161531708D01*
X176993173Y-161627408D01*
X177667250Y-161670044D01*
X177803897Y-161675060D01*
X177975367Y-161678643D01*
X178174558Y-161680852D01*
X178394367Y-161681748D01*
X178627691Y-161681392D01*
X178867427Y-161679844D01*
X179106472Y-161677164D01*
X179337724Y-161673413D01*
X179554080Y-161668651D01*
X179748437Y-161662938D01*
X179913692Y-161656336D01*
X180027333Y-161649977D01*
X180173861Y-161639509D01*
X180343436Y-161626464D01*
X180516968Y-161612362D01*
X180675372Y-161598722D01*
X180704666Y-161596082D01*
X181663991Y-161487713D01*
X182614405Y-161338203D01*
X183554862Y-161148006D01*
X184484316Y-160917579D01*
X185401721Y-160647376D01*
X186306033Y-160337852D01*
X187196206Y-159989463D01*
X188071194Y-159602662D01*
X188929951Y-159177907D01*
X189771433Y-158715651D01*
X190594593Y-158216349D01*
X191398386Y-157680457D01*
X192181766Y-157108430D01*
X192943688Y-156500723D01*
X193489333Y-156031641D01*
X193631956Y-155902231D01*
X193797044Y-155747552D01*
X193978543Y-155573619D01*
X194170402Y-155386449D01*
X194366568Y-155192060D01*
X194560988Y-154996468D01*
X194747610Y-154805691D01*
X194920382Y-154625745D01*
X195073251Y-154462647D01*
X195130830Y-154399775D01*
X195762328Y-153673372D01*
X196360899Y-152921705D01*
X196925812Y-152146243D01*
X197456338Y-151348454D01*
X197951748Y-150529808D01*
X198411312Y-149691771D01*
X198834301Y-148835815D01*
X199219985Y-147963406D01*
X199567635Y-147076013D01*
X199876522Y-146175106D01*
X200145916Y-145262153D01*
X200375087Y-144338623D01*
X200547345Y-143494179D01*
X200702399Y-142531443D01*
X200815502Y-141566375D01*
X200886689Y-140600103D01*
X200915995Y-139633753D01*
X200903457Y-138668453D01*
X200849109Y-137705328D01*
X200752987Y-136745507D01*
X200615126Y-135790117D01*
X200435562Y-134840283D01*
X200250073Y-134037750D01*
X199996336Y-133111964D01*
X199703574Y-132201397D01*
X199372655Y-131307106D01*
X199004450Y-130430152D01*
X198599829Y-129571594D01*
X198159661Y-128732492D01*
X197684816Y-127913905D01*
X197176164Y-127116893D01*
X196634575Y-126342516D01*
X196060919Y-125591832D01*
X195456065Y-124865903D01*
X194820883Y-124165786D01*
X194156243Y-123492543D01*
X193463015Y-122847232D01*
X192742069Y-122230913D01*
X191994274Y-121644646D01*
X191220501Y-121089489D01*
X190421618Y-120566504D01*
X189598497Y-120076749D01*
X188752006Y-119621284D01*
X188187083Y-119342893D01*
X187311285Y-118949929D01*
X186420915Y-118596322D01*
X185517429Y-118282248D01*
X184602281Y-118007882D01*
X183676928Y-117773400D01*
X182742825Y-117578977D01*
X181801428Y-117424790D01*
X180854193Y-117311012D01*
X179902574Y-117237820D01*
X178948029Y-117205390D01*
X177992012Y-117213896D01*
X177035979Y-117263515D01*
X176081386Y-117354422D01*
X175129688Y-117486791D01*
X174201878Y-117656779D01*
X173323537Y-117854995D01*
X172465963Y-118085116D01*
X171624127Y-118348903D01*
X170792998Y-118648116D01*
X169967545Y-118984514D01*
X169142738Y-119359858D01*
X168671416Y-119591673D01*
X168269587Y-119798169D01*
X167897859Y-119997164D01*
X167546170Y-120194547D01*
X167204462Y-120396209D01*
X166862674Y-120608036D01*
X166510747Y-120835920D01*
X166260976Y-121002743D01*
X165471337Y-121561160D01*
X164708425Y-122151694D01*
X163973150Y-122773194D01*
X163266418Y-123424506D01*
X162589138Y-124104480D01*
X161942218Y-124811962D01*
X161326565Y-125545801D01*
X160743087Y-126304844D01*
X160192691Y-127087938D01*
X159676287Y-127893933D01*
X159194780Y-128721675D01*
X158749080Y-129570012D01*
X158340094Y-130437792D01*
X157968730Y-131323863D01*
X157817198Y-131720000D01*
X157502237Y-132628329D01*
X157227756Y-133547750D01*
X156993811Y-134476777D01*
X156800461Y-135413925D01*
X156647763Y-136357710D01*
X156535773Y-137306646D01*
X156464550Y-138259249D01*
X156434150Y-139214034D01*
X152197314Y-139214034D01*
X152197505Y-139133032D01*
X152197762Y-139033083D01*
X152203750Y-136747083D01*
X152273428Y-136546000D01*
X152382293Y-136291329D01*
X152522945Y-136062467D01*
X152688421Y-135867506D01*
X152893792Y-135685403D01*
X153110314Y-135543129D01*
X153341171Y-135439373D01*
X153589549Y-135372821D01*
X153858633Y-135342161D01*
X153969260Y-135339648D01*
X154194574Y-135349012D01*
X154393916Y-135378655D01*
X154579841Y-135431305D01*
X154764902Y-135509691D01*
X154775500Y-135514899D01*
X154854610Y-135554033D01*
X154918754Y-135585742D01*
X154958927Y-135605575D01*
X154967550Y-135609813D01*
X154975947Y-135593264D01*
X154987849Y-135544046D01*
X155001146Y-135471450D01*
X155005991Y-135440558D01*
X155027287Y-135310643D01*
X155056831Y-135147527D01*
X155092981Y-134959174D01*
X155134090Y-134753543D01*
X155178516Y-134538597D01*
X155224612Y-134322296D01*
X155270736Y-134112601D01*
X155315241Y-133917474D01*
X155355105Y-133750487D01*
X155614754Y-132781344D01*
X155914216Y-131825182D01*
X156252800Y-130883375D01*
X156629813Y-129957297D01*
X157044563Y-129048322D01*
X157496358Y-128157825D01*
X157984505Y-127287181D01*
X158508313Y-126437762D01*
X159067089Y-125610944D01*
X159660141Y-124808101D01*
X160196497Y-124138547D01*
X160636461Y-123626269D01*
X161107764Y-123109104D01*
X161601699Y-122595891D01*
X162109559Y-122095469D01*
X162622637Y-121616677D01*
X163069284Y-121222196D01*
X163841806Y-120586194D01*
X164638063Y-119984544D01*
X165456769Y-119417792D01*
X166296641Y-118886486D01*
X167156391Y-118391169D01*
X168034737Y-117932389D01*
X168930392Y-117510690D01*
X169842072Y-117126620D01*
X170768492Y-116780723D01*
X171708367Y-116473546D01*
X172660411Y-116205635D01*
X173623341Y-115977535D01*
X174595870Y-115789792D01*
X175576714Y-115642952D01*
X176421194Y-115550231D01*
X176680744Y-115527142D01*
X176914554Y-115507965D01*
X177130605Y-115492359D01*
X177336879Y-115479984D01*
X177541355Y-115470497D01*
X177752015Y-115463557D01*
X177976840Y-115458823D01*
X178223810Y-115455954D01*
X178500907Y-115454608D01*
X178662083Y-115454396D01*
X179358165Y-115461891D01*
G37*
X179582594Y-37273775D02*
X179971992Y-37280941D01*
X180302500Y-37293562D01*
X181271825Y-37361109D01*
X182236181Y-37466996D01*
X183193262Y-37610607D01*
X184140765Y-37791324D01*
X185076386Y-38008529D01*
X185997819Y-38261605D01*
X186902762Y-38549934D01*
X187788908Y-38872900D01*
X188653955Y-39229884D01*
X189495597Y-39620270D01*
X190060333Y-39908180D01*
X190495647Y-40158278D01*
X190907787Y-40436017D01*
X191299079Y-40743573D01*
X191671848Y-41083121D01*
X192028421Y-41456837D01*
X192371123Y-41866895D01*
X192702280Y-42315473D01*
X192822529Y-42491916D01*
X193143722Y-43002638D01*
X193435373Y-43527005D01*
X193696057Y-44061263D01*
X193924349Y-44601659D01*
X194118824Y-45144439D01*
X194278058Y-45685850D01*
X194400626Y-46222140D01*
X194485104Y-46749553D01*
X194504607Y-46923284D01*
X194506813Y-46966671D01*
X194508906Y-47050176D01*
X194510887Y-47171781D01*
X194512755Y-47329466D01*
X194514512Y-47521211D01*
X194516156Y-47744998D01*
X194517689Y-47998806D01*
X194519110Y-48280617D01*
X194520420Y-48588410D01*
X194521619Y-48920168D01*
X194522707Y-49273869D01*
X194523685Y-49647495D01*
X194524552Y-50039027D01*
X194525310Y-50446445D01*
X194525957Y-50867729D01*
X194526495Y-51300860D01*
X194526923Y-51743820D01*
X194527243Y-52194588D01*
X194527453Y-52651145D01*
X194527554Y-53111471D01*
X194527548Y-53573548D01*
X194527432Y-54035355D01*
X194527209Y-54494875D01*
X194526878Y-54950086D01*
X194526439Y-55398970D01*
X194525893Y-55839507D01*
X194525240Y-56269678D01*
X194524480Y-56687464D01*
X194523613Y-57090844D01*
X194522640Y-57477801D01*
X194521561Y-57846314D01*
X194520375Y-58194363D01*
X194519084Y-58519931D01*
X194517687Y-58820996D01*
X194516185Y-59095540D01*
X194514578Y-59341544D01*
X194512866Y-59556988D01*
X194511049Y-59739852D01*
X194509128Y-59888117D01*
X194507103Y-59999764D01*
X194504974Y-60072774D01*
X194503127Y-60102583D01*
X194454704Y-60390825D01*
X194383815Y-60644196D01*
X194289933Y-60864029D01*
X194172528Y-61051659D01*
X194087519Y-61152586D01*
X193949770Y-61278974D01*
X193799624Y-61376541D01*
X193630907Y-61447790D01*
X193437446Y-61495225D01*
X193213067Y-61521348D01*
X193171833Y-61523827D01*
X192918662Y-61523663D01*
X192648827Y-61496625D01*
X192358761Y-61442062D01*
X192044895Y-61359322D01*
X191750329Y-61264129D01*
X191585614Y-61204877D01*
X191423427Y-61142031D01*
X191257490Y-61072772D01*
X191081525Y-60994277D01*
X190889255Y-60903727D01*
X190674401Y-60798300D01*
X190430684Y-60675176D01*
X190367250Y-60642705D01*
X189643940Y-60283493D01*
X188937786Y-59957135D01*
X188242713Y-59661096D01*
X187552646Y-59392838D01*
X186861512Y-59149826D01*
X186546666Y-59047439D01*
X185607189Y-58769399D01*
X184668519Y-58531718D01*
X183728405Y-58334137D01*
X182784594Y-58176399D01*
X181834835Y-58058249D01*
X180876876Y-57979427D01*
X179908465Y-57939678D01*
X178927351Y-57938743D01*
X177931281Y-57976367D01*
X177445000Y-58008210D01*
X176404710Y-58105487D01*
X175381108Y-58241555D01*
X174373621Y-58416553D01*
X173381675Y-58630618D01*
X172404696Y-58883888D01*
X171442110Y-59176499D01*
X170493344Y-59508590D01*
X169557825Y-59880298D01*
X169451933Y-59925220D01*
X169333312Y-59977311D01*
X169183528Y-60045386D01*
X169009191Y-60126316D01*
X168816912Y-60216973D01*
X168613302Y-60314227D01*
X168404969Y-60414949D01*
X168198525Y-60516011D01*
X168082964Y-60573198D01*
X167777020Y-60724060D01*
X167503746Y-60856000D01*
X167258845Y-60970724D01*
X167038020Y-61069936D01*
X166836973Y-61155343D01*
X166651406Y-61228649D01*
X166477023Y-61291560D01*
X166309524Y-61345780D01*
X166144614Y-61393015D01*
X165977994Y-61434971D01*
X165824500Y-61469312D01*
X165684716Y-61492887D01*
X165524179Y-61510047D01*
X165354692Y-61520386D01*
X165188056Y-61523500D01*
X165036074Y-61518984D01*
X164910547Y-61506435D01*
X164882583Y-61501589D01*
X164662429Y-61442682D01*
X164469473Y-61356182D01*
X164302403Y-61240529D01*
X164159909Y-61094162D01*
X164040679Y-60915520D01*
X163943403Y-60703043D01*
X163866770Y-60455171D01*
X163820711Y-60237543D01*
X163816991Y-60215204D01*
X163813516Y-60190767D01*
X163810278Y-60162791D01*
X163807268Y-60129833D01*
X163804479Y-60090452D01*
X163801902Y-60043206D01*
X163799528Y-59986653D01*
X163797349Y-59919352D01*
X163795357Y-59839860D01*
X163793544Y-59746735D01*
X163791901Y-59638536D01*
X163790419Y-59513821D01*
X163789091Y-59371148D01*
X163787909Y-59209075D01*
X163786863Y-59026161D01*
X163785945Y-58820963D01*
X163785148Y-58592040D01*
X163784463Y-58337950D01*
X163783881Y-58057251D01*
X163783394Y-57748501D01*
X163782994Y-57410259D01*
X163782672Y-57041082D01*
X163782421Y-56639528D01*
X163782231Y-56204157D01*
X163782094Y-55733526D01*
X163782003Y-55226192D01*
X163781948Y-54680716D01*
X163781925Y-54140666D01*
X166607808Y-54140666D01*
X166607863Y-54476347D01*
X166608019Y-54774538D01*
X166608313Y-55037659D01*
X166608787Y-55268131D01*
X166609477Y-55468376D01*
X166610425Y-55640814D01*
X166611668Y-55787867D01*
X166613245Y-55911956D01*
X166615197Y-56015503D01*
X166617561Y-56100927D01*
X166620378Y-56170651D01*
X166623685Y-56227096D01*
X166627522Y-56272683D01*
X166631929Y-56309832D01*
X166636943Y-56340966D01*
X166642605Y-56368505D01*
X166648953Y-56394870D01*
X166650336Y-56400322D01*
X166735258Y-56651671D01*
X166855178Y-56882969D01*
X167006866Y-57091079D01*
X167187092Y-57272863D01*
X167392625Y-57425184D01*
X167620235Y-57544904D01*
X167866692Y-57628885D01*
X167930583Y-57643866D01*
X167978537Y-57649489D01*
X168065462Y-57654661D01*
X168187999Y-57659381D01*
X168342789Y-57663648D01*
X168526473Y-57667460D01*
X168735691Y-57670817D01*
X168967083Y-57673718D01*
X169217290Y-57676162D01*
X169482954Y-57678146D01*
X169760714Y-57679671D01*
X170047211Y-57680735D01*
X170339085Y-57681338D01*
X170632978Y-57681477D01*
X170925530Y-57681152D01*
X171213381Y-57680361D01*
X171493173Y-57679104D01*
X171761545Y-57677380D01*
X172015139Y-57675187D01*
X172250595Y-57672525D01*
X172464553Y-57669391D01*
X172653655Y-57665786D01*
X172814541Y-57661707D01*
X172943850Y-57657155D01*
X173038225Y-57652127D01*
X173094306Y-57646622D01*
X173100101Y-57645575D01*
X173350859Y-57572663D01*
X173585546Y-57462501D01*
X173800198Y-57318404D01*
X173990850Y-57143687D01*
X174153540Y-56941667D01*
X174284301Y-56715657D01*
X174326520Y-56619919D01*
X174343198Y-56578712D01*
X174358134Y-56540514D01*
X174371425Y-56502882D01*
X174383167Y-56463371D01*
X174393456Y-56419536D01*
X174402389Y-56368932D01*
X174410062Y-56309115D01*
X174416571Y-56237640D01*
X174422013Y-56152064D01*
X174426484Y-56049940D01*
X174430081Y-55928826D01*
X174432899Y-55786275D01*
X174435036Y-55619844D01*
X174436587Y-55427088D01*
X174437650Y-55205563D01*
X174438319Y-54952823D01*
X174438693Y-54666425D01*
X174438788Y-54487925D01*
X175402297Y-54487925D01*
X175402332Y-54798132D01*
X175402592Y-55073249D01*
X175403200Y-55315690D01*
X175404278Y-55527870D01*
X175405948Y-55712203D01*
X175408332Y-55871102D01*
X175411553Y-56006984D01*
X175415732Y-56122261D01*
X175420992Y-56219349D01*
X175427454Y-56300661D01*
X175435242Y-56368611D01*
X175444477Y-56425615D01*
X175455282Y-56474087D01*
X175467778Y-56516440D01*
X175482087Y-56555090D01*
X175498333Y-56592450D01*
X175516637Y-56630935D01*
X175537120Y-56672959D01*
X175551727Y-56703454D01*
X175683663Y-56936657D01*
X175845242Y-57142714D01*
X176033422Y-57318729D01*
X176245163Y-57461804D01*
X176448699Y-57558211D01*
X176493225Y-57575656D01*
X176533759Y-57591296D01*
X176572732Y-57605225D01*
X176612578Y-57617539D01*
X176655729Y-57628332D01*
X176704619Y-57637699D01*
X176761680Y-57645736D01*
X176829344Y-57652537D01*
X176910045Y-57658197D01*
X177006216Y-57662812D01*
X177120288Y-57666476D01*
X177254696Y-57669285D01*
X177411872Y-57671332D01*
X177594248Y-57672714D01*
X177804258Y-57673526D01*
X178044334Y-57673861D01*
X178316909Y-57673816D01*
X178624416Y-57673485D01*
X178969288Y-57672963D01*
X179353957Y-57672346D01*
X179371166Y-57672319D01*
X181879416Y-57668416D01*
X182027583Y-57618678D01*
X182290645Y-57510152D01*
X182524491Y-57371331D01*
X182728371Y-57202973D01*
X182901532Y-57005836D01*
X183043225Y-56780678D01*
X183152696Y-56528255D01*
X183174649Y-56461916D01*
X183234083Y-56271416D01*
X183234083Y-53784333D01*
X183234114Y-53395407D01*
X183234125Y-53046400D01*
X183233997Y-52734899D01*
X183233608Y-52458489D01*
X183233509Y-52427173D01*
X184157142Y-52427173D01*
X184157356Y-52679362D01*
X184157798Y-52965617D01*
X184158435Y-53288344D01*
X184159233Y-53649950D01*
X184159623Y-53820143D01*
X184165416Y-56334916D01*
X184223512Y-56504250D01*
X184329216Y-56751306D01*
X184467543Y-56975889D01*
X184635112Y-57174927D01*
X184828540Y-57345346D01*
X185044446Y-57484075D01*
X185279450Y-57588040D01*
X185477750Y-57643866D01*
X185525703Y-57649489D01*
X185612628Y-57654661D01*
X185735166Y-57659381D01*
X185889956Y-57663648D01*
X186073640Y-57667460D01*
X186282857Y-57670817D01*
X186514250Y-57673718D01*
X186764457Y-57676162D01*
X187030120Y-57678146D01*
X187307880Y-57679671D01*
X187594377Y-57680735D01*
X187886252Y-57681338D01*
X188180145Y-57681477D01*
X188472697Y-57681152D01*
X188760548Y-57680361D01*
X189040340Y-57679104D01*
X189308712Y-57677380D01*
X189562306Y-57675187D01*
X189797762Y-57672525D01*
X190011720Y-57669391D01*
X190200822Y-57665786D01*
X190361707Y-57661707D01*
X190491017Y-57657155D01*
X190585392Y-57652127D01*
X190641473Y-57646622D01*
X190647268Y-57645575D01*
X190892559Y-57574408D01*
X191124088Y-57466942D01*
X191336835Y-57327003D01*
X191525780Y-57158417D01*
X191685902Y-56965012D01*
X191806688Y-56761896D01*
X191833152Y-56708981D01*
X191856894Y-56661859D01*
X191878060Y-56618077D01*
X191896798Y-56575180D01*
X191913254Y-56530715D01*
X191927577Y-56482228D01*
X191939912Y-56427264D01*
X191950407Y-56363370D01*
X191959210Y-56288092D01*
X191966467Y-56198975D01*
X191972326Y-56093567D01*
X191976933Y-55969412D01*
X191980435Y-55824058D01*
X191982981Y-55655049D01*
X191984716Y-55459933D01*
X191985789Y-55236255D01*
X191986345Y-54981562D01*
X191986533Y-54693398D01*
X191986499Y-54369312D01*
X191986391Y-54006847D01*
X191986351Y-53765072D01*
X191986312Y-53389444D01*
X191986216Y-53053716D01*
X191986024Y-52755456D01*
X191985695Y-52492229D01*
X191985192Y-52261603D01*
X191984473Y-52061144D01*
X191983499Y-51888420D01*
X191982232Y-51740998D01*
X191980631Y-51616443D01*
X191978656Y-51512323D01*
X191976269Y-51426205D01*
X191973430Y-51355656D01*
X191970099Y-51298243D01*
X191966237Y-51251531D01*
X191961803Y-51213089D01*
X191956760Y-51180483D01*
X191951066Y-51151280D01*
X191944683Y-51123047D01*
X191943328Y-51117333D01*
X191863429Y-50870917D01*
X191747044Y-50642933D01*
X191597091Y-50436337D01*
X191416489Y-50254085D01*
X191208153Y-50099134D01*
X190975004Y-49974441D01*
X190727083Y-49884962D01*
X190557750Y-49837039D01*
X185583583Y-49837039D01*
X185414250Y-49884962D01*
X185160407Y-49977357D01*
X184928182Y-50103279D01*
X184720553Y-50259694D01*
X184540500Y-50443565D01*
X184391002Y-50651858D01*
X184275039Y-50881535D01*
X184196496Y-51125727D01*
X184190064Y-51153689D01*
X184184321Y-51182024D01*
X184179234Y-51213140D01*
X184174769Y-51249442D01*
X184170895Y-51293337D01*
X184167578Y-51347232D01*
X184164785Y-51413533D01*
X184162483Y-51494647D01*
X184160639Y-51592981D01*
X184159221Y-51710941D01*
X184158195Y-51850934D01*
X184157528Y-52015365D01*
X184157188Y-52206643D01*
X184157142Y-52427173D01*
X183233509Y-52427173D01*
X183232836Y-52214758D01*
X183231561Y-52001291D01*
X183229661Y-51815674D01*
X183227016Y-51655495D01*
X183223504Y-51518338D01*
X183219005Y-51401790D01*
X183213397Y-51303438D01*
X183206559Y-51220867D01*
X183198371Y-51151665D01*
X183188711Y-51093416D01*
X183177457Y-51043707D01*
X183164490Y-51000125D01*
X183149687Y-50960256D01*
X183132929Y-50921685D01*
X183114093Y-50882000D01*
X183093058Y-50838785D01*
X183085561Y-50823227D01*
X182948862Y-50581869D01*
X182785575Y-50373317D01*
X182595084Y-50197054D01*
X182376768Y-50052563D01*
X182130008Y-49939326D01*
X181964083Y-49885046D01*
X181794750Y-49837124D01*
X179328833Y-49836937D01*
X178941215Y-49836862D01*
X178593491Y-49836791D01*
X178283220Y-49836861D01*
X178007963Y-49837210D01*
X177765281Y-49837976D01*
X177552734Y-49839297D01*
X177367882Y-49841310D01*
X177208285Y-49844153D01*
X177071503Y-49847963D01*
X176955098Y-49852879D01*
X176856629Y-49859037D01*
X176773657Y-49866577D01*
X176703742Y-49875634D01*
X176644444Y-49886348D01*
X176593324Y-49898855D01*
X176547942Y-49913294D01*
X176505858Y-49929802D01*
X176464633Y-49948517D01*
X176421827Y-49969576D01*
X176374999Y-49993118D01*
X176351078Y-50004995D01*
X176229754Y-50067381D01*
X176133690Y-50124643D01*
X176048631Y-50186855D01*
X175960324Y-50264089D01*
X175892212Y-50329289D01*
X175717666Y-50529295D01*
X175576719Y-50754598D01*
X175470389Y-51003462D01*
X175441091Y-51097391D01*
X175435249Y-51119725D01*
X175430025Y-51144847D01*
X175425384Y-51175116D01*
X175421292Y-51212892D01*
X175417715Y-51260536D01*
X175414619Y-51320407D01*
X175411968Y-51394865D01*
X175409729Y-51486271D01*
X175407868Y-51596984D01*
X175406349Y-51729366D01*
X175405139Y-51885775D01*
X175404203Y-52068572D01*
X175403506Y-52280117D01*
X175403015Y-52522770D01*
X175402695Y-52798891D01*
X175402512Y-53110841D01*
X175402431Y-53460979D01*
X175402416Y-53752583D01*
X175402366Y-54140213D01*
X175402297Y-54487925D01*
X174438788Y-54487925D01*
X174438866Y-54343923D01*
X174438936Y-53982874D01*
X174438965Y-53767565D01*
X174438962Y-53386703D01*
X174438814Y-53045836D01*
X174438491Y-52742625D01*
X174437965Y-52474734D01*
X174437208Y-52239823D01*
X174436192Y-52035555D01*
X174434887Y-51859592D01*
X174433266Y-51709596D01*
X174431300Y-51583228D01*
X174428960Y-51478151D01*
X174426218Y-51392025D01*
X174423046Y-51322515D01*
X174419415Y-51267280D01*
X174415297Y-51223984D01*
X174410662Y-51190287D01*
X174407374Y-51172493D01*
X174334264Y-50919563D01*
X174224690Y-50685786D01*
X174081165Y-50473795D01*
X173906202Y-50286220D01*
X173702312Y-50125692D01*
X173472008Y-49994842D01*
X173217802Y-49896300D01*
X173177337Y-49884347D01*
X173010583Y-49837039D01*
X168036416Y-49837039D01*
X167867083Y-49884962D01*
X167611740Y-49977587D01*
X167378796Y-50103220D01*
X167171068Y-50259008D01*
X166991372Y-50442094D01*
X166842527Y-50649626D01*
X166727350Y-50878748D01*
X166650838Y-51117333D01*
X166644313Y-51145663D01*
X166638485Y-51174480D01*
X166633316Y-51206215D01*
X166628764Y-51243302D01*
X166624791Y-51288174D01*
X166621358Y-51343265D01*
X166618424Y-51411007D01*
X166615950Y-51493833D01*
X166613897Y-51594178D01*
X166612224Y-51714473D01*
X166610894Y-51857153D01*
X166609865Y-52024649D01*
X166609099Y-52219396D01*
X166608555Y-52443827D01*
X166608195Y-52700374D01*
X166607979Y-52991471D01*
X166607867Y-53319550D01*
X166607820Y-53687046D01*
X166607814Y-53765072D01*
X166607808Y-54140666D01*
X163781925Y-54140666D01*
X163781922Y-54095653D01*
X163781916Y-53530333D01*
X163781907Y-52904234D01*
X163781894Y-52318976D01*
X163781897Y-51773067D01*
X163781936Y-51265015D01*
X163782032Y-50793327D01*
X163782205Y-50356511D01*
X163782476Y-49953075D01*
X163782864Y-49581527D01*
X163783390Y-49240374D01*
X163784075Y-48928125D01*
X163784938Y-48643287D01*
X163786001Y-48384367D01*
X163787283Y-48149874D01*
X163788805Y-47938315D01*
X163790586Y-47748198D01*
X163792649Y-47578032D01*
X163795012Y-47426322D01*
X163797696Y-47291579D01*
X163800721Y-47172308D01*
X163804108Y-47067018D01*
X163807878Y-46974217D01*
X163812049Y-46892413D01*
X163816644Y-46820112D01*
X163821681Y-46755824D01*
X163827182Y-46698055D01*
X163833167Y-46645314D01*
X163839656Y-46596109D01*
X163846670Y-46548946D01*
X163854228Y-46502334D01*
X163862351Y-46454781D01*
X163871060Y-46404794D01*
X163879699Y-46354833D01*
X163976077Y-45886768D01*
X164106517Y-45403721D01*
X164268339Y-44911741D01*
X164458865Y-44416874D01*
X164578112Y-44146107D01*
X166787499Y-44146107D01*
X166787511Y-44475177D01*
X166787572Y-44843056D01*
X166787583Y-45021333D01*
X166787615Y-45400037D01*
X166787734Y-45738777D01*
X166787973Y-46039924D01*
X166788366Y-46305848D01*
X166788947Y-46538917D01*
X166789749Y-46741503D01*
X166790807Y-46915974D01*
X166792153Y-47064702D01*
X166793822Y-47190055D01*
X166795848Y-47294403D01*
X166798263Y-47380117D01*
X166801103Y-47449567D01*
X166804400Y-47505121D01*
X166808188Y-47549151D01*
X166812501Y-47584025D01*
X166817372Y-47612115D01*
X166822836Y-47635789D01*
X166824886Y-47643438D01*
X166898035Y-47868255D01*
X166986600Y-48062041D01*
X167096260Y-48234966D01*
X167232694Y-48397198D01*
X167263833Y-48429398D01*
X167422213Y-48575724D01*
X167580096Y-48690708D01*
X167750206Y-48783224D01*
X167808269Y-48809093D01*
X167851329Y-48827529D01*
X167890824Y-48844052D01*
X167929189Y-48858767D01*
X167968862Y-48871782D01*
X168012278Y-48883201D01*
X168061874Y-48893132D01*
X168120086Y-48901681D01*
X168189352Y-48908953D01*
X168272107Y-48915056D01*
X168370787Y-48920094D01*
X168487830Y-48924175D01*
X168625671Y-48927405D01*
X168786748Y-48929889D01*
X168973496Y-48931734D01*
X169188352Y-48933047D01*
X169433752Y-48933933D01*
X169712133Y-48934499D01*
X170025932Y-48934850D01*
X170377584Y-48935094D01*
X170703416Y-48935292D01*
X171078247Y-48935514D01*
X171413180Y-48935645D01*
X171710650Y-48935649D01*
X171973091Y-48935488D01*
X172202938Y-48935126D01*
X172402627Y-48934525D01*
X172574591Y-48933648D01*
X172721268Y-48932457D01*
X172845090Y-48930916D01*
X172948493Y-48928987D01*
X173033912Y-48926633D01*
X173103782Y-48923817D01*
X173160538Y-48920502D01*
X173206614Y-48916651D01*
X173244446Y-48912226D01*
X173276469Y-48907189D01*
X173305117Y-48901505D01*
X173332826Y-48895136D01*
X173332864Y-48895127D01*
X173586789Y-48813332D01*
X173819742Y-48696219D01*
X174028962Y-48546689D01*
X174211687Y-48367639D01*
X174365157Y-48161970D01*
X174486609Y-47932580D01*
X174573282Y-47682368D01*
X174600009Y-47564763D01*
X174605154Y-47516256D01*
X174609865Y-47428846D01*
X174614142Y-47305922D01*
X174617986Y-47150873D01*
X174621397Y-46967089D01*
X174624376Y-46757959D01*
X174626923Y-46526873D01*
X174629037Y-46277221D01*
X174630721Y-46012392D01*
X174631973Y-45735776D01*
X174632795Y-45450763D01*
X174633186Y-45160741D01*
X174633148Y-44869101D01*
X174632680Y-44579232D01*
X174631782Y-44294524D01*
X174630456Y-44018366D01*
X174628702Y-43754148D01*
X174626519Y-43505260D01*
X174623908Y-43275091D01*
X174620870Y-43067030D01*
X174617405Y-42884468D01*
X174613514Y-42730794D01*
X174609196Y-42609398D01*
X174604452Y-42523668D01*
X174599465Y-42477903D01*
X174597673Y-42470750D01*
X175529416Y-42470750D01*
X175529416Y-47571916D01*
X175578981Y-47729755D01*
X175678858Y-47981314D01*
X175811867Y-48210004D01*
X175974958Y-48413034D01*
X176165079Y-48587617D01*
X176379180Y-48730965D01*
X176614210Y-48840288D01*
X176867117Y-48912798D01*
X176875091Y-48914404D01*
X176908046Y-48916773D01*
X176980606Y-48919002D01*
X177090043Y-48921074D01*
X177233629Y-48922973D01*
X177408636Y-48924683D01*
X177612336Y-48926188D01*
X177842000Y-48927471D01*
X178094901Y-48928517D01*
X178368311Y-48929310D01*
X178659501Y-48929833D01*
X178965744Y-48930070D01*
X179284311Y-48930006D01*
X179487583Y-48929807D01*
X182006416Y-48926583D01*
X182154583Y-48876528D01*
X182398523Y-48775808D01*
X182622401Y-48646675D01*
X182819584Y-48493510D01*
X182969191Y-48338197D01*
X183050526Y-48225276D01*
X183132427Y-48085998D01*
X183208016Y-47934345D01*
X183270414Y-47784294D01*
X183312740Y-47649828D01*
X183317071Y-47631238D01*
X183322232Y-47603951D01*
X183326843Y-47570164D01*
X183330932Y-47527518D01*
X183334531Y-47473654D01*
X183337668Y-47406215D01*
X183340375Y-47322842D01*
X183342681Y-47221176D01*
X183344617Y-47098859D01*
X183346211Y-46953532D01*
X183347495Y-46782837D01*
X183348498Y-46584415D01*
X183349251Y-46355908D01*
X183349782Y-46094958D01*
X183350124Y-45799205D01*
X183350304Y-45466292D01*
X183350354Y-45093859D01*
X183350351Y-45017154D01*
X183350306Y-44641533D01*
X183350193Y-44305818D01*
X183349975Y-44007584D01*
X183349614Y-43744404D01*
X183349072Y-43513852D01*
X183348312Y-43313503D01*
X183347295Y-43140929D01*
X183345983Y-42993704D01*
X183344340Y-42869403D01*
X183342327Y-42765598D01*
X183339907Y-42679863D01*
X183337041Y-42609773D01*
X183333692Y-42552901D01*
X183329823Y-42506820D01*
X183325589Y-42470750D01*
X184165416Y-42470750D01*
X184165416Y-47571916D01*
X184214981Y-47729755D01*
X184314858Y-47981314D01*
X184447867Y-48210004D01*
X184610958Y-48413034D01*
X184801079Y-48587617D01*
X185015180Y-48730965D01*
X185250210Y-48840288D01*
X185503117Y-48912798D01*
X185511091Y-48914404D01*
X185544046Y-48916773D01*
X185616606Y-48919002D01*
X185726043Y-48921074D01*
X185869629Y-48922973D01*
X186044636Y-48924683D01*
X186248336Y-48926188D01*
X186478000Y-48927471D01*
X186730901Y-48928517D01*
X187004311Y-48929310D01*
X187295501Y-48929833D01*
X187601744Y-48930070D01*
X187920311Y-48930006D01*
X188123583Y-48929807D01*
X190642416Y-48926583D01*
X190790583Y-48876528D01*
X191034523Y-48775808D01*
X191258401Y-48646675D01*
X191455584Y-48493510D01*
X191605191Y-48338197D01*
X191686526Y-48225276D01*
X191768427Y-48085998D01*
X191844016Y-47934345D01*
X191906414Y-47784294D01*
X191948740Y-47649828D01*
X191953071Y-47631238D01*
X191958232Y-47603951D01*
X191962843Y-47570164D01*
X191966932Y-47527518D01*
X191970531Y-47473654D01*
X191973668Y-47406215D01*
X191976375Y-47322842D01*
X191978681Y-47221176D01*
X191980617Y-47098859D01*
X191982211Y-46953532D01*
X191983495Y-46782837D01*
X191984498Y-46584415D01*
X191985251Y-46355908D01*
X191985782Y-46094958D01*
X191986124Y-45799205D01*
X191986304Y-45466292D01*
X191986354Y-45093859D01*
X191986351Y-45017154D01*
X191986306Y-44641533D01*
X191986193Y-44305818D01*
X191985975Y-44007584D01*
X191985614Y-43744404D01*
X191985072Y-43513852D01*
X191984312Y-43313503D01*
X191983295Y-43140929D01*
X191981983Y-42993704D01*
X191980340Y-42869403D01*
X191978327Y-42765598D01*
X191975907Y-42679863D01*
X191973041Y-42609773D01*
X191969692Y-42552901D01*
X191965823Y-42506820D01*
X191961395Y-42469105D01*
X191956371Y-42437328D01*
X191950713Y-42409065D01*
X191945399Y-42386083D01*
X191863506Y-42134054D01*
X191744947Y-41900800D01*
X191592293Y-41689965D01*
X191408116Y-41505193D01*
X191229338Y-41371760D01*
X191089296Y-41287437D01*
X190960031Y-41225332D01*
X190822759Y-41177360D01*
X190705916Y-41146429D01*
X190678712Y-41140235D01*
X190649977Y-41134703D01*
X190617285Y-41129797D01*
X190578214Y-41125478D01*
X190530340Y-41121709D01*
X190471239Y-41118454D01*
X190398487Y-41115674D01*
X190309660Y-41113332D01*
X190202335Y-41111391D01*
X190074087Y-41109814D01*
X189922493Y-41108563D01*
X189745129Y-41107600D01*
X189539571Y-41106889D01*
X189303396Y-41106392D01*
X189034179Y-41106072D01*
X188729497Y-41105891D01*
X188386926Y-41105811D01*
X188070666Y-41105796D01*
X187694715Y-41105818D01*
X187358674Y-41105911D01*
X187060118Y-41106110D01*
X186796623Y-41106454D01*
X186565766Y-41106980D01*
X186365122Y-41107727D01*
X186192268Y-41108730D01*
X186044780Y-41110029D01*
X185920233Y-41111660D01*
X185816204Y-41113661D01*
X185730268Y-41116069D01*
X185660003Y-41118923D01*
X185602983Y-41122259D01*
X185556785Y-41126115D01*
X185518985Y-41130529D01*
X185487158Y-41135538D01*
X185458882Y-41141180D01*
X185435416Y-41146600D01*
X185270679Y-41193222D01*
X185125485Y-41251443D01*
X184980395Y-41329639D01*
X184912750Y-41371778D01*
X184705776Y-41529731D01*
X184527442Y-41718272D01*
X184379007Y-41935702D01*
X184261732Y-42180320D01*
X184215031Y-42312745D01*
X184165416Y-42470750D01*
X183325589Y-42470750D01*
X183325395Y-42469105D01*
X183320371Y-42437328D01*
X183314713Y-42409065D01*
X183309399Y-42386083D01*
X183227506Y-42134054D01*
X183108947Y-41900800D01*
X182956293Y-41689965D01*
X182772116Y-41505193D01*
X182593338Y-41371760D01*
X182453296Y-41287437D01*
X182324031Y-41225332D01*
X182186759Y-41177360D01*
X182069916Y-41146429D01*
X182042712Y-41140235D01*
X182013977Y-41134703D01*
X181981285Y-41129797D01*
X181942214Y-41125478D01*
X181894340Y-41121709D01*
X181835239Y-41118454D01*
X181762487Y-41115674D01*
X181673660Y-41113332D01*
X181566335Y-41111391D01*
X181438087Y-41109814D01*
X181286493Y-41108563D01*
X181109129Y-41107600D01*
X180903571Y-41106889D01*
X180667396Y-41106392D01*
X180398179Y-41106072D01*
X180093497Y-41105891D01*
X179750926Y-41105811D01*
X179434666Y-41105796D01*
X179059052Y-41105815D01*
X178723340Y-41105896D01*
X178425100Y-41106078D01*
X178161901Y-41106401D01*
X177931313Y-41106903D01*
X177730906Y-41107623D01*
X177558247Y-41108599D01*
X177410908Y-41109871D01*
X177286456Y-41111478D01*
X177182463Y-41113457D01*
X177096495Y-41115848D01*
X177026125Y-41118690D01*
X176968919Y-41122022D01*
X176922449Y-41125881D01*
X176884282Y-41130308D01*
X176851990Y-41135341D01*
X176823140Y-41141018D01*
X176795302Y-41147379D01*
X176792853Y-41147964D01*
X176545360Y-41228459D01*
X176316844Y-41345352D01*
X176110172Y-41495894D01*
X175928211Y-41677337D01*
X175773828Y-41886932D01*
X175649889Y-42121929D01*
X175579010Y-42312000D01*
X175529416Y-42470750D01*
X174597673Y-42470750D01*
X174542844Y-42252001D01*
X174464196Y-42052403D01*
X174358206Y-41869306D01*
X174219561Y-41692907D01*
X174113391Y-41581133D01*
X174018117Y-41489713D01*
X173937514Y-41421182D01*
X173858879Y-41366136D01*
X173769510Y-41315173D01*
X173719666Y-41289698D01*
X173666353Y-41262666D01*
X173618910Y-41238405D01*
X173574890Y-41216768D01*
X173531845Y-41197605D01*
X173487330Y-41180766D01*
X173438896Y-41166101D01*
X173384097Y-41153462D01*
X173320486Y-41142699D01*
X173245616Y-41133662D01*
X173157040Y-41126203D01*
X173052311Y-41120171D01*
X172928982Y-41115417D01*
X172784605Y-41111791D01*
X172616735Y-41109145D01*
X172422923Y-41107329D01*
X172200724Y-41106194D01*
X171947689Y-41105589D01*
X171661373Y-41105366D01*
X171339327Y-41105375D01*
X170979105Y-41105466D01*
X170703416Y-41105500D01*
X170326353Y-41105522D01*
X169989218Y-41105613D01*
X169689605Y-41105810D01*
X169425108Y-41106149D01*
X169193321Y-41106669D01*
X168991840Y-41107406D01*
X168818259Y-41108397D01*
X168670170Y-41109679D01*
X168545170Y-41111289D01*
X168440853Y-41113264D01*
X168354812Y-41115642D01*
X168284642Y-41118458D01*
X168227938Y-41121751D01*
X168182294Y-41125557D01*
X168145303Y-41129913D01*
X168114562Y-41134857D01*
X168087663Y-41140424D01*
X168064284Y-41146119D01*
X167806836Y-41232856D01*
X167572259Y-41354754D01*
X167362569Y-41510134D01*
X167179785Y-41697314D01*
X167025922Y-41914614D01*
X166935289Y-42086377D01*
X166913479Y-42132812D01*
X166893921Y-42174273D01*
X166876494Y-42213194D01*
X166861075Y-42252006D01*
X166847541Y-42293141D01*
X166835771Y-42339033D01*
X166825641Y-42392114D01*
X166817030Y-42454815D01*
X166809815Y-42529570D01*
X166803874Y-42618810D01*
X166799083Y-42724969D01*
X166795321Y-42850478D01*
X166792466Y-42997770D01*
X166790394Y-43169277D01*
X166788984Y-43367432D01*
X166788113Y-43594668D01*
X166787659Y-43853415D01*
X166787499Y-44146107D01*
X164578112Y-44146107D01*
X164675415Y-43925168D01*
X164915310Y-43442669D01*
X165175869Y-42975425D01*
X165454415Y-42529483D01*
X165748268Y-42110891D01*
X165777100Y-42072478D01*
X166101911Y-41665885D01*
X166440478Y-41287381D01*
X166789642Y-40939975D01*
X167146243Y-40626673D01*
X167507122Y-40350482D01*
X167771833Y-40173784D01*
X167842021Y-40132093D01*
X167942266Y-40075626D01*
X168064794Y-40008604D01*
X168201829Y-39935248D01*
X168345599Y-39859780D01*
X168438583Y-39811794D01*
X169308301Y-39389897D01*
X170198372Y-39004616D01*
X171107039Y-38656465D01*
X172032546Y-38345961D01*
X172973136Y-38073617D01*
X173927052Y-37839948D01*
X174892536Y-37645471D01*
X175867833Y-37490699D01*
X176693583Y-37391732D01*
X177059706Y-37358612D01*
X177456617Y-37330499D01*
X177875162Y-37307644D01*
X178306187Y-37290295D01*
X178740537Y-37278701D01*
X179169057Y-37273111D01*
X179582594Y-37273775D01*
G36*
X179582594Y-37273775D02*
G01*
X179971992Y-37280941D01*
X180302500Y-37293562D01*
X181271825Y-37361109D01*
X182236181Y-37466996D01*
X183193262Y-37610607D01*
X184140765Y-37791324D01*
X185076386Y-38008529D01*
X185997819Y-38261605D01*
X186902762Y-38549934D01*
X187788908Y-38872900D01*
X188653955Y-39229884D01*
X189495597Y-39620270D01*
X190060333Y-39908180D01*
X190495647Y-40158278D01*
X190907787Y-40436017D01*
X191299079Y-40743573D01*
X191671848Y-41083121D01*
X192028421Y-41456837D01*
X192371123Y-41866895D01*
X192702280Y-42315473D01*
X192822529Y-42491916D01*
X193143722Y-43002638D01*
X193435373Y-43527005D01*
X193696057Y-44061263D01*
X193924349Y-44601659D01*
X194118824Y-45144439D01*
X194278058Y-45685850D01*
X194400626Y-46222140D01*
X194485104Y-46749553D01*
X194504607Y-46923284D01*
X194506813Y-46966671D01*
X194508906Y-47050176D01*
X194510887Y-47171781D01*
X194512755Y-47329466D01*
X194514512Y-47521211D01*
X194516156Y-47744998D01*
X194517689Y-47998806D01*
X194519110Y-48280617D01*
X194520420Y-48588410D01*
X194521619Y-48920168D01*
X194522707Y-49273869D01*
X194523685Y-49647495D01*
X194524552Y-50039027D01*
X194525310Y-50446445D01*
X194525957Y-50867729D01*
X194526495Y-51300860D01*
X194526923Y-51743820D01*
X194527243Y-52194588D01*
X194527453Y-52651145D01*
X194527554Y-53111471D01*
X194527548Y-53573548D01*
X194527432Y-54035355D01*
X194527209Y-54494875D01*
X194526878Y-54950086D01*
X194526439Y-55398970D01*
X194525893Y-55839507D01*
X194525240Y-56269678D01*
X194524480Y-56687464D01*
X194523613Y-57090844D01*
X194522640Y-57477801D01*
X194521561Y-57846314D01*
X194520375Y-58194363D01*
X194519084Y-58519931D01*
X194517687Y-58820996D01*
X194516185Y-59095540D01*
X194514578Y-59341544D01*
X194512866Y-59556988D01*
X194511049Y-59739852D01*
X194509128Y-59888117D01*
X194507103Y-59999764D01*
X194504974Y-60072774D01*
X194503127Y-60102583D01*
X194454704Y-60390825D01*
X194383815Y-60644196D01*
X194289933Y-60864029D01*
X194172528Y-61051659D01*
X194087519Y-61152586D01*
X193949770Y-61278974D01*
X193799624Y-61376541D01*
X193630907Y-61447790D01*
X193437446Y-61495225D01*
X193213067Y-61521348D01*
X193171833Y-61523827D01*
X192918662Y-61523663D01*
X192648827Y-61496625D01*
X192358761Y-61442062D01*
X192044895Y-61359322D01*
X191750329Y-61264129D01*
X191585614Y-61204877D01*
X191423427Y-61142031D01*
X191257490Y-61072772D01*
X191081525Y-60994277D01*
X190889255Y-60903727D01*
X190674401Y-60798300D01*
X190430684Y-60675176D01*
X190367250Y-60642705D01*
X189643940Y-60283493D01*
X188937786Y-59957135D01*
X188242713Y-59661096D01*
X187552646Y-59392838D01*
X186861512Y-59149826D01*
X186546666Y-59047439D01*
X185607189Y-58769399D01*
X184668519Y-58531718D01*
X183728405Y-58334137D01*
X182784594Y-58176399D01*
X181834835Y-58058249D01*
X180876876Y-57979427D01*
X179908465Y-57939678D01*
X178927351Y-57938743D01*
X177931281Y-57976367D01*
X177445000Y-58008210D01*
X176404710Y-58105487D01*
X175381108Y-58241555D01*
X174373621Y-58416553D01*
X173381675Y-58630618D01*
X172404696Y-58883888D01*
X171442110Y-59176499D01*
X170493344Y-59508590D01*
X169557825Y-59880298D01*
X169451933Y-59925220D01*
X169333312Y-59977311D01*
X169183528Y-60045386D01*
X169009191Y-60126316D01*
X168816912Y-60216973D01*
X168613302Y-60314227D01*
X168404969Y-60414949D01*
X168198525Y-60516011D01*
X168082964Y-60573198D01*
X167777020Y-60724060D01*
X167503746Y-60856000D01*
X167258845Y-60970724D01*
X167038020Y-61069936D01*
X166836973Y-61155343D01*
X166651406Y-61228649D01*
X166477023Y-61291560D01*
X166309524Y-61345780D01*
X166144614Y-61393015D01*
X165977994Y-61434971D01*
X165824500Y-61469312D01*
X165684716Y-61492887D01*
X165524179Y-61510047D01*
X165354692Y-61520386D01*
X165188056Y-61523500D01*
X165036074Y-61518984D01*
X164910547Y-61506435D01*
X164882583Y-61501589D01*
X164662429Y-61442682D01*
X164469473Y-61356182D01*
X164302403Y-61240529D01*
X164159909Y-61094162D01*
X164040679Y-60915520D01*
X163943403Y-60703043D01*
X163866770Y-60455171D01*
X163820711Y-60237543D01*
X163816991Y-60215204D01*
X163813516Y-60190767D01*
X163810278Y-60162791D01*
X163807268Y-60129833D01*
X163804479Y-60090452D01*
X163801902Y-60043206D01*
X163799528Y-59986653D01*
X163797349Y-59919352D01*
X163795357Y-59839860D01*
X163793544Y-59746735D01*
X163791901Y-59638536D01*
X163790419Y-59513821D01*
X163789091Y-59371148D01*
X163787909Y-59209075D01*
X163786863Y-59026161D01*
X163785945Y-58820963D01*
X163785148Y-58592040D01*
X163784463Y-58337950D01*
X163783881Y-58057251D01*
X163783394Y-57748501D01*
X163782994Y-57410259D01*
X163782672Y-57041082D01*
X163782421Y-56639528D01*
X163782231Y-56204157D01*
X163782094Y-55733526D01*
X163782003Y-55226192D01*
X163781948Y-54680716D01*
X163781925Y-54140666D01*
X166607808Y-54140666D01*
X166607863Y-54476347D01*
X166608019Y-54774538D01*
X166608313Y-55037659D01*
X166608787Y-55268131D01*
X166609477Y-55468376D01*
X166610425Y-55640814D01*
X166611668Y-55787867D01*
X166613245Y-55911956D01*
X166615197Y-56015503D01*
X166617561Y-56100927D01*
X166620378Y-56170651D01*
X166623685Y-56227096D01*
X166627522Y-56272683D01*
X166631929Y-56309832D01*
X166636943Y-56340966D01*
X166642605Y-56368505D01*
X166648953Y-56394870D01*
X166650336Y-56400322D01*
X166735258Y-56651671D01*
X166855178Y-56882969D01*
X167006866Y-57091079D01*
X167187092Y-57272863D01*
X167392625Y-57425184D01*
X167620235Y-57544904D01*
X167866692Y-57628885D01*
X167930583Y-57643866D01*
X167978537Y-57649489D01*
X168065462Y-57654661D01*
X168187999Y-57659381D01*
X168342789Y-57663648D01*
X168526473Y-57667460D01*
X168735691Y-57670817D01*
X168967083Y-57673718D01*
X169217290Y-57676162D01*
X169482954Y-57678146D01*
X169760714Y-57679671D01*
X170047211Y-57680735D01*
X170339085Y-57681338D01*
X170632978Y-57681477D01*
X170925530Y-57681152D01*
X171213381Y-57680361D01*
X171493173Y-57679104D01*
X171761545Y-57677380D01*
X172015139Y-57675187D01*
X172250595Y-57672525D01*
X172464553Y-57669391D01*
X172653655Y-57665786D01*
X172814541Y-57661707D01*
X172943850Y-57657155D01*
X173038225Y-57652127D01*
X173094306Y-57646622D01*
X173100101Y-57645575D01*
X173350859Y-57572663D01*
X173585546Y-57462501D01*
X173800198Y-57318404D01*
X173990850Y-57143687D01*
X174153540Y-56941667D01*
X174284301Y-56715657D01*
X174326520Y-56619919D01*
X174343198Y-56578712D01*
X174358134Y-56540514D01*
X174371425Y-56502882D01*
X174383167Y-56463371D01*
X174393456Y-56419536D01*
X174402389Y-56368932D01*
X174410062Y-56309115D01*
X174416571Y-56237640D01*
X174422013Y-56152064D01*
X174426484Y-56049940D01*
X174430081Y-55928826D01*
X174432899Y-55786275D01*
X174435036Y-55619844D01*
X174436587Y-55427088D01*
X174437650Y-55205563D01*
X174438319Y-54952823D01*
X174438693Y-54666425D01*
X174438788Y-54487925D01*
X175402297Y-54487925D01*
X175402332Y-54798132D01*
X175402592Y-55073249D01*
X175403200Y-55315690D01*
X175404278Y-55527870D01*
X175405948Y-55712203D01*
X175408332Y-55871102D01*
X175411553Y-56006984D01*
X175415732Y-56122261D01*
X175420992Y-56219349D01*
X175427454Y-56300661D01*
X175435242Y-56368611D01*
X175444477Y-56425615D01*
X175455282Y-56474087D01*
X175467778Y-56516440D01*
X175482087Y-56555090D01*
X175498333Y-56592450D01*
X175516637Y-56630935D01*
X175537120Y-56672959D01*
X175551727Y-56703454D01*
X175683663Y-56936657D01*
X175845242Y-57142714D01*
X176033422Y-57318729D01*
X176245163Y-57461804D01*
X176448699Y-57558211D01*
X176493225Y-57575656D01*
X176533759Y-57591296D01*
X176572732Y-57605225D01*
X176612578Y-57617539D01*
X176655729Y-57628332D01*
X176704619Y-57637699D01*
X176761680Y-57645736D01*
X176829344Y-57652537D01*
X176910045Y-57658197D01*
X177006216Y-57662812D01*
X177120288Y-57666476D01*
X177254696Y-57669285D01*
X177411872Y-57671332D01*
X177594248Y-57672714D01*
X177804258Y-57673526D01*
X178044334Y-57673861D01*
X178316909Y-57673816D01*
X178624416Y-57673485D01*
X178969288Y-57672963D01*
X179353957Y-57672346D01*
X179371166Y-57672319D01*
X181879416Y-57668416D01*
X182027583Y-57618678D01*
X182290645Y-57510152D01*
X182524491Y-57371331D01*
X182728371Y-57202973D01*
X182901532Y-57005836D01*
X183043225Y-56780678D01*
X183152696Y-56528255D01*
X183174649Y-56461916D01*
X183234083Y-56271416D01*
X183234083Y-53784333D01*
X183234114Y-53395407D01*
X183234125Y-53046400D01*
X183233997Y-52734899D01*
X183233608Y-52458489D01*
X183233509Y-52427173D01*
X184157142Y-52427173D01*
X184157356Y-52679362D01*
X184157798Y-52965617D01*
X184158435Y-53288344D01*
X184159233Y-53649950D01*
X184159623Y-53820143D01*
X184165416Y-56334916D01*
X184223512Y-56504250D01*
X184329216Y-56751306D01*
X184467543Y-56975889D01*
X184635112Y-57174927D01*
X184828540Y-57345346D01*
X185044446Y-57484075D01*
X185279450Y-57588040D01*
X185477750Y-57643866D01*
X185525703Y-57649489D01*
X185612628Y-57654661D01*
X185735166Y-57659381D01*
X185889956Y-57663648D01*
X186073640Y-57667460D01*
X186282857Y-57670817D01*
X186514250Y-57673718D01*
X186764457Y-57676162D01*
X187030120Y-57678146D01*
X187307880Y-57679671D01*
X187594377Y-57680735D01*
X187886252Y-57681338D01*
X188180145Y-57681477D01*
X188472697Y-57681152D01*
X188760548Y-57680361D01*
X189040340Y-57679104D01*
X189308712Y-57677380D01*
X189562306Y-57675187D01*
X189797762Y-57672525D01*
X190011720Y-57669391D01*
X190200822Y-57665786D01*
X190361707Y-57661707D01*
X190491017Y-57657155D01*
X190585392Y-57652127D01*
X190641473Y-57646622D01*
X190647268Y-57645575D01*
X190892559Y-57574408D01*
X191124088Y-57466942D01*
X191336835Y-57327003D01*
X191525780Y-57158417D01*
X191685902Y-56965012D01*
X191806688Y-56761896D01*
X191833152Y-56708981D01*
X191856894Y-56661859D01*
X191878060Y-56618077D01*
X191896798Y-56575180D01*
X191913254Y-56530715D01*
X191927577Y-56482228D01*
X191939912Y-56427264D01*
X191950407Y-56363370D01*
X191959210Y-56288092D01*
X191966467Y-56198975D01*
X191972326Y-56093567D01*
X191976933Y-55969412D01*
X191980435Y-55824058D01*
X191982981Y-55655049D01*
X191984716Y-55459933D01*
X191985789Y-55236255D01*
X191986345Y-54981562D01*
X191986533Y-54693398D01*
X191986499Y-54369312D01*
X191986391Y-54006847D01*
X191986351Y-53765072D01*
X191986312Y-53389444D01*
X191986216Y-53053716D01*
X191986024Y-52755456D01*
X191985695Y-52492229D01*
X191985192Y-52261603D01*
X191984473Y-52061144D01*
X191983499Y-51888420D01*
X191982232Y-51740998D01*
X191980631Y-51616443D01*
X191978656Y-51512323D01*
X191976269Y-51426205D01*
X191973430Y-51355656D01*
X191970099Y-51298243D01*
X191966237Y-51251531D01*
X191961803Y-51213089D01*
X191956760Y-51180483D01*
X191951066Y-51151280D01*
X191944683Y-51123047D01*
X191943328Y-51117333D01*
X191863429Y-50870917D01*
X191747044Y-50642933D01*
X191597091Y-50436337D01*
X191416489Y-50254085D01*
X191208153Y-50099134D01*
X190975004Y-49974441D01*
X190727083Y-49884962D01*
X190557750Y-49837039D01*
X185583583Y-49837039D01*
X185414250Y-49884962D01*
X185160407Y-49977357D01*
X184928182Y-50103279D01*
X184720553Y-50259694D01*
X184540500Y-50443565D01*
X184391002Y-50651858D01*
X184275039Y-50881535D01*
X184196496Y-51125727D01*
X184190064Y-51153689D01*
X184184321Y-51182024D01*
X184179234Y-51213140D01*
X184174769Y-51249442D01*
X184170895Y-51293337D01*
X184167578Y-51347232D01*
X184164785Y-51413533D01*
X184162483Y-51494647D01*
X184160639Y-51592981D01*
X184159221Y-51710941D01*
X184158195Y-51850934D01*
X184157528Y-52015365D01*
X184157188Y-52206643D01*
X184157142Y-52427173D01*
X183233509Y-52427173D01*
X183232836Y-52214758D01*
X183231561Y-52001291D01*
X183229661Y-51815674D01*
X183227016Y-51655495D01*
X183223504Y-51518338D01*
X183219005Y-51401790D01*
X183213397Y-51303438D01*
X183206559Y-51220867D01*
X183198371Y-51151665D01*
X183188711Y-51093416D01*
X183177457Y-51043707D01*
X183164490Y-51000125D01*
X183149687Y-50960256D01*
X183132929Y-50921685D01*
X183114093Y-50882000D01*
X183093058Y-50838785D01*
X183085561Y-50823227D01*
X182948862Y-50581869D01*
X182785575Y-50373317D01*
X182595084Y-50197054D01*
X182376768Y-50052563D01*
X182130008Y-49939326D01*
X181964083Y-49885046D01*
X181794750Y-49837124D01*
X179328833Y-49836937D01*
X178941215Y-49836862D01*
X178593491Y-49836791D01*
X178283220Y-49836861D01*
X178007963Y-49837210D01*
X177765281Y-49837976D01*
X177552734Y-49839297D01*
X177367882Y-49841310D01*
X177208285Y-49844153D01*
X177071503Y-49847963D01*
X176955098Y-49852879D01*
X176856629Y-49859037D01*
X176773657Y-49866577D01*
X176703742Y-49875634D01*
X176644444Y-49886348D01*
X176593324Y-49898855D01*
X176547942Y-49913294D01*
X176505858Y-49929802D01*
X176464633Y-49948517D01*
X176421827Y-49969576D01*
X176374999Y-49993118D01*
X176351078Y-50004995D01*
X176229754Y-50067381D01*
X176133690Y-50124643D01*
X176048631Y-50186855D01*
X175960324Y-50264089D01*
X175892212Y-50329289D01*
X175717666Y-50529295D01*
X175576719Y-50754598D01*
X175470389Y-51003462D01*
X175441091Y-51097391D01*
X175435249Y-51119725D01*
X175430025Y-51144847D01*
X175425384Y-51175116D01*
X175421292Y-51212892D01*
X175417715Y-51260536D01*
X175414619Y-51320407D01*
X175411968Y-51394865D01*
X175409729Y-51486271D01*
X175407868Y-51596984D01*
X175406349Y-51729366D01*
X175405139Y-51885775D01*
X175404203Y-52068572D01*
X175403506Y-52280117D01*
X175403015Y-52522770D01*
X175402695Y-52798891D01*
X175402512Y-53110841D01*
X175402431Y-53460979D01*
X175402416Y-53752583D01*
X175402366Y-54140213D01*
X175402297Y-54487925D01*
X174438788Y-54487925D01*
X174438866Y-54343923D01*
X174438936Y-53982874D01*
X174438965Y-53767565D01*
X174438962Y-53386703D01*
X174438814Y-53045836D01*
X174438491Y-52742625D01*
X174437965Y-52474734D01*
X174437208Y-52239823D01*
X174436192Y-52035555D01*
X174434887Y-51859592D01*
X174433266Y-51709596D01*
X174431300Y-51583228D01*
X174428960Y-51478151D01*
X174426218Y-51392025D01*
X174423046Y-51322515D01*
X174419415Y-51267280D01*
X174415297Y-51223984D01*
X174410662Y-51190287D01*
X174407374Y-51172493D01*
X174334264Y-50919563D01*
X174224690Y-50685786D01*
X174081165Y-50473795D01*
X173906202Y-50286220D01*
X173702312Y-50125692D01*
X173472008Y-49994842D01*
X173217802Y-49896300D01*
X173177337Y-49884347D01*
X173010583Y-49837039D01*
X168036416Y-49837039D01*
X167867083Y-49884962D01*
X167611740Y-49977587D01*
X167378796Y-50103220D01*
X167171068Y-50259008D01*
X166991372Y-50442094D01*
X166842527Y-50649626D01*
X166727350Y-50878748D01*
X166650838Y-51117333D01*
X166644313Y-51145663D01*
X166638485Y-51174480D01*
X166633316Y-51206215D01*
X166628764Y-51243302D01*
X166624791Y-51288174D01*
X166621358Y-51343265D01*
X166618424Y-51411007D01*
X166615950Y-51493833D01*
X166613897Y-51594178D01*
X166612224Y-51714473D01*
X166610894Y-51857153D01*
X166609865Y-52024649D01*
X166609099Y-52219396D01*
X166608555Y-52443827D01*
X166608195Y-52700374D01*
X166607979Y-52991471D01*
X166607867Y-53319550D01*
X166607820Y-53687046D01*
X166607814Y-53765072D01*
X166607808Y-54140666D01*
X163781925Y-54140666D01*
X163781922Y-54095653D01*
X163781916Y-53530333D01*
X163781907Y-52904234D01*
X163781894Y-52318976D01*
X163781897Y-51773067D01*
X163781936Y-51265015D01*
X163782032Y-50793327D01*
X163782205Y-50356511D01*
X163782476Y-49953075D01*
X163782864Y-49581527D01*
X163783390Y-49240374D01*
X163784075Y-48928125D01*
X163784938Y-48643287D01*
X163786001Y-48384367D01*
X163787283Y-48149874D01*
X163788805Y-47938315D01*
X163790586Y-47748198D01*
X163792649Y-47578032D01*
X163795012Y-47426322D01*
X163797696Y-47291579D01*
X163800721Y-47172308D01*
X163804108Y-47067018D01*
X163807878Y-46974217D01*
X163812049Y-46892413D01*
X163816644Y-46820112D01*
X163821681Y-46755824D01*
X163827182Y-46698055D01*
X163833167Y-46645314D01*
X163839656Y-46596109D01*
X163846670Y-46548946D01*
X163854228Y-46502334D01*
X163862351Y-46454781D01*
X163871060Y-46404794D01*
X163879699Y-46354833D01*
X163976077Y-45886768D01*
X164106517Y-45403721D01*
X164268339Y-44911741D01*
X164458865Y-44416874D01*
X164578112Y-44146107D01*
X166787499Y-44146107D01*
X166787511Y-44475177D01*
X166787572Y-44843056D01*
X166787583Y-45021333D01*
X166787615Y-45400037D01*
X166787734Y-45738777D01*
X166787973Y-46039924D01*
X166788366Y-46305848D01*
X166788947Y-46538917D01*
X166789749Y-46741503D01*
X166790807Y-46915974D01*
X166792153Y-47064702D01*
X166793822Y-47190055D01*
X166795848Y-47294403D01*
X166798263Y-47380117D01*
X166801103Y-47449567D01*
X166804400Y-47505121D01*
X166808188Y-47549151D01*
X166812501Y-47584025D01*
X166817372Y-47612115D01*
X166822836Y-47635789D01*
X166824886Y-47643438D01*
X166898035Y-47868255D01*
X166986600Y-48062041D01*
X167096260Y-48234966D01*
X167232694Y-48397198D01*
X167263833Y-48429398D01*
X167422213Y-48575724D01*
X167580096Y-48690708D01*
X167750206Y-48783224D01*
X167808269Y-48809093D01*
X167851329Y-48827529D01*
X167890824Y-48844052D01*
X167929189Y-48858767D01*
X167968862Y-48871782D01*
X168012278Y-48883201D01*
X168061874Y-48893132D01*
X168120086Y-48901681D01*
X168189352Y-48908953D01*
X168272107Y-48915056D01*
X168370787Y-48920094D01*
X168487830Y-48924175D01*
X168625671Y-48927405D01*
X168786748Y-48929889D01*
X168973496Y-48931734D01*
X169188352Y-48933047D01*
X169433752Y-48933933D01*
X169712133Y-48934499D01*
X170025932Y-48934850D01*
X170377584Y-48935094D01*
X170703416Y-48935292D01*
X171078247Y-48935514D01*
X171413180Y-48935645D01*
X171710650Y-48935649D01*
X171973091Y-48935488D01*
X172202938Y-48935126D01*
X172402627Y-48934525D01*
X172574591Y-48933648D01*
X172721268Y-48932457D01*
X172845090Y-48930916D01*
X172948493Y-48928987D01*
X173033912Y-48926633D01*
X173103782Y-48923817D01*
X173160538Y-48920502D01*
X173206614Y-48916651D01*
X173244446Y-48912226D01*
X173276469Y-48907189D01*
X173305117Y-48901505D01*
X173332826Y-48895136D01*
X173332864Y-48895127D01*
X173586789Y-48813332D01*
X173819742Y-48696219D01*
X174028962Y-48546689D01*
X174211687Y-48367639D01*
X174365157Y-48161970D01*
X174486609Y-47932580D01*
X174573282Y-47682368D01*
X174600009Y-47564763D01*
X174605154Y-47516256D01*
X174609865Y-47428846D01*
X174614142Y-47305922D01*
X174617986Y-47150873D01*
X174621397Y-46967089D01*
X174624376Y-46757959D01*
X174626923Y-46526873D01*
X174629037Y-46277221D01*
X174630721Y-46012392D01*
X174631973Y-45735776D01*
X174632795Y-45450763D01*
X174633186Y-45160741D01*
X174633148Y-44869101D01*
X174632680Y-44579232D01*
X174631782Y-44294524D01*
X174630456Y-44018366D01*
X174628702Y-43754148D01*
X174626519Y-43505260D01*
X174623908Y-43275091D01*
X174620870Y-43067030D01*
X174617405Y-42884468D01*
X174613514Y-42730794D01*
X174609196Y-42609398D01*
X174604452Y-42523668D01*
X174599465Y-42477903D01*
X174597673Y-42470750D01*
X175529416Y-42470750D01*
X175529416Y-47571916D01*
X175578981Y-47729755D01*
X175678858Y-47981314D01*
X175811867Y-48210004D01*
X175974958Y-48413034D01*
X176165079Y-48587617D01*
X176379180Y-48730965D01*
X176614210Y-48840288D01*
X176867117Y-48912798D01*
X176875091Y-48914404D01*
X176908046Y-48916773D01*
X176980606Y-48919002D01*
X177090043Y-48921074D01*
X177233629Y-48922973D01*
X177408636Y-48924683D01*
X177612336Y-48926188D01*
X177842000Y-48927471D01*
X178094901Y-48928517D01*
X178368311Y-48929310D01*
X178659501Y-48929833D01*
X178965744Y-48930070D01*
X179284311Y-48930006D01*
X179487583Y-48929807D01*
X182006416Y-48926583D01*
X182154583Y-48876528D01*
X182398523Y-48775808D01*
X182622401Y-48646675D01*
X182819584Y-48493510D01*
X182969191Y-48338197D01*
X183050526Y-48225276D01*
X183132427Y-48085998D01*
X183208016Y-47934345D01*
X183270414Y-47784294D01*
X183312740Y-47649828D01*
X183317071Y-47631238D01*
X183322232Y-47603951D01*
X183326843Y-47570164D01*
X183330932Y-47527518D01*
X183334531Y-47473654D01*
X183337668Y-47406215D01*
X183340375Y-47322842D01*
X183342681Y-47221176D01*
X183344617Y-47098859D01*
X183346211Y-46953532D01*
X183347495Y-46782837D01*
X183348498Y-46584415D01*
X183349251Y-46355908D01*
X183349782Y-46094958D01*
X183350124Y-45799205D01*
X183350304Y-45466292D01*
X183350354Y-45093859D01*
X183350351Y-45017154D01*
X183350306Y-44641533D01*
X183350193Y-44305818D01*
X183349975Y-44007584D01*
X183349614Y-43744404D01*
X183349072Y-43513852D01*
X183348312Y-43313503D01*
X183347295Y-43140929D01*
X183345983Y-42993704D01*
X183344340Y-42869403D01*
X183342327Y-42765598D01*
X183339907Y-42679863D01*
X183337041Y-42609773D01*
X183333692Y-42552901D01*
X183329823Y-42506820D01*
X183325589Y-42470750D01*
X184165416Y-42470750D01*
X184165416Y-47571916D01*
X184214981Y-47729755D01*
X184314858Y-47981314D01*
X184447867Y-48210004D01*
X184610958Y-48413034D01*
X184801079Y-48587617D01*
X185015180Y-48730965D01*
X185250210Y-48840288D01*
X185503117Y-48912798D01*
X185511091Y-48914404D01*
X185544046Y-48916773D01*
X185616606Y-48919002D01*
X185726043Y-48921074D01*
X185869629Y-48922973D01*
X186044636Y-48924683D01*
X186248336Y-48926188D01*
X186478000Y-48927471D01*
X186730901Y-48928517D01*
X187004311Y-48929310D01*
X187295501Y-48929833D01*
X187601744Y-48930070D01*
X187920311Y-48930006D01*
X188123583Y-48929807D01*
X190642416Y-48926583D01*
X190790583Y-48876528D01*
X191034523Y-48775808D01*
X191258401Y-48646675D01*
X191455584Y-48493510D01*
X191605191Y-48338197D01*
X191686526Y-48225276D01*
X191768427Y-48085998D01*
X191844016Y-47934345D01*
X191906414Y-47784294D01*
X191948740Y-47649828D01*
X191953071Y-47631238D01*
X191958232Y-47603951D01*
X191962843Y-47570164D01*
X191966932Y-47527518D01*
X191970531Y-47473654D01*
X191973668Y-47406215D01*
X191976375Y-47322842D01*
X191978681Y-47221176D01*
X191980617Y-47098859D01*
X191982211Y-46953532D01*
X191983495Y-46782837D01*
X191984498Y-46584415D01*
X191985251Y-46355908D01*
X191985782Y-46094958D01*
X191986124Y-45799205D01*
X191986304Y-45466292D01*
X191986354Y-45093859D01*
X191986351Y-45017154D01*
X191986306Y-44641533D01*
X191986193Y-44305818D01*
X191985975Y-44007584D01*
X191985614Y-43744404D01*
X191985072Y-43513852D01*
X191984312Y-43313503D01*
X191983295Y-43140929D01*
X191981983Y-42993704D01*
X191980340Y-42869403D01*
X191978327Y-42765598D01*
X191975907Y-42679863D01*
X191973041Y-42609773D01*
X191969692Y-42552901D01*
X191965823Y-42506820D01*
X191961395Y-42469105D01*
X191956371Y-42437328D01*
X191950713Y-42409065D01*
X191945399Y-42386083D01*
X191863506Y-42134054D01*
X191744947Y-41900800D01*
X191592293Y-41689965D01*
X191408116Y-41505193D01*
X191229338Y-41371760D01*
X191089296Y-41287437D01*
X190960031Y-41225332D01*
X190822759Y-41177360D01*
X190705916Y-41146429D01*
X190678712Y-41140235D01*
X190649977Y-41134703D01*
X190617285Y-41129797D01*
X190578214Y-41125478D01*
X190530340Y-41121709D01*
X190471239Y-41118454D01*
X190398487Y-41115674D01*
X190309660Y-41113332D01*
X190202335Y-41111391D01*
X190074087Y-41109814D01*
X189922493Y-41108563D01*
X189745129Y-41107600D01*
X189539571Y-41106889D01*
X189303396Y-41106392D01*
X189034179Y-41106072D01*
X188729497Y-41105891D01*
X188386926Y-41105811D01*
X188070666Y-41105796D01*
X187694715Y-41105818D01*
X187358674Y-41105911D01*
X187060118Y-41106110D01*
X186796623Y-41106454D01*
X186565766Y-41106980D01*
X186365122Y-41107727D01*
X186192268Y-41108730D01*
X186044780Y-41110029D01*
X185920233Y-41111660D01*
X185816204Y-41113661D01*
X185730268Y-41116069D01*
X185660003Y-41118923D01*
X185602983Y-41122259D01*
X185556785Y-41126115D01*
X185518985Y-41130529D01*
X185487158Y-41135538D01*
X185458882Y-41141180D01*
X185435416Y-41146600D01*
X185270679Y-41193222D01*
X185125485Y-41251443D01*
X184980395Y-41329639D01*
X184912750Y-41371778D01*
X184705776Y-41529731D01*
X184527442Y-41718272D01*
X184379007Y-41935702D01*
X184261732Y-42180320D01*
X184215031Y-42312745D01*
X184165416Y-42470750D01*
X183325589Y-42470750D01*
X183325395Y-42469105D01*
X183320371Y-42437328D01*
X183314713Y-42409065D01*
X183309399Y-42386083D01*
X183227506Y-42134054D01*
X183108947Y-41900800D01*
X182956293Y-41689965D01*
X182772116Y-41505193D01*
X182593338Y-41371760D01*
X182453296Y-41287437D01*
X182324031Y-41225332D01*
X182186759Y-41177360D01*
X182069916Y-41146429D01*
X182042712Y-41140235D01*
X182013977Y-41134703D01*
X181981285Y-41129797D01*
X181942214Y-41125478D01*
X181894340Y-41121709D01*
X181835239Y-41118454D01*
X181762487Y-41115674D01*
X181673660Y-41113332D01*
X181566335Y-41111391D01*
X181438087Y-41109814D01*
X181286493Y-41108563D01*
X181109129Y-41107600D01*
X180903571Y-41106889D01*
X180667396Y-41106392D01*
X180398179Y-41106072D01*
X180093497Y-41105891D01*
X179750926Y-41105811D01*
X179434666Y-41105796D01*
X179059052Y-41105815D01*
X178723340Y-41105896D01*
X178425100Y-41106078D01*
X178161901Y-41106401D01*
X177931313Y-41106903D01*
X177730906Y-41107623D01*
X177558247Y-41108599D01*
X177410908Y-41109871D01*
X177286456Y-41111478D01*
X177182463Y-41113457D01*
X177096495Y-41115848D01*
X177026125Y-41118690D01*
X176968919Y-41122022D01*
X176922449Y-41125881D01*
X176884282Y-41130308D01*
X176851990Y-41135341D01*
X176823140Y-41141018D01*
X176795302Y-41147379D01*
X176792853Y-41147964D01*
X176545360Y-41228459D01*
X176316844Y-41345352D01*
X176110172Y-41495894D01*
X175928211Y-41677337D01*
X175773828Y-41886932D01*
X175649889Y-42121929D01*
X175579010Y-42312000D01*
X175529416Y-42470750D01*
X174597673Y-42470750D01*
X174542844Y-42252001D01*
X174464196Y-42052403D01*
X174358206Y-41869306D01*
X174219561Y-41692907D01*
X174113391Y-41581133D01*
X174018117Y-41489713D01*
X173937514Y-41421182D01*
X173858879Y-41366136D01*
X173769510Y-41315173D01*
X173719666Y-41289698D01*
X173666353Y-41262666D01*
X173618910Y-41238405D01*
X173574890Y-41216768D01*
X173531845Y-41197605D01*
X173487330Y-41180766D01*
X173438896Y-41166101D01*
X173384097Y-41153462D01*
X173320486Y-41142699D01*
X173245616Y-41133662D01*
X173157040Y-41126203D01*
X173052311Y-41120171D01*
X172928982Y-41115417D01*
X172784605Y-41111791D01*
X172616735Y-41109145D01*
X172422923Y-41107329D01*
X172200724Y-41106194D01*
X171947689Y-41105589D01*
X171661373Y-41105366D01*
X171339327Y-41105375D01*
X170979105Y-41105466D01*
X170703416Y-41105500D01*
X170326353Y-41105522D01*
X169989218Y-41105613D01*
X169689605Y-41105810D01*
X169425108Y-41106149D01*
X169193321Y-41106669D01*
X168991840Y-41107406D01*
X168818259Y-41108397D01*
X168670170Y-41109679D01*
X168545170Y-41111289D01*
X168440853Y-41113264D01*
X168354812Y-41115642D01*
X168284642Y-41118458D01*
X168227938Y-41121751D01*
X168182294Y-41125557D01*
X168145303Y-41129913D01*
X168114562Y-41134857D01*
X168087663Y-41140424D01*
X168064284Y-41146119D01*
X167806836Y-41232856D01*
X167572259Y-41354754D01*
X167362569Y-41510134D01*
X167179785Y-41697314D01*
X167025922Y-41914614D01*
X166935289Y-42086377D01*
X166913479Y-42132812D01*
X166893921Y-42174273D01*
X166876494Y-42213194D01*
X166861075Y-42252006D01*
X166847541Y-42293141D01*
X166835771Y-42339033D01*
X166825641Y-42392114D01*
X166817030Y-42454815D01*
X166809815Y-42529570D01*
X166803874Y-42618810D01*
X166799083Y-42724969D01*
X166795321Y-42850478D01*
X166792466Y-42997770D01*
X166790394Y-43169277D01*
X166788984Y-43367432D01*
X166788113Y-43594668D01*
X166787659Y-43853415D01*
X166787499Y-44146107D01*
X164578112Y-44146107D01*
X164675415Y-43925168D01*
X164915310Y-43442669D01*
X165175869Y-42975425D01*
X165454415Y-42529483D01*
X165748268Y-42110891D01*
X165777100Y-42072478D01*
X166101911Y-41665885D01*
X166440478Y-41287381D01*
X166789642Y-40939975D01*
X167146243Y-40626673D01*
X167507122Y-40350482D01*
X167771833Y-40173784D01*
X167842021Y-40132093D01*
X167942266Y-40075626D01*
X168064794Y-40008604D01*
X168201829Y-39935248D01*
X168345599Y-39859780D01*
X168438583Y-39811794D01*
X169308301Y-39389897D01*
X170198372Y-39004616D01*
X171107039Y-38656465D01*
X172032546Y-38345961D01*
X172973136Y-38073617D01*
X173927052Y-37839948D01*
X174892536Y-37645471D01*
X175867833Y-37490699D01*
X176693583Y-37391732D01*
X177059706Y-37358612D01*
X177456617Y-37330499D01*
X177875162Y-37307644D01*
X178306187Y-37290295D01*
X178740537Y-37278701D01*
X179169057Y-37273111D01*
X179582594Y-37273775D01*
G37*
%TD*%
D11*
%TO.C,SW5*%
X177175000Y-92250000D03*
X180575000Y-92250000D03*
%TD*%
%TO.C,SW6*%
X173025000Y-65725000D03*
X176425000Y-65725000D03*
%TD*%
%TO.C,SW4*%
X189375000Y-70725000D03*
X192775000Y-70725000D03*
%TD*%
%TO.C,SW7*%
X181750000Y-65525000D03*
X185150000Y-65525000D03*
%TD*%
%TO.C,SW3*%
X165525000Y-71000000D03*
X168925000Y-71000000D03*
%TD*%
D12*
%TO.C,X1*%
X192860000Y-30100000D03*
D13*
X192860000Y-32640000D03*
D12*
X195400000Y-30100000D03*
X195400000Y-32640000D03*
D14*
X197940000Y-30100000D03*
X197940000Y-32640000D03*
%TD*%
D15*
%TO.C,REF\u002A\u002A*%
X178175000Y-18975000D03*
%TD*%
D16*
%TO.C,OLED1*%
X158175000Y-42755000D03*
D17*
X158175000Y-45295000D03*
X158175000Y-47835000D03*
X158175000Y-50375000D03*
%TD*%
D18*
%TO.C,SW2*%
X198850000Y-148326924D03*
X197350000Y-150925000D03*
%TD*%
D19*
%TO.C,J6*%
X181815000Y-157512500D03*
X176035000Y-157512500D03*
D20*
X183245000Y-161162500D03*
D21*
X183245000Y-157012500D03*
D20*
X174605000Y-161162500D03*
D21*
X174605000Y-157012500D03*
%TD*%
M02*
