%TF.GenerationSoftware,KiCad,Pcbnew,7.0.2*%
%TF.CreationDate,2023-07-17T20:56:39-05:00*%
%TF.ProjectId,BSidesKC23,42536964-6573-44b4-9332-332e6b696361,1.0*%
%TF.SameCoordinates,Original*%
%TF.FileFunction,Soldermask,Bot*%
%TF.FilePolarity,Negative*%
%FSLAX46Y46*%
G04 Gerber Fmt 4.6, Leading zero omitted, Abs format (unit mm)*
G04 Created by KiCad (PCBNEW 7.0.2) date 2023-07-17 20:56:39*
%MOMM*%
%LPD*%
G01*
G04 APERTURE LIST*
G04 Aperture macros list*
%AMRoundRect*
0 Rectangle with rounded corners*
0 $1 Rounding radius*
0 $2 $3 $4 $5 $6 $7 $8 $9 X,Y pos of 4 corners*
0 Add a 4 corners polygon primitive as box body*
4,1,4,$2,$3,$4,$5,$6,$7,$8,$9,$2,$3,0*
0 Add four circle primitives for the rounded corners*
1,1,$1+$1,$2,$3*
1,1,$1+$1,$4,$5*
1,1,$1+$1,$6,$7*
1,1,$1+$1,$8,$9*
0 Add four rect primitives between the rounded corners*
20,1,$1+$1,$2,$3,$4,$5,0*
20,1,$1+$1,$4,$5,$6,$7,0*
20,1,$1+$1,$6,$7,$8,$9,0*
20,1,$1+$1,$8,$9,$2,$3,0*%
G04 Aperture macros list end*
%ADD10C,1.152495*%
%ADD11C,0.100000*%
%ADD12C,0.953085*%
%ADD13R,1.955800X2.463800*%
%ADD14R,1.930400X2.438400*%
%ADD15RoundRect,0.200000X-0.850000X-0.850000X0.850000X-0.850000X0.850000X0.850000X-0.850000X0.850000X0*%
%ADD16O,2.100000X2.100000*%
%ADD17RoundRect,0.200000X0.750000X0.500000X-0.750000X0.500000X-0.750000X-0.500000X0.750000X-0.500000X0*%
%ADD18O,2.127200X2.127200*%
%ADD19RoundRect,0.200000X-0.863600X0.863600X-0.863600X-0.863600X0.863600X-0.863600X0.863600X0.863600X0*%
%ADD20C,2.127200*%
%ADD21C,5.400000*%
%ADD22RoundRect,0.200000X0.974000X0.850000X-0.974000X0.850000X-0.974000X-0.850000X0.974000X-0.850000X0*%
%ADD23RoundRect,0.450000X-0.375000X-0.625000X0.375000X-0.625000X0.375000X0.625000X-0.375000X0.625000X0*%
%ADD24RoundRect,0.200000X0.750000X0.450000X-0.750000X0.450000X-0.750000X-0.450000X0.750000X-0.450000X0*%
%ADD25RoundRect,0.350000X-0.150000X0.587500X-0.150000X-0.587500X0.150000X-0.587500X0.150000X0.587500X0*%
%ADD26C,2.400000*%
%ADD27RoundRect,0.443750X0.243750X0.456250X-0.243750X0.456250X-0.243750X-0.456250X0.243750X-0.456250X0*%
%ADD28RoundRect,0.200000X-0.400000X-0.250000X0.400000X-0.250000X0.400000X0.250000X-0.400000X0.250000X0*%
%ADD29RoundRect,0.200000X-0.400000X-0.200000X0.400000X-0.200000X0.400000X0.200000X-0.400000X0.200000X0*%
%ADD30RoundRect,0.200000X0.850000X0.850000X-0.850000X0.850000X-0.850000X-0.850000X0.850000X-0.850000X0*%
%ADD31RoundRect,0.450000X0.375000X0.625000X-0.375000X0.625000X-0.375000X-0.625000X0.375000X-0.625000X0*%
%ADD32RoundRect,0.200000X0.450000X-0.450000X0.450000X0.450000X-0.450000X0.450000X-0.450000X-0.450000X0*%
%ADD33RoundRect,0.200000X0.450000X-0.750000X0.450000X0.750000X-0.450000X0.750000X-0.450000X-0.750000X0*%
%ADD34RoundRect,0.200000X-0.450000X0.750000X-0.450000X-0.750000X0.450000X-0.750000X0.450000X0.750000X0*%
%ADD35RoundRect,0.070000X0.325000X0.875000X-0.325000X0.875000X-0.325000X-0.875000X0.325000X-0.875000X0*%
%ADD36RoundRect,0.443750X-0.243750X-0.456250X0.243750X-0.456250X0.243750X0.456250X-0.243750X0.456250X0*%
%ADD37RoundRect,0.200000X-0.096410X0.633013X-0.596410X-0.233013X0.096410X-0.633013X0.596410X0.233013X0*%
%ADD38C,0.900000*%
%ADD39RoundRect,0.200000X-0.474519X0.678109X-0.824519X0.071891X0.474519X-0.678109X0.824519X-0.071891X0*%
%ADD40RoundRect,0.200000X0.300000X0.600000X-0.300000X0.600000X-0.300000X-0.600000X0.300000X-0.600000X0*%
%ADD41RoundRect,0.450001X0.499999X0.924999X-0.499999X0.924999X-0.499999X-0.924999X0.499999X-0.924999X0*%
%ADD42RoundRect,0.200000X-1.750000X2.750000X-1.750000X-2.750000X1.750000X-2.750000X1.750000X2.750000X0*%
%ADD43RoundRect,0.200000X-2.750000X2.250000X-2.750000X-2.250000X2.750000X-2.250000X2.750000X2.250000X0*%
%ADD44C,0.650000*%
%ADD45RoundRect,0.200000X0.125000X0.700000X-0.125000X0.700000X-0.125000X-0.700000X0.125000X-0.700000X0*%
%ADD46O,1.400000X2.200000*%
%ADD47O,1.400000X2.500000*%
%ADD48RoundRect,0.200000X0.750000X1.100000X-0.750000X1.100000X-0.750000X-1.100000X0.750000X-1.100000X0*%
%ADD49RoundRect,0.200000X1.900000X1.100000X-1.900000X1.100000X-1.900000X-1.100000X1.900000X-1.100000X0*%
G04 APERTURE END LIST*
%TO.C,D9*%
D10*
X188751247Y-53625000D02*
G75*
G03*
X188751247Y-53625000I-576247J0D01*
G01*
D11*
X191477000Y-54869600D02*
X189495800Y-54869600D01*
X189495800Y-52380400D01*
X191477000Y-52380400D01*
X191477000Y-54869600D01*
G36*
X191477000Y-54869600D02*
G01*
X189495800Y-54869600D01*
X189495800Y-52380400D01*
X191477000Y-52380400D01*
X191477000Y-54869600D01*
G37*
X186854200Y-54844200D02*
X184923800Y-54844200D01*
X184923800Y-52405800D01*
X186854200Y-52405800D01*
X186854200Y-54844200D01*
G36*
X186854200Y-54844200D02*
G01*
X184923800Y-54844200D01*
X184923800Y-52405800D01*
X186854200Y-52405800D01*
X186854200Y-54844200D01*
G37*
%TO.C,D8*%
D10*
X180001247Y-53650000D02*
G75*
G03*
X180001247Y-53650000I-576247J0D01*
G01*
D11*
X182727000Y-54894600D02*
X180745800Y-54894600D01*
X180745800Y-52405400D01*
X182727000Y-52405400D01*
X182727000Y-54894600D01*
G36*
X182727000Y-54894600D02*
G01*
X180745800Y-54894600D01*
X180745800Y-52405400D01*
X182727000Y-52405400D01*
X182727000Y-54894600D01*
G37*
X178104200Y-54869200D02*
X176173800Y-54869200D01*
X176173800Y-52430800D01*
X178104200Y-52430800D01*
X178104200Y-54869200D01*
G36*
X178104200Y-54869200D02*
G01*
X176173800Y-54869200D01*
X176173800Y-52430800D01*
X178104200Y-52430800D01*
X178104200Y-54869200D01*
G37*
%TO.C,D7*%
D10*
X171215247Y-53575000D02*
G75*
G03*
X171215247Y-53575000I-576247J0D01*
G01*
D11*
X173941000Y-54819600D02*
X171959800Y-54819600D01*
X171959800Y-52330400D01*
X173941000Y-52330400D01*
X173941000Y-54819600D01*
G36*
X173941000Y-54819600D02*
G01*
X171959800Y-54819600D01*
X171959800Y-52330400D01*
X173941000Y-52330400D01*
X173941000Y-54819600D01*
G37*
X169318200Y-54794200D02*
X167387800Y-54794200D01*
X167387800Y-52355800D01*
X169318200Y-52355800D01*
X169318200Y-54794200D01*
G36*
X169318200Y-54794200D02*
G01*
X167387800Y-54794200D01*
X167387800Y-52355800D01*
X169318200Y-52355800D01*
X169318200Y-54794200D01*
G37*
%TO.C,D6*%
D10*
X188876247Y-44700000D02*
G75*
G03*
X188876247Y-44700000I-576247J0D01*
G01*
D11*
X191602000Y-45944600D02*
X189620800Y-45944600D01*
X189620800Y-43455400D01*
X191602000Y-43455400D01*
X191602000Y-45944600D01*
G36*
X191602000Y-45944600D02*
G01*
X189620800Y-45944600D01*
X189620800Y-43455400D01*
X191602000Y-43455400D01*
X191602000Y-45944600D01*
G37*
X186979200Y-45919200D02*
X185048800Y-45919200D01*
X185048800Y-43480800D01*
X186979200Y-43480800D01*
X186979200Y-45919200D01*
G36*
X186979200Y-45919200D02*
G01*
X185048800Y-45919200D01*
X185048800Y-43480800D01*
X186979200Y-43480800D01*
X186979200Y-45919200D01*
G37*
%TO.C,D5*%
D10*
X180351247Y-44650000D02*
G75*
G03*
X180351247Y-44650000I-576247J0D01*
G01*
D11*
X183077000Y-45894600D02*
X181095800Y-45894600D01*
X181095800Y-43405400D01*
X183077000Y-43405400D01*
X183077000Y-45894600D01*
G36*
X183077000Y-45894600D02*
G01*
X181095800Y-45894600D01*
X181095800Y-43405400D01*
X183077000Y-43405400D01*
X183077000Y-45894600D01*
G37*
X178454200Y-45869200D02*
X176523800Y-45869200D01*
X176523800Y-43430800D01*
X178454200Y-43430800D01*
X178454200Y-45869200D01*
G36*
X178454200Y-45869200D02*
G01*
X176523800Y-45869200D01*
X176523800Y-43430800D01*
X178454200Y-43430800D01*
X178454200Y-45869200D01*
G37*
%TO.C,D4*%
D10*
X171251247Y-44900000D02*
G75*
G03*
X171251247Y-44900000I-576247J0D01*
G01*
D11*
X173977000Y-46144600D02*
X171995800Y-46144600D01*
X171995800Y-43655400D01*
X173977000Y-43655400D01*
X173977000Y-46144600D01*
G36*
X173977000Y-46144600D02*
G01*
X171995800Y-46144600D01*
X171995800Y-43655400D01*
X173977000Y-43655400D01*
X173977000Y-46144600D01*
G37*
X169354200Y-46119200D02*
X167423800Y-46119200D01*
X167423800Y-43680800D01*
X169354200Y-43680800D01*
X169354200Y-46119200D01*
G36*
X169354200Y-46119200D02*
G01*
X167423800Y-46119200D01*
X167423800Y-43680800D01*
X169354200Y-43680800D01*
X169354200Y-46119200D01*
G37*
%TO.C,D10*%
D12*
X189213458Y-97980000D02*
G75*
G03*
X189213458Y-97980000I-476542J0D01*
G01*
%TD*%
D13*
%TO.C,D9*%
X190461000Y-53625000D03*
D14*
X185889000Y-53625000D03*
%TD*%
D13*
%TO.C,D8*%
X181711000Y-53650000D03*
D14*
X177139000Y-53650000D03*
%TD*%
D13*
%TO.C,D7*%
X172925000Y-53575000D03*
D14*
X168353000Y-53575000D03*
%TD*%
D13*
%TO.C,D6*%
X190586000Y-44700000D03*
D14*
X186014000Y-44700000D03*
%TD*%
D13*
%TO.C,D5*%
X182061000Y-44650000D03*
D14*
X177489000Y-44650000D03*
%TD*%
D13*
%TO.C,D4*%
X172961000Y-44900000D03*
D14*
X168389000Y-44900000D03*
%TD*%
D15*
%TO.C,J2*%
X168650000Y-103230000D03*
D16*
X168650000Y-100690000D03*
X168650000Y-98150000D03*
X168650000Y-95610000D03*
%TD*%
D17*
%TO.C,D10*%
X186980000Y-97200000D03*
X190510000Y-97200000D03*
X190540000Y-98650000D03*
X186990000Y-98640000D03*
%TD*%
D18*
%TO.C,X1*%
X192860000Y-30100000D03*
D19*
X192860000Y-32640000D03*
D18*
X195400000Y-30100000D03*
X195400000Y-32640000D03*
D20*
X197940000Y-30100000D03*
X197940000Y-32640000D03*
%TD*%
D21*
%TO.C,REF\u002A\u002A*%
X178175000Y-18975000D03*
%TD*%
D22*
%TO.C,SW_Reset1*%
X176425000Y-27250000D03*
X173025000Y-27250000D03*
%TD*%
D23*
%TO.C,R2*%
X190675000Y-154350000D03*
X193475000Y-154350000D03*
%TD*%
D24*
%TO.C,D3*%
X181925000Y-34050000D03*
X181925000Y-37350000D03*
X177025000Y-37350000D03*
X177025000Y-34050000D03*
%TD*%
D25*
%TO.C,D11*%
X171675000Y-149700000D03*
X173575000Y-149700000D03*
X172625000Y-151575000D03*
%TD*%
D26*
%TO.C,J1*%
X154025000Y-89870800D03*
X154025000Y-93400000D03*
%TD*%
%TO.C,J4*%
X153875000Y-137500000D03*
X153875000Y-141029200D03*
%TD*%
%TO.C,J3*%
X204325000Y-93654200D03*
X204325000Y-90125000D03*
%TD*%
D23*
%TO.C,D2*%
X187175000Y-141725000D03*
X189975000Y-141725000D03*
%TD*%
D27*
%TO.C,C5*%
X160537500Y-145025000D03*
X158662500Y-145025000D03*
%TD*%
D28*
%TO.C,RN2*%
X194925000Y-50800000D03*
D29*
X194925000Y-50000000D03*
X194925000Y-49200000D03*
D28*
X194925000Y-48400000D03*
X196725000Y-48400000D03*
D29*
X196725000Y-49200000D03*
X196725000Y-50000000D03*
D28*
X196725000Y-50800000D03*
%TD*%
D30*
%TO.C,OLED1*%
X158175000Y-42755000D03*
D16*
X158175000Y-45295000D03*
X158175000Y-47835000D03*
X158175000Y-50375000D03*
%TD*%
D27*
%TO.C,C3*%
X193512500Y-144325000D03*
X191637500Y-144325000D03*
%TD*%
D31*
%TO.C,R6*%
X186950000Y-150925000D03*
X184150000Y-150925000D03*
%TD*%
D23*
%TO.C,R5*%
X169400000Y-39175000D03*
X172200000Y-39175000D03*
%TD*%
D28*
%TO.C,RN1*%
X191475000Y-87500000D03*
D29*
X191475000Y-86700000D03*
X191475000Y-85900000D03*
D28*
X191475000Y-85100000D03*
X193275000Y-85100000D03*
D29*
X193275000Y-85900000D03*
X193275000Y-86700000D03*
D28*
X193275000Y-87500000D03*
%TD*%
D31*
%TO.C,F1*%
X190125000Y-136350000D03*
X187325000Y-136350000D03*
%TD*%
D22*
%TO.C,SW1*%
X183575000Y-27275000D03*
X180175000Y-27275000D03*
%TD*%
D31*
%TO.C,R10*%
X163550000Y-148500000D03*
X160750000Y-148500000D03*
%TD*%
D23*
%TO.C,R8*%
X183875000Y-147475000D03*
X186675000Y-147475000D03*
%TD*%
D32*
%TO.C,U2*%
X164145000Y-72350000D03*
X165545000Y-72350000D03*
X166945000Y-72350000D03*
X164145000Y-70950000D03*
X165545000Y-70950000D03*
X166945000Y-70950000D03*
X164145000Y-69550000D03*
X165545000Y-69550000D03*
X166945000Y-69550000D03*
D33*
X157825000Y-81200000D03*
X159095000Y-81200000D03*
X160365000Y-81200000D03*
X161635000Y-81200000D03*
X162905000Y-81200000D03*
X164175000Y-81200000D03*
X165445000Y-81200000D03*
X166715000Y-81200000D03*
X167985000Y-81200000D03*
X169255000Y-81200000D03*
X170525000Y-81200000D03*
X171795000Y-81200000D03*
X173065000Y-81200000D03*
X174335000Y-81200000D03*
D24*
X175585000Y-79435000D03*
X175585000Y-78165000D03*
X175585000Y-76895000D03*
X175585000Y-75625000D03*
X175585000Y-74355000D03*
X175585000Y-73085000D03*
X175585000Y-71815000D03*
X175585000Y-70545000D03*
X175585000Y-69275000D03*
X175585000Y-68005000D03*
X175585000Y-66735000D03*
X175585000Y-65465000D03*
D34*
X174335000Y-63700000D03*
X173065000Y-63700000D03*
X171795000Y-63700000D03*
X170525000Y-63700000D03*
X169255000Y-63700000D03*
X167985000Y-63700000D03*
X166715000Y-63700000D03*
X165445000Y-63700000D03*
X164175000Y-63700000D03*
X162905000Y-63700000D03*
X161635000Y-63700000D03*
X160365000Y-63700000D03*
X159095000Y-63700000D03*
X157825000Y-63700000D03*
%TD*%
D35*
%TO.C,U1*%
X191960000Y-127775000D03*
X190690000Y-127775000D03*
X189420000Y-127775000D03*
X188150000Y-127775000D03*
X188150000Y-122275000D03*
X189420000Y-122275000D03*
X190690000Y-122275000D03*
X191960000Y-122275000D03*
%TD*%
D26*
%TO.C,J5*%
X204325000Y-141050000D03*
X204325000Y-137520800D03*
%TD*%
D36*
%TO.C,C7*%
X161812500Y-51450000D03*
X163687500Y-51450000D03*
%TD*%
D37*
%TO.C,SW2*%
X200877628Y-147014969D03*
X198963712Y-145909969D03*
D38*
X198850000Y-148326924D03*
X197350000Y-150925000D03*
D37*
X197227628Y-153336955D03*
X195313712Y-152231955D03*
D39*
X197700796Y-146797405D03*
X196200796Y-149395481D03*
X195450796Y-150694519D03*
%TD*%
D27*
%TO.C,C8*%
X165087500Y-155525000D03*
X163212500Y-155525000D03*
%TD*%
D36*
%TO.C,C2*%
X194287500Y-127225000D03*
X196162500Y-127225000D03*
%TD*%
D40*
%TO.C,U4*%
X168562500Y-146275000D03*
X167612500Y-146275000D03*
X166662500Y-146275000D03*
X166662500Y-143675000D03*
X168562500Y-143675000D03*
%TD*%
D31*
%TO.C,R12*%
X163475000Y-152075000D03*
X160675000Y-152075000D03*
%TD*%
D41*
%TO.C,C4*%
X169150000Y-137275000D03*
X165900000Y-137275000D03*
%TD*%
D42*
%TO.C,BT1*%
X178225000Y-145325000D03*
D43*
X178250000Y-132200000D03*
X178225000Y-101900000D03*
D42*
X178225000Y-88725000D03*
%TD*%
D36*
%TO.C,C6*%
X161675000Y-56825000D03*
X163550000Y-56825000D03*
%TD*%
D23*
%TO.C,D1*%
X186100000Y-157125000D03*
X188900000Y-157125000D03*
%TD*%
%TO.C,R1*%
X158950000Y-35525000D03*
X161750000Y-35525000D03*
%TD*%
D36*
%TO.C,C1*%
X164687500Y-35625000D03*
X166562500Y-35625000D03*
%TD*%
D31*
%TO.C,R3*%
X173575000Y-146125000D03*
X170775000Y-146125000D03*
%TD*%
D44*
%TO.C,J6*%
X181815000Y-157512500D03*
X176035000Y-157512500D03*
D45*
X182250000Y-156312500D03*
X181450000Y-156312500D03*
X180175000Y-156312500D03*
X179175000Y-156312500D03*
X178675000Y-156312500D03*
X180675000Y-156312500D03*
X176400000Y-156312500D03*
X175600000Y-156312500D03*
X175850000Y-156312500D03*
X176650000Y-156312500D03*
X177175000Y-156312500D03*
X178175000Y-156312500D03*
X179675000Y-156312500D03*
X177675000Y-156312500D03*
X181200000Y-156312500D03*
X182000000Y-156312500D03*
D46*
X183245000Y-161162500D03*
D47*
X183245000Y-157012500D03*
D46*
X174605000Y-161162500D03*
D47*
X174605000Y-157012500D03*
%TD*%
D48*
%TO.C,U3*%
X199875000Y-139950000D03*
X197575000Y-139950000D03*
X195275000Y-139950000D03*
D49*
X197575000Y-133650000D03*
%TD*%
D31*
%TO.C,R4*%
X162900000Y-140575000D03*
X160100000Y-140575000D03*
%TD*%
M02*
