M48
; DRILL file {KiCad 7.0.2} date Mon Jul 17 20:56:43 2023
; FORMAT={-:-/ absolute / inch / decimal}
; #@! TF.CreationDate,2023-07-17T20:56:43-05:00
; #@! TF.GenerationSoftware,Kicad,Pcbnew,7.0.2
; #@! TF.FileFunction,Plated,1,2,PTH
FMAT,2
INCH
; #@! TA.AperFunction,Plated,PTH,ViaDrill
T1C0.0157
; #@! TA.AperFunction,Plated,PTH,ComponentDrill
T2C0.0236
; #@! TA.AperFunction,Plated,PTH,ComponentDrill
T3C0.0394
; #@! TA.AperFunction,Plated,PTH,ComponentDrill
T4C0.0400
; #@! TA.AperFunction,Plated,PTH,ComponentDrill
T5C0.1772
%
G90
G05
T1
X6.2037Y-3.6772
X6.2283Y-3.8012
X6.2303Y-3.5394
X6.2539Y-2.8927
X6.3396Y-3.8749
X6.3401Y-3.4085
X6.344Y-3.5369
X6.3612Y-2.5906
X6.3652Y-1.3012
X6.4173Y-1.6181
X6.4419Y-3.2717
X6.4626Y-2.4222
X6.4695Y-1.7264
X6.4911Y-2.7687
X6.4931Y-2.3858
X6.499Y-2.3159
X6.5098Y-5.8543
X6.5148Y-1.6496
X6.5728Y-2.3159
X6.6102Y-4.9744
X6.6339Y-2.9035
X6.6772Y-1.9301
X6.6784Y-2.4103
X6.6821Y-2.9941
X6.6919Y-3.0531
X6.7303Y-2.3483
X6.7648Y-2.3947
X6.7648Y-6.1299
X6.7677Y-6.2343
X6.7795Y-2.6102
X6.7815Y-4.3435
X6.813Y-2.4311
X6.8258Y-4.8612
X6.8425Y-2.8278
X6.875Y-4.6998
X6.938Y-3.6614
X6.9449Y-4.8297
X6.9516Y-4.7725
X6.9675Y-4.4518
X6.9695Y-4.7185
X6.9715Y-4.3917
X6.9823Y-2.6427
X7.0086Y-2.7167
X7.0295Y-4.8081
X7.0492Y-4.748
X7.0502Y-2.4262
X7.0817Y-4.5325
X7.1033Y-2.3839
X7.1191Y-2.5492
X7.1358Y-3.5472
X7.1614Y-4.7844
X7.1673Y-2.001
X7.1959Y-1.8642
X7.2195Y-1.3976
X7.2815Y-2.997
X7.2835Y-4.6575
X7.2982Y-6.3642
X7.313Y-1.9439
X7.3258Y-1.3967
X7.3406Y-4.7215
X7.3474Y-4.3228
X7.3514Y-2.7508
X7.3986Y-4.7274
X7.4038Y-2.7337
X7.437Y-4.7224
X7.4931Y-4.7274
X7.499Y-2.8268
X7.5079Y-1.8425
X7.5256Y-2.9723
X7.5837Y-2.877
X7.5876Y-2.5344
X7.5915Y-2.0797
X7.5994Y-3.1112
X7.6053Y-4.8799
X7.6398Y-2.0679
X7.6496Y-4.7982
X7.6835Y-3.1059
X7.6846Y-5.7303
X7.6884Y-3.4174
X7.7116Y-3.2224
X7.7149Y-3.503
X7.7293Y-2.6083
X7.749Y-5.6831
X7.7569Y-2.3996
X7.7697Y-3.503
X7.8081Y-3.4252
X7.8848Y-3.5354
T3
X6.2274Y-1.6833
X6.2274Y-1.7833
X6.2274Y-1.8833
X6.2274Y-1.9833
T4
X7.5929Y-1.185
X7.5929Y-1.285
X7.6929Y-1.185
X7.6929Y-1.285
X7.7929Y-1.185
X7.7929Y-1.285
T5
X7.0148Y-0.747
T2
G00X6.8742Y-6.2032
M15
G01X6.8742Y-6.1599
M16
G05
G00X6.8742Y-6.3607
M15
G01X6.8742Y-6.3292
M16
G05
G00X7.2144Y-6.2032
M15
G01X7.2144Y-6.1599
M16
G05
G00X7.2144Y-6.3607
M15
G01X7.2144Y-6.3292
M16
G05
T0
M30
