%TF.GenerationSoftware,KiCad,Pcbnew,7.0.2*%
%TF.CreationDate,2023-07-17T20:56:39-05:00*%
%TF.ProjectId,BSidesKC23,42536964-6573-44b4-9332-332e6b696361,1.0*%
%TF.SameCoordinates,Original*%
%TF.FileFunction,Profile,NP*%
%FSLAX46Y46*%
G04 Gerber Fmt 4.6, Leading zero omitted, Abs format (unit mm)*
G04 Created by KiCad (PCBNEW 7.0.2) date 2023-07-17 20:56:39*
%MOMM*%
%LPD*%
G01*
G04 APERTURE LIST*
%TA.AperFunction,Profile*%
%ADD10C,0.100000*%
%TD*%
G04 APERTURE END LIST*
D10*
X153950000Y-143325000D02*
X153650000Y-143300000D01*
X154250000Y-143300000D02*
X153950000Y-143325000D01*
X154550000Y-143250000D02*
X154250000Y-143300000D01*
X154767300Y-143161500D02*
X154550000Y-143250000D01*
X202800000Y-135200000D02*
X202796000Y-135073500D01*
X202525000Y-135400000D02*
X202800000Y-135200000D01*
X202475000Y-134975000D02*
X202525000Y-135400000D01*
X202380000Y-134484500D02*
X202475000Y-134975000D01*
X202796000Y-95426800D02*
X202796000Y-135073500D01*
X153450500Y-143274500D02*
X153650000Y-143300000D01*
X152528700Y-95624900D02*
X152528700Y-135271500D01*
X197609000Y-154711500D02*
X198173000Y-153977500D01*
X197466000Y-154889500D02*
X197609000Y-154711500D01*
X196835000Y-155632500D02*
X197466000Y-154889500D01*
X159420000Y-154224500D02*
X159882000Y-154813500D01*
X156725900Y-149744500D02*
X157210600Y-150732500D01*
X155011500Y-144543500D02*
X155258700Y-145615500D01*
X152175100Y-142504500D02*
X152319400Y-142662500D01*
X152477900Y-142807500D02*
X152650100Y-142936500D01*
X157743000Y-151703500D02*
X157761000Y-151734500D01*
X151933700Y-142147500D02*
X152046100Y-142332500D01*
X152650100Y-142936500D02*
X152834600Y-143048500D01*
X158552000Y-153005500D02*
X158977000Y-153621500D01*
X157742000Y-151701500D02*
X157743000Y-151703500D01*
X151839100Y-141951500D02*
X151933700Y-142147500D01*
X154767300Y-143161500D02*
X155011500Y-144543500D01*
X152834600Y-143048500D02*
X153030300Y-143143500D01*
X151763400Y-141745500D02*
X151839100Y-141951500D01*
X159882000Y-154813500D02*
X160361000Y-155387500D01*
X158147000Y-152376500D02*
X158552000Y-153005500D01*
X156288000Y-148737500D02*
X156725900Y-149744500D01*
X155258700Y-145615500D02*
X155554100Y-146672500D01*
X152319400Y-142662500D02*
X152477900Y-142807500D01*
X153236000Y-143218500D02*
X153450500Y-143274500D01*
X157761000Y-151734500D02*
X158147000Y-152376500D01*
X158977000Y-153621500D02*
X159420000Y-154224500D01*
X155554100Y-146672500D02*
X155897300Y-147713500D01*
X152046100Y-142332500D02*
X152175100Y-142504500D01*
X155897300Y-147713500D02*
X156288000Y-148737500D01*
X153030300Y-143143500D02*
X153236000Y-143218500D01*
X157210600Y-150732500D02*
X157742000Y-151701500D01*
X197466000Y-154889500D02*
X197466000Y-154889500D01*
X198173000Y-153977500D02*
X198705000Y-153230500D01*
X160266000Y-123761500D02*
X159864000Y-124244500D01*
X168834000Y-117333500D02*
X168017000Y-117717500D01*
X169665000Y-116980500D02*
X168834000Y-117333500D01*
X173990000Y-115694500D02*
X173105000Y-115887500D01*
X157429100Y-127888500D02*
X157136100Y-128444500D01*
X158057000Y-126802500D02*
X157735900Y-127340500D01*
X163439000Y-120660500D02*
X162738000Y-121253500D01*
X164898000Y-119559500D02*
X164159000Y-120095500D01*
X158739000Y-125751500D02*
X158391000Y-126272500D01*
X160681000Y-123287500D02*
X160266000Y-123761500D01*
X155512300Y-95242400D02*
X155656900Y-95083600D01*
X156220800Y-130458500D02*
X155959300Y-131140500D01*
X156857200Y-129008500D02*
X156592400Y-129581500D01*
X167214000Y-118132500D02*
X166426000Y-118578500D01*
X173105000Y-115887500D02*
X172229000Y-116111500D01*
X159101000Y-125239500D02*
X158739000Y-125751500D01*
X162005000Y-121923500D02*
X162005000Y-121924500D01*
X166426000Y-118578500D02*
X165653000Y-119054500D01*
X155719200Y-131828500D02*
X155500400Y-132522500D01*
X155303000Y-133221500D02*
X155303000Y-95426800D01*
X162007000Y-121921500D02*
X162005000Y-121923500D01*
X161551000Y-122368500D02*
X161109000Y-122823500D01*
X155959300Y-131140500D02*
X155719200Y-131828500D01*
X158391000Y-126272500D02*
X158057000Y-126802500D01*
X157136100Y-128444500D02*
X156857200Y-129008500D01*
X162738000Y-121253500D02*
X162056000Y-121876500D01*
X173938000Y-115344500D02*
X174884000Y-115535500D01*
X155500400Y-132522500D02*
X155303000Y-133221500D01*
X156592400Y-129581500D02*
X156341700Y-130163500D01*
X161109000Y-122823500D02*
X160681000Y-123287500D01*
X157735900Y-127340500D02*
X157429100Y-127888500D01*
X171363000Y-116369500D02*
X170508000Y-116659500D01*
X168017000Y-117717500D02*
X167214000Y-118132500D01*
X172229000Y-116111500D02*
X171363000Y-116369500D01*
X159476000Y-124737500D02*
X159101000Y-125239500D01*
X155303000Y-95426800D02*
X155512300Y-95242400D01*
X156341700Y-130163500D02*
X156220800Y-130458500D01*
X165653000Y-119054500D02*
X164898000Y-119559500D01*
X164159000Y-120095500D02*
X163439000Y-120660500D01*
X155656900Y-95083600D02*
X155786200Y-94911100D01*
X159864000Y-124244500D02*
X159476000Y-124737500D01*
X170508000Y-116659500D02*
X169665000Y-116980500D01*
X162056000Y-121876500D02*
X162007000Y-121921500D01*
X174884000Y-115535500D02*
X173990000Y-115694500D01*
X162005000Y-121924500D02*
X161551000Y-122368500D01*
X170306000Y-114213500D02*
X171190000Y-114549500D01*
X171190000Y-114549500D02*
X172090000Y-114851500D01*
X173007000Y-115116500D02*
X173938000Y-115344500D01*
X172090000Y-114851500D02*
X173007000Y-115116500D01*
X182879000Y-115601500D02*
X183840000Y-115423500D01*
X163239000Y-109747100D02*
X163935000Y-110361500D01*
X194021000Y-110509000D02*
X194731000Y-109894300D01*
X193287000Y-111095200D02*
X194021000Y-110509000D01*
X184676000Y-115984500D02*
X183781000Y-115775500D01*
X162568000Y-109105800D02*
X163239000Y-109747100D01*
X156259900Y-97781100D02*
X156493900Y-98710200D01*
X186635000Y-114659500D02*
X187534000Y-114331500D01*
X155905200Y-95880800D02*
X156063400Y-96837700D01*
X198427000Y-105657600D02*
X198941000Y-104868000D01*
X197308000Y-107168600D02*
X197882000Y-106424700D01*
X161922000Y-108438700D02*
X162568000Y-109105800D01*
X184678000Y-115984500D02*
X184676000Y-115984500D01*
X160712000Y-107029800D02*
X161303000Y-107746400D01*
X202339000Y-94947800D02*
X202339000Y-94947800D01*
X201615000Y-98785100D02*
X201854000Y-97847000D01*
X184787000Y-115205500D02*
X185719000Y-114951500D01*
X157788000Y-102266500D02*
X158197000Y-103111500D01*
X156764600Y-99624100D02*
X157071000Y-100522100D01*
X195415000Y-109252100D02*
X196073000Y-108583200D01*
X190122000Y-113138800D02*
X190946000Y-112674800D01*
X202339000Y-94947900D02*
X202339000Y-94947800D01*
X200292000Y-102373200D02*
X200676000Y-101502500D01*
X169440000Y-113843400D02*
X170306000Y-114213500D01*
X196073000Y-108583200D02*
X196704000Y-107888400D01*
X168592000Y-113439600D02*
X169440000Y-113843400D01*
X165400000Y-111506800D02*
X166166000Y-112036000D01*
X158638000Y-103937100D02*
X159111000Y-104742600D01*
X159615000Y-105527000D02*
X160149000Y-106289700D01*
X189279000Y-113570100D02*
X190122000Y-113138800D01*
X199875000Y-103225000D02*
X200292000Y-102373200D01*
X167763000Y-113003200D02*
X168592000Y-113439600D01*
X201025000Y-100613700D02*
X201338000Y-99707600D01*
X166954000Y-112535000D02*
X167763000Y-113003200D01*
X158197000Y-103111500D02*
X158638000Y-103937100D01*
X164656000Y-110948400D02*
X165400000Y-111506800D01*
X155786100Y-94911100D02*
X155905200Y-95880800D01*
X156493900Y-98710200D02*
X156764600Y-99624100D01*
X188415000Y-113967800D02*
X189279000Y-113570100D01*
X166166000Y-112036000D02*
X166954000Y-112535000D01*
X198941000Y-104868000D02*
X199424000Y-104056800D01*
X163935000Y-110361500D02*
X164656000Y-110948400D01*
X161303000Y-107746400D02*
X161922000Y-108438700D01*
X159111000Y-104742600D02*
X159615000Y-105527000D01*
X157071000Y-100522100D02*
X157412500Y-101403100D01*
X156063400Y-96837700D02*
X156259900Y-97781100D01*
X201338000Y-99707600D02*
X201615000Y-98785100D01*
X191748000Y-112179000D02*
X192529000Y-111652200D01*
X187534000Y-114331500D02*
X188415000Y-113967800D01*
X183781000Y-115775500D02*
X182879000Y-115601500D01*
X194731000Y-109894300D02*
X195415000Y-109252100D01*
X190946000Y-112674800D02*
X191748000Y-112179000D01*
X202217000Y-95927500D02*
X202339000Y-94947900D01*
X160149000Y-106289700D02*
X160712000Y-107029800D01*
X157412500Y-101403100D02*
X157788000Y-102266500D01*
X202055000Y-96894200D02*
X202217000Y-95927500D01*
X196704000Y-107888400D02*
X197308000Y-107168600D01*
X197882000Y-106424700D02*
X198427000Y-105657600D01*
X201854000Y-97847000D02*
X202055000Y-96894200D01*
X185719000Y-114951500D02*
X186635000Y-114659500D01*
X192529000Y-111652200D02*
X193287000Y-111095200D01*
X199424000Y-104056800D02*
X199875000Y-103225000D01*
X183840000Y-115423500D02*
X184787000Y-115205500D01*
X200676000Y-101502500D02*
X201025000Y-100613700D01*
X185835000Y-116311500D02*
X184827000Y-116023500D01*
X186832000Y-116644500D02*
X185835000Y-116311500D01*
X187814000Y-117021500D02*
X186832000Y-116644500D01*
X184827000Y-116023500D02*
X184678000Y-115984500D01*
X191505000Y-17970160D02*
X190345000Y-17611810D01*
X188779000Y-117440500D02*
X188778000Y-117440500D01*
X189089000Y-117585500D02*
X188779000Y-117440500D01*
X197072000Y-20334390D02*
X197071000Y-20333880D01*
X200478000Y-128910500D02*
X200406000Y-128763500D01*
X202380000Y-134484500D02*
X202194000Y-133665500D01*
X190883000Y-118538500D02*
X189998000Y-118043500D01*
X202194000Y-133665500D02*
X201980000Y-132854500D01*
X198592000Y-21375640D02*
X198107000Y-20990640D01*
X189090000Y-117585500D02*
X189089000Y-117585500D01*
X202456000Y-95100600D02*
X202586000Y-95242400D01*
X201737000Y-132050500D02*
X201465000Y-131253500D01*
X199430000Y-126980500D02*
X198888000Y-126123500D01*
X191747000Y-119069500D02*
X190883000Y-118538500D01*
X200480000Y-128913500D02*
X200479000Y-128912500D01*
X179496000Y-15975190D02*
X178270000Y-15959470D01*
X195994000Y-19782980D02*
X194898000Y-19271730D01*
X192652000Y-18365880D02*
X191505000Y-17970160D01*
X195683000Y-122225500D02*
X194950000Y-121531500D01*
X189998000Y-118043500D02*
X189090000Y-117585500D01*
X196387000Y-122950500D02*
X195683000Y-122225500D01*
X200406000Y-128763500D02*
X200405000Y-128762500D01*
X183164000Y-16214920D02*
X181944000Y-16102350D01*
X184380000Y-16360890D02*
X183164000Y-16214920D01*
X197071000Y-20333880D02*
X195994000Y-19782980D01*
X192586000Y-119634500D02*
X191747000Y-119069500D01*
X202586000Y-95242400D02*
X202796000Y-95426800D01*
X194189000Y-120866500D02*
X193400000Y-120234500D01*
X185590000Y-16540850D02*
X184380000Y-16360890D01*
X189172000Y-17290270D02*
X187987000Y-17004980D01*
X201465000Y-131253500D02*
X201165000Y-130465500D01*
X200478000Y-128913500D02*
X200480000Y-128913500D01*
X202339000Y-94947800D02*
X202456000Y-95100600D01*
X186793000Y-16755360D02*
X185590000Y-16540850D01*
X198888000Y-126123500D02*
X198312000Y-125291500D01*
X200479000Y-128912500D02*
X200478000Y-128910500D01*
X187987000Y-17004980D02*
X186793000Y-16755360D01*
X193400000Y-120234500D02*
X192586000Y-119634500D01*
X190345000Y-17611810D02*
X189172000Y-17290270D01*
X178270000Y-15959470D02*
X178270000Y-15959470D01*
X199936000Y-127860500D02*
X199430000Y-126980500D01*
X197060000Y-123703500D02*
X196387000Y-122950500D01*
X198312000Y-125291500D02*
X197703000Y-124484500D01*
X200836000Y-129685500D02*
X200478000Y-128913500D01*
X199902000Y-22710440D02*
X199490000Y-22239510D01*
X178270000Y-15959470D02*
X178270000Y-15959470D01*
X181944000Y-16102350D02*
X180721000Y-16022630D01*
X198107000Y-20990640D02*
X197600000Y-20642240D01*
X199490000Y-22239510D02*
X199053000Y-21793250D01*
X201165000Y-130465500D02*
X200836000Y-129685500D01*
X200405000Y-128762500D02*
X199936000Y-127860500D01*
X180721000Y-16022630D02*
X179496000Y-15975190D01*
X194950000Y-121531500D02*
X194189000Y-120866500D01*
X199053000Y-21793250D02*
X198592000Y-21375640D01*
X197703000Y-124484500D02*
X197060000Y-123703500D01*
X201980000Y-132854500D02*
X201737000Y-132050500D01*
X197600000Y-20642240D02*
X197072000Y-20334390D01*
X193783000Y-18799550D02*
X192652000Y-18365880D01*
X194898000Y-19271730D02*
X193783000Y-18799550D01*
X188778000Y-117440500D02*
X187814000Y-117021500D01*
X200975000Y-24232300D02*
X200645000Y-23710410D01*
X201275000Y-24763400D02*
X200975000Y-24232300D01*
X200287000Y-23202070D02*
X199902000Y-22710440D01*
X200645000Y-23710410D02*
X200287000Y-23202070D01*
X206464000Y-93859100D02*
X206464000Y-89815400D01*
X206453000Y-89587100D02*
X206418000Y-89365100D01*
X205476000Y-87960400D02*
X205292000Y-87848000D01*
X206363000Y-89150600D02*
X206287000Y-88944800D01*
X206418000Y-136587500D02*
X206363000Y-136372500D01*
X205951000Y-142504500D02*
X206080000Y-142332500D01*
X206080000Y-88564400D02*
X205951000Y-88392200D01*
X206080000Y-142332500D02*
X206193000Y-142147500D01*
X202391000Y-88474400D02*
X202391000Y-42362000D01*
X203731000Y-87622100D02*
X203517000Y-87677600D01*
X206080000Y-95109700D02*
X206193000Y-94925200D01*
X206287000Y-141951500D02*
X206363000Y-141745500D01*
X206080000Y-135786500D02*
X205951000Y-135614500D01*
X201544000Y-25300300D02*
X201275000Y-24763400D01*
X201782000Y-25839300D02*
X201544000Y-25300300D01*
X206464000Y-137037500D02*
X206453000Y-136809500D01*
X202387000Y-27946800D02*
X202290000Y-27434300D01*
X206418000Y-94309300D02*
X206453000Y-94087400D01*
X202600000Y-88233600D02*
X202391000Y-88474400D01*
X205292000Y-87848000D02*
X205096000Y-87753300D01*
X206363000Y-94523800D02*
X206418000Y-94309300D01*
X203311000Y-87753300D02*
X203115000Y-87848000D01*
X202290000Y-27434300D02*
X202156000Y-26909800D01*
X205807000Y-95440400D02*
X205951000Y-95281900D01*
X206363000Y-136372500D02*
X206287000Y-136166500D01*
X202391000Y-27974200D02*
X202387000Y-27946800D01*
X203517000Y-87677600D02*
X203311000Y-87753300D01*
X202391000Y-28001600D02*
X202391000Y-27974200D01*
X202931000Y-87960400D02*
X202758000Y-88089300D01*
X204890000Y-87677600D02*
X204675000Y-87622100D01*
X202391000Y-42362000D02*
X202391000Y-28001600D01*
X206363000Y-141745500D02*
X206418000Y-141531500D01*
X206418000Y-89365100D02*
X206363000Y-89150600D01*
X206464000Y-141081500D02*
X206464000Y-137037500D01*
X206193000Y-94925200D02*
X206287000Y-94729400D01*
X205951000Y-95281900D02*
X206080000Y-95109700D01*
X205951000Y-135614500D02*
X205807000Y-135455500D01*
X206453000Y-136809500D02*
X206418000Y-136587500D01*
X204182000Y-87576300D02*
X203953000Y-87587900D01*
X205648000Y-88089300D02*
X205476000Y-87960400D01*
X204453000Y-87587900D02*
X204225000Y-87576300D01*
X206287000Y-94729400D02*
X206363000Y-94523800D01*
X206193000Y-135970500D02*
X206080000Y-135786500D01*
X206453000Y-94087400D02*
X206464000Y-93859100D01*
X205598000Y-95624900D02*
X205807000Y-95440400D01*
X206464000Y-89815400D02*
X206453000Y-89587100D01*
X205951000Y-88392200D02*
X205807000Y-88233600D01*
X201986000Y-26377000D02*
X201782000Y-25839300D01*
X202156000Y-26909800D02*
X201986000Y-26377000D01*
X203953000Y-87587900D02*
X203731000Y-87622100D01*
X202758000Y-88089300D02*
X202600000Y-88233600D01*
X206453000Y-141309500D02*
X206464000Y-141081500D01*
X206418000Y-141531500D02*
X206453000Y-141309500D01*
X206287000Y-88944800D02*
X206193000Y-88749000D01*
X206287000Y-136166500D02*
X206193000Y-135970500D01*
X205807000Y-135455500D02*
X205598000Y-135271500D01*
X204675000Y-87622100D02*
X204453000Y-87587900D01*
X205096000Y-87753300D02*
X204890000Y-87677600D01*
X203115000Y-87848000D02*
X202931000Y-87960400D01*
X206193000Y-142147500D02*
X206287000Y-141951500D01*
X206193000Y-88749000D02*
X206080000Y-88564400D01*
X204225000Y-87576300D02*
X204182000Y-87576300D01*
X205598000Y-135271500D02*
X205598000Y-95624900D01*
X205807000Y-88233600D02*
X205648000Y-88089300D01*
X204675000Y-143274500D02*
X204890000Y-143218500D01*
X201786000Y-146887500D02*
X201961000Y-146306500D01*
X200989000Y-149046500D02*
X201282000Y-148323500D01*
X201596000Y-147465500D02*
X201596000Y-147464500D01*
X205291000Y-143048500D02*
X205476000Y-142936500D01*
X203971000Y-143310500D02*
X204182000Y-143320500D01*
X203765000Y-143281500D02*
X203971000Y-143310500D01*
X202121000Y-145722500D02*
X202266000Y-145135500D01*
X201282000Y-148323500D02*
X201551000Y-147591500D01*
X202511000Y-143950500D02*
X202612000Y-143353500D01*
X201551000Y-147591500D02*
X201596000Y-147465500D01*
X203566000Y-143233500D02*
X203765000Y-143281500D01*
X205096000Y-143143500D02*
X205291000Y-143048500D01*
X204890000Y-143218500D02*
X205096000Y-143143500D01*
X203374000Y-143168500D02*
X203566000Y-143233500D01*
X201961000Y-146306500D02*
X202121000Y-145722500D01*
X204225000Y-143320500D02*
X204453000Y-143308500D01*
X204453000Y-143308500D02*
X204675000Y-143274500D01*
X203015000Y-142990500D02*
X203190000Y-143087500D01*
X202612000Y-143353500D02*
X202697000Y-142753500D01*
X202851000Y-142878500D02*
X203015000Y-142990500D01*
X202697000Y-142753500D02*
X202851000Y-142878500D01*
X205807000Y-142662500D02*
X205951000Y-142504500D01*
X200335000Y-150462500D02*
X200673000Y-149759500D01*
X203190000Y-143087500D02*
X203374000Y-143168500D01*
X202266000Y-145135500D02*
X202396000Y-144544500D01*
X205476000Y-142936500D02*
X205648000Y-142807500D01*
X204182000Y-143320500D02*
X204225000Y-143320500D01*
X202396000Y-144544500D02*
X202511000Y-143950500D01*
X201596000Y-147463500D02*
X201786000Y-146887500D01*
X201596000Y-147464500D02*
X201596000Y-147463500D01*
X200673000Y-149759500D02*
X200989000Y-149046500D01*
X205648000Y-142807500D02*
X205807000Y-142662500D01*
X192474000Y-159513500D02*
X193020000Y-159122500D01*
X189029000Y-161512500D02*
X189623000Y-161220500D01*
X198758000Y-153152500D02*
X199185000Y-152499500D01*
X186584000Y-162509500D02*
X187206000Y-162285500D01*
X193020000Y-159122500D02*
X193343000Y-158880500D01*
X190787000Y-160587500D02*
X191357000Y-160246500D01*
X198706000Y-153229500D02*
X198757000Y-153155500D01*
X195483000Y-157043500D02*
X196173000Y-156351500D01*
X194722000Y-157747500D02*
X194766000Y-157707500D01*
X188428000Y-161786500D02*
X189029000Y-161512500D01*
X199973000Y-151153500D02*
X200335000Y-150462500D01*
X199590000Y-151832500D02*
X199973000Y-151153500D01*
X191919000Y-159888500D02*
X192474000Y-159513500D01*
X189623000Y-161220500D02*
X190208000Y-160912500D01*
X185955000Y-162715500D02*
X186584000Y-162509500D01*
X199185000Y-152499500D02*
X199590000Y-151832500D01*
X198757000Y-153154500D02*
X198758000Y-153152500D01*
X198757000Y-153155500D02*
X198757000Y-153154500D01*
X187206000Y-162285500D02*
X187821000Y-162044500D01*
X198705000Y-153230500D02*
X198706000Y-153229500D01*
X193343000Y-158880500D02*
X194042000Y-158326500D01*
X196173000Y-156351500D02*
X196835000Y-155632500D01*
X194766000Y-157707500D02*
X194767000Y-157707500D01*
X191357000Y-160246500D02*
X191919000Y-159888500D01*
X190208000Y-160912500D02*
X190787000Y-160587500D01*
X194767000Y-157707500D02*
X195483000Y-157043500D01*
X194042000Y-158326500D02*
X194722000Y-157747500D01*
X187821000Y-162044500D02*
X188428000Y-161786500D01*
X163007000Y-158024500D02*
X163583000Y-158502500D01*
X183376000Y-163370500D02*
X184030000Y-163232500D01*
X183375000Y-163370500D02*
X183376000Y-163370500D01*
X183189000Y-163406500D02*
X183375000Y-163370500D01*
X183188000Y-163406500D02*
X183189000Y-163406500D01*
X166301000Y-160396500D02*
X167009000Y-160804500D01*
X180956000Y-163719500D02*
X182076000Y-163589500D01*
X165397000Y-159826500D02*
X166029000Y-160230500D01*
X177885000Y-163810500D02*
X178704000Y-163824500D01*
X176257000Y-163700500D02*
X177069000Y-163769500D01*
X171487000Y-162722500D02*
X172266000Y-162951500D01*
X166029000Y-160230500D02*
X166301000Y-160396500D01*
X167729000Y-161187500D02*
X168460000Y-161545500D01*
X174644000Y-163481500D02*
X175448000Y-163604500D01*
X173052000Y-163154500D02*
X173845000Y-163331500D01*
X179831000Y-163798500D02*
X180956000Y-163719500D01*
X182076000Y-163589500D02*
X183188000Y-163406500D01*
X178704000Y-163824500D02*
X179831000Y-163798500D01*
X177069000Y-163769500D02*
X177885000Y-163810500D01*
X168460000Y-161545500D02*
X169203000Y-161878500D01*
X173845000Y-163331500D02*
X174644000Y-163481500D01*
X163583000Y-158502500D02*
X164174000Y-158961500D01*
X169955000Y-162185500D02*
X170717000Y-162466500D01*
X172266000Y-162951500D02*
X173052000Y-163154500D01*
X167009000Y-160804500D02*
X167729000Y-161187500D01*
X169203000Y-161878500D02*
X169955000Y-162185500D01*
X164778000Y-159403500D02*
X165397000Y-159826500D01*
X164174000Y-158961500D02*
X164778000Y-159403500D01*
X185320000Y-162905500D02*
X185955000Y-162715500D01*
X170717000Y-162466500D02*
X171487000Y-162722500D01*
X184678000Y-163077500D02*
X185320000Y-162905500D01*
X184030000Y-163232500D02*
X184678000Y-163077500D01*
X175448000Y-163604500D02*
X176257000Y-163700500D01*
X162446000Y-157529500D02*
X163007000Y-158024500D01*
X160857000Y-155946500D02*
X161371000Y-156490500D01*
X161900000Y-157018500D02*
X162446000Y-157529500D01*
X160361000Y-155387500D02*
X160857000Y-155946500D01*
X161371000Y-156490500D02*
X161900000Y-157018500D01*
X151673700Y-136809500D02*
X151662100Y-137037500D01*
X151707900Y-136586500D02*
X151673700Y-136809500D01*
X151763400Y-136372500D02*
X151707900Y-136586500D01*
X151662100Y-141080500D02*
X151673700Y-141309500D01*
X151662100Y-137037500D02*
X151662100Y-141080500D01*
X151839100Y-136166500D02*
X151763400Y-136372500D01*
X151707900Y-141531500D02*
X151763400Y-141745500D01*
X151673700Y-141309500D02*
X151707900Y-141531500D01*
X151933700Y-135970500D02*
X151839100Y-136166500D01*
X152175100Y-135614500D02*
X152046100Y-135786500D01*
X151662100Y-93859100D02*
X151673700Y-94087400D01*
X152046100Y-135786500D02*
X151933700Y-135970500D01*
X152046200Y-95109700D02*
X152175100Y-95281800D01*
X152319400Y-135455500D02*
X152175100Y-135614500D01*
X152528700Y-135271500D02*
X152319400Y-135455500D01*
X152319400Y-95440400D02*
X152528700Y-95624900D01*
X151673700Y-94087400D02*
X151707900Y-94309300D01*
X151839100Y-94729400D02*
X151933800Y-94925100D01*
X151707900Y-94309300D02*
X151763400Y-94523700D01*
X151662100Y-89815400D02*
X151662100Y-93859100D01*
X152175100Y-95281800D02*
X152319400Y-95440400D01*
X151933800Y-94925100D02*
X152046200Y-95109700D01*
X151763400Y-94523700D02*
X151839100Y-94729400D01*
X151933800Y-88749000D02*
X151839100Y-88944800D01*
X152175100Y-88392200D02*
X152046200Y-88564400D01*
X152319400Y-88233600D02*
X152175100Y-88392200D01*
X152478000Y-88089300D02*
X152319400Y-88233600D01*
X153672400Y-87587900D02*
X153450500Y-87622100D01*
X152650100Y-87960400D02*
X152478000Y-88089300D01*
X151707900Y-89365100D02*
X151673700Y-89587100D01*
X153900700Y-87576300D02*
X153672400Y-87587900D01*
X152046200Y-88564400D02*
X151933800Y-88749000D01*
X151673700Y-89587100D02*
X151662100Y-89815400D01*
X151763400Y-89150600D02*
X151707900Y-89365100D01*
X151839100Y-88944800D02*
X151763400Y-89150600D01*
X153450500Y-87622100D02*
X153236100Y-87677600D01*
X153030400Y-87753300D02*
X152834700Y-87848000D01*
X152834700Y-87848000D02*
X152650100Y-87960400D01*
X153236100Y-87677600D02*
X153030400Y-87753300D01*
X155367400Y-88089300D02*
X155195300Y-87960400D01*
X155680800Y-28084800D02*
X155677800Y-28108100D01*
X155677800Y-28108100D02*
X155677800Y-28131300D01*
X155677800Y-88401500D02*
X155525900Y-88233600D01*
X155677800Y-42232300D02*
X155677800Y-88401500D01*
X155525900Y-88233600D02*
X155367400Y-88089300D01*
X154172900Y-87587900D02*
X153944600Y-87576300D01*
X153944600Y-87576300D02*
X153900700Y-87576300D01*
X154815000Y-87753300D02*
X154609300Y-87677600D01*
X155893900Y-27035000D02*
X155767900Y-27566600D01*
X155767900Y-27566600D02*
X155680800Y-28084800D01*
X154394900Y-87622100D02*
X154172900Y-87587900D01*
X155677800Y-28131300D02*
X155677800Y-42232300D01*
X154609300Y-87677600D02*
X154394900Y-87622100D01*
X155010700Y-87848000D02*
X154815000Y-87753300D01*
X155195300Y-87960400D02*
X155010700Y-87848000D01*
X157754000Y-23253470D02*
X157392900Y-23773460D01*
X156761000Y-24849600D02*
X156492600Y-25397400D01*
X156057700Y-26493800D02*
X155893900Y-27035000D01*
X157392900Y-23773460D02*
X157061600Y-24307000D01*
X156257700Y-25946700D02*
X156057700Y-26493800D01*
X156492600Y-25397400D02*
X156257700Y-25946700D01*
X158144000Y-22750350D02*
X157754000Y-23253470D01*
X157061600Y-24307000D02*
X156761000Y-24849600D01*
X159473000Y-21384180D02*
X159004000Y-21811510D01*
X162011000Y-19811660D02*
X161022000Y-20320960D01*
X160483000Y-20634710D02*
X159966000Y-20990520D01*
X161022000Y-20320960D02*
X160483000Y-20634710D01*
X163017000Y-19331590D02*
X162011000Y-19811660D01*
X159966000Y-20990520D02*
X159473000Y-21384180D01*
X158561000Y-22268290D02*
X158144000Y-22750350D01*
X159004000Y-21811510D02*
X158561000Y-22268290D01*
X166125000Y-18071700D02*
X165075000Y-18461100D01*
X169346000Y-17092840D02*
X168261000Y-17387070D01*
X167187000Y-17713520D02*
X166125000Y-18071700D01*
X170440000Y-16831350D02*
X169346000Y-17092840D01*
X171542000Y-16603090D02*
X170440000Y-16831350D01*
X164038000Y-18881230D02*
X163017000Y-19331590D01*
X168261000Y-17387070D02*
X167187000Y-17713520D01*
X165075000Y-18461100D02*
X164038000Y-18881230D01*
X174888000Y-16122710D02*
X173767000Y-16248270D01*
X178270000Y-15959470D02*
X177140000Y-15977810D01*
X176012000Y-16032390D02*
X174888000Y-16122710D01*
X177140000Y-15977810D02*
X176012000Y-16032390D01*
X172651000Y-16408560D02*
X171542000Y-16603090D01*
X173767000Y-16248270D02*
X172651000Y-16408560D01*
M02*
