%TF.GenerationSoftware,KiCad,Pcbnew,7.0.1*%
%TF.CreationDate,2023-08-12T00:29:21-05:00*%
%TF.ProjectId,BSidesKC23,42536964-6573-44b4-9332-332e6b696361,1.1*%
%TF.SameCoordinates,Original*%
%TF.FileFunction,Soldermask,Bot*%
%TF.FilePolarity,Negative*%
%FSLAX46Y46*%
G04 Gerber Fmt 4.6, Leading zero omitted, Abs format (unit mm)*
G04 Created by KiCad (PCBNEW 7.0.1) date 2023-08-12 00:29:21*
%MOMM*%
%LPD*%
G01*
G04 APERTURE LIST*
G04 Aperture macros list*
%AMRoundRect*
0 Rectangle with rounded corners*
0 $1 Rounding radius*
0 $2 $3 $4 $5 $6 $7 $8 $9 X,Y pos of 4 corners*
0 Add a 4 corners polygon primitive as box body*
4,1,4,$2,$3,$4,$5,$6,$7,$8,$9,$2,$3,0*
0 Add four circle primitives for the rounded corners*
1,1,$1+$1,$2,$3*
1,1,$1+$1,$4,$5*
1,1,$1+$1,$6,$7*
1,1,$1+$1,$8,$9*
0 Add four rect primitives between the rounded corners*
20,1,$1+$1,$2,$3,$4,$5,0*
20,1,$1+$1,$4,$5,$6,$7,0*
20,1,$1+$1,$6,$7,$8,$9,0*
20,1,$1+$1,$8,$9,$2,$3,0*%
G04 Aperture macros list end*
%ADD10C,1.152495*%
%ADD11C,0.100000*%
%ADD12C,0.953085*%
%ADD13O,2.127200X2.127200*%
%ADD14RoundRect,0.200000X-0.863600X0.863600X-0.863600X-0.863600X0.863600X-0.863600X0.863600X0.863600X0*%
%ADD15C,2.127200*%
%ADD16R,1.955800X2.463800*%
%ADD17R,1.930400X2.438400*%
%ADD18RoundRect,0.200000X0.750000X0.500000X-0.750000X0.500000X-0.750000X-0.500000X0.750000X-0.500000X0*%
%ADD19C,5.400000*%
%ADD20RoundRect,0.200000X-0.850000X0.850000X-0.850000X-0.850000X0.850000X-0.850000X0.850000X0.850000X0*%
%ADD21O,2.100000X2.100000*%
%ADD22RoundRect,0.200000X0.974000X0.850000X-0.974000X0.850000X-0.974000X-0.850000X0.974000X-0.850000X0*%
%ADD23RoundRect,0.450000X-0.375000X-0.625000X0.375000X-0.625000X0.375000X0.625000X-0.375000X0.625000X0*%
%ADD24RoundRect,0.200000X0.750000X0.450000X-0.750000X0.450000X-0.750000X-0.450000X0.750000X-0.450000X0*%
%ADD25RoundRect,0.350000X-0.150000X0.587500X-0.150000X-0.587500X0.150000X-0.587500X0.150000X0.587500X0*%
%ADD26C,2.400000*%
%ADD27RoundRect,0.443750X0.243750X0.456250X-0.243750X0.456250X-0.243750X-0.456250X0.243750X-0.456250X0*%
%ADD28RoundRect,0.200000X-0.400000X-0.250000X0.400000X-0.250000X0.400000X0.250000X-0.400000X0.250000X0*%
%ADD29RoundRect,0.200000X-0.400000X-0.200000X0.400000X-0.200000X0.400000X0.200000X-0.400000X0.200000X0*%
%ADD30RoundRect,0.200000X0.850000X0.850000X-0.850000X0.850000X-0.850000X-0.850000X0.850000X-0.850000X0*%
%ADD31RoundRect,0.450000X0.375000X0.625000X-0.375000X0.625000X-0.375000X-0.625000X0.375000X-0.625000X0*%
%ADD32RoundRect,0.200000X-0.450000X0.750000X-0.450000X-0.750000X0.450000X-0.750000X0.450000X0.750000X0*%
%ADD33RoundRect,0.200000X0.450000X-0.750000X0.450000X0.750000X-0.450000X0.750000X-0.450000X-0.750000X0*%
%ADD34RoundRect,0.200000X0.450000X-0.450000X0.450000X0.450000X-0.450000X0.450000X-0.450000X-0.450000X0*%
%ADD35RoundRect,0.070000X0.325000X0.875000X-0.325000X0.875000X-0.325000X-0.875000X0.325000X-0.875000X0*%
%ADD36RoundRect,0.200000X-0.096410X0.633013X-0.596410X-0.233013X0.096410X-0.633013X0.596410X0.233013X0*%
%ADD37C,1.300000*%
%ADD38RoundRect,0.200000X-0.474519X0.678109X-0.824519X0.071891X0.474519X-0.678109X0.824519X-0.071891X0*%
%ADD39RoundRect,0.443750X-0.243750X-0.456250X0.243750X-0.456250X0.243750X0.456250X-0.243750X0.456250X0*%
%ADD40RoundRect,0.200000X0.300000X0.600000X-0.300000X0.600000X-0.300000X-0.600000X0.300000X-0.600000X0*%
%ADD41RoundRect,0.450001X0.499999X0.924999X-0.499999X0.924999X-0.499999X-0.924999X0.499999X-0.924999X0*%
%ADD42RoundRect,0.200000X1.750000X-2.750000X1.750000X2.750000X-1.750000X2.750000X-1.750000X-2.750000X0*%
%ADD43RoundRect,0.200000X2.750000X-2.250000X2.750000X2.250000X-2.750000X2.250000X-2.750000X-2.250000X0*%
%ADD44C,1.050000*%
%ADD45RoundRect,0.200000X0.125000X0.700000X-0.125000X0.700000X-0.125000X-0.700000X0.125000X-0.700000X0*%
%ADD46O,1.400000X2.200000*%
%ADD47O,1.400000X2.500000*%
%ADD48RoundRect,0.200000X0.750000X1.100000X-0.750000X1.100000X-0.750000X-1.100000X0.750000X-1.100000X0*%
%ADD49RoundRect,0.200000X1.900000X1.100000X-1.900000X1.100000X-1.900000X-1.100000X1.900000X-1.100000X0*%
G04 APERTURE END LIST*
%TO.C,D9*%
D10*
X109781247Y-71355000D02*
G75*
G03*
X109781247Y-71355000I-576247J0D01*
G01*
D11*
X112507000Y-72599600D02*
X110525800Y-72599600D01*
X110525800Y-70110400D01*
X112507000Y-70110400D01*
X112507000Y-72599600D01*
G36*
X112507000Y-72599600D02*
G01*
X110525800Y-72599600D01*
X110525800Y-70110400D01*
X112507000Y-70110400D01*
X112507000Y-72599600D01*
G37*
X107884200Y-72574200D02*
X105953800Y-72574200D01*
X105953800Y-70135800D01*
X107884200Y-70135800D01*
X107884200Y-72574200D01*
G36*
X107884200Y-72574200D02*
G01*
X105953800Y-72574200D01*
X105953800Y-70135800D01*
X107884200Y-70135800D01*
X107884200Y-72574200D01*
G37*
%TO.C,D6*%
D10*
X109906247Y-62430000D02*
G75*
G03*
X109906247Y-62430000I-576247J0D01*
G01*
D11*
X112632000Y-63674600D02*
X110650800Y-63674600D01*
X110650800Y-61185400D01*
X112632000Y-61185400D01*
X112632000Y-63674600D01*
G36*
X112632000Y-63674600D02*
G01*
X110650800Y-63674600D01*
X110650800Y-61185400D01*
X112632000Y-61185400D01*
X112632000Y-63674600D01*
G37*
X108009200Y-63649200D02*
X106078800Y-63649200D01*
X106078800Y-61210800D01*
X108009200Y-61210800D01*
X108009200Y-63649200D01*
G36*
X108009200Y-63649200D02*
G01*
X106078800Y-63649200D01*
X106078800Y-61210800D01*
X108009200Y-61210800D01*
X108009200Y-63649200D01*
G37*
%TO.C,D8*%
D10*
X101031247Y-71380000D02*
G75*
G03*
X101031247Y-71380000I-576247J0D01*
G01*
D11*
X103757000Y-72624600D02*
X101775800Y-72624600D01*
X101775800Y-70135400D01*
X103757000Y-70135400D01*
X103757000Y-72624600D01*
G36*
X103757000Y-72624600D02*
G01*
X101775800Y-72624600D01*
X101775800Y-70135400D01*
X103757000Y-70135400D01*
X103757000Y-72624600D01*
G37*
X99134200Y-72599200D02*
X97203800Y-72599200D01*
X97203800Y-70160800D01*
X99134200Y-70160800D01*
X99134200Y-72599200D01*
G36*
X99134200Y-72599200D02*
G01*
X97203800Y-72599200D01*
X97203800Y-70160800D01*
X99134200Y-70160800D01*
X99134200Y-72599200D01*
G37*
%TO.C,D5*%
D10*
X101381247Y-62380000D02*
G75*
G03*
X101381247Y-62380000I-576247J0D01*
G01*
D11*
X104107000Y-63624600D02*
X102125800Y-63624600D01*
X102125800Y-61135400D01*
X104107000Y-61135400D01*
X104107000Y-63624600D01*
G36*
X104107000Y-63624600D02*
G01*
X102125800Y-63624600D01*
X102125800Y-61135400D01*
X104107000Y-61135400D01*
X104107000Y-63624600D01*
G37*
X99484200Y-63599200D02*
X97553800Y-63599200D01*
X97553800Y-61160800D01*
X99484200Y-61160800D01*
X99484200Y-63599200D01*
G36*
X99484200Y-63599200D02*
G01*
X97553800Y-63599200D01*
X97553800Y-61160800D01*
X99484200Y-61160800D01*
X99484200Y-63599200D01*
G37*
%TO.C,D4*%
D10*
X92281247Y-62630000D02*
G75*
G03*
X92281247Y-62630000I-576247J0D01*
G01*
D11*
X95007000Y-63874600D02*
X93025800Y-63874600D01*
X93025800Y-61385400D01*
X95007000Y-61385400D01*
X95007000Y-63874600D01*
G36*
X95007000Y-63874600D02*
G01*
X93025800Y-63874600D01*
X93025800Y-61385400D01*
X95007000Y-61385400D01*
X95007000Y-63874600D01*
G37*
X90384200Y-63849200D02*
X88453800Y-63849200D01*
X88453800Y-61410800D01*
X90384200Y-61410800D01*
X90384200Y-63849200D01*
G36*
X90384200Y-63849200D02*
G01*
X88453800Y-63849200D01*
X88453800Y-61410800D01*
X90384200Y-61410800D01*
X90384200Y-63849200D01*
G37*
%TO.C,D10*%
D12*
X110243458Y-115710000D02*
G75*
G03*
X110243458Y-115710000I-476542J0D01*
G01*
%TO.C,D7*%
D10*
X92245247Y-71305000D02*
G75*
G03*
X92245247Y-71305000I-576247J0D01*
G01*
D11*
X94971000Y-72549600D02*
X92989800Y-72549600D01*
X92989800Y-70060400D01*
X94971000Y-70060400D01*
X94971000Y-72549600D01*
G36*
X94971000Y-72549600D02*
G01*
X92989800Y-72549600D01*
X92989800Y-70060400D01*
X94971000Y-70060400D01*
X94971000Y-72549600D01*
G37*
X90348200Y-72524200D02*
X88417800Y-72524200D01*
X88417800Y-70085800D01*
X90348200Y-70085800D01*
X90348200Y-72524200D01*
G36*
X90348200Y-72524200D02*
G01*
X88417800Y-72524200D01*
X88417800Y-70085800D01*
X90348200Y-70085800D01*
X90348200Y-72524200D01*
G37*
%TD*%
D13*
%TO.C,X1*%
X113890000Y-47830000D03*
D14*
X113890000Y-50370000D03*
D13*
X116430000Y-47830000D03*
X116430000Y-50370000D03*
D15*
X118970000Y-47830000D03*
X118970000Y-50370000D03*
%TD*%
D16*
%TO.C,D9*%
X111491000Y-71355000D03*
D17*
X106919000Y-71355000D03*
%TD*%
D16*
%TO.C,D6*%
X111616000Y-62430000D03*
D17*
X107044000Y-62430000D03*
%TD*%
D16*
%TO.C,D8*%
X102741000Y-71380000D03*
D17*
X98169000Y-71380000D03*
%TD*%
D16*
%TO.C,D5*%
X103091000Y-62380000D03*
D17*
X98519000Y-62380000D03*
%TD*%
D16*
%TO.C,D4*%
X93991000Y-62630000D03*
D17*
X89419000Y-62630000D03*
%TD*%
D18*
%TO.C,D10*%
X108010000Y-114930000D03*
X111540000Y-114930000D03*
X111570000Y-116380000D03*
X108020000Y-116370000D03*
%TD*%
D16*
%TO.C,D7*%
X93955000Y-71305000D03*
D17*
X89383000Y-71305000D03*
%TD*%
D19*
%TO.C,REF\u002A\u002A*%
X99205000Y-36705000D03*
%TD*%
D20*
%TO.C,J2*%
X84870000Y-102580000D03*
D21*
X87410000Y-102580000D03*
X89950000Y-102580000D03*
X92490000Y-102580000D03*
%TD*%
D22*
%TO.C,SW_Reset1*%
X97455000Y-44980000D03*
X94055000Y-44980000D03*
%TD*%
D23*
%TO.C,R2*%
X111880000Y-173670000D03*
X114680000Y-173670000D03*
%TD*%
D22*
%TO.C,SW5*%
X113530000Y-79300000D03*
X110130000Y-79300000D03*
%TD*%
D24*
%TO.C,D3*%
X102955000Y-51780000D03*
X102955000Y-55080000D03*
X98055000Y-55080000D03*
X98055000Y-51780000D03*
%TD*%
D25*
%TO.C,D11*%
X92520000Y-167960000D03*
X94420000Y-167960000D03*
X93470000Y-169835000D03*
%TD*%
D22*
%TO.C,SW6*%
X113550000Y-75740000D03*
X110150000Y-75740000D03*
%TD*%
D26*
%TO.C,J1*%
X75055000Y-111130000D03*
X75055000Y-107600800D03*
%TD*%
%TO.C,J4*%
X74905000Y-155230000D03*
X74905000Y-158759200D03*
%TD*%
D22*
%TO.C,SW4*%
X106860000Y-79310000D03*
X103460000Y-79310000D03*
%TD*%
D26*
%TO.C,J3*%
X125355000Y-111384200D03*
X125355000Y-107855000D03*
%TD*%
D22*
%TO.C,SW7*%
X113530000Y-82880000D03*
X110130000Y-82880000D03*
%TD*%
D23*
%TO.C,D2*%
X107930000Y-148610000D03*
X110730000Y-148610000D03*
%TD*%
D27*
%TO.C,C5*%
X83550000Y-161710000D03*
X81675000Y-161710000D03*
%TD*%
D28*
%TO.C,RN2*%
X115955000Y-68530000D03*
D29*
X115955000Y-67730000D03*
X115955000Y-66930000D03*
D28*
X115955000Y-66130000D03*
X117755000Y-66130000D03*
D29*
X117755000Y-66930000D03*
X117755000Y-67730000D03*
D28*
X117755000Y-68530000D03*
%TD*%
D30*
%TO.C,OLED1*%
X79205000Y-60485000D03*
D21*
X79205000Y-63025000D03*
X79205000Y-65565000D03*
X79205000Y-68105000D03*
%TD*%
D27*
%TO.C,C3*%
X114587500Y-158460000D03*
X112712500Y-158460000D03*
%TD*%
D31*
%TO.C,R6*%
X108780000Y-173940000D03*
X105980000Y-173940000D03*
%TD*%
D23*
%TO.C,R5*%
X90430000Y-56905000D03*
X93230000Y-56905000D03*
%TD*%
D22*
%TO.C,SW3*%
X120220000Y-79330000D03*
X116820000Y-79330000D03*
%TD*%
D28*
%TO.C,RN1*%
X112505000Y-105230000D03*
D29*
X112505000Y-104430000D03*
X112505000Y-103630000D03*
D28*
X112505000Y-102830000D03*
X114305000Y-102830000D03*
D29*
X114305000Y-103630000D03*
X114305000Y-104430000D03*
D28*
X114305000Y-105230000D03*
%TD*%
D23*
%TO.C,F1*%
X107920000Y-144690000D03*
X110720000Y-144690000D03*
%TD*%
D22*
%TO.C,SW1*%
X104605000Y-45005000D03*
X101205000Y-45005000D03*
%TD*%
D31*
%TO.C,R10*%
X84580000Y-166230000D03*
X81780000Y-166230000D03*
%TD*%
D23*
%TO.C,R8*%
X99220000Y-170040000D03*
X102020000Y-170040000D03*
%TD*%
D32*
%TO.C,U2*%
X78855000Y-81430000D03*
X80125000Y-81430000D03*
X81395000Y-81430000D03*
X82665000Y-81430000D03*
X83935000Y-81430000D03*
X85205000Y-81430000D03*
X86475000Y-81430000D03*
X87745000Y-81430000D03*
X89015000Y-81430000D03*
X90285000Y-81430000D03*
X91555000Y-81430000D03*
X92825000Y-81430000D03*
X94095000Y-81430000D03*
X95365000Y-81430000D03*
D24*
X96615000Y-83195000D03*
X96615000Y-84465000D03*
X96615000Y-85735000D03*
X96615000Y-87005000D03*
X96615000Y-88275000D03*
X96615000Y-89545000D03*
X96615000Y-90815000D03*
X96615000Y-92085000D03*
X96615000Y-93355000D03*
X96615000Y-94625000D03*
X96615000Y-95895000D03*
X96615000Y-97165000D03*
D33*
X95365000Y-98930000D03*
X94095000Y-98930000D03*
X92825000Y-98930000D03*
X91555000Y-98930000D03*
X90285000Y-98930000D03*
X89015000Y-98930000D03*
X87745000Y-98930000D03*
X86475000Y-98930000D03*
X85205000Y-98930000D03*
X83935000Y-98930000D03*
X82665000Y-98930000D03*
X81395000Y-98930000D03*
X80125000Y-98930000D03*
X78855000Y-98930000D03*
D34*
X87975000Y-87280000D03*
X86575000Y-87280000D03*
X85175000Y-87280000D03*
X87975000Y-88680000D03*
X86575000Y-88680000D03*
X85175000Y-88680000D03*
X87975000Y-90080000D03*
X86575000Y-90080000D03*
X85175000Y-90080000D03*
%TD*%
D35*
%TO.C,U1*%
X109310000Y-169460000D03*
X108040000Y-169460000D03*
X106770000Y-169460000D03*
X105500000Y-169460000D03*
X105500000Y-163960000D03*
X106770000Y-163960000D03*
X108040000Y-163960000D03*
X109310000Y-163960000D03*
%TD*%
D26*
%TO.C,J5*%
X125355000Y-158780000D03*
X125355000Y-155250800D03*
%TD*%
D27*
%TO.C,C7*%
X79907500Y-72730000D03*
X78032500Y-72730000D03*
%TD*%
D36*
%TO.C,SW2*%
X121907628Y-164744969D03*
X119993712Y-163639969D03*
D37*
X119880000Y-166056924D03*
X118380000Y-168655000D03*
D36*
X118257628Y-171066955D03*
X116343712Y-169961955D03*
D38*
X118730796Y-164527405D03*
X117230796Y-167125481D03*
X116480796Y-168424519D03*
%TD*%
D27*
%TO.C,C8*%
X88047500Y-174960000D03*
X86172500Y-174960000D03*
%TD*%
D39*
%TO.C,C2*%
X109112500Y-158500000D03*
X110987500Y-158500000D03*
%TD*%
D40*
%TO.C,U4*%
X89592500Y-164005000D03*
X88642500Y-164005000D03*
X87692500Y-164005000D03*
X87692500Y-161405000D03*
X89592500Y-161405000D03*
%TD*%
D31*
%TO.C,R12*%
X84870000Y-170680000D03*
X82070000Y-170680000D03*
%TD*%
D41*
%TO.C,C4*%
X90180000Y-155005000D03*
X86930000Y-155005000D03*
%TD*%
D42*
%TO.C,BT1*%
X99235000Y-106455000D03*
D43*
X99210000Y-119580000D03*
X99235000Y-149880000D03*
D42*
X99235000Y-163055000D03*
%TD*%
D27*
%TO.C,C6*%
X79947500Y-75990000D03*
X78072500Y-75990000D03*
%TD*%
D23*
%TO.C,D1*%
X107150000Y-176360000D03*
X109950000Y-176360000D03*
%TD*%
%TO.C,R1*%
X81820000Y-72510000D03*
X84620000Y-72510000D03*
%TD*%
D39*
%TO.C,C1*%
X82262500Y-75980000D03*
X84137500Y-75980000D03*
%TD*%
D31*
%TO.C,R3*%
X90800000Y-166420000D03*
X88000000Y-166420000D03*
%TD*%
D44*
%TO.C,J6*%
X102845000Y-175242500D03*
X97065000Y-175242500D03*
D45*
X103280000Y-174042500D03*
X102480000Y-174042500D03*
X101205000Y-174042500D03*
X100205000Y-174042500D03*
X99705000Y-174042500D03*
X101705000Y-174042500D03*
X97430000Y-174042500D03*
X96630000Y-174042500D03*
X96880000Y-174042500D03*
X97680000Y-174042500D03*
X98205000Y-174042500D03*
X99205000Y-174042500D03*
X100705000Y-174042500D03*
X98705000Y-174042500D03*
X102230000Y-174042500D03*
X103030000Y-174042500D03*
D46*
X104275000Y-178892500D03*
D47*
X104275000Y-174742500D03*
D46*
X95635000Y-178892500D03*
D47*
X95635000Y-174742500D03*
%TD*%
D48*
%TO.C,U3*%
X119960000Y-155200000D03*
X117660000Y-155200000D03*
X115360000Y-155200000D03*
D49*
X117660000Y-148900000D03*
%TD*%
D31*
%TO.C,R4*%
X83930000Y-158305000D03*
X81130000Y-158305000D03*
%TD*%
M02*
